<svg width="807" height="807" viewBox="0 0 807 807" fill="none" xmlns="http://www.w3.org/2000/svg">
<path opacity="0.497" d="M760.322 385.322L420.678 45.6777C410.915 35.9146 395.085 35.9146 385.322 45.6777L45.6776 385.322C35.9145 395.085 35.9145 410.915 45.6776 420.678L385.322 760.322C395.085 770.086 410.915 770.086 420.678 760.322L760.322 420.678C770.085 410.915 770.085 395.085 760.322 385.322Z" fill="black"/>
<g opacity="0.5">
<path d="M262.189 433.334C262.132 434.492 262.206 435.652 262.412 436.793H308.734C309.802 433.541 310.865 430.29 311.923 427.038H262.75C262.554 429.139 262.338 431.24 262.189 433.334Z" fill="#FF922D"/>
<path d="M219.657 392.051C219.784 392.533 220.058 392.962 220.441 393.281C222.082 394.578 223.758 395.848 225.419 397.125H237.39C238.552 395.024 239.687 392.909 240.835 390.802H219.353C219.454 391.214 219.549 391.633 219.657 392.051Z" fill="#FF922D"/>
<path d="M257.994 536.01C257.912 537.585 258.102 539.161 258.555 540.671H287.806C288.482 538.685 289.204 536.713 289.934 534.747C290.819 532.362 291.717 529.978 292.636 527.593H258.183C258.143 530.403 258.143 533.207 257.994 536.01Z" fill="#FF922D"/>
<path d="M343.133 390.795H271.579C270.742 392.903 269.877 395.01 269.019 397.118H344.822C344.595 396.551 344.401 395.971 344.241 395.382C343.863 393.855 343.498 392.322 343.133 390.795Z" fill="#FF922D"/>
<path d="M262.831 314.735C262.93 314.282 263.109 313.85 263.358 313.458L265.648 310.466H224.21L221.197 317.566H261.98L262.831 314.735Z" fill="#FF922D"/>
<path d="M382.213 534.923C382.315 532.815 382.322 530.694 382.335 528.579V527.593H366.892C368.518 531.948 370.128 536.307 371.722 540.671H379.917V534.72L382.213 534.923Z" fill="#FF922D"/>
<path d="M386.422 432.334C386.55 430.571 386.699 428.808 386.861 427.051H347.571L350.76 436.806H386.49C386.34 435.32 386.318 433.824 386.422 432.334Z" fill="#FF922D"/>
<path d="M244.281 360.578H217.502C216.644 362.922 215.685 365.225 214.921 367.603C214.921 367.684 214.854 367.752 214.82 367.833H247.226C247.372 367.096 247.367 366.336 247.21 365.601C247.054 364.866 246.749 364.17 246.314 363.557C245.701 362.523 245.024 361.528 244.287 360.578H244.281Z" fill="#FF922D"/>
<path d="M355.165 474.603C354.955 475.806 354.739 477.015 354.53 478.217C354.173 479.86 354.341 481.573 355.009 483.115C355.185 483.52 355.347 483.953 355.516 484.351H382.909L383.038 474.596L355.165 474.603Z" fill="#FF922D"/>
<path d="M355.719 290.368C355.942 289.848 356.171 289.355 356.462 288.781L363.318 274.594C363.769 270.352 364.282 266.114 364.859 261.881C365.398 257.664 367.544 253.818 370.851 251.146C373.857 248.768 376.883 246.417 379.896 244.046C378.957 243.114 378.099 242.276 377.336 241.405C377.174 241.222 377.336 240.628 377.518 240.27C379.532 235.703 381.558 231.143 383.598 226.59C383.781 226.171 383.956 225.752 384.193 225.192L360.792 214.248L353.665 231.272L349.45 230.542C349.625 230.049 349.76 229.63 349.922 229.225C352.89 222.127 355.856 215.036 358.819 207.952C359.077 207.33 359.215 206.666 359.225 205.993C359.265 202.219 359.265 198.445 359.225 194.671C359.201 194.007 359.04 193.356 358.752 192.759C358.144 191.455 357.353 190.246 356.779 188.922C355.243 185.578 352.927 182.651 350.024 180.39C345.62 176.534 339.981 174.384 334.128 174.33C332.52 174.438 330.906 174.438 329.298 174.33C324.221 173.996 319.133 174.794 314.402 176.667C313.93 176.842 313.489 177.093 313.098 177.41C311.558 178.674 310.112 180.059 308.511 181.234C306.299 183.055 304.486 185.313 303.188 187.868C301.032 191.548 299.966 195.765 300.114 200.028C300.023 204.666 300.979 209.266 302.911 213.485C305.377 218.673 307.417 224.064 309.667 229.367C309.815 229.718 309.93 230.076 310.106 230.542L305.89 231.319C303.506 225.638 301.162 220.004 298.75 214.268L275.335 225.212C276.065 226.874 276.761 228.488 277.47 230.089C278.963 233.467 280.436 236.845 281.983 240.155C282.19 240.466 282.267 240.846 282.196 241.212C282.125 241.579 281.913 241.903 281.604 242.114C280.794 242.844 280.098 243.702 279.422 244.431C279.112 244.303 278.997 244.289 278.97 244.235C277.295 240.736 273.701 240.675 270.681 239.608C270.502 239.59 270.322 239.608 270.151 239.663C269.98 239.718 269.823 239.807 269.688 239.925C260.23 247.311 250.795 254.718 241.383 262.144C240.938 262.568 240.656 263.135 240.585 263.745C240.027 267.983 239.516 272.228 239.052 276.479C239.047 277.043 239.246 277.59 239.613 278.019C240.491 279.093 242.031 279.958 242.267 281.12C242.504 282.282 241.41 283.599 240.916 284.842C239.21 288.954 237.498 293.064 235.782 297.171H275.923L276.599 296.306C276.666 296.61 276.72 296.867 276.781 297.171H352.827L353.273 296.117L355.719 290.368ZM347.281 214.599C347.243 214.802 347.156 214.993 347.029 215.157C346.903 215.32 346.739 215.451 346.551 215.538C343.174 216.741 339.796 217.93 336.364 219.01C334.338 219.645 334.338 219.571 334.338 221.713V246.228H324.691V219.294C320.41 218.404 316.215 217.142 312.153 215.525C311.984 215.45 311.835 215.338 311.718 215.196C311.601 215.054 311.518 214.887 311.477 214.707C311.43 211.661 311.477 208.627 311.477 205.419C314.652 206.574 317.8 207.445 320.698 208.857C324.682 210.425 328.997 210.961 333.243 210.418C334.653 210.167 336.019 209.712 337.296 209.066C340.526 207.884 343.809 206.675 347.281 205.391C347.281 208.587 347.281 211.593 347.281 214.599Z" fill="#FF922D"/>
<path d="M279.348 310.466C279.799 312.844 280.294 315.21 280.834 317.566H344.167C345.167 315.201 346.171 312.835 347.18 310.466H279.348Z" fill="#FF922D"/>
<path d="M340.059 362.395C340.269 361.78 340.505 361.179 340.735 360.578H287.367C287.272 360.97 287.171 361.361 287.049 361.753C286.414 363.78 285.813 365.806 285.198 367.833H338.438V365.692C338.438 365.692 340.005 362.523 340.059 362.395Z" fill="#FF922D"/>
<path d="M304.377 474.603H258.866C258.821 477.855 258.778 481.106 258.737 484.358H304.093C305.175 481.425 305.314 478.227 304.492 475.211C304.445 475.008 304.418 474.833 304.377 474.603Z" fill="#FF922D"/>
<path d="M340.944 333.738H286.448C287.186 336.094 287.639 338.53 287.799 340.994H340.397C340.519 339.318 340.636 337.641 340.748 335.961C340.83 335.225 340.884 334.481 340.944 333.738Z" fill="#FF922D"/>
<path d="M216.286 340.994H249.78L253.759 333.738H216.793C216.631 336.157 216.455 338.575 216.286 340.994Z" fill="#FF922D"/>
</g>
<path d="M549.296 594.796H530.982C529.009 593.742 527.071 592.641 525.058 591.668C523.912 591.134 522.965 590.249 522.355 589.142C519.14 583.568 515.843 578.043 512.587 572.496C511.467 571.125 510.614 569.555 510.074 567.869C510.192 566.065 510.631 564.296 511.371 562.647C511.52 562.12 511.628 561.579 511.824 561.066C513.058 558.268 513.278 555.126 512.445 552.183C512.324 551.689 512.232 551.188 512.168 550.683C511.831 547.874 511.276 545.096 510.506 542.374C505.946 529.775 501.177 517.257 496.482 504.712C495.259 501.436 494.043 498.159 492.807 494.842L496.86 492.282C495.61 489.161 494.476 486.108 493.165 483.135C492.498 481.588 492.335 479.869 492.699 478.224C494.337 470.952 495.068 463.504 494.874 456.053C494.855 455.381 494.755 454.714 494.577 454.066C488.907 436.673 483.223 419.285 477.526 401.901C477.391 401.496 477.202 401.104 476.992 400.584C475.993 401.516 475.087 402.286 474.29 403.144C474.012 403.455 473.665 403.698 473.277 403.852C472.889 404.007 472.471 404.07 472.054 404.036C469.307 403.964 466.558 403.964 463.806 404.036C463.39 404.07 462.971 404.007 462.583 403.852C462.195 403.698 461.848 403.455 461.57 403.144C460.732 402.266 459.813 401.482 458.868 400.584C458.705 400.975 458.591 401.192 458.51 401.421C452.731 419.048 446.967 436.678 441.216 454.31C441.082 454.749 441.005 455.202 440.986 455.661C440.663 462.222 441.235 468.797 442.688 475.204C443.692 478.713 443.32 482.472 441.648 485.716C440.768 487.544 440.003 489.426 439.358 491.35C439.243 491.654 439.155 491.965 439.047 492.296L443.013 494.836C442.877 495.234 442.796 495.511 442.695 495.795L428.137 534.747C426.935 537.989 425.685 541.232 424.759 544.562C423.996 547.359 423.773 550.305 423.199 553.169C422.712 555.221 422.817 557.369 423.503 559.364C424.361 561.742 424.921 564.228 425.671 566.646C425.801 567.015 425.843 567.409 425.795 567.797C425.747 568.185 425.61 568.556 425.394 568.882C421.26 575.827 417.18 582.805 413.039 589.75C412.633 590.376 412.078 590.891 411.424 591.249C409.262 592.479 407.046 593.614 404.851 594.783H386.503C385.26 591.324 384.044 587.851 382.754 584.413C382.616 584.067 382.561 583.693 382.595 583.322C382.629 582.951 382.751 582.593 382.95 582.278C386.328 575.975 389.638 569.639 393.015 563.363C393.63 562.26 393.938 561.012 393.907 559.749C393.846 556.54 393.907 553.318 393.907 550.014L396.643 550.257C397.069 548.623 397.569 547.008 397.873 545.36C398.037 544.601 397.962 543.81 397.656 543.097C396.514 540.922 395.995 538.474 396.157 536.024C396.332 532.599 396.292 529.16 396.339 525.728C396.618 504.791 396.898 483.849 397.177 462.903C397.177 462.463 397.217 462.024 397.244 461.504L402.5 462.963C403.013 461.362 403.493 459.89 403.946 458.39C404 458.145 404 457.892 403.946 457.647C403 451.716 402.02 445.791 401.102 439.853C400.611 437.71 400.359 435.519 400.352 433.32C400.865 426.227 401.703 419.134 402.311 412.075C402.56 409.301 403.244 406.583 404.338 404.022C406.932 397.78 409.424 391.491 411.958 385.215C412.586 383.668 413.221 382.121 413.984 380.344L417.767 386.336C417.943 385.85 418.044 385.586 418.125 385.309C420.49 377.46 422.8 369.596 425.239 361.767C425.961 359.512 426.281 357.147 426.185 354.782C426.05 351.525 425.847 348.249 426.036 345C426.332 339.926 425.393 334.857 423.3 330.225C421.718 326.809 420.439 323.26 419.477 319.619C417.997 313.539 416.984 307.358 415.761 301.224C415.45 299.65 415.086 298.09 414.714 296.279C410.195 302.17 405.851 307.804 401.541 313.458C401.293 313.851 401.115 314.283 401.014 314.735C399.361 320.113 397.722 325.49 396.096 330.867C395.954 331.327 395.772 331.772 395.589 332.266L393.353 331.077L378.897 357.457C379.525 357.97 380.018 358.45 380.572 358.808C382.195 360.077 383.515 361.693 384.436 363.537C385.172 364.496 385.558 365.678 385.531 366.886C385.504 368.095 385.065 369.258 384.287 370.184C383.401 371.579 382.611 373.032 381.923 374.534L376.87 369.745C376.593 373.636 376.512 377.25 376.005 380.797C375.779 381.947 375.869 383.137 376.267 384.24C376.664 385.343 377.353 386.318 378.262 387.059C378.667 387.424 378.937 387.944 379.342 388.309C379.903 388.809 379.815 389.241 379.478 389.849C377.958 392.585 376.525 395.375 374.985 398.098C374.833 398.332 374.634 398.534 374.402 398.691C374.17 398.848 373.909 398.956 373.634 399.009C371.607 399.286 369.581 399.489 367.554 399.645C367.103 399.655 366.66 399.515 366.298 399.246C363.69 397.282 361.107 395.29 358.549 393.267C358.168 392.948 357.894 392.519 357.765 392.038C356.624 387.404 355.55 382.749 354.388 378.108C353.712 375.46 353.037 372.825 352.361 370.184V368.914C352.605 368.479 352.817 368.028 352.996 367.563C354.795 363.189 356.271 358.689 357.414 354.099C357.811 352.977 357.869 351.763 357.582 350.608C357.295 349.452 356.675 348.407 355.8 347.6C355.523 347.364 355.347 346.979 355.07 346.722C354.703 346.348 354.431 345.892 354.275 345.391C354.12 344.891 354.087 344.36 354.178 343.844C354.557 338.859 354.854 333.867 355.232 328.888C355.294 327.669 355.547 326.468 355.982 325.328C360.116 315.465 364.325 305.629 368.52 295.786C368.696 295.381 368.905 294.989 369.196 294.435L372.459 300.353C372.722 299.758 372.877 299.421 373.019 299.076L378.964 284.788C379.484 283.539 380.565 282.167 380.315 281.066C380.065 279.965 378.532 279.039 377.66 277.965C377.302 277.533 377.111 276.986 377.12 276.425C377.57 272.178 378.081 267.933 378.653 263.691C378.724 263.081 379.006 262.514 379.45 262.09C388.859 254.654 398.291 247.248 407.749 239.871C407.884 239.753 408.042 239.664 408.212 239.609C408.383 239.554 408.564 239.536 408.742 239.554C411.769 240.621 415.362 240.675 417.031 244.181C417.031 244.235 417.173 244.249 417.484 244.377C418.159 243.648 418.835 242.79 419.666 242.06C419.974 241.849 420.187 241.525 420.257 241.158C420.328 240.791 420.252 240.412 420.044 240.101C418.497 236.764 417.024 233.393 415.531 230.035C414.815 228.434 414.133 226.82 413.397 225.158L436.811 214.214L443.945 231.265L448.16 230.488C447.985 230.022 447.87 229.65 447.721 229.313C445.499 224.003 443.458 218.619 440.966 213.43C439.039 209.211 438.09 204.611 438.189 199.974C438.037 195.712 439.098 191.495 441.249 187.814C442.549 185.26 444.361 183.001 446.573 181.18C448.174 179.998 449.619 178.613 451.16 177.356C451.551 177.039 451.991 176.788 452.463 176.613C457.225 174.744 462.344 173.961 467.447 174.323C469.055 174.431 470.669 174.431 472.277 174.323C478.135 174.368 483.783 176.514 488.193 180.369C491.097 182.633 493.414 185.562 494.948 188.908C495.509 190.259 496.3 191.441 496.921 192.745C497.208 193.343 497.369 193.994 497.394 194.657C497.439 198.431 497.439 202.205 497.394 205.979C497.382 206.652 497.244 207.316 496.989 207.938C494.034 215.05 491.064 222.147 488.078 229.231C487.909 229.637 487.781 230.056 487.605 230.549L491.821 231.278L498.948 214.255L522.369 225.205C522.139 225.766 521.964 226.178 521.774 226.604C519.748 231.161 517.721 235.726 515.694 240.297C515.539 240.648 515.343 241.243 515.505 241.418C516.438 242.486 517.464 243.445 518.68 244.668C519.815 241.533 522.355 240.837 524.943 240.216C525.437 240.101 525.921 239.942 526.388 239.743C526.709 239.595 527.068 239.552 527.414 239.618C527.761 239.685 528.078 239.858 528.32 240.114C537.542 247.383 546.79 254.605 556.018 261.887C556.601 262.393 556.99 263.085 557.119 263.846C557.632 267.366 557.889 270.919 558.47 274.419C558.753 275.338 558.733 276.324 558.412 277.23C558.091 278.137 557.486 278.916 556.687 279.451C556.41 279.641 556.22 279.951 555.957 280.127C555.818 280.216 555.698 280.332 555.604 280.468C555.51 280.603 555.444 280.756 555.409 280.918C555.375 281.079 555.373 281.246 555.403 281.408C555.433 281.57 555.495 281.725 555.585 281.863C558.044 287.666 560.429 293.489 562.854 299.306C562.976 299.583 563.158 299.866 563.381 300.272L566.604 294.401C566.82 294.827 566.921 295.009 567.002 295.198C571.371 305.471 575.735 315.746 580.094 326.024C580.252 326.411 580.345 326.822 580.371 327.24C580.709 331.968 580.79 336.744 581.439 341.426C581.702 342.804 581.604 344.227 581.152 345.556C580.701 346.884 579.913 348.073 578.865 349.006C578.464 349.346 578.172 349.796 578.023 350.299C577.874 350.803 577.876 351.34 578.027 351.843C578.331 353.153 578.304 354.545 578.703 355.842C579.628 358.869 580.729 361.848 581.749 364.834C582.236 366.185 582.837 367.536 583.391 368.887V370.157C583.278 370.373 583.185 370.599 583.114 370.833C581.439 377.822 579.747 384.803 578.041 391.774C577.899 392.375 577.576 392.918 577.115 393.328C574.602 395.355 572.042 397.294 569.468 399.232C569.105 399.502 568.663 399.642 568.211 399.631C566.144 399.469 564.077 399.259 562.023 398.955C561.789 398.91 561.567 398.818 561.37 398.685C561.172 398.551 561.004 398.379 560.875 398.179C559.301 395.382 557.821 392.518 556.268 389.7C556.114 389.482 556.048 389.214 556.085 388.949C556.121 388.685 556.256 388.444 556.464 388.275C557.484 387.14 558.49 385.971 559.409 384.776C559.723 384.394 559.901 383.919 559.916 383.425C559.808 381.06 559.618 378.696 559.443 376.325C559.287 374.203 559.105 372.082 558.916 369.725L553.883 374.494C552.532 371.981 551.262 369.596 550.019 367.205C549.964 367.077 549.936 366.939 549.936 366.799C549.936 366.66 549.964 366.522 550.019 366.394C551.071 363.116 553.13 360.254 555.903 358.213C556.25 357.965 556.574 357.684 556.869 357.376L542.426 331.029L540.156 332.198C540.041 331.881 539.94 331.637 539.879 331.421C538.204 325.828 536.501 320.241 534.806 314.681C534.607 314.04 534.301 313.437 533.9 312.898C531.502 309.723 529.064 306.568 526.632 303.44L521.153 296.327C521.036 296.616 520.935 296.911 520.849 297.212C519.971 301.609 519.153 305.994 518.221 310.398C517.383 314.357 516.667 318.37 515.451 322.227C513.931 327.057 511.965 331.752 510.209 336.508C510.011 337.015 509.896 337.551 509.871 338.096C509.768 344.581 509.687 351.066 509.628 357.551C509.625 358.139 509.709 358.724 509.878 359.287C512.423 367.844 514.981 376.385 517.552 384.911C517.674 385.323 517.863 385.708 518.072 386.262L521.781 380.391C522.031 380.952 522.207 381.317 522.362 381.695C525.74 390.004 529.118 398.3 532.428 406.63C532.86 407.817 533.131 409.058 533.232 410.318C533.833 415.999 534.373 421.694 534.907 427.369C535.341 429.871 535.509 432.411 535.407 434.949C534.569 441.576 533.482 448.176 532.232 454.735C531.745 457.52 532.142 460.388 533.367 462.936L538.548 461.497C538.548 461.869 538.602 462.119 538.609 462.376C538.942 486.956 539.287 511.535 539.643 536.111C539.774 538.475 539.263 540.831 538.163 542.928C537.867 543.335 537.702 543.823 537.69 544.326C538.109 546.299 538.649 548.237 539.149 550.197L541.662 549.974C541.743 553.439 541.784 556.824 541.939 560.201C541.975 561.118 542.205 562.016 542.615 562.836C545.993 569.369 549.479 575.861 552.89 582.386C553.162 582.878 553.244 583.453 553.12 584.001C551.87 587.615 550.573 591.216 549.296 594.796ZM485.45 205.385C481.978 206.661 478.695 207.877 475.412 209.066C474.135 209.714 472.769 210.17 471.358 210.418C467.117 210.96 462.806 210.423 458.827 208.857C455.922 207.459 452.747 206.58 449.606 205.418C449.606 208.614 449.606 211.661 449.606 214.707C449.644 214.891 449.725 215.062 449.842 215.208C449.96 215.354 450.11 215.469 450.281 215.545C454.348 217.163 458.548 218.424 462.833 219.314V246.248H472.473V221.706C472.473 219.551 472.473 219.632 474.5 219.004C477.918 217.916 481.309 216.727 484.687 215.531C484.872 215.441 485.034 215.309 485.161 215.146C485.287 214.984 485.375 214.794 485.417 214.592C485.477 211.593 485.45 208.587 485.45 205.385Z" fill="#FF922D"/>
<g filter="url(#filter0_d_1_2)">
<path d="M760.322 385.322L420.678 45.6777C410.915 35.9146 395.085 35.9146 385.322 45.6777L45.6776 385.322C35.9145 395.085 35.9145 410.915 45.6776 420.678L385.322 760.322C395.085 770.086 410.915 770.086 420.678 760.322L760.322 420.678C770.085 410.915 770.085 395.085 760.322 385.322Z" stroke="#FF7A00" stroke-width="25" shape-rendering="crispEdges"/>
</g>
<defs>
<filter id="filter0_d_1_2" x="0.855286" y="0.855347" width="804.289" height="804.289" filterUnits="userSpaceOnUse" color-interpolation-filters="sRGB">
<feFlood flood-opacity="0" result="BackgroundImageFix"/>
<feColorMatrix in="SourceAlpha" type="matrix" values="0 0 0 0 0 0 0 0 0 0 0 0 0 0 0 0 0 0 127 0" result="hardAlpha"/>
<feOffset/>
<feGaussianBlur stdDeviation="12.5"/>
<feComposite in2="hardAlpha" operator="out"/>
<feColorMatrix type="matrix" values="0 0 0 0 1 0 0 0 0 0.48 0 0 0 0 0 0 0 0 1 0"/>
<feBlend mode="normal" in2="BackgroundImageFix" result="effect1_dropShadow_1_2"/>
<feBlend mode="normal" in="SourceGraphic" in2="effect1_dropShadow_1_2" result="shape"/>
</filter>
</defs>
</svg>
