<svg width="112" height="112" viewBox="0 0 112 112" fill="none" xmlns="http://www.w3.org/2000/svg">
<path opacity="0.498" d="M103.951 48.4396L62.5821 7.07107C58.6768 3.16583 52.3452 3.16583 48.4399 7.07108L7.07138 48.4396C3.16613 52.3449 3.16614 58.6765 7.07139 62.5818L48.4399 103.95C52.3452 107.856 58.6769 107.856 62.5821 103.95L103.951 62.5818C107.856 58.6765 107.856 52.3449 103.951 48.4396Z" fill="black"/>
<g filter="url(#filter0_d_117_413)">
<path d="M61.5214 8.13173L102.89 49.5003C106.209 52.8198 106.209 58.2017 102.89 61.5211L61.5214 102.89C58.202 106.209 52.8201 106.209 49.5006 102.89L8.13205 61.5211C4.81259 58.2017 4.81258 52.8198 8.13204 49.5003L49.5006 8.13174C52.8201 4.81228 58.202 4.81227 61.5214 8.13173Z" stroke="#00D1FF" stroke-width="3"/>
</g>
<path d="M54.0226 83.2892C54.1228 83.2709 54.2034 83.2044 54.2651 83.146C54.2886 83.1238 54.3123 83.0997 54.3346 83.0772C54.3423 83.0693 54.3499 83.0616 54.3572 83.0543C54.3867 83.0246 54.4138 82.9984 54.4405 82.9767L54.5033 82.9256L54.4664 82.8535L54.4269 82.7759L54.387 82.6975L54.3521 82.6295L54.2774 82.6452C54.0753 82.6878 53.8769 82.7363 53.6803 82.7845C53.2582 82.8879 52.8444 82.9892 52.4206 83.024L52.4205 83.024C49.566 83.2604 46.7468 83.3603 43.9824 82.4061L43.9823 82.4061C41.507 81.5519 39.3104 80.2734 37.4445 78.4648L37.4445 78.4648C35.1821 76.2726 33.735 73.569 32.7424 70.5974C32.7085 70.4958 32.6529 70.4047 32.5969 70.3225C32.5742 70.2892 32.5524 70.2585 32.5313 70.2288C32.4971 70.1809 32.4648 70.1356 32.4341 70.0863L32.3824 70.0033L32.2982 70.0533L32.2224 70.0983L32.1466 70.1433L32.0864 70.1791L32.0995 70.2479C32.3736 71.6935 32.9154 73.0445 33.5412 74.3622L33.5412 74.3622C35.0015 77.4365 37.2946 79.7591 40.1806 81.4737L40.2296 81.3913L40.1806 81.4737C42.3681 82.7732 44.7278 83.6987 47.3282 83.8657L47.3288 83.8657C47.3726 83.8683 47.4236 83.8923 47.4915 83.9382C47.5152 83.9542 47.5382 83.9709 47.5627 83.9886C47.5728 83.9959 47.583 84.0033 47.5937 84.0109C47.629 84.0363 47.6673 84.0628 47.7072 84.0856L47.7302 84.0988H47.7568H47.7601C48.4482 84.0988 49.1351 84.0988 49.8232 84.1L49.8364 84.1L49.8492 84.0966C49.9495 84.0697 50.0473 84.0413 50.144 84.0132C50.3539 83.9521 50.5582 83.8927 50.7696 83.8547C51.2412 83.77 51.7163 83.6897 52.192 83.6093C52.8032 83.506 53.4155 83.4025 54.0226 83.2892ZM54.0226 83.2892C54.0227 83.2892 54.0228 83.2892 54.0228 83.2892L54.0045 83.1909L54.0224 83.2893C54.0225 83.2892 54.0226 83.2892 54.0226 83.2892Z" fill="#00D1FF" stroke="#00D1FF" stroke-width="0.2"/>
<path d="M57.568 43.8888L57.568 43.8888C57.4136 43.8653 57.2557 43.8293 57.1022 43.7943C57.0287 43.7776 56.9563 43.7611 56.8857 43.7463C56.6627 43.6995 56.4496 43.6674 56.2434 43.6831C55.0512 43.7742 53.8598 43.9059 52.6835 44.1034C51.233 44.3472 49.9481 45.0249 48.752 45.8797C48.7417 45.8871 48.7252 45.9052 48.7074 45.9384C48.6902 45.9703 48.6751 46.01 48.6642 46.0525C48.6534 46.0949 48.6474 46.1374 48.6468 46.1745C48.6463 46.213 48.6517 46.2388 48.6577 46.2523L48.6578 46.2525C48.6638 46.2661 48.6697 46.2794 48.6755 46.2926C48.7669 46.4995 48.8392 46.663 48.8851 46.7984C48.9342 46.9434 48.9575 47.0684 48.937 47.192C48.9163 47.3161 48.8536 47.425 48.7586 47.5425C48.6646 47.6589 48.5311 47.7929 48.3593 47.9649M57.568 43.8888L44.3527 51.611C44.6535 50.8489 45.0475 50.1232 45.4411 49.3979C45.5826 49.1373 45.724 48.8768 45.8611 48.6146L45.9497 48.661C45.9497 48.661 45.9497 48.661 45.9497 48.661C46.0322 48.5034 46.1278 48.4435 46.2175 48.4332C46.3125 48.4224 46.4311 48.4632 46.5628 48.5708L46.5629 48.5708C46.8061 48.7694 47.048 48.8796 47.2884 48.8545C47.531 48.8293 47.7416 48.6698 47.9291 48.4004L47.9293 48.4002C47.9821 48.3238 48.0493 48.2545 48.1249 48.1837C48.1499 48.1602 48.1767 48.1359 48.204 48.1109C48.2559 48.0637 48.3101 48.0144 48.3593 47.9649M57.568 43.8888C59.3833 44.1643 61.0131 44.8723 62.5224 45.9477M57.568 43.8888L62.5224 45.9477M48.3593 47.9649C48.3594 47.9649 48.3594 47.9649 48.3594 47.9648L48.2885 47.8943L48.3592 47.965C48.3593 47.965 48.3593 47.9649 48.3593 47.9649ZM62.6822 63.0049L62.6823 63.0048C62.7429 62.9443 62.8036 62.8835 62.8644 62.8225C62.9251 62.7616 62.9859 62.7006 63.0468 62.6399L63.0632 62.6235C63.2312 62.4558 63.3641 62.3231 63.479 62.2285C63.598 62.1304 63.7085 62.0636 63.8324 62.0425C63.9573 62.0211 64.0805 62.0488 64.2193 62.1065C64.3567 62.1636 64.5212 62.2554 64.7304 62.374L64.7306 62.374C64.8643 62.4501 64.9407 62.4627 64.9886 62.4512C65.0323 62.4407 65.0824 62.4022 65.142 62.2867L65.142 62.2866C65.2961 61.9883 65.4542 61.6932 65.6118 61.3989C65.9916 60.6898 66.369 59.9853 66.6821 59.2513C67.2742 57.8627 67.2972 56.3555 67.2563 54.8563C67.23 53.8972 67.1436 52.9062 66.8372 52.0232L66.8372 52.0231C66.646 51.4713 66.3892 50.9408 66.1131 50.4121C66.0168 50.2279 65.9179 50.0432 65.8187 49.858C65.6346 49.5143 65.4493 49.1686 65.2782 48.8195M62.6822 63.0049L64.6802 48.6504M62.6822 63.0049L62.6661 63.021C62.5144 63.1727 62.3936 63.2935 62.3073 63.398C62.2176 63.5066 62.1555 63.6089 62.1364 63.7239C62.1172 63.8403 62.1447 63.954 62.1999 64.0799C62.2546 64.2045 62.3418 64.3527 62.4543 64.5401M62.6822 63.0049L62.4543 64.5401M65.2782 48.8195L65.368 48.7755L65.2782 48.8196C65.2782 48.8196 65.2782 48.8195 65.2782 48.8195ZM65.2782 48.8195C65.1887 48.6375 65.1045 48.5494 65.0247 48.5233C64.9525 48.4996 64.8466 48.5162 64.6802 48.6504M64.6802 48.6504L64.6177 48.5731L64.6802 48.6504C64.6802 48.6504 64.6802 48.6504 64.6802 48.6504ZM62.5224 45.9477C62.4079 46.2295 62.3191 46.4514 62.2641 46.6357C62.2041 46.8366 62.1807 47.004 62.2126 47.1661C62.2446 47.3284 62.3297 47.4725 62.4611 47.632C62.5908 47.7895 62.7733 47.9707 63.0092 48.2049L63.0131 48.2088L63.0133 48.209L62.5224 45.9477ZM62.4543 64.5401C62.5451 64.6917 62.556 64.7789 62.5388 64.8393M62.4543 64.5401L62.5388 64.8393M62.5388 64.8393C62.5204 64.9035 62.4619 64.9695 62.3331 65.058L62.5388 64.8393ZM40.643 56.3054L40.7318 56.3007L40.643 56.3054C41.0463 63.8968 47.0798 69.8915 54.6 70.3387C63.8878 70.8909 70.621 63.4722 70.4743 55.6087C70.6513 46.9841 63.8409 40.9703 56.6497 40.5304C47.4778 39.9686 40.1587 47.1803 40.643 56.3054Z" fill="#00D1FF" stroke="#00D1FF" stroke-width="0.2"/>
<path d="M73.9195 69.6387L73.6733 69.5666C73.3324 69.4666 73.0089 69.37 72.6972 69.2768C71.9617 69.057 71.292 68.8569 70.6149 68.6802L70.6401 68.5834L70.6149 68.6802C69.9996 68.5195 69.3668 68.417 68.7321 68.3148L68.732 68.3148C68.549 68.285 68.404 68.318 68.3019 68.3918C68.2003 68.4652 68.1279 68.5883 68.1076 68.7653L68.1076 68.7655C68.0356 69.3832 67.9833 70.0056 67.9988 70.6217C68.0178 71.3617 68.092 72.1019 68.1665 72.8446C68.1718 72.8974 68.1771 72.9503 68.1824 73.0032C68.2116 73.294 68.2598 73.5812 68.318 73.9272C68.3478 74.1042 68.3801 74.2967 68.4138 74.5128L68.4441 74.7069L68.2693 74.6172C68.0807 74.5203 67.9081 74.4307 67.746 74.3465C67.404 74.1689 67.1089 74.0157 66.8087 73.8703L66.8505 73.784L66.8087 73.8703C65.7011 73.3338 64.5913 72.801 63.4768 72.279C63.2983 72.1959 63.1007 72.1309 62.9288 72.1371C62.9288 72.1371 62.9287 72.1372 62.9286 72.1372L62.925 72.0372C62.4902 72.0541 62.2908 71.8637 62.2242 71.3685L73.9195 69.6387ZM73.9195 69.6387L73.7871 69.419M73.9195 69.6387L73.7871 69.419M68.0083 68.7539C68.054 68.3553 68.3427 68.1501 68.748 68.2161L68.0083 68.7539ZM68.0083 68.7539C67.9361 69.3734 67.8832 70.0012 67.8988 70.6243L68.0083 68.7539ZM73.7871 69.419C73.7232 69.313 73.6678 69.2223 73.6187 69.1418C73.5101 68.9639 73.4322 68.8364 73.3612 68.7051L73.3607 68.7042C73.1857 68.3891 73.0096 68.075 72.8337 67.7613C72.3503 66.8994 71.8681 66.0394 71.4146 65.1641C71.2616 64.8683 71.2402 64.7075 71.2887 64.6032C71.3128 64.5512 71.3598 64.5009 71.4438 64.4506C71.5284 64.4 71.6446 64.353 71.798 64.3056L71.7982 64.3055C71.9775 64.2496 72.1808 64.2477 72.3921 64.2465C73.0807 64.2437 73.7683 64.2441 74.4562 64.2445C74.9726 64.2448 75.4891 64.2451 76.0063 64.2441C76.1239 64.2441 76.2439 64.2357 76.4068 64.2243C76.4942 64.2182 76.5938 64.2113 76.7121 64.2043L76.9434 64.1906L76.7748 64.0317C76.6455 63.9098 76.5312 63.8042 76.4273 63.7083C76.2314 63.5274 76.0728 63.3809 75.9216 63.2246C75.7029 62.9981 75.4827 62.7737 75.2629 62.5497C74.641 61.9159 74.0219 61.285 73.4452 60.6165L73.4451 60.6165C73.2173 60.3529 73.1498 60.133 73.1892 59.9496C73.2292 59.7634 73.3867 59.5795 73.6919 59.4063L73.6919 59.4063C74.5001 58.9467 75.3316 58.5252 76.1661 58.1099M73.7871 69.419L59.7785 33.4725M74.1292 63.087C74.1163 63.0537 74.1039 63.0202 74.0919 62.9875C74.0795 62.9538 74.0674 62.921 74.0556 62.8906C74.0196 62.7982 73.9821 62.7162 73.932 62.6468L73.9319 62.6468C73.7386 62.3792 73.5378 62.1169 73.3359 61.8532C73.3002 61.8066 73.2644 61.7598 73.2287 61.713C72.9913 61.4025 72.7545 61.0889 72.5317 60.765C72.2948 60.4209 72.1808 60.0954 72.2225 59.7823C72.2644 59.468 72.4599 59.1899 72.7897 58.9342L72.7898 58.9341C73.6358 58.2789 74.5224 57.6746 75.4063 57.0757C75.6085 56.9382 75.6819 56.839 75.69 56.7586C75.6977 56.6818 75.6492 56.5737 75.4578 56.4052C74.7392 55.7735 74.0426 55.118 73.3597 54.4496L73.3596 54.4495C72.898 53.9967 72.6287 53.6297 72.5662 53.2174C72.5037 52.8055 72.6513 52.3722 72.9551 51.7972L72.9551 51.7971C73.4369 50.8884 73.9366 49.9883 74.4483 49.0967C74.5643 48.8945 74.5953 48.7703 74.5704 48.6843C74.5471 48.6039 74.4614 48.5171 74.2204 48.4288L74.2202 48.4288C73.2085 48.0561 72.2002 47.659 71.219 47.2073L71.2189 47.2072C70.5557 46.9012 70.2007 46.5962 70.0574 46.1796C69.9175 45.7731 69.989 45.2808 70.1076 44.6338L70.1076 44.6338C70.1511 44.3962 70.2139 44.1627 70.2767 43.9335C70.2808 43.9184 70.2849 43.9033 70.2891 43.8882C70.348 43.6734 70.4059 43.4623 70.4496 43.2489L70.4496 43.2487C70.5122 42.9444 70.5558 42.6383 70.6039 42.3001C70.6202 42.1859 70.637 42.0681 70.6552 41.9455C70.4775 41.9565 70.319 41.9662 70.1597 41.975M74.1292 63.087L66.7994 42.0504L66.8006 42.1504C67.5974 42.141 68.395 42.0884 69.1897 42.036C69.5136 42.0147 69.837 41.9933 70.1597 41.975M74.1292 63.087C74.0986 63.1012 74.0682 63.1159 74.0386 63.1302C74.0052 63.1463 73.9729 63.1619 73.943 63.1756C73.8542 63.2162 73.7726 63.2471 73.6919 63.2588C73.3158 63.3132 72.9382 63.3574 72.5591 63.4019L72.5587 63.4019C72.1802 63.4463 71.8 63.4909 71.4209 63.5457C71.0139 63.6047 70.7115 63.7198 70.547 63.9422C70.3793 64.1687 70.3771 64.4744 70.4876 64.8539C70.642 65.386 70.8405 65.9099 71.0373 66.4294C71.1495 66.7254 71.2611 67.02 71.3637 67.3139L71.3638 67.3141C71.3921 67.3947 71.4076 67.4824 71.4198 67.5778C71.4239 67.6097 71.4277 67.6436 71.4316 67.6784C71.4348 67.707 71.4381 67.7363 71.4417 67.7655L74.1292 63.087ZM70.1597 41.975L70.1542 41.8751L70.1599 41.975C70.1598 41.975 70.1598 41.975 70.1597 41.975ZM66.1198 37.8387L66.219 37.8451L66.1198 37.8387C66.1198 37.8387 66.1198 37.8387 66.1198 37.8387ZM66.1198 37.8387C66.1299 37.6818 66.1277 37.5267 66.125 37.3339C66.1243 37.2828 66.1235 37.2291 66.123 37.172M66.1198 37.8387L66.123 37.172M62.8247 39.3404L62.8246 39.3404C62.5142 39.5254 62.2329 39.6 61.976 39.5285C61.7196 39.4571 61.5162 39.248 61.3423 38.9344L61.3423 38.9344C60.9888 38.2956 60.6815 37.6287 60.3762 36.9658C60.2682 36.7315 60.1605 36.4978 60.0511 36.266L60.051 36.2659C59.9597 36.0718 59.8928 35.9331 59.8336 35.839C59.7722 35.7414 59.7343 35.7178 59.7121 35.7128C59.6913 35.7082 59.6501 35.7126 59.5587 35.7755C59.4703 35.8364 59.3583 35.9352 59.2029 36.0754L59.1359 36.0012L59.2029 36.0754C58.7642 36.4714 58.3244 36.866 57.8846 37.2607C57.619 37.499 57.3535 37.7373 57.0882 37.9759L57.0382 38.0208L56.9778 37.9916C56.941 37.9738 56.9039 37.9563 56.8662 37.9386L56.866 37.9385C56.8286 37.9209 56.7906 37.903 56.7529 37.8848L56.6799 37.8495L56.6993 37.7708C56.72 37.6866 56.7322 37.6017 56.7451 37.5116C56.7531 37.4558 56.7614 37.3979 56.7722 37.337C56.7985 37.1886 56.8393 37.0306 56.937 36.9078L62.8247 39.3404ZM62.8247 39.3404C63.5316 38.9184 64.2143 38.4528 64.894 37.9892C65.1895 37.7876 65.4845 37.5864 65.7806 37.3894C65.8727 37.3284 65.9656 37.2703 66.0764 37.201C66.0916 37.1916 66.1071 37.1819 66.123 37.172M62.8247 39.3404L66.123 37.172M59.7785 33.4725L59.7785 33.4724C59.8505 33.3864 59.9279 33.3021 60.019 33.2029C60.0756 33.1413 60.1375 33.0739 60.2066 32.9969L60.33 32.8593L60.3777 33.0378C60.4496 33.3071 60.5174 33.5655 60.5833 33.8163C60.7248 34.3556 60.8572 34.8598 61.0014 35.3613L61.0015 35.3613C61.0457 35.5153 61.0894 35.6693 61.133 35.8231C61.3319 36.5248 61.5298 37.223 61.781 37.9017L61.781 37.9017C61.9419 38.3365 62.1239 38.5425 62.3178 38.589C62.5118 38.6355 62.773 38.5359 63.129 38.2075C64.2611 37.1615 65.372 36.0851 66.3837 34.9293C67.0818 34.1319 67.7161 33.2819 68.3532 32.4282C68.6403 32.0434 68.9279 31.658 69.2222 31.2763L69.2222 31.2762C69.3393 31.1245 69.4758 30.9709 69.7212 30.865L69.8937 30.7905L69.8591 30.9752C69.853 31.0082 69.849 31.0391 69.8447 31.073C69.8422 31.0929 69.8395 31.1139 69.8362 31.1369C69.8279 31.1943 69.816 31.2579 69.791 31.3197L69.7909 31.3199C69.5773 31.8431 69.3575 32.3627 69.138 32.8817C68.6618 34.0074 68.187 35.1298 67.7802 36.2783C67.3156 37.5915 66.9932 38.9607 66.6779 40.3286C66.5808 40.7504 66.6824 41.0382 66.8918 41.1967C67.1076 41.36 67.4691 41.4108 67.9414 41.284C69.3718 40.8998 70.8033 40.518 72.2361 40.1398L72.2364 40.1397C72.2963 40.1241 72.3565 40.1276 72.4141 40.133C72.432 40.1347 72.4499 40.1367 72.4686 40.1387C72.5138 40.1436 72.563 40.1489 72.6242 40.1522L72.7627 40.1597L72.7119 40.2887C72.6201 40.5219 72.5297 40.7492 72.4408 40.9727C72.2426 41.4709 72.0521 41.9501 71.8704 42.4326C71.8242 42.5557 71.7778 42.6787 71.7315 42.8015C71.4766 43.4769 71.2227 44.1495 71.0099 44.8352L71.0099 44.8353C70.8684 45.2894 70.8646 45.6192 70.9864 45.865C71.1075 46.1093 71.3661 46.2969 71.8136 46.4351C72.821 46.746 73.8542 46.9795 74.8891 47.2132L74.9588 47.229C75.3354 47.3141 75.7158 47.3668 76.101 47.4202C76.2991 47.4476 76.4984 47.4752 76.6992 47.5075L76.6993 47.5075C76.8241 47.5277 76.924 47.5592 76.9967 47.6066C77.0732 47.6566 77.1209 47.726 77.1296 47.8117C77.1376 47.8909 77.1104 47.9691 77.0735 48.0387C77.0358 48.1096 76.9819 48.1829 76.9216 48.2558L76.9215 48.2559C76.7627 48.4474 76.6033 48.6382 76.444 48.8288C75.9059 49.4728 75.369 50.1152 74.8597 50.7788L74.8597 50.7788C74.5625 51.1656 74.3014 51.5768 74.0375 51.9923C73.9248 52.1698 73.8115 52.348 73.6948 52.5255L73.6947 52.5257C73.5435 52.7545 73.5068 52.9613 73.5465 53.1434C73.5868 53.3277 73.7088 53.5019 73.9042 53.6562L73.9042 53.6562C74.6758 54.2659 75.4705 54.8505 76.2785 55.4125C76.7536 55.7427 77.242 56.0499 77.759 56.375C77.9992 56.526 78.2455 56.6809 78.4995 56.8438L78.6522 56.9417L78.4879 57.0186C78.2373 57.1357 77.993 57.2484 77.7535 57.359C77.2055 57.6118 76.6824 57.8532 76.1661 58.1099M59.7785 33.4725C59.563 33.7305 59.3468 33.9881 59.1305 34.2457M59.7785 33.4725L59.1305 34.2457M76.1661 58.1099L76.1216 58.0204M76.1661 58.1099C76.1661 58.1099 76.1662 58.1099 76.1662 58.1099L76.1216 58.0204M76.1216 58.0204C76.6392 57.7629 77.1644 57.5206 77.7131 57.2675C77.9179 57.173 78.1261 57.0769 78.3383 56.978L76.1216 58.0204ZM59.1305 34.2457C58.3918 35.1259 57.6524 36.0069 56.937 36.9078L59.1305 34.2457ZM70.7725 41.8379C70.7376 41.8401 70.7036 41.8422 70.6703 41.8443L70.7572 41.9391C70.7622 41.9057 70.7673 41.872 70.7725 41.8379Z" fill="#00D1FF" stroke="#00D1FF" stroke-width="0.2"/>
<path d="M55.1749 72.7954L55.1006 72.943C55.0682 73.0072 55.0415 73.0718 55.0132 73.1399C54.9962 73.181 54.9787 73.2234 54.959 73.2678C54.9094 73.3798 54.8496 73.4961 54.761 73.5915L54.6946 73.5298L54.761 73.5915C54.4026 73.977 54.0361 74.3547 53.6706 74.7315C53.6333 74.7699 53.5961 74.8083 53.5589 74.8466C53.1561 75.262 52.7553 75.6773 52.3667 76.1034L52.3666 76.1036C52.1779 76.3095 52.0073 76.5333 51.8387 76.7639C51.7937 76.8254 51.7487 76.8876 51.7035 76.9501C51.5805 77.1201 51.4561 77.2919 51.3263 77.4578C51.2727 77.5267 51.2101 77.5854 51.1419 77.6452C51.1198 77.6647 51.0972 77.6841 51.074 77.7041C51.0237 77.7473 50.9701 77.7934 50.91 77.849L50.7871 77.9625L50.7453 77.8005C50.6732 77.5204 50.6057 77.2509 50.5402 76.989C50.3974 76.4184 50.2636 75.8838 50.1098 75.3544L50.2058 75.3265L50.1098 75.3544C49.8621 74.5011 49.6067 73.6506 49.2978 72.8225L49.389 72.7884L49.2978 72.8224C49.1872 72.5258 49.0257 72.3725 48.8482 72.3272C48.6684 72.2814 48.439 72.3375 48.175 72.534L48.1749 72.534C46.609 73.6975 45.3479 75.1642 44.1413 76.6922C43.5306 77.4661 42.9324 78.2493 42.3337 79.0331C42.0673 79.3819 41.8008 79.7307 41.5331 80.079L41.4854 80.141L41.4137 80.1096C41.3992 80.1033 41.3846 80.0968 41.3701 80.0904C41.3596 80.0857 41.349 80.081 41.3386 80.0764C41.324 80.0699 41.3096 80.0634 41.2952 80.0571C41.2849 80.0525 41.2747 80.048 41.2645 80.0436L41.1749 80.0043L41.2122 79.9138C41.277 79.7566 41.3414 79.5988 41.4058 79.4408C41.5521 79.0818 41.6988 78.7219 41.8528 78.3661C42.8478 76.0629 43.8117 73.7614 44.2845 71.2934C44.2845 71.2934 44.2845 71.2933 44.2846 71.2933L44.3828 71.3121C44.4039 71.2011 44.4335 71.0908 44.4631 70.9805C44.5125 70.7963 44.5618 70.6124 44.5716 70.4262L55.1749 72.7954ZM55.1749 72.7954L55.0098 72.798C54.9565 72.7988 54.8982 72.7945 54.835 72.7887C54.82 72.7873 54.8047 72.7858 54.7891 72.7843C54.7407 72.7797 54.6901 72.7748 54.6415 72.772C54.5175 72.7648 54.3705 72.7674 54.2591 72.8446C53.8072 73.1575 53.3871 73.518 52.9722 73.8741C52.8952 73.9402 52.8184 74.0061 52.7416 74.0715C52.4209 74.3445 52.1068 74.6262 51.7827 74.9167C51.6686 75.0191 51.5532 75.1225 51.4359 75.2271C51.4203 75.207 51.4066 75.1897 51.3948 75.1747C51.385 75.1622 51.3764 75.1514 51.3691 75.1419C51.3402 75.1047 51.333 75.0925 51.3292 75.0832L51.3293 75.0832L51.3274 75.0791C51.1853 74.7729 51.0457 74.4643 50.9058 74.1551C50.6153 73.5129 50.3237 72.8683 50.0065 72.2383L50.0064 72.2382C49.7739 71.7778 49.5078 71.4788 49.1677 71.3795C48.8268 71.28 48.4453 71.3908 48.007 71.6643L48.0069 71.6643C47.3796 72.0563 46.7753 72.4886 46.1741 72.9188C45.9219 73.0993 45.6703 73.2793 45.4177 73.4558L45.4176 73.4559C45.3272 73.5192 45.237 73.5836 45.1301 73.66C45.0883 73.6898 45.044 73.7215 44.9961 73.7556M55.1749 72.7954L44.9961 73.7556M35.3679 54.0739C35.6357 53.8854 35.8968 53.6998 36.154 53.517C36.7524 53.0916 37.3292 52.6815 37.9178 52.2859L37.9178 52.2858C38.4728 51.9126 38.8096 51.558 38.8863 51.1414C38.9632 50.7238 38.7722 50.2804 38.374 49.7481C38.0522 49.3169 37.7299 48.8861 37.3949 48.4384C37.2227 48.2081 37.0471 47.9734 36.8665 47.7319C36.8966 47.7258 36.9249 47.72 36.9516 47.7145C37.0824 47.6878 37.1753 47.6688 37.2697 47.6533C37.5597 47.6057 37.8514 47.5609 38.1436 47.516C38.7908 47.4165 39.4407 47.3166 40.0821 47.1856M35.3679 54.0739L40.6046 46.12L40.6989 46.087C40.7931 46.3555 40.8 46.602 40.6912 46.8008C40.582 47.0005 40.37 47.127 40.0821 47.1856M35.3679 54.0739C35.3922 54.1054 35.4153 54.1361 35.4373 54.1653C35.4572 54.1917 35.4763 54.217 35.4945 54.2408C35.5521 54.3158 35.6047 54.3792 35.6628 54.4335C36.2906 55.018 36.9214 55.6007 37.5616 56.1702C38.1265 56.6719 38.4608 57.079 38.5494 57.5449C38.638 58.0114 38.4756 58.5112 38.1226 59.1845L38.1226 59.1845C37.6714 60.0443 37.2106 60.9039 36.7036 61.7351L36.7036 61.7352C36.5669 61.9589 36.5506 62.0905 36.5846 62.177C36.62 62.2671 36.7256 62.3513 36.9468 62.4374C37.8831 62.8001 38.816 63.1701 39.7442 63.5534L39.7442 63.5534C40.3715 63.8128 40.7948 64.1555 41.0116 64.6131C41.228 65.0699 41.2295 65.6222 41.0549 66.2813M35.3679 54.0739L41.0549 66.2813M40.0821 47.1856C40.0821 47.1856 40.082 47.1856 40.082 47.1856L40.0621 47.0876L40.0821 47.1856ZM46.4361 39.2194L46.4637 39.1278L46.4361 39.2194L46.4361 39.2194ZM46.4361 39.2194C46.8723 39.3508 47.3159 39.4617 47.7568 39.572C47.9505 39.6204 48.1436 39.6687 48.3355 39.7186L48.3967 39.7345L48.4373 39.6861C48.4617 39.6569 48.4865 39.6278 48.5115 39.5983L48.5116 39.5981C48.5365 39.5688 48.5616 39.5392 48.5864 39.5096L48.6345 39.4523L48.5931 39.3901C48.556 39.3341 48.5253 39.278 48.4925 39.2181C48.4708 39.1784 48.4481 39.137 48.4221 39.0929C48.3619 38.9908 48.2881 38.8842 48.1827 38.8119M46.4361 39.2194L37.7507 42.1353M48.1827 38.8119C48.1827 38.8119 48.1827 38.8119 48.1827 38.8119L48.1261 38.8943L48.1827 38.8119ZM48.1827 38.8119C48.0557 38.7247 47.9095 38.6737 47.7727 38.63C47.7515 38.6232 47.7307 38.6167 47.7101 38.6102C47.5929 38.5733 47.484 38.539 47.3841 38.4892C46.6192 38.1071 45.8573 37.7211 45.095 37.3349C44.5229 37.045 43.9506 36.7551 43.3766 36.4666C43.3107 36.433 43.2408 36.4147 43.1768 36.4011C43.1484 36.3951 43.123 36.3903 43.0989 36.3857C43.0633 36.379 43.0303 36.3727 42.9946 36.3639L42.895 36.3393L42.8729 36.4395C42.8641 36.4796 42.8533 36.5156 42.8414 36.5551C42.8334 36.5816 42.825 36.6096 42.8163 36.6415C42.7969 36.7133 42.7796 36.7961 42.7881 36.8814L42.7882 36.8821C42.809 37.0777 42.8411 37.2717 42.8727 37.4623L42.8753 37.4779C42.9078 37.6746 42.9394 37.8678 42.9589 38.0616L42.9589 38.0616C42.9706 38.1776 42.9825 38.2935 42.9944 38.4092C43.0625 39.0705 43.1302 39.7277 43.1485 40.3868C43.1639 40.9615 43.1117 41.5449 43.0292 42.1202C42.9992 42.3277 42.9047 42.4565 42.7817 42.5259C42.6559 42.597 42.4856 42.6141 42.2932 42.5667L42.2931 42.5667C41.3927 42.3466 40.4975 42.1088 39.6011 41.8708C39.1787 41.7586 38.756 41.6464 38.3323 41.5359L38.3323 41.5359C38.1865 41.4979 38.0375 41.4654 37.8506 41.4245C37.7511 41.4028 37.6409 41.3787 37.5148 41.3502L37.3004 41.3018L37.4047 41.4952C37.462 41.6015 37.5099 41.6908 37.5516 41.7686C37.6327 41.9201 37.6908 42.0284 37.7507 42.1353M37.7507 42.1353C37.7507 42.1352 37.7507 42.1352 37.7507 42.1352L37.838 42.0864L37.7507 42.1353C37.7507 42.1353 37.7507 42.1353 37.7507 42.1353ZM37.7507 42.1353C37.9553 42.5014 38.1609 42.8666 38.3665 43.2317C38.8504 44.0911 39.3338 44.9497 39.8021 45.817L39.8901 45.7695L39.8021 45.817C39.9163 46.0286 39.9216 46.1788 39.872 46.2755C39.8227 46.3717 39.6988 46.4539 39.4611 46.4817L39.461 46.4817C38.6702 46.575 37.873 46.6312 37.0767 46.6588C36.4984 46.6785 35.9203 46.6739 35.3214 46.6691C35.0505 46.6669 34.7754 46.6647 34.494 46.6647H34.2651L34.4206 46.8326C34.4777 46.8943 34.5336 46.956 34.5891 47.0173C34.7012 47.141 34.8115 47.2628 34.9259 47.3778L34.926 47.3779C35.223 47.6756 35.5217 47.9704 35.82 48.2649C36.3771 48.8148 36.9331 49.3636 37.4747 49.9276C37.8286 50.2962 37.9714 50.5916 37.9469 50.8365C37.9228 51.0768 37.732 51.3128 37.2981 51.5497C36.3875 52.0466 35.4529 52.495 34.5153 52.9449C34.0643 53.1613 33.6126 53.378 33.1626 53.6006L33.1619 53.601C33.0902 53.6371 33.027 53.6846 32.9702 53.7309C32.9472 53.7496 32.9262 53.7674 32.9059 53.7845C32.8731 53.8122 32.8422 53.8382 32.8083 53.864L32.72 53.9314L32.7962 54.0122C32.825 54.0427 32.8501 54.0731 32.8773 54.1059C32.8943 54.1264 32.912 54.1479 32.9321 54.171C32.9803 54.2268 33.0365 54.2857 33.1061 54.3303L33.1064 54.3305C33.3678 54.4967 33.6307 54.6552 33.8923 54.8129C34.3455 55.0862 34.7947 55.357 35.2253 55.6614C35.9497 56.1741 36.6447 56.7349 37.3192 57.3158C37.4904 57.4634 37.5884 57.6318 37.6122 57.8046C37.6358 57.9763 37.588 58.1657 37.4427 58.3603C36.6891 59.3667 35.9289 60.3697 35.1687 61.3727C34.9063 61.7189 34.6439 62.0651 34.3818 62.4114L34.4615 62.4718L34.3818 62.4114C34.2757 62.5517 34.168 62.6902 34.0344 62.8622C34.005 62.8999 33.9744 62.9393 33.9423 62.9807L33.8609 63.0855L33.9841 63.1349C34.078 63.1724 34.1595 63.2086 34.2363 63.2428C34.2724 63.2589 34.3075 63.2745 34.3425 63.2896C34.4494 63.3358 34.5521 63.376 34.6608 63.3991L34.661 63.3992C36.0375 63.6898 37.4163 63.9719 38.7951 64.2481L38.7951 64.2481C39.4159 64.3721 39.8284 64.6108 40.0422 64.9327C40.2539 65.2513 40.2859 65.6744 40.0955 66.2039C39.8291 66.9438 39.5488 67.6779 39.268 68.4131C39.1561 68.7062 39.0442 68.9994 38.933 69.2933L37.7507 42.1353ZM41.0549 66.2813C40.9029 66.855 40.7728 67.4329 40.6306 68.0647C40.5695 68.3359 40.5062 68.617 40.438 68.912M41.0549 66.2813L40.438 68.912M40.438 68.912C40.6511 68.8964 40.8581 68.8814 41.0606 68.8667C41.6308 68.8253 42.1652 68.7866 42.6992 68.7455C42.7197 68.7438 42.7426 68.7359 42.7814 68.721L42.7866 68.719C42.8198 68.7062 42.867 68.6881 42.9177 68.6832L42.9179 68.6832C43.2888 68.6482 43.6305 68.6166 43.9287 68.621C44.2263 68.6253 44.4929 68.6654 44.709 68.7824C45.1574 69.0252 45.3326 69.562 45.2401 70.5555C45.2153 70.8229 45.19 71.0902 45.1648 71.3573C45.108 71.958 45.0512 72.5582 44.9996 73.1586L44.9996 73.1588C44.9876 73.2965 44.9902 73.432 44.9936 73.6087C44.9945 73.6546 44.9954 73.7034 44.9961 73.7556M40.438 68.912L44.9961 73.7556M48.5098 39.4454C48.4851 39.4748 48.4602 39.5042 48.4352 39.5336C48.4103 39.563 48.3853 39.5924 48.3606 39.6218C48.1668 39.5715 47.9726 39.5229 47.7784 39.4743C47.3385 39.3643 46.8988 39.2544 46.4649 39.1236C46.2018 39.0444 45.9426 38.9516 45.6835 38.8589L48.5098 39.4454ZM44.341 38.8573L44.242 38.8427L44.3409 38.8575C44.3409 38.8575 44.3409 38.8575 44.3409 38.8576C44.3409 38.8575 44.341 38.8574 44.341 38.8573ZM43.8941 42.6023C43.8941 42.6022 43.8942 42.6021 43.8942 42.6021L43.7971 42.5786L43.8941 42.6023ZM39.6459 43.5666L39.7388 43.5296C39.7388 43.5296 39.7388 43.5296 39.7388 43.5295L39.6459 43.5666Z" fill="#00D1FF" stroke="#00D1FF" stroke-width="0.2"/>
<path d="M37.977 36.6063L37.9204 36.7285L38.0537 36.7473C38.4199 36.7989 38.7332 36.7644 38.9897 36.6247C39.2474 36.4845 39.4342 36.2456 39.5612 35.9159L39.5613 35.9154C39.611 35.7847 39.6842 35.6617 39.7617 35.5315C39.7721 35.5139 39.7827 35.4962 39.7932 35.4784C40.8043 33.7743 42.1812 32.4315 43.8185 31.3118C46.2552 29.6469 48.9521 28.7785 51.8802 28.6377C52.8536 28.5913 53.8447 28.6935 54.8245 28.8159C56.6004 29.0389 58.2807 29.5666 59.748 30.6085C60.054 30.8265 60.3375 30.8933 60.6173 30.8566C60.8913 30.8207 61.1513 30.6866 61.4135 30.5258L61.5435 30.4461L61.4186 30.3586C57.6734 27.7362 52.7851 27.1986 48.3512 28.3629C43.9172 29.5273 39.9248 32.3971 37.977 36.6063Z" fill="#00D1FF" stroke="#00D1FF" stroke-width="0.2"/>
<path d="M80.8221 61.2701L80.759 61.3782L80.6675 61.2927C80.412 61.054 80.2524 60.7994 80.1982 60.5396C80.1436 60.2775 80.1987 60.0203 80.354 59.7852L80.3541 59.7852C81.4779 58.0861 82.123 56.2272 82.2804 54.1976C82.2804 54.1976 82.2804 54.1975 82.2804 54.1975L82.3801 54.2053M80.8221 61.2701L80.7045 45.1452C81.9543 47.2761 82.4619 49.653 82.5533 52.1068C82.5698 52.5612 82.5141 53.0181 82.4583 53.4752C82.4286 53.7186 82.3989 53.9621 82.3801 54.2053M80.8221 61.2701C83.8675 56.0557 84.0975 50.7153 81.6315 45.2995L81.6315 45.2995C80.1345 42.0144 77.7706 39.4553 74.4253 37.8058L74.299 37.7436L74.2818 37.8833C74.2244 38.35 74.3213 38.6793 74.5193 38.9401C74.7122 39.1942 74.996 39.3753 75.2879 39.5578L75.2879 39.5578C76.2682 40.1703 77.2724 40.7996 78.0302 41.6258L78.0302 41.6258C79.0179 42.7022 79.8763 43.9302 80.6182 45.1958L80.6182 45.1958M80.8221 61.2701L80.6182 45.1958M82.3801 54.2053C82.2213 56.2521 81.5706 58.1272 80.4375 59.8403C80.1684 60.2476 80.2365 60.7099 80.6621 61.1475M82.3801 54.2053L80.6621 61.1475M80.6621 61.1475C80.6579 61.1548 80.6537 61.162 80.6494 61.1693L80.7358 61.2197L80.8041 61.1466C80.7984 61.1414 80.7929 61.1361 80.7874 61.1309C83.7671 55.973 83.9791 50.6967 81.5405 45.3409C80.0668 42.1069 77.7495 39.5829 74.4763 37.9429L80.6621 61.1475ZM80.6182 45.1958C81.8573 47.3084 82.3624 49.6679 82.4534 52.1106L80.6182 45.1958Z" fill="#00D1FF" stroke="#00D1FF" stroke-width="0.2"/>
<path d="M73.2528 73.9939L73.2163 74.1406C73.2031 74.1938 73.1942 74.2393 73.1856 74.2831C73.1816 74.3033 73.1777 74.3231 73.1735 74.3432C73.1609 74.4036 73.1454 74.4649 73.1154 74.5227M73.2528 73.9939L68.9599 79.4704M73.2528 73.9939L73.1035 74.0177C72.7767 74.0697 72.4858 74.1369 72.23 74.2717C71.9715 74.4079 71.7542 74.6103 71.5682 74.9238L71.568 74.9241C70.9933 75.9008 70.3743 76.8829 69.5923 77.674L69.5923 77.674C66.7765 80.5248 63.3 82.031 59.3055 82.2279L73.2528 73.9939ZM73.1154 74.5227C73.1153 74.5228 73.1153 74.5228 73.1153 74.5228L73.0266 74.4766L73.1154 74.5227C73.1154 74.5227 73.1154 74.5227 73.1154 74.5227ZM73.1154 74.5227C72.0986 76.482 70.6669 78.095 68.9599 79.4704M68.9599 79.4704C67.2045 80.8853 65.2121 81.8733 63.0612 82.4721L63.0612 82.4721C60.6935 83.1302 58.2744 83.2751 55.8181 82.879M68.9599 79.4704L55.8181 82.879M55.8181 82.879C55.8182 82.879 55.8182 82.8791 55.8182 82.8791L55.834 82.7809L55.8181 82.879ZM55.8181 82.879C53.866 82.565 52.052 81.9224 50.3378 80.9722L50.3377 80.9722C50.2312 80.913 50.1455 80.8256 50.0711 80.7397C50.0404 80.7044 50.0128 80.6708 49.986 80.6383C49.9435 80.5866 49.9035 80.5379 49.8581 80.4905L49.762 80.39L49.8879 80.3309C49.936 80.3083 49.9847 80.2815 50.0359 80.2526C50.0465 80.2465 50.0573 80.2404 50.0682 80.2342C50.1088 80.2112 50.151 80.1872 50.193 80.165C50.2992 80.109 50.4186 80.0566 50.5467 80.0479L50.5535 80.1477L55.8181 82.879Z" fill="#00D1FF" stroke="#00D1FF" stroke-width="0.2"/>
<path d="M30.3688 49.524L30.4603 49.6063C30.7206 49.8404 30.8808 50.0964 30.9328 50.3601C30.9852 50.6257 30.9257 50.8881 30.7666 51.1274L30.3688 49.524ZM30.3688 49.524L30.3069 49.6304L30.3688 49.524ZM31.5316 67.3698L31.5316 67.3698C32.6701 68.9373 33.9894 70.2909 35.6767 71.2565L35.6271 71.3433L35.6767 71.2565C35.7113 71.2763 35.7465 71.3017 35.776 71.323C35.7859 71.3302 35.7952 71.3368 35.8036 71.3427C35.8414 71.3691 35.8703 71.3858 35.8974 71.3936C35.8975 71.3936 35.8976 71.3937 35.8976 71.3937L31.5316 67.3698ZM31.5316 67.3698C29.7609 64.9329 28.9282 62.1653 28.6864 59.2031C28.6528 58.7923 28.68 58.3743 28.7241 57.9494C28.7393 57.8018 28.7568 57.6526 28.7743 57.5025C28.8068 57.2242 28.8396 56.9431 28.8596 56.6651M31.5316 67.3698L28.8596 56.6651M28.8596 56.6651C29.0063 54.6515 29.6488 52.8097 30.7665 51.1274L28.8596 56.6651Z" fill="#00D1FF" stroke="#00D1FF" stroke-width="0.2"/>
<path d="M40.9691 32.311L40.8935 32.36C40.8456 32.391 40.802 32.4238 40.7555 32.4587C40.7272 32.48 40.6978 32.502 40.6658 32.525C40.5863 32.582 40.497 32.6389 40.3958 32.6714L40.3956 32.6715C35.1024 34.3591 31.1366 37.5463 28.9604 42.7314C28.3 44.3054 27.81 45.9393 27.8255 47.6654L27.8255 47.6654C27.8387 49.2034 27.8531 50.7407 27.9204 52.2753L27.9204 52.2753C27.9314 52.527 27.983 52.7793 28.0452 53.0377C28.0617 53.106 28.079 53.1751 28.0964 53.2447C28.1441 53.4352 28.1927 53.6297 28.228 53.8236L40.9691 32.311ZM40.9691 32.311L40.9282 32.2307M40.9691 32.311L40.9282 32.2307M40.9282 32.2307C40.8899 32.1554 40.8516 32.0789 40.813 32.002L40.7746 31.9252L40.6928 31.9517C40.4404 32.0335 40.1859 32.1129 39.9308 32.1926C39.3965 32.3595 38.8596 32.5273 38.3331 32.7187L38.333 32.7187C36.0707 33.543 34.0381 34.7531 32.3221 36.4597C30.5593 38.2105 29.1814 40.2301 28.251 42.5315L28.251 42.5316C27.3814 44.6845 26.842 46.9253 26.905 49.2751M40.9282 32.2307L28.0975 54.3737M28.0975 54.3737L27.9757 54.2554C27.9568 54.237 27.9335 54.218 27.9061 54.1968C27.8996 54.1917 27.8926 54.1863 27.8855 54.1808C27.8646 54.1647 27.8418 54.1472 27.821 54.1299C27.7692 54.0869 27.6981 54.0217 27.6803 53.9318L27.6802 53.9313C27.4827 52.9074 27.3033 51.8801 27.1289 50.8535L27.1289 50.8534C27.1088 50.7346 27.0867 50.6145 27.0644 50.4934C26.9908 50.0935 26.9153 49.6832 26.905 49.2751M28.0975 54.3737L28.1419 54.2099M28.0975 54.3737L28.1419 54.2099M26.905 49.2751C26.905 49.2751 26.905 49.2751 26.905 49.275L27.0043 49.2725L26.905 49.2752C26.905 49.2752 26.905 49.2751 26.905 49.2751ZM28.1419 54.2099C28.1485 54.1857 28.1575 54.16 28.1682 54.1313M28.1419 54.2099L28.1682 54.1313M28.1682 54.1313C28.1706 54.1249 28.1731 54.1182 28.1757 54.1113M28.1682 54.1313L28.1757 54.1113M28.1757 54.1113C28.1841 54.0889 28.1932 54.0646 28.2012 54.041M28.1757 54.1113L28.2012 54.041M28.2012 54.041C28.2216 53.9805 28.2425 53.903 28.228 53.8236L28.2012 54.041Z" fill="#00D1FF" stroke="#00D1FF" stroke-width="0.2"/>
<path d="M70.2964 78.496L70.2075 78.551L70.2664 78.6373L70.3277 78.7274L70.3891 78.8174L70.4277 78.8741L70.4946 78.8584C75.2666 77.7387 79.0383 75.1508 81.5841 70.9243C84.285 66.4405 84.9993 61.6618 83.2407 56.6261L83.157 56.3864L83.0548 56.6188C82.9599 56.8345 82.9394 57.0546 82.964 57.2649L82.964 57.2651C83.0148 57.691 83.0771 58.1135 83.1393 58.5343C83.2659 59.3923 83.3915 60.2435 83.4156 61.1024C83.4815 63.4403 83.1511 65.7276 82.2669 67.923C81.263 70.414 79.7982 72.5687 77.7829 74.3378L77.7829 74.3378C75.7299 76.1409 73.3453 77.3632 70.7555 78.2196L70.7551 78.2197C70.663 78.2506 70.5808 78.301 70.5071 78.3512C70.478 78.371 70.4512 78.39 70.4254 78.4084C70.3818 78.4394 70.341 78.4684 70.2964 78.496Z" fill="#00D1FF" stroke="#00D1FF" stroke-width="0.2"/>
<path d="M78.7604 40.807L79.0103 41.0893L78.9331 40.7202C76.5063 29.1136 64.4378 24.7842 56.7232 27.8591L56.4442 27.9703L56.7342 28.0485C56.9662 28.1111 57.2108 28.1385 57.4495 28.1063C57.7803 28.0622 58.1122 28.0041 58.4417 27.9465C58.6029 27.9183 58.7635 27.8902 58.923 27.864C59.4114 27.7835 59.8953 27.7187 60.3784 27.7134L60.3784 27.7134C61.9746 27.6954 63.5849 27.7016 65.1456 27.9451C66.3867 28.1399 67.6031 28.6285 68.7891 29.12C71.0965 30.0764 73.0611 31.5408 74.6739 33.4522L74.7491 33.3887L74.6739 33.4522C76.405 35.5035 77.6247 37.8359 78.421 40.397L78.421 40.3971C78.451 40.4934 78.5188 40.5704 78.5811 40.6322C78.6085 40.6594 78.634 40.6831 78.6579 40.7053C78.6948 40.7396 78.7283 40.7707 78.7604 40.807Z" fill="#00D1FF" stroke="#00D1FF" stroke-width="0.2"/>
<path d="M55.5375 45.7259L55.5375 45.7259L55.5337 45.7259C49.9268 45.8423 45.5803 50.1785 45.8623 55.9437C46.1138 61.1312 50.0231 64.9689 55.1951 65.106C61.5143 65.2745 65.5523 60.4456 65.2802 54.9183C65.0323 49.8803 61.1356 45.8229 55.5375 45.7259Z" fill="#00D1FF" stroke="#00D1FF" stroke-width="0.2"/>
<defs>
<filter id="filter0_d_117_413" x="-0.857544" y="-0.857864" width="112.737" height="112.737" filterUnits="userSpaceOnUse" color-interpolation-filters="sRGB">
<feFlood flood-opacity="0" result="BackgroundImageFix"/>
<feColorMatrix in="SourceAlpha" type="matrix" values="0 0 0 0 0 0 0 0 0 0 0 0 0 0 0 0 0 0 127 0" result="hardAlpha"/>
<feOffset/>
<feGaussianBlur stdDeviation="2.5"/>
<feColorMatrix type="matrix" values="0 0 0 0 0.0627451 0 0 0 0 0.631373 0 0 0 0 0.992157 0 0 0 1 0"/>
<feBlend mode="normal" in2="BackgroundImageFix" result="effect1_dropShadow_117_413"/>
<feBlend mode="normal" in="SourceGraphic" in2="effect1_dropShadow_117_413" result="shape"/>
</filter>
</defs>
</svg>
