<svg width="113" height="113" viewBox="0 0 113 113" fill="none" xmlns="http://www.w3.org/2000/svg">
<path opacity="0.497" d="M105.072 49.5616L63.7031 8.19308C59.7978 4.28783 53.4662 4.28784 49.5609 8.19309L8.19238 49.5616C4.28713 53.4669 4.28715 59.7986 8.19239 63.7038L49.561 105.072C53.4662 108.978 59.7979 108.978 63.7031 105.072L105.072 63.7038C108.977 59.7985 108.977 53.4669 105.072 49.5616Z" fill="black"/>
<g opacity="0.5">
<path d="M35.788 61.123C35.7795 61.2943 35.7905 61.4661 35.821 61.635H42.678C42.836 61.1536 42.9933 60.6723 43.15 60.191H35.871C35.842 60.502 35.81 60.813 35.788 61.123Z" fill="#685137"/>
<path d="M29.492 55.012C29.5108 55.0833 29.5514 55.1469 29.608 55.194C29.851 55.386 30.099 55.574 30.345 55.763H32.117C32.289 55.452 32.457 55.139 32.627 54.827H29.447C29.462 54.888 29.476 54.95 29.492 55.012Z" fill="#685137"/>
<path d="M35.167 76.322C35.1549 76.555 35.1829 76.7885 35.25 77.012H39.58C39.68 76.718 39.787 76.426 39.895 76.135C40.026 75.782 40.159 75.429 40.295 75.076H35.195C35.189 75.492 35.189 75.907 35.167 76.322Z" fill="#685137"/>
<path d="M47.77 54.826H37.178C37.054 55.138 36.926 55.45 36.799 55.762H48.02C47.9864 55.678 47.9577 55.5922 47.934 55.505C47.878 55.279 47.824 55.052 47.77 54.826Z" fill="#685137"/>
<path d="M35.883 43.567C35.8977 43.4999 35.9241 43.4359 35.961 43.378L36.3 42.935H30.166L29.72 43.986H35.757L35.883 43.567Z" fill="#685137"/>
<path d="M53.555 76.161C53.57 75.849 53.571 75.535 53.573 75.222V75.076H51.287C51.5277 75.7207 51.766 76.366 52.002 77.012H53.215V76.131L53.555 76.161Z" fill="#685137"/>
<path d="M54.178 60.975C54.197 60.714 54.219 60.453 54.243 60.193H48.427L48.899 61.637H54.188C54.1659 61.417 54.1625 61.1955 54.178 60.975Z" fill="#685137"/>
<path d="M33.137 50.353H29.173C29.046 50.7 28.904 51.041 28.791 51.393C28.791 51.405 28.781 51.415 28.776 51.427H33.573C33.5947 51.3179 33.5939 51.2055 33.5707 51.0966C33.5475 50.9878 33.5023 50.8848 33.438 50.794C33.3472 50.641 33.247 50.4937 33.138 50.353H33.137Z" fill="#685137"/>
<path d="M49.551 67.232C49.52 67.41 49.488 67.589 49.457 67.767C49.4042 68.0102 49.429 68.2637 49.528 68.492C49.554 68.552 49.578 68.616 49.603 68.675H53.658L53.677 67.231L49.551 67.232Z" fill="#685137"/>
<path d="M49.633 39.96C49.666 39.883 49.7 39.81 49.743 39.725L50.758 37.625C50.8247 36.997 50.9007 36.3697 50.986 35.743C51.0658 35.1188 51.3836 34.5495 51.873 34.154C52.318 33.802 52.766 33.454 53.212 33.103C53.073 32.965 52.946 32.841 52.833 32.712C52.809 32.685 52.833 32.597 52.86 32.544C53.158 31.868 53.458 31.193 53.76 30.519C53.787 30.457 53.813 30.395 53.848 30.312L50.384 28.692L49.329 31.212L48.705 31.104C48.731 31.031 48.751 30.969 48.775 30.909C49.2143 29.8583 49.6533 28.8087 50.092 27.76C50.1302 27.668 50.1506 27.5696 50.152 27.47C50.158 26.9113 50.158 26.3527 50.152 25.794C50.1485 25.6958 50.1247 25.5995 50.082 25.511C49.992 25.318 49.875 25.139 49.79 24.943C49.5627 24.448 49.2197 24.0148 48.79 23.68C48.1381 23.1093 47.3034 22.791 46.437 22.783C46.1989 22.7989 45.9601 22.7989 45.722 22.783C44.9704 22.7335 44.2173 22.8517 43.517 23.129C43.4471 23.1549 43.3819 23.192 43.324 23.239C43.096 23.426 42.882 23.631 42.645 23.805C42.3175 24.0745 42.0492 24.4089 41.857 24.787C41.5379 25.3318 41.3801 25.956 41.402 26.587C41.3885 27.2737 41.53 27.9546 41.816 28.579C42.181 29.347 42.483 30.145 42.816 30.93C42.838 30.982 42.855 31.035 42.881 31.104L42.257 31.219C41.904 30.378 41.557 29.544 41.2 28.695L37.734 30.315C37.842 30.561 37.945 30.8 38.05 31.037C38.271 31.537 38.489 32.037 38.718 32.527C38.7487 32.573 38.7601 32.6292 38.7496 32.6835C38.7391 32.7378 38.7076 32.7858 38.662 32.817C38.542 32.925 38.439 33.052 38.339 33.16C38.293 33.141 38.276 33.139 38.272 33.131C38.024 32.613 37.492 32.604 37.045 32.446C37.0186 32.4433 36.9919 32.4461 36.9666 32.4542C36.9413 32.4623 36.9179 32.4755 36.898 32.493C35.498 33.5863 34.1013 34.6827 32.708 35.782C32.6422 35.8448 32.6005 35.9287 32.59 36.019C32.5073 36.6463 32.4317 37.2747 32.363 37.904C32.3623 37.9875 32.3918 38.0685 32.446 38.132C32.576 38.291 32.804 38.419 32.839 38.591C32.874 38.763 32.712 38.958 32.639 39.142C32.3863 39.7507 32.133 40.359 31.879 40.967H37.821L37.921 40.839C37.931 40.884 37.939 40.922 37.948 40.967H49.205L49.271 40.811L49.633 39.96ZM48.384 28.744C48.3783 28.7741 48.3655 28.8024 48.3468 28.8265C48.328 28.8507 48.3037 28.8701 48.276 28.883C47.776 29.061 47.276 29.237 46.768 29.397C46.468 29.491 46.468 29.48 46.468 29.797V33.426H45.04V29.439C44.4063 29.3072 43.7853 29.1205 43.184 28.881C43.1591 28.87 43.137 28.8534 43.1197 28.8323C43.1023 28.8113 43.0901 28.7866 43.084 28.76C43.077 28.309 43.084 27.86 43.084 27.385C43.554 27.556 44.02 27.685 44.449 27.894C45.0387 28.1261 45.6774 28.2055 46.306 28.125C46.5147 28.088 46.7168 28.0206 46.906 27.925C47.384 27.75 47.87 27.571 48.384 27.381C48.384 27.854 48.384 28.299 48.384 28.744Z" fill="#685137"/>
<path d="M38.328 42.935C38.3947 43.287 38.468 43.6373 38.548 43.986H47.923C48.071 43.636 48.2197 43.2857 48.369 42.935H38.328Z" fill="#685137"/>
<path d="M47.315 50.622C47.346 50.531 47.381 50.442 47.415 50.353H39.515C39.501 50.411 39.486 50.469 39.468 50.527C39.374 50.827 39.285 51.127 39.194 51.427H47.075V51.11C47.075 51.11 47.307 50.641 47.315 50.622Z" fill="#685137"/>
<path d="M42.033 67.232H35.296C35.2893 67.7133 35.283 68.1947 35.277 68.676H41.991C42.1511 68.2418 42.1718 67.7685 42.05 67.322C42.043 67.292 42.039 67.266 42.033 67.232Z" fill="#685137"/>
<path d="M47.446 46.38H39.379C39.4882 46.7288 39.5553 47.0893 39.579 47.454H47.365C47.383 47.206 47.4003 46.9577 47.417 46.709C47.429 46.6 47.437 46.49 47.446 46.38Z" fill="#685137"/>
<path d="M28.993 47.454H33.951L34.54 46.38H29.068C29.044 46.738 29.018 47.096 28.993 47.454Z" fill="#685137"/>
</g>
<path d="M78.288 85.024H75.577C75.285 84.868 74.998 84.705 74.7 84.561C74.5303 84.482 74.3903 84.351 74.3 84.187C73.824 83.362 73.336 82.544 72.854 81.723C72.6881 81.52 72.562 81.2877 72.482 81.038C72.4995 80.771 72.5645 80.5092 72.674 80.265C72.696 80.187 72.712 80.107 72.741 80.031C72.9238 79.6168 72.9563 79.1517 72.833 78.716C72.8151 78.6429 72.8014 78.5688 72.792 78.494C72.7421 78.0782 72.6599 77.667 72.546 77.264C71.871 75.399 71.165 73.546 70.47 71.689C70.289 71.204 70.109 70.719 69.926 70.228L70.526 69.849C70.341 69.387 70.173 68.935 69.979 68.495C69.8803 68.2659 69.8562 68.0116 69.91 67.768C70.1525 66.6915 70.2606 65.5891 70.232 64.486C70.2291 64.3866 70.2143 64.2879 70.188 64.192C69.3487 61.6174 68.5073 59.0434 67.664 56.47C67.644 56.41 67.616 56.352 67.585 56.275C67.437 56.413 67.303 56.527 67.185 56.654C67.1438 56.7001 67.0924 56.736 67.035 56.7589C66.9776 56.7818 66.9156 56.7911 66.854 56.786C66.4473 56.7754 66.0403 56.7754 65.633 56.786C65.5714 56.7911 65.5094 56.7818 65.452 56.7589C65.3945 56.736 65.3432 56.7001 65.302 56.654C65.178 56.524 65.042 56.408 64.902 56.275C64.878 56.333 64.861 56.365 64.849 56.399C63.9937 59.0084 63.1403 61.618 62.289 64.228C62.2693 64.293 62.2578 64.3602 62.255 64.428C62.2071 65.3993 62.2919 66.3726 62.507 67.321C62.6556 67.8404 62.6005 68.3969 62.353 68.877C62.2227 69.1477 62.1095 69.4262 62.014 69.711C61.997 69.756 61.984 69.802 61.968 69.851L62.555 70.227C62.535 70.286 62.523 70.327 62.508 70.369L60.353 76.135C60.175 76.615 59.99 77.095 59.853 77.588C59.74 78.002 59.707 78.438 59.622 78.862C59.5499 79.1658 59.5655 79.4838 59.667 79.779C59.794 80.131 59.877 80.499 59.988 80.857C60.0071 80.9116 60.0134 80.9699 60.0063 81.0273C59.9992 81.0848 59.9789 81.1398 59.947 81.188C59.335 82.216 58.731 83.249 58.118 84.277C58.058 84.3697 57.9758 84.446 57.879 84.499C57.559 84.681 57.231 84.849 56.906 85.022H54.19C54.006 84.51 53.826 83.996 53.635 83.487C53.6145 83.4358 53.6065 83.3805 53.6115 83.3255C53.6165 83.2706 53.6345 83.2177 53.664 83.171C54.164 82.238 54.654 81.3 55.154 80.371C55.245 80.2077 55.2906 80.023 55.286 79.836C55.277 79.361 55.286 78.884 55.286 78.395L55.691 78.431C55.754 78.189 55.828 77.95 55.873 77.706C55.8974 77.5937 55.8862 77.4767 55.841 77.371C55.6718 77.0492 55.595 76.6868 55.619 76.324C55.645 75.817 55.639 75.308 55.646 74.8C55.6873 71.7007 55.7287 68.6007 55.77 65.5C55.77 65.435 55.776 65.37 55.78 65.293L56.558 65.509C56.634 65.272 56.705 65.054 56.772 64.832C56.78 64.7958 56.78 64.7582 56.772 64.722C56.632 63.844 56.487 62.967 56.351 62.088C56.2783 61.7708 56.2411 61.4465 56.24 61.121C56.316 60.071 56.44 59.021 56.53 57.976C56.5669 57.5654 56.6681 57.1632 56.83 56.784C57.214 55.86 57.583 54.929 57.958 54C58.051 53.771 58.145 53.542 58.258 53.279L58.818 54.166C58.844 54.094 58.859 54.055 58.871 54.014C59.221 52.852 59.563 51.688 59.924 50.529C60.0309 50.1952 60.0783 49.8452 60.064 49.495C60.044 49.013 60.014 48.528 60.042 48.047C60.0858 47.296 59.9468 46.5456 59.637 45.86C59.4028 45.3542 59.2135 44.8289 59.071 44.29C58.852 43.39 58.702 42.475 58.521 41.567C58.475 41.334 58.421 41.103 58.366 40.835C57.697 41.707 57.054 42.541 56.416 43.378C56.3794 43.4361 56.353 43.5 56.338 43.567C56.0933 44.363 55.8507 45.159 55.61 45.955C55.589 46.023 55.562 46.089 55.535 46.162L55.204 45.986L53.064 49.891C53.157 49.967 53.23 50.038 53.312 50.091C53.5523 50.2789 53.7477 50.5181 53.884 50.791C53.9929 50.933 54.0501 51.108 54.0461 51.2869C54.0421 51.4658 53.9771 51.638 53.862 51.775C53.7308 51.9815 53.6138 52.1966 53.512 52.419L52.764 51.71C52.723 52.286 52.711 52.821 52.636 53.346C52.6025 53.5163 52.6158 53.6925 52.6747 53.8558C52.7335 54.019 52.8356 54.1632 52.97 54.273C53.03 54.327 53.07 54.404 53.13 54.458C53.213 54.532 53.2 54.596 53.15 54.686C52.925 55.091 52.713 55.504 52.485 55.907C52.4624 55.9418 52.4331 55.9717 52.3987 55.9949C52.3643 56.018 52.3257 56.0341 52.285 56.042C51.985 56.083 51.685 56.113 51.385 56.136C51.3181 56.1376 51.2527 56.1169 51.199 56.077C50.813 55.7864 50.4306 55.4914 50.052 55.192C49.9955 55.1447 49.955 55.0812 49.936 55.01C49.767 54.324 49.608 53.635 49.436 52.948C49.336 52.556 49.236 52.166 49.136 51.775V51.587C49.1721 51.5227 49.2035 51.4558 49.23 51.387C49.4962 50.7395 49.7148 50.0734 49.884 49.394C49.9427 49.2279 49.9513 49.0482 49.9089 48.8772C49.8664 48.7061 49.7746 48.5514 49.645 48.432C49.604 48.397 49.578 48.34 49.537 48.302C49.4826 48.2467 49.4423 48.1791 49.4194 48.105C49.3964 48.0309 49.3915 47.9524 49.405 47.876C49.461 47.138 49.505 46.399 49.561 45.662C49.5701 45.4816 49.6076 45.3038 49.672 45.135C50.284 43.675 50.907 42.219 51.528 40.762C51.554 40.702 51.585 40.644 51.628 40.562L52.111 41.438C52.15 41.35 52.173 41.3 52.194 41.249L53.074 39.134C53.151 38.949 53.311 38.746 53.274 38.583C53.237 38.42 53.01 38.283 52.881 38.124C52.828 38.06 52.7997 37.9791 52.801 37.896C52.8677 37.2674 52.9433 36.639 53.028 36.011C53.0385 35.9207 53.0802 35.8368 53.146 35.774C54.5387 34.6734 55.935 33.577 57.335 32.485C57.3549 32.4675 57.3783 32.4543 57.4036 32.4462C57.4289 32.4381 57.4556 32.4353 57.482 32.438C57.93 32.596 58.462 32.604 58.709 33.123C58.709 33.131 58.73 33.133 58.776 33.152C58.876 33.044 58.976 32.917 59.099 32.809C59.1446 32.7778 59.1761 32.7298 59.1866 32.6755C59.1971 32.6212 59.1857 32.565 59.155 32.519C58.926 32.025 58.708 31.526 58.487 31.029C58.381 30.792 58.28 30.553 58.171 30.307L61.637 28.687L62.693 31.211L63.317 31.096C63.291 31.027 63.274 30.972 63.252 30.922C62.923 30.136 62.621 29.339 62.252 28.571C61.9668 27.9464 61.8263 27.2655 61.841 26.579C61.8184 25.9482 61.9755 25.324 62.294 24.779C62.4863 24.401 62.7546 24.0667 63.082 23.797C63.319 23.622 63.533 23.417 63.761 23.231C63.8189 23.184 63.8841 23.1469 63.954 23.121C64.6589 22.8443 65.4166 22.7285 66.172 22.782C66.4101 22.798 66.6489 22.798 66.887 22.782C67.7541 22.7887 68.5901 23.1063 69.243 23.677C69.6728 24.0121 70.0158 24.4456 70.243 24.941C70.326 25.141 70.443 25.316 70.535 25.509C70.5775 25.5975 70.6013 25.6939 70.605 25.792C70.6117 26.3507 70.6117 26.9094 70.605 27.468C70.6032 27.5676 70.5829 27.6659 70.545 27.758C70.1077 28.8107 69.668 29.8614 69.226 30.91C69.201 30.97 69.182 31.032 69.156 31.105L69.78 31.213L70.835 28.693L74.302 30.314C74.268 30.397 74.242 30.458 74.214 30.521C73.914 31.1957 73.614 31.8714 73.314 32.548C73.291 32.6 73.262 32.688 73.286 32.714C73.424 32.872 73.576 33.014 73.756 33.195C73.924 32.731 74.3 32.628 74.683 32.536C74.7562 32.519 74.8278 32.4955 74.897 32.466C74.9444 32.4442 74.9975 32.4377 75.0488 32.4476C75.1001 32.4574 75.147 32.4831 75.183 32.521C76.548 33.597 77.917 34.666 79.283 35.744C79.3693 35.8188 79.427 35.9214 79.446 36.034C79.522 36.555 79.56 37.081 79.646 37.599C79.6879 37.7351 79.6849 37.881 79.6374 38.0152C79.5898 38.1494 79.5003 38.2647 79.382 38.344C79.341 38.372 79.313 38.418 79.274 38.444C79.2534 38.4572 79.2357 38.4743 79.2217 38.4944C79.2078 38.5145 79.198 38.5372 79.1929 38.5611C79.1878 38.585 79.1875 38.6096 79.1919 38.6336C79.1964 38.6577 79.2056 38.6806 79.219 38.701C79.583 39.56 79.936 40.422 80.295 41.283C80.313 41.324 80.34 41.366 80.373 41.426L80.85 40.557C80.882 40.62 80.897 40.647 80.909 40.675C81.5557 42.1957 82.2016 43.7167 82.847 45.238C82.8703 45.2954 82.8841 45.3562 82.888 45.418C82.938 46.118 82.95 46.825 83.046 47.518C83.085 47.722 83.0704 47.9327 83.0036 48.1293C82.9368 48.326 82.8202 48.502 82.665 48.64C82.6057 48.6904 82.5624 48.757 82.5404 48.8315C82.5184 48.9061 82.5186 48.9855 82.541 49.06C82.586 49.254 82.582 49.46 82.641 49.652C82.778 50.1 82.941 50.541 83.092 50.983C83.164 51.183 83.253 51.383 83.335 51.583V51.771C83.3183 51.803 83.3045 51.8365 83.294 51.871C83.046 52.9057 82.7957 53.939 82.543 54.971C82.522 55.0599 82.4742 55.1402 82.406 55.201C82.034 55.501 81.655 55.788 81.274 56.075C81.2203 56.1149 81.1548 56.1356 81.088 56.134C80.782 56.11 80.476 56.079 80.172 56.034C80.1373 56.0273 80.1044 56.0137 80.0752 55.9939C80.046 55.9742 80.0211 55.9487 80.002 55.919C79.769 55.505 79.55 55.081 79.32 54.664C79.2972 54.6317 79.2875 54.592 79.2929 54.5528C79.2983 54.5136 79.3183 54.478 79.349 54.453C79.5 54.285 79.649 54.112 79.785 53.935C79.8314 53.8785 79.8578 53.8081 79.86 53.735C79.844 53.385 79.816 53.035 79.79 52.684C79.767 52.37 79.74 52.056 79.712 51.707L78.967 52.413C78.767 52.041 78.579 51.688 78.395 51.334C78.3868 51.3151 78.3826 51.2947 78.3826 51.274C78.3826 51.2534 78.3868 51.233 78.395 51.214C78.5507 50.7288 78.8555 50.3051 79.266 50.003C79.3174 49.9662 79.3653 49.9247 79.409 49.879L77.271 45.979L76.935 46.152C76.918 46.105 76.903 46.069 76.894 46.037C76.646 45.209 76.394 44.382 76.143 43.559C76.1136 43.4641 76.0683 43.3748 76.009 43.295C75.654 42.825 75.293 42.358 74.933 41.895L74.122 40.842C74.1047 40.8849 74.0897 40.9286 74.077 40.973C73.947 41.624 73.826 42.273 73.688 42.925C73.564 43.511 73.458 44.105 73.278 44.676C73.053 45.391 72.762 46.086 72.502 46.79C72.4726 46.8651 72.4557 46.9445 72.452 47.025C72.4367 47.985 72.4246 48.945 72.416 49.905C72.4155 49.9921 72.428 50.0787 72.453 50.162C72.8297 51.4287 73.2083 52.693 73.589 53.955C73.607 54.016 73.635 54.073 73.666 54.155L74.215 53.286C74.252 53.369 74.278 53.423 74.301 53.479C74.801 54.709 75.301 55.937 75.791 57.17C75.855 57.3458 75.8951 57.5295 75.91 57.716C75.999 58.557 76.079 59.4 76.158 60.24C76.2223 60.6104 76.2471 60.9865 76.232 61.362C76.108 62.343 75.947 63.32 75.762 64.291C75.69 64.7033 75.7487 65.1278 75.93 65.505L76.697 65.292C76.697 65.347 76.705 65.384 76.706 65.422C76.7553 69.0607 76.8063 72.699 76.859 76.337C76.8785 76.687 76.8028 77.0357 76.64 77.346C76.5961 77.4063 76.5717 77.4785 76.57 77.553C76.632 77.845 76.712 78.132 76.786 78.422L77.158 78.389C77.17 78.902 77.176 79.403 77.199 79.903C77.2043 80.0386 77.2384 80.1716 77.299 80.293C77.799 81.26 78.315 82.221 78.82 83.187C78.8603 83.2598 78.8724 83.3449 78.854 83.426C78.669 83.961 78.477 84.494 78.288 85.024ZM68.837 27.38C68.323 27.569 67.837 27.749 67.351 27.925C67.162 28.0209 66.9598 28.0883 66.751 28.125C66.1231 28.2053 65.485 28.1259 64.896 27.894C64.466 27.687 63.996 27.557 63.531 27.385C63.531 27.858 63.531 28.309 63.531 28.76C63.5366 28.7872 63.5486 28.8126 63.566 28.8341C63.5834 28.8557 63.6056 28.8728 63.631 28.884C64.233 29.1235 64.8546 29.3102 65.489 29.442V33.429H66.916V29.796C66.916 29.477 66.916 29.489 67.216 29.396C67.722 29.235 68.224 29.059 68.724 28.882C68.7514 28.8686 68.7754 28.8491 68.7941 28.825C68.8128 28.801 68.8258 28.7729 68.832 28.743C68.841 28.299 68.837 27.854 68.837 27.38Z" fill="#685137"/>
<g filter="url(#filter0_d_3_94)">
<path d="M105.072 49.5616L63.7031 8.19308C59.7978 4.28783 53.4662 4.28784 49.5609 8.19309L8.19238 49.5616C4.28713 53.4669 4.28715 59.7986 8.19239 63.7038L49.561 105.072C53.4662 108.978 59.7979 108.978 63.7031 105.072L105.072 63.7038C108.977 59.7985 108.977 53.4669 105.072 49.5616Z" stroke="#866846" shape-rendering="crispEdges"/>
</g>
<defs>
<filter id="filter0_d_3_94" x="0.763458" y="0.76416" width="111.737" height="111.737" filterUnits="userSpaceOnUse" color-interpolation-filters="sRGB">
<feFlood flood-opacity="0" result="BackgroundImageFix"/>
<feColorMatrix in="SourceAlpha" type="matrix" values="0 0 0 0 0 0 0 0 0 0 0 0 0 0 0 0 0 0 127 0" result="hardAlpha"/>
<feOffset/>
<feGaussianBlur stdDeviation="2"/>
<feComposite in2="hardAlpha" operator="out"/>
<feColorMatrix type="matrix" values="0 0 0 0 1 0 0 0 0 0.537255 0 0 0 0 0 0 0 0 1 0"/>
<feBlend mode="normal" in2="BackgroundImageFix" result="effect1_dropShadow_3_94"/>
<feBlend mode="normal" in="SourceGraphic" in2="effect1_dropShadow_3_94" result="shape"/>
</filter>
</defs>
</svg>
