<svg width="50" height="55" viewBox="0 0 50 55" fill="none" xmlns="http://www.w3.org/2000/svg">
<g clip-path="url(#clip0_477_165)">
<rect width="50" height="55" fill="white"/>
<path d="M50 0L0 0L0 50L50 50L50 0Z" fill="#161215"/>
<rect y="50" width="50" height="5" fill="#161215"/>
<path d="M41.8452 24.1163L37.5062 29.2875L37.5729 27.3223L40.5542 23.7694L40.5941 23.7218L40.5887 23.6599L40.066 17.6877L40.0606 17.6258L40.013 17.5859L34.0021 12.5419L34.7813 11.6132L41.2245 17.02L41.8452 24.1163Z" stroke="white" stroke-width="0.3"/>
<path d="M38.2806 18.2715L38.1656 18.1751L38.0692 18.29L36.3776 20.3057L36.2812 20.4206L36.3961 20.517L38.509 22.29L34.8111 25.745L33.7311 24.8388L33.7311 24.8388L28.3193 20.2976L28.3193 20.2976L27.2392 19.3914L29.9995 15.15L32.1124 16.923L32.2273 17.0194L32.3238 16.9044L34.0138 14.8882L34.1101 14.7733L33.9953 14.6769L33.5461 14.2998L34.1582 13.5705L39.3418 17.919L38.7297 18.6486L38.2806 18.2715Z" stroke="white" stroke-width="0.3"/>
<path d="M19.0665 31.5577L27.6518 21.3301L32.8335 25.6797L24.2482 35.9074L19.0665 31.5577Z" stroke="white" stroke-width="0.3"/>
<path d="M21.8963 42.0887L13.3867 34.9482L17.0846 31.4933L24.6566 37.8473L21.8963 42.0887Z" stroke="white" stroke-width="0.3"/>
<mask id="path-7-inside-1_477_165" fill="white">
<path d="M18.1355 31.1708L18.1655 31.1956L18.2011 31.1532L18.1355 31.1708Z"/>
</mask>
<path d="M18.1355 31.1708L18.0579 30.881L17.4964 31.0313L17.9442 31.4019L18.1355 31.1708ZM18.1655 31.1956L17.9742 31.4267L18.2034 31.6164L18.395 31.3887L18.1655 31.1956ZM18.2011 31.1532L18.4307 31.3464L19.0446 30.6168L18.1235 30.8634L18.2011 31.1532ZM17.9442 31.4019L17.9742 31.4267L18.3567 30.9645L18.3267 30.9397L17.9442 31.4019ZM18.395 31.3887L18.4307 31.3464L17.9716 30.96L17.9359 31.0024L18.395 31.3887ZM18.1235 30.8634L18.0579 30.881L18.2131 31.4606L18.2787 31.443L18.1235 30.8634Z" fill="white" mask="url(#path-7-inside-1_477_165)"/>
<path d="M16.7208 16.9802L15.216 11.2513L20.1214 14.571L20.3214 14.7064L20.3541 14.4671L21.1552 8.5987L24.4183 13.5425L24.5513 13.7441L24.6731 13.5355L27.658 8.42047L28.6828 13.7362L28.6831 13.7375L28.8938 14.8835L27.8702 16.4565L27.1056 12.4921L27.0301 12.1002L26.8288 12.4449L24.618 16.2316L22.2032 12.5703L21.9834 12.237L21.9294 12.6326L21.336 16.9774L17.7046 14.5195L17.374 14.2958L17.4755 14.6819L18.5902 18.9227L14.2945 18.0408L13.9033 17.9604L14.1449 18.2784L16.7978 21.7703L12.492 22.6028L12.1005 22.6785L12.4449 22.8796L16.2316 25.0905L12.5703 27.5052L12.2369 27.7251L12.6326 27.779L16.9652 28.3703L12.6993 34.112L11.2513 34.4924L14.571 29.587L14.7064 29.387L14.4671 29.3543L8.59885 28.5532L13.543 25.2917L13.7446 25.1587L13.536 25.0369L8.42041 22.051L14.2363 20.9297L14.4735 20.884L14.3274 20.6917L10.7433 15.9757L16.5456 17.1652L16.7822 17.2137L16.7208 16.9802Z" stroke="white" stroke-width="0.3"/>
</g>
<defs>
<clipPath id="clip0_477_165">
<rect width="50" height="55" fill="white"/>
</clipPath>
</defs>
</svg>
