<svg width="50" height="55" viewBox="0 0 50 55" fill="none" xmlns="http://www.w3.org/2000/svg">
<g clip-path="url(#clip0_478_306)">
<rect width="50" height="55" fill="white"/>
<path d="M50 0L0 0L0 50L50 50L50 0Z" fill="#161215"/>
<rect y="50" width="50" height="5" fill="#161215"/>
<path d="M25.2128 35.718V35.7187C25.3868 35.7187 25.5608 35.7187 25.7348 35.7187C26.8511 35.7188 27.9672 35.7189 29.0833 35.7167C29.0853 35.7156 29.0876 35.7141 29.0899 35.7124C29.0926 35.7104 29.0946 35.7087 29.0957 35.7076L29.0957 35.7076C29.751 35.0528 30.4051 34.3968 31.0594 33.7408C31.2777 33.5219 31.4961 33.3029 31.7145 33.084L31.7145 33.0839C31.9546 32.8435 32.1947 32.6031 32.4348 32.3627C33.1561 31.6405 33.8773 30.9184 34.5982 30.1955L34.5982 30.1954C34.9716 29.8214 35.3439 29.4477 35.7133 29.0714C35.7551 29.0283 35.7784 28.9899 35.7836 28.9668L35.7838 28.9657C35.8056 28.8715 35.8123 28.7687 35.8123 28.6611V28.661C35.8131 27.258 35.813 25.855 35.8128 24.4521C35.8128 23.4006 35.8127 22.349 35.813 21.2974L25.2128 35.718ZM25.2128 35.718H25.0629M25.2128 35.718H25.0629M25.0629 35.718C24.7335 35.718 24.4042 35.7179 24.0749 35.7178C23.0861 35.7176 22.0972 35.7173 21.108 35.7194L21.1083 35.8693V35.7194C21.024 35.7194 20.9695 35.6965 20.9071 35.6342C20.2458 34.9667 19.5821 34.3014 18.9186 33.6364C18.6974 33.4147 18.4762 33.193 18.2552 32.9713C17.9605 32.6754 17.6658 32.3795 17.3711 32.0835C16.369 31.0771 15.3665 30.0703 14.3608 29.0673L14.3607 29.0672M25.0629 35.718L14.3607 29.0672M14.3607 29.0672C14.2429 28.9499 14.2035 28.8277 14.2041 28.65L14.3607 29.0672ZM14.2075 21.4817V21.482C14.206 22.1494 14.2063 22.8167 14.2066 23.4842C14.2067 23.7513 14.2068 24.0184 14.2068 24.2857C14.2068 24.6491 14.207 25.0127 14.2072 25.3763C14.2077 26.4673 14.2082 27.5586 14.2041 28.6499L14.2075 21.4817ZM14.2075 21.4817C14.2075 21.4066 14.2113 21.3309 14.2152 21.2509L14.2153 21.2491C14.2192 21.1708 14.2233 21.0883 14.2233 21.0051C14.2233 20.9263 14.2526 20.8671 14.3222 20.7985C14.7544 20.3746 15.1845 19.9486 15.6143 19.5222C16.0707 19.0697 16.5269 18.6171 16.983 18.1646C17.6682 17.4849 18.3532 16.8053 19.0386 16.1262L19.0386 16.1261M14.2075 21.4817L19.0386 16.1261M19.0386 16.1261C19.6676 15.5026 20.2979 14.8799 20.9315 14.2614C20.9434 14.25 20.9785 14.2345 21.0056 14.2335L21.0003 14.0836L21.0052 14.2335C21.2043 14.227 21.4033 14.2274 21.6055 14.2279C21.6564 14.228 21.7075 14.2281 21.7589 14.2281H21.7727H21.7865H21.8003H21.8141H21.8279H21.8417H21.8555H21.8693H21.8831H21.8969H21.9107H21.9245H21.9383H21.9521H21.9659H21.9797H21.9935H22.0073H22.0211H22.0349H22.0487H22.0625H22.0763H22.0901H22.1039H22.1177H22.1315H22.1453H22.1591H22.1729H22.1867H22.2005H22.2143H22.2281H22.2419H22.2557H22.2695H22.2833H22.2971H22.3109H22.3246H22.3384H22.3522H22.366H22.3798H22.3936H22.4074H22.4212H22.435H22.4488H22.4626H22.4764H22.4902H22.504H22.5178H22.5316H22.5454H22.5592H22.573H22.5868H22.6006H22.6144H22.6282H22.642H22.6558H22.6696H22.6834H22.6972H22.711H22.7248H22.7386H22.7524H22.7662H22.78H22.7938H22.8076H22.8214H22.8352H22.849H22.8628H22.8766H22.8904H22.9042H22.918H22.9318H22.9456H22.9594H22.9732H22.987H23.0008H23.0146H23.0284H23.0422H23.056H23.0698H23.0836H23.0974H23.1112H23.125H23.1388H23.1526H23.1664H23.1802H23.194H23.2078H23.2216H23.2354H23.2492H23.263H23.2768H23.2906H23.3044H23.3182H23.332H23.3458H23.3596H23.3734H23.3872H23.401H23.4148H23.4286H23.4424H23.4562H23.47H23.4838H23.4976H23.5114H23.5252H23.539H23.5528H23.5666H23.5804H23.5942H23.608H23.6218H23.6356H23.6494H23.6632H23.677H23.6908H23.7046H23.7184H23.7322H23.746H23.7598H23.7736H23.7874H23.8012H23.815H23.8288H23.8426H23.8564H23.8702H23.884H23.8978H23.9116H23.9254H23.9392H23.953H23.9668H23.9806H23.9944H24.0082H24.0219H24.0357H24.0495H24.0633H24.0771H24.0909H24.1047H24.1185H24.1323H24.1461H24.1599H24.1737H24.1875H24.2013H24.2151H24.2289H24.2427H24.2565H24.2703H24.2841H24.2979H24.3117H24.3255H24.3393H24.3531H24.3669H24.3807H24.3945H24.4083H24.4221H24.4359H24.4497H24.4635H24.4773H24.4911H24.5049H24.5187H24.5325H24.5463H24.5601H24.5739H24.5877H24.6015H24.6153H24.6291H24.6429H24.6567H24.6705H24.6843H24.6981H24.7119H24.7257H24.7395H24.7533H24.7671H24.7809H24.7947H24.8085H24.8223H24.8361H24.8499H24.8637H24.8775H24.8913H24.9051H24.9189H24.9327H24.9465H24.9603H24.9741H24.9879H25.0017H25.0155H25.0293H25.0431H25.0569H25.0707H25.0845H25.0983H25.1121H25.1259H25.1397H25.1535H25.1673H25.1811H25.1949H25.2087H25.2225H25.2363H25.2501H25.2639H25.2777H25.2915H25.3053H25.3191H25.3329H25.3467H25.3605H25.3743H25.3881H25.4019H25.4157H25.4295H25.4433H25.4571H25.4709H25.4847H25.4985H25.5123H25.5261H25.5399H25.5537H25.5675H25.5813H25.5951H25.6089H25.6227H25.6365H25.6503H25.6641H25.6779H25.6917H25.7055H25.7193H25.7331H25.7469H25.7607H25.7745H25.7883H25.8021H25.8159H25.8297H25.8435H25.8573H25.8711H25.8849H25.8987H25.9125H25.9263H25.9401H25.9539H25.9677H25.9815H25.9953H26.0091H26.0229H26.0367H26.0505H26.0643H26.0781H26.0919H26.1057H26.1195H26.1333H26.1471H26.1609H26.1747H26.1885H26.2023H26.2161H26.2299H26.2437H26.2575H26.2713H26.2851H26.2989H26.3127H26.3265H26.3403H26.3541H26.3679H26.3817H26.3955H26.4093H26.4231H26.4369H26.4507H26.4645H26.4783H26.4921H26.5059H26.5197H26.5335H26.5473H26.5611H26.5749H26.5887H26.6025H26.6163H26.6301H26.6439H26.6577H26.6715H26.6853H26.6991H26.7129H26.7267H26.7405H26.7543H26.7681H26.7819H26.7957H26.8095H26.8233H26.8371H26.8509H26.8647H26.8785H26.8923H26.9061H26.9199H26.9337H26.9475H26.9613H26.9751H26.9889H27.0027H27.0165H27.0303H27.0441H27.0579H27.0717H27.0855H27.0993H27.1131H27.1269H27.1407H27.1545H27.1683H27.1821H27.1959H27.2097H27.2235H27.2373H27.2511H27.2649H27.2787H27.2925H27.3063H27.3201H27.3339H27.3477H27.3615H27.3753H27.3891H27.4029H27.4167H27.4305H27.4443H27.4581H27.4719H27.4857H27.4995H27.5133H27.5271H27.5409H27.5547H27.5685H27.5823H27.5961H27.6099H27.6237H27.6375H27.6513H27.6651H27.6789H27.6927H27.7065H27.7203H27.7341H27.7479H27.7617H27.7755H27.7893H27.8031H27.8169H27.8307H27.8445H27.8583H27.8721H27.8859H27.8997H27.9135H27.9273H27.9411H27.9549H27.9687H27.9825H27.9963H28.01H28.0238H28.0376H28.0514H28.0652H28.079H28.0928H28.1066H28.1204H28.1342H28.148H28.1618H28.1756H28.1894H28.2032H28.217H28.2308H28.2446H28.2584H28.2722H28.286H28.2998H28.3136H28.3274H28.3412H28.355H28.3688H28.3826H28.3964H28.4102H28.424H28.4378H28.4516H28.4654H28.4792H28.493H28.5068H28.5206H28.5344H28.5482H28.562H28.5758H28.5896H28.6034H28.6172H28.631H28.6448H28.6586H28.6724H28.6862H28.7H28.7138H28.7276H28.7414H28.7552H28.769H28.7828H28.7966H28.8104H28.8242C28.8283 14.2281 28.8348 14.2283 28.8427 14.2285C28.8676 14.2291 28.9073 14.2301 28.9386 14.2276L28.9266 14.0781L28.9376 14.2277C29.0216 14.2216 29.0871 14.2507 29.1661 14.3303C29.9781 15.1485 30.7935 15.9632 31.6086 16.7776L31.6101 16.779C31.6101 16.7791 31.6101 16.7791 31.6101 16.7791C31.894 17.063 32.1779 17.347 32.4618 17.6311C33.5029 18.673 34.5446 19.7154 35.5905 20.7526L35.5906 20.7527M19.0386 16.1261L35.5906 20.7527M35.5906 20.7527C35.7491 20.9094 35.813 21.0791 35.813 21.2973L35.5906 20.7527ZM16.4577 24.8715H16.4597C16.4597 24.4867 16.4594 24.102 16.4591 23.7172V23.717C16.4587 23.2822 16.4584 22.8473 16.4584 22.4122C16.4584 22.2592 16.4684 22.1046 16.4893 21.9517L16.4894 21.9514C16.4974 21.8935 16.5244 21.8455 16.5475 21.8125C16.5715 21.778 16.5994 21.7482 16.6229 21.7255C17.1697 21.1917 17.718 20.66 18.2667 20.1285L18.2668 20.1284C18.5261 19.8774 18.7855 19.6264 19.0448 19.3753C19.7589 18.6838 20.4732 17.9922 21.1893 17.3029L21.1893 17.3029C21.449 17.0529 21.7186 16.8124 21.9862 16.5757L21.9871 16.575L21.9871 16.575C22.0601 16.5114 22.1642 16.4783 22.2512 16.4762L22.2513 16.4762C22.7595 16.4646 23.2691 16.4535 23.7791 16.4521L16.4577 24.8715ZM16.4577 24.8715V25.0215M16.4577 24.8715V25.0215M16.4577 25.0215C16.4577 25.1899 16.4576 25.3584 16.4575 25.5269C16.4574 25.8642 16.4572 26.2018 16.4577 26.5389L16.4577 26.539M16.4577 25.0215L16.4577 26.539M16.4577 26.539C16.4582 26.8119 16.4592 27.0851 16.4603 27.358C16.4608 27.4943 16.4614 27.6306 16.4618 27.7668L16.4618 27.7672M16.4577 26.539L16.4618 27.7672M16.4618 27.7672C16.4627 27.917 16.507 28.0591 16.6239 28.179C16.7119 28.2695 16.8024 28.366 16.894 28.4635C17.0133 28.5907 17.1343 28.7196 17.2537 28.8397L17.2538 28.8398M16.4618 27.7672L17.2538 28.8398M17.2538 28.8398C18.4925 30.084 19.7319 31.3269 20.9733 32.569L20.9734 32.569M17.2538 28.8398L20.9734 32.569M20.9734 32.569C21.2435 32.8392 21.519 33.1043 21.7951 33.3667C21.8538 33.4225 21.9443 33.4778 22.0411 33.4906L22.0419 33.4907M20.9734 32.569L22.0419 33.4907M22.0419 33.4907C22.1947 33.5102 22.3495 33.5187 22.5017 33.5194H22.5022M22.0419 33.4907L22.5022 33.5194M22.5022 33.5194C23.7299 33.5208 24.9571 33.5208 26.1849 33.518H26.185M22.5022 33.5194L26.185 33.518M26.185 33.518C26.7224 33.5167 27.2602 33.5091 27.7969 33.4995M26.185 33.518L28.0499 33.4111M28.0499 33.4111L28.0495 33.4115C27.9806 33.4642 27.8857 33.4983 27.7969 33.4995M28.0499 33.4111C28.1968 33.2978 28.353 33.177 28.4938 33.0392L28.4939 33.039M28.0499 33.4111L28.4939 33.039M27.7969 33.4995C27.7967 33.4995 27.7966 33.4995 27.7964 33.4995L27.7946 33.3495L27.7973 33.4995C27.7971 33.4995 27.797 33.4995 27.7969 33.4995ZM28.4939 33.039C29.1902 32.3551 29.8845 31.6695 30.5787 30.984C30.9255 30.6416 31.2723 30.2992 31.6193 29.957L31.5169 29.8532M28.4939 33.039L31.5169 29.8532M31.5169 29.8532L31.6193 29.957C31.8212 29.7578 32.0239 29.5589 32.2268 29.3598M31.5169 29.8532L32.2268 29.3598M33.4624 25.4401V25.4402V25.4401ZM33.4624 25.4401C33.4615 25.2943 33.4518 25.1437 33.4425 24.9982C33.4375 24.9205 33.4326 24.8443 33.4292 24.7711C33.4261 24.7017 33.4279 24.6301 33.4313 24.5552C33.4345 24.4864 33.4388 24.415 33.4432 24.3423C33.4516 24.2035 33.4603 24.06 33.4617 23.9206V23.9204M33.4624 25.4401L33.4617 23.9204M33.4617 23.9204C33.4628 23.8019 33.459 23.6841 33.455 23.5692M33.4617 23.9204L33.455 23.5692M32.2268 29.3598C32.5776 29.0155 32.9289 28.6709 33.2771 28.3239M32.2268 29.3598L33.2771 28.3239M33.2771 28.3239C33.3542 28.2476 33.4055 28.1398 33.4256 28.043L33.2787 28.0126C33.3035 27.8943 33.3131 27.7705 33.3131 27.6487L33.4631 27.6493C33.4631 27.6491 33.4631 27.649 33.4631 27.6488L33.2771 28.3239ZM33.455 23.5692C33.4546 23.5575 33.4542 23.5459 33.4538 23.5343M33.455 23.5692L33.4538 23.5343M33.4538 23.5343C33.4501 23.4307 33.4465 23.3296 33.4459 23.2284L33.4538 23.5343ZM25.0622 35.868C25.0136 35.868 24.965 35.868 24.9165 35.868C24.9129 35.868 24.9129 35.868 24.9129 35.8679V35.8678L24.9129 35.8675L24.9129 35.8669L24.9129 35.8657L24.9129 35.8631L24.9132 35.8574C24.9135 35.8535 24.914 35.8488 24.9149 35.8436C24.9165 35.8338 24.92 35.8185 24.9286 35.8014C24.9374 35.7837 24.953 35.7614 24.9793 35.7438C25.0065 35.7257 25.0361 35.7187 25.0622 35.7187V35.868ZM33.4512 22.1316C33.4477 22.0677 33.4302 21.9652 33.3646 21.8897L33.4512 22.1316Z" stroke="white" stroke-width="0.3"/>
<path d="M10.3283 26.5862L10.327 26.5789C10.2746 26.5852 10.2241 26.5917 10.1723 26.6006L10.172 26.6006L10.172 26.6006C10.1642 26.6019 10.1602 26.6037 10.1588 26.6044C10.1586 26.6045 10.1584 26.6046 10.1583 26.6047L10.3283 26.5862ZM10.3283 26.5862L10.4647 26.5762M10.3283 26.5862L10.4647 26.5762M10.4647 26.5762C10.4934 26.5741 10.5203 26.5718 10.5462 26.5696C10.6038 26.5647 10.6561 26.5603 10.7106 26.5594L10.7108 26.5594M10.4647 26.5762L10.7108 26.5594M10.7108 26.5594C10.852 26.5569 10.9727 26.6265 11.0929 26.7442L11.0929 26.7442M10.7108 26.5594L11.0929 26.7442M11.0929 26.7442C11.5527 27.1943 12.0083 27.6487 12.4647 28.1039C12.4973 28.1363 12.5298 28.1688 12.5624 28.2013L12.5624 28.2013L11.0929 26.7442ZM16.4496 32.0624L16.4496 32.0624C15.9188 31.534 15.3865 31.0082 14.8539 30.4822C14.4693 30.1023 14.0845 29.7223 13.7002 29.3412L16.4496 32.0624ZM16.4496 32.0624C17.7708 33.3767 19.091 34.6914 20.405 36.0116C21.076 36.686 21.7418 37.3652 22.4081 38.0449C22.6703 38.3123 22.9326 38.5799 23.1952 38.8472L23.1955 38.8475M16.4496 32.0624L23.1955 38.8475M23.1955 38.8475C23.2359 38.8884 23.2722 38.9323 23.3133 38.9822C23.3229 38.9939 23.3328 39.0058 23.343 39.0182L23.3431 39.0183M23.1955 38.8475L23.3431 39.0183M23.3431 39.0183C23.4511 39.1479 23.4769 39.2989 23.4424 39.4802M23.3431 39.0183L23.4424 39.4802M22.0846 39.6305L22.0848 39.6305C22.3706 39.6919 22.6583 39.7272 22.9536 39.7634C23.0742 39.7782 23.196 39.7931 23.3195 39.81L22.0846 39.6305ZM22.0846 39.6305C21.5432 39.5147 21.0109 39.3982 20.4979 39.2175L20.4979 39.2175M22.0846 39.6305L20.4979 39.2175M20.4979 39.2175C20.4005 39.1832 20.3021 39.1515 20.206 39.1205C20.1889 39.1149 20.1718 39.1094 20.1548 39.1039C20.0416 39.0673 19.9314 39.0309 19.8235 38.9903L19.7707 39.1307M20.4979 39.2175L19.7707 39.1307M19.7707 39.1307L19.8235 38.9903C19.544 38.885 19.2677 38.7748 18.9969 38.654C18.7512 38.5441 18.5092 38.427 18.265 38.3087C18.183 38.269 18.1006 38.2291 18.0178 38.1894L18.0176 38.1893M19.7707 39.1307L18.0176 38.1893M18.0176 38.1893C17.9769 38.1698 17.9318 38.147 17.8849 38.1231C17.8072 38.0837 17.7241 38.0416 17.6464 38.0076L17.6463 38.0076M18.0176 38.1893L17.6463 38.0076M17.6463 38.0076C17.5082 37.9475 17.3972 37.849 17.2731 37.7249C16.7007 37.1498 16.1266 36.5765 15.5527 36.0033C15.4092 35.86 15.2657 35.7167 15.1223 35.5734L15.1223 35.5734M17.6463 38.0076L15.1223 35.5734M15.1223 35.5734C14.9725 35.4238 14.8228 35.2742 14.6731 35.1246M15.1223 35.5734L14.6731 35.1246M13.6593 32.7548C13.67 32.6763 13.6814 32.5996 13.6927 32.5241C13.7189 32.3484 13.7442 32.1786 13.7573 32.0052L13.7574 32.005C13.7815 31.6941 13.9609 31.5024 14.169 31.3604L14.1692 31.3602C14.222 31.3243 14.2822 31.2901 14.3355 31.2599C14.3584 31.2469 14.38 31.2346 14.3992 31.2232L14.5724 31.1206L14.6007 31.2339L14.2167 33.5576M13.6593 32.7548C13.6593 32.7548 13.6593 32.7547 13.6593 32.7547L13.8079 32.7752L13.6593 32.7549C13.6593 32.7549 13.6593 32.7548 13.6593 32.7548ZM13.6593 32.7548C13.6391 32.9017 13.6835 33.0321 13.7902 33.1367L13.791 33.1375C13.8481 33.1927 13.9089 33.2537 13.9708 33.3158C14.0526 33.3979 14.1364 33.482 14.2167 33.5576M14.2167 33.5576C14.2167 33.5576 14.2166 33.5576 14.2166 33.5576L14.3192 33.4489L14.2167 33.5576ZM16.3069 33.1397C16.353 33.0868 16.3871 33.0171 16.381 32.935C16.3752 32.8557 16.3337 32.793 16.2887 32.7474L16.2885 32.7472C16.2015 32.6596 16.1158 32.5705 16.0313 32.4806L16.0311 32.4803C15.9432 32.3872 15.8553 32.2947 15.7676 32.2024C15.5425 31.9657 15.3188 31.7304 15.1006 31.4895C15.1006 31.4895 15.1006 31.4895 15.1006 31.4895L14.9894 31.5902L16.3069 33.1397ZM16.3069 33.1397C16.307 33.1396 16.307 33.1396 16.3071 33.1395L16.1937 33.0414L16.3068 33.1399C16.3068 33.1398 16.3069 33.1397 16.3069 33.1397ZM23.4424 39.4802C23.424 39.5759 23.4009 39.6712 23.3757 39.7691L23.4424 39.4802ZM14.6731 35.1246C14.2242 34.6759 13.7753 34.2273 13.3249 33.7795M14.6731 35.1246L13.3249 33.7795M13.3249 33.7795C13.1883 33.6436 13.0517 33.5097 12.9155 33.3762M13.3249 33.7795C13.3249 33.7795 13.3249 33.7795 13.3249 33.7795L13.2192 33.8859L12.9155 33.3762M12.9155 33.3762C12.6853 33.1505 12.4565 32.9261 12.2308 32.6958M12.9155 33.3762L12.2308 32.6958M12.2308 32.6958C12.1382 32.6006 12.0581 32.4827 11.9921 32.3578C11.7972 31.9885 11.6103 31.6141 11.4295 31.2366C11.3361 31.0404 11.2553 30.8361 11.1775 30.6272L11.0369 30.6796L11.1776 30.6275C11.1503 30.554 11.123 30.4808 11.0958 30.4079L12.2308 32.6958ZM10.1528 26.7348C10.1481 26.709 10.1497 26.6762 10.1541 26.623L10.7462 29.4164C10.6297 29.0403 10.5351 28.6556 10.4504 28.2674C10.3662 27.8794 10.2937 27.4899 10.2207 27.0978C10.1982 26.9771 10.1757 26.8561 10.1528 26.7348ZM17.5375 36.1885C17.7005 36.1905 17.8525 36.1555 18.0011 36.0942L15.9502 35.0269C16.0868 35.1715 16.2243 35.3154 16.3617 35.4593C16.5635 35.6704 16.7652 35.8814 16.964 36.0949C17.0479 36.1857 17.1345 36.2401 17.2611 36.2222C17.2906 36.2184 17.3202 36.2135 17.3497 36.2085C17.4123 36.198 17.4749 36.1875 17.5375 36.1885ZM16.2546 35.5643C16.4555 35.7745 16.6555 35.9838 16.854 36.197C16.9023 36.2492 16.9601 36.3007 17.0324 36.3349C17.1075 36.3704 17.1901 36.3835 17.2809 36.3709C17.3128 36.3668 17.3481 36.3609 17.3794 36.3557C17.395 36.3531 17.4096 36.3506 17.4223 36.3487C17.4657 36.3419 17.5019 36.338 17.5353 36.3385L17.5356 36.3385C17.7224 36.3408 17.8945 36.3004 18.0582 36.2329L18.0583 36.2329C18.0794 36.2242 18.1018 36.2154 18.1252 36.2062C18.2927 36.1404 18.5104 36.0549 18.6486 35.8466C18.7329 35.7199 18.7974 35.5726 18.804 35.4181C18.811 35.2573 18.7544 35.101 18.6189 34.9704C18.3577 34.7186 18.1006 34.4643 17.8427 34.2091C17.6875 34.0556 17.532 33.9017 17.3751 33.748C17.3327 33.7062 17.2801 33.6679 17.2401 33.6387C17.2281 33.63 17.2172 33.6221 17.2081 33.6152L17.2079 33.615C17.1493 33.5706 17.078 33.5447 16.9994 33.5552C16.926 33.5651 16.8683 33.6041 16.8264 33.643C16.7252 33.7364 16.6234 33.8298 16.5214 33.9234C16.2971 34.1292 16.0718 34.3359 15.8504 34.546L15.8503 34.546C15.808 34.5863 15.768 34.6271 15.7385 34.669C15.7078 34.7126 15.6806 34.7682 15.6805 34.8362C15.6804 34.9031 15.7067 34.9587 15.7351 35.002C15.7629 35.0443 15.8007 35.087 15.8411 35.1298L15.8411 35.1298C15.9792 35.276 16.1171 35.4204 16.2546 35.5643Z" stroke="white" stroke-width="0.3"/>
<path d="M26.6027 39.7859L26.6028 39.7865C26.604 39.7938 26.6053 39.7996 26.6064 39.804L26.6027 39.7859ZM26.6027 39.7859C26.5944 39.7385 26.5881 39.6907 26.5812 39.6396C26.5803 39.6327 26.5794 39.6258 26.5785 39.6188C26.5707 39.561 26.5621 39.4993 26.5497 39.4371L26.4026 39.4664L26.5498 39.4375C26.513 39.2496 26.5697 39.099 26.7139 38.9559L26.7139 38.9559M26.6027 39.7859L26.7139 38.9559M33.1006 37.5242L32.9954 37.4172C32.9885 37.424 32.9811 37.4312 32.9732 37.4388C32.9405 37.4704 32.9011 37.5086 32.8668 37.5493L32.8661 37.5502C32.6608 37.7982 32.3928 37.946 32.0951 38.1103C32.0273 38.1476 31.9581 38.1858 31.8877 38.2262C31.4734 38.4641 31.0313 38.6397 30.578 38.8198C30.5559 38.8286 30.5337 38.8374 30.5115 38.8462L30.5114 38.8463C30.2545 38.9487 29.9941 39.0362 29.7292 39.1253C29.6103 39.1653 29.4905 39.2056 29.3697 39.2477L29.3696 39.2477C28.9313 39.4007 28.4773 39.5002 28.0134 39.5864L28.0134 39.5864C27.7107 39.6428 27.4076 39.6933 27.1031 39.7441C26.9859 39.7637 26.8684 39.7833 26.7507 39.8033C26.7506 39.8033 26.7504 39.8033 26.7502 39.8033L26.7484 39.8035L26.7411 39.8041L26.7291 39.8047L26.7197 39.8053C26.7078 39.8054 26.6969 39.8054 26.6865 39.8055C26.6655 39.8057 26.6466 39.8058 26.626 39.8054L39.3646 29.5478C39.3474 29.5956 39.3303 29.6434 39.3137 29.6914L39.172 29.6421C39.172 29.6421 39.172 29.6422 39.172 29.6422C39.1498 29.706 39.128 29.7693 39.1063 29.8324C39.0369 30.0345 38.9685 30.2334 38.8919 30.4299L39.0315 30.4843L38.892 30.4298C38.693 30.9393 38.4782 31.4384 38.2191 31.9147L38.219 31.9149C38.1439 32.0532 38.0702 32.1949 38.0025 32.3396L38.0024 32.3397C37.9329 32.4886 37.8182 32.6047 37.6808 32.7421L37.6808 32.7422C37.3825 33.0409 37.0843 33.3398 36.7861 33.6388C36.1897 34.2367 35.5933 34.8346 34.9959 35.4311L34.9959 35.4311C34.5527 35.8739 34.1079 36.3146 33.6628 36.7556C33.4402 36.9761 33.2175 37.1967 32.9949 37.4177L33.1006 37.5242ZM33.1006 37.5242C33.3229 37.3034 33.5455 37.0829 33.7681 36.8624C34.2133 36.4213 34.6585 35.9802 35.1019 35.5372L30.6364 38.958C31.0872 38.7789 31.5385 38.5997 31.9624 38.3563C32.0274 38.319 32.093 38.2829 32.1586 38.2468C32.4582 38.0819 32.7565 37.9178 32.9816 37.6459C33.0104 37.6117 33.0426 37.5805 33.0748 37.5492C33.0834 37.5409 33.092 37.5326 33.1006 37.5242ZM26.7139 38.9559C26.9048 38.7664 27.0946 38.5753 27.284 38.3847M26.7139 38.9559L27.284 38.3847M31.2437 35.6613L31.2434 35.6599C31.2276 35.5857 31.2185 35.5049 31.2105 35.4337C31.2073 35.4058 31.2043 35.3794 31.2012 35.3554L31.2437 35.6613ZM31.2437 35.6613C31.2599 35.7339 31.2973 35.8116 31.3516 35.8702L31.2437 35.6613ZM32.133 36.28L32.1328 36.28C31.822 36.2366 31.5616 36.0972 31.3516 35.8702L32.133 36.28ZM32.133 36.28C32.2839 36.3009 32.4327 36.3302 32.586 36.3604C32.6293 36.3689 32.673 36.3775 32.7172 36.386M32.133 36.28L34.1903 35.0859M34.1903 35.0859L34.1903 35.0859C34.0971 35.1872 34.0038 35.2882 33.9107 35.3891C33.6455 35.6762 33.3812 35.9624 33.1207 36.2523C33.0684 36.3107 33.0072 36.3556 32.9327 36.3788C32.8591 36.4019 32.7861 36.3994 32.7172 36.386M34.1903 35.0859C34.2417 35.03 34.3086 34.9484 34.3088 34.8434C34.309 34.7314 34.2352 34.6522 34.1741 34.5986L34.1738 34.5983M34.1903 35.0859L34.1738 34.5983M32.7172 36.386C32.7171 36.386 32.7171 36.386 32.717 36.386L32.7457 36.2388L32.7174 36.3861C32.7173 36.386 32.7173 36.386 32.7172 36.386ZM34.1738 34.5983C33.9193 34.376 33.6616 34.1564 33.4047 33.9375C33.2986 33.847 33.1926 33.7567 33.087 33.6663C33.0486 33.6333 32.9896 33.5976 32.9131 33.6046C32.8427 33.6111 32.7923 33.6512 32.7628 33.6789L32.7623 33.6793M34.1738 34.5983L32.7623 33.6793M32.7623 33.6793C32.6474 33.788 32.5371 33.8901 32.4263 33.9926M32.7623 33.6793L32.4263 33.9926M35.4859 31.228L35.4863 31.2283C35.5173 31.2444 35.5503 31.2566 35.5936 31.2725C35.6017 31.2756 35.6103 31.2787 35.6193 31.2821C35.6705 31.3011 35.7353 31.3264 35.7951 31.3669L35.4859 31.228ZM35.4859 31.228C35.4413 31.205 35.3842 31.1857 35.319 31.195C35.2537 31.2044 35.205 31.2389 35.1703 31.272L35.1701 31.2722M35.4859 31.228L35.1701 31.2722M35.1701 31.2722C35 31.4353 34.8294 31.5983 34.6588 31.7614C34.3451 32.0612 34.0311 32.3614 33.7187 32.663C33.6352 32.7434 33.5773 32.8451 33.5761 32.9627C33.5749 33.0802 33.6305 33.1836 33.7126 33.2666L33.7128 33.2667M35.1701 31.2722L33.7128 33.2667M33.7128 33.2667C33.9377 33.4936 34.1661 33.7179 34.3937 33.9415C34.4945 34.0405 34.5952 34.1394 34.6953 34.2382C34.7369 34.2793 34.8009 34.3247 34.8867 34.3223C34.9699 34.3199 35.032 34.2732 35.0732 34.2321L35.0733 34.232M33.7128 33.2667L35.0733 34.232M35.0733 34.232C35.4301 33.8745 35.7878 33.5182 36.1494 33.1669L36.1494 33.1669M35.0733 34.232L36.1494 33.1669M36.1494 33.1669L36.1509 33.1654M36.1494 33.1669L36.1509 33.1654M36.1509 33.1654C36.2521 33.0642 36.3432 32.9306 36.3155 32.7388M36.1509 33.1654L36.3155 32.7388M27.284 38.3847C27.389 38.279 27.4939 38.1734 27.5988 38.0683L27.284 38.3847ZM32.4263 33.9926C32.3243 34.0871 32.2218 34.182 32.1146 34.283L32.4263 33.9926ZM36.3155 32.7388C36.2847 32.4328 36.2538 32.1264 36.2216 31.8199L36.3155 32.7388ZM39.6084 28.0107C39.5306 28.3819 39.4411 28.7516 39.3459 29.1209L39.6886 26.5879C39.8169 26.5982 39.8393 26.6265 39.841 26.6288C39.8446 26.6338 39.8595 26.6621 39.8406 26.7719L39.8405 26.7719C39.7691 27.1873 39.6945 27.6007 39.6084 28.0107L39.6084 28.0107ZM38.7834 26.8637C38.9171 26.7287 39.0426 26.6219 39.1953 26.5664L27.5989 38.0682L27.6089 38.0581C29.4625 36.2025 31.3153 34.3476 33.1689 32.4927C33.596 32.0653 34.0234 31.638 34.4509 31.2107C35.0921 30.5698 35.7334 29.9287 36.3738 29.2871C37.0176 28.6422 37.6596 27.9955 38.3015 27.3491C38.4621 27.1873 38.6227 27.0256 38.7833 26.8639L38.7834 26.8637Z" stroke="white" stroke-width="0.3"/>
<path d="M10.6738 23.4287L10.6855 23.4315C10.6866 23.4317 10.6882 23.4321 10.6926 23.431C10.6981 23.4297 10.7079 23.4261 10.7228 23.4168C10.7555 23.3966 10.7905 23.3644 10.8389 23.3185L10.942 23.4273L10.8386 23.3188C11.1341 23.0371 11.4283 22.7545 11.7183 22.468C12.6118 21.5836 13.5048 20.6986 14.3977 19.8136C14.8443 19.371 15.2908 18.9285 15.7374 18.486C16.284 17.9442 16.8307 17.4028 17.3774 16.8614L17.3781 16.8608C17.925 16.3192 18.4719 15.7776 19.0186 15.2357C19.5852 14.674 20.1515 14.1121 20.7179 13.5502L20.7184 13.5497C21.2849 12.9877 21.8514 12.4256 22.4181 11.8637C22.5722 11.7108 22.7277 11.5575 22.883 11.4045C23.0072 11.282 23.1313 11.1597 23.2545 11.0376L23.3601 11.1442L23.2545 11.0376C23.4269 10.867 23.4897 10.6705 23.4439 10.4344C23.4381 10.4049 23.4284 10.3737 23.4156 10.3363C23.4128 10.328 23.4097 10.3191 23.4064 10.3098C23.3961 10.2801 23.3842 10.2461 23.3744 10.2129L23.3744 10.2129C23.364 10.1778 23.3554 10.1619 23.3512 10.1556C23.3502 10.1555 23.349 10.1555 23.3477 10.1554C23.3362 10.1551 23.3166 10.1567 23.2846 10.164L23.2839 10.1641C23.2132 10.1799 23.1394 10.1875 23.0765 10.194C23.0641 10.1953 23.0522 10.1965 23.0407 10.1978L23.0244 10.0486M10.6738 23.4287L16.7214 12.8211C16.7867 12.7558 16.8495 12.6911 16.9114 12.6274C17.0565 12.4779 17.1964 12.3338 17.3503 12.2005L17.3505 12.2004C17.5001 12.0706 17.6756 11.9596 17.8584 11.8598C18.1411 11.7055 18.4309 11.5617 18.7251 11.4322C19.1369 11.2513 19.5509 11.0785 19.9696 10.9223L19.9697 10.9223C20.206 10.834 20.4489 10.7654 20.6986 10.6949C20.7523 10.6797 20.8063 10.6644 20.8607 10.6489C21.1332 10.5711 21.4029 10.4952 21.6744 10.4351C22.0172 10.3594 22.3638 10.2963 22.7129 10.2328L22.7212 10.2313L22.7214 10.2313C22.785 10.2196 22.842 10.2151 22.9064 10.21C22.9472 10.2068 22.991 10.2034 23.0412 10.1977L23.0244 10.0486M10.6738 23.4287L10.6618 23.4278M10.6738 23.4287L10.6618 23.4278M23.0244 10.0486C22.985 10.0531 22.9453 10.0563 22.9057 10.0595C22.8348 10.0652 22.764 10.0709 22.6943 10.0837L23.5911 10.4056C23.5812 10.3554 23.5642 10.3067 23.5471 10.2577C23.537 10.2288 23.5269 10.1998 23.5182 10.1704C23.4735 10.0191 23.4061 9.98262 23.2514 10.0177C23.1899 10.0314 23.1266 10.038 23.0636 10.0445C23.0505 10.0459 23.0375 10.0472 23.0244 10.0486ZM10.6618 23.4278C10.6102 23.4239 10.562 23.4204 10.5163 23.4171C10.3981 23.4085 10.2963 23.4012 10.1944 23.3909L10.194 23.3909M10.6618 23.4278L10.194 23.3909M10.194 23.3909C10.1854 23.3901 10.1788 23.389 10.1737 23.388C10.1735 23.3855 10.1733 23.3825 10.1732 23.3791L10.1731 23.3781M10.194 23.3909L10.1731 23.3781M10.1731 23.3781C10.1713 23.3316 10.1772 23.2914 10.1849 23.239C10.189 23.2111 10.1936 23.1798 10.1978 23.1422L10.1979 23.1415M10.1731 23.3781L10.1979 23.1415M10.1979 23.1415C10.2023 23.1004 10.2059 23.0614 10.2094 23.0237C10.2166 22.9474 10.2232 22.8762 10.2347 22.8027L10.2348 22.8026M10.1979 23.1415L10.2348 22.8026M10.2348 22.8026C10.2703 22.5745 10.3092 22.3474 10.3504 22.1192C10.3831 21.94 10.4184 21.7621 10.4584 21.586L10.2348 22.8026ZM10.8861 20.1337L10.8861 20.1339C10.7877 20.4234 10.6908 20.7114 10.6036 21.0015C10.5525 21.1726 10.5126 21.3476 10.4716 21.5278L10.8861 20.1337ZM10.8861 20.1337C10.8974 20.1003 10.9086 20.0671 10.9198 20.0339C10.9965 19.8064 11.0713 19.5844 11.1605 19.3685L10.8861 20.1337ZM11.6167 18.3495L11.6166 18.3497L11.6078 18.3688C11.453 18.702 11.2995 19.0325 11.1605 19.3685L11.6167 18.3495ZM11.6167 18.3495C11.7186 18.1292 11.8234 17.9124 11.939 17.7047L11.9391 17.7046M11.6167 18.3495L11.9391 17.7046M11.9391 17.7046C12.0079 17.5808 12.0855 17.465 12.1756 17.3731M11.9391 17.7046L12.1756 17.3731M17.2468 13.5971L17.3179 13.6177C17.3569 13.629 17.3874 13.6385 17.4138 13.6468C17.4519 13.6586 17.4814 13.6679 17.5152 13.6757C17.5986 13.6928 17.6847 13.7092 17.7719 13.7259C17.9218 13.7545 18.075 13.7838 18.2231 13.8178M17.2468 13.5971L18.6176 14.1705C18.5539 13.9755 18.4035 13.859 18.2231 13.8178M17.2468 13.5971L17.1872 13.6411M17.2468 13.5971L17.1872 13.6411M18.2231 13.8178L18.1896 13.964L18.223 13.8178C18.223 13.8178 18.2231 13.8178 18.2231 13.8178ZM17.1872 13.6411C17.177 13.6486 17.1638 13.6578 17.1487 13.6683C17.1043 13.6992 17.0436 13.7413 16.9956 13.7858C16.6932 14.0654 16.3922 14.3471 16.0932 14.631L16.0931 14.6311M17.1872 13.6411L16.0931 14.6311M16.0931 14.6311C16.0101 14.7102 15.9292 14.7944 15.8511 14.8757C15.8188 14.9094 15.787 14.9425 15.7558 14.9746M16.0931 14.6311L15.7637 15.3271L15.7633 15.3267C15.7229 15.289 15.6777 15.2294 15.6777 15.1478C15.6777 15.0682 15.7209 15.01 15.7558 14.9746M15.7558 14.9746C15.7559 14.9744 15.756 14.9743 15.7561 14.9742L15.8629 15.0795L15.7556 14.9748C15.7556 14.9747 15.7557 14.9746 15.7558 14.9746ZM16.7795 16.2603L16.7794 16.2602C16.6525 16.1438 16.5284 16.0326 16.4034 15.9208C16.2944 15.8232 16.1847 15.725 16.0722 15.6224L16.7795 16.2603ZM16.7795 16.2603L16.7865 16.2666M16.7795 16.2603L16.7865 16.2666M12.1756 17.3731C12.5934 16.9483 13.0146 16.5277 13.4366 16.1063M12.1756 17.3731L13.4366 16.1063M13.4366 16.1063C13.5975 15.9456 13.7586 15.7848 13.9196 15.6236M13.4366 16.1063L13.9196 15.6236M13.9196 15.6236C14.8535 14.6897 15.7874 13.7557 16.7214 12.8211L13.9196 15.6236ZM16.7865 16.2666C16.8199 16.2973 16.8533 16.3279 16.8833 16.3501M16.7865 16.2666L16.8833 16.3501M16.8833 16.3501C16.915 16.3736 16.9663 16.4061 17.0339 16.4068M16.8833 16.3501L17.0339 16.4068M17.0339 16.4068C17.1028 16.4076 17.155 16.3752 17.188 16.3504M17.0339 16.4068L17.188 16.3504M17.188 16.3504C17.2209 16.3258 17.2565 16.2914 17.2922 16.2571L17.188 16.3504ZM18.7496 14.6038C18.7496 14.6037 18.7495 14.6036 18.7495 14.6036L18.6064 14.6483L18.7496 14.6038ZM15.2277 15.7713L15.1063 15.6928L15.051 15.7718C14.9341 15.7926 14.8547 15.8734 14.814 15.9149C14.8093 15.9197 14.8051 15.9239 14.8014 15.9275L14.8012 15.9278C14.5526 16.1718 14.306 16.418 14.0597 16.6638C13.9703 16.753 13.8809 16.8422 13.7915 16.9313L13.7913 16.9315C13.6817 17.041 13.6525 17.1735 13.6759 17.3115L13.6759 17.3116L13.6824 17.3501C13.7292 17.6253 13.7755 17.8977 13.8112 18.1711C13.8279 18.2998 13.8746 18.4097 13.9527 18.4984C14.0297 18.586 14.1294 18.6441 14.2385 18.6834L14.2386 18.6835L14.249 18.6872C14.3148 18.7109 14.3767 18.7332 14.4366 18.7582C14.5003 18.7855 14.5785 18.8129 14.6642 18.798C14.7522 18.7827 14.8166 18.7286 14.8687 18.6758L14.8687 18.6758C15.0961 18.4449 15.3222 18.2131 15.548 17.9814C15.5937 17.9346 15.6393 17.8878 15.6849 17.841L15.6849 17.841L15.6854 17.8405C15.8715 17.6496 16.0585 17.4577 16.2423 17.2629C16.2661 17.2377 16.2914 17.2097 16.3107 17.1804C16.3311 17.1497 16.3525 17.1064 16.3533 17.0518C16.354 16.9975 16.334 16.9539 16.3155 16.9234C16.2978 16.8943 16.2744 16.8658 16.253 16.8406L16.2526 16.8402C16.1654 16.7384 16.0769 16.6375 15.989 16.5373L15.9888 16.537L15.9883 16.5364C15.944 16.4864 15.8996 16.4361 15.8551 16.3856C15.7137 16.2251 15.5709 16.063 15.4248 15.9053L15.4248 15.9053L15.424 15.9044C15.3862 15.8643 15.3427 15.8372 15.3099 15.8182C15.2935 15.8087 15.2808 15.8018 15.27 15.7959C15.2544 15.7873 15.2424 15.7807 15.2277 15.7713Z" stroke="white" stroke-width="0.3"/>
<mask id="path-7-inside-1_478_306" fill="white">
<path d="M39.4224 23.5842C39.2436 23.6103 39.1397 23.5003 39.0269 23.3882C38.1879 22.5484 37.3447 21.7128 36.5022 20.8758C35.648 20.0265 34.7938 19.1778 33.9383 18.3291C33.0146 17.413 32.0889 16.499 31.166 15.5822C30.1564 14.5795 29.1481 13.5747 28.1392 12.5706C27.6378 12.0713 27.1406 11.5685 26.6337 11.0747C26.4363 10.8822 26.3607 10.6642 26.4102 10.3973C26.424 10.3251 26.4274 10.2501 26.4446 10.1786C26.4803 10.0252 26.5718 9.97297 26.7217 10.0129C26.741 10.0184 26.7596 10.0266 26.7788 10.0294C27.0587 10.0699 27.34 10.1071 27.6193 10.1511C27.7898 10.1779 27.959 10.213 28.1282 10.2481C28.3386 10.2921 28.5498 10.3354 28.7582 10.3877C28.9005 10.4234 29.0388 10.4764 29.1791 10.5184C29.4019 10.5851 29.6268 10.6428 29.8476 10.7157C30.0518 10.7831 30.2533 10.8609 30.4528 10.942C30.7815 11.0747 31.113 11.2027 31.4335 11.354C31.7334 11.495 32.014 11.6779 32.3145 11.8168C32.6763 11.9839 32.9142 12.2879 33.1838 12.5562C34.2863 13.651 35.3819 14.7514 36.4802 15.8498C36.9479 16.3174 37.4142 16.7872 37.8853 17.2521C38.0579 17.422 38.1542 17.6372 38.2635 17.8449C38.3481 18.0059 38.4382 18.164 38.518 18.327C38.6218 18.5409 38.7229 18.7576 38.8165 18.9763C38.9368 19.2583 39.0599 19.5395 39.1617 19.8284C39.2704 20.1358 39.3529 20.4522 39.4526 20.763C39.6122 21.2582 39.7085 21.7678 39.8233 22.274C39.866 22.4625 39.8804 22.6475 39.8928 22.8373C39.8983 22.9212 39.9286 23.0037 39.9458 23.0869C39.9574 23.1427 39.9698 23.1984 39.9746 23.2548C39.9877 23.4157 39.9004 23.5312 39.7422 23.5553C39.6376 23.5711 39.5297 23.5746 39.4224 23.5842ZM36.1962 17.1627C36.1817 17.1338 36.1666 17.0774 36.1315 17.0389C36.0483 16.946 35.9561 16.8615 35.8667 16.7741C35.5944 16.5086 35.3227 16.2425 35.049 15.9784C34.928 15.8615 34.7815 15.8539 34.6742 15.9701C34.3702 16.2996 34.0731 16.6345 33.7732 16.9681C33.734 17.0114 33.7285 17.0581 33.7705 17.1049C33.7952 17.1324 33.8165 17.1627 33.842 17.1895C34.0896 17.4557 34.3365 17.7218 34.5855 17.9859C34.776 18.1881 34.9699 18.3876 35.1611 18.5898C35.2134 18.6448 35.2684 18.6785 35.3489 18.6565C35.4905 18.618 35.6336 18.5822 35.7759 18.5478C35.941 18.5079 36.0559 18.4075 36.0786 18.2411C36.1267 17.8917 36.1563 17.5409 36.1962 17.1627ZM31.3407 14.6957C31.364 14.737 31.3916 14.8133 31.4431 14.8677C31.5545 14.9846 31.6777 15.0905 31.7966 15.1999C32.1508 15.5279 32.505 15.856 32.8606 16.1826C32.9479 16.2624 32.9631 16.2617 33.0518 16.1806C33.2361 16.0121 33.4211 15.8436 33.604 15.6737C33.7354 15.552 33.8681 15.4316 33.9926 15.3037C34.1295 15.1627 34.1315 15.1029 33.9947 14.9674C33.6405 14.6153 33.2822 14.2659 32.9204 13.9213C32.8743 13.8773 32.7932 13.8429 32.7313 13.8477C32.4314 13.8697 32.1323 13.9048 31.8331 13.9378C31.7327 13.9488 31.6446 13.9825 31.5724 14.0644C31.4232 14.2349 31.3764 14.4426 31.3407 14.6957Z"/>
</mask>
<path d="M39.4224 23.5842L39.3956 23.2854L39.3873 23.2861L39.379 23.2873L39.4224 23.5842ZM39.0269 23.3882L38.8147 23.6002L38.8154 23.601L39.0269 23.3882ZM36.5022 20.8758L36.2907 21.0886L36.2908 21.0887L36.5022 20.8758ZM33.9383 18.3291L34.1496 18.1161L34.1495 18.1161L33.9383 18.3291ZM31.166 15.5822L31.3774 15.3694L31.3774 15.3694L31.166 15.5822ZM28.1392 12.5706L27.9275 12.7832L27.9276 12.7832L28.1392 12.5706ZM26.6337 11.0747L26.4242 11.2895L26.4244 11.2896L26.6337 11.0747ZM26.4102 10.3973L26.1155 10.3412L26.1152 10.3426L26.4102 10.3973ZM26.4446 10.1786L26.7363 10.2487L26.7367 10.2467L26.4446 10.1786ZM26.7217 10.0129L26.8042 9.72435L26.7989 9.72295L26.7217 10.0129ZM26.7788 10.0294L26.8219 9.73247L26.8213 9.73238L26.7788 10.0294ZM27.6193 10.1511L27.5725 10.4474L27.5727 10.4475L27.6193 10.1511ZM28.1282 10.2481L28.1896 9.95442L28.1891 9.95432L28.1282 10.2481ZM28.7582 10.3877L28.8313 10.0967L28.8312 10.0967L28.7582 10.3877ZM29.1791 10.5184L29.2651 10.231L29.265 10.2309L29.1791 10.5184ZM29.8476 10.7157L29.7535 11.0006L29.7536 11.0006L29.8476 10.7157ZM30.4528 10.942L30.3397 11.2199L30.3405 11.2202L30.4528 10.942ZM31.4335 11.354L31.3054 11.6253L31.3059 11.6255L31.4335 11.354ZM32.3145 11.8168L32.1886 12.0891L32.1887 12.0892L32.3145 11.8168ZM33.1838 12.5562L32.9722 12.7688L32.9724 12.769L33.1838 12.5562ZM36.4802 15.8498L36.6923 15.6376L36.4802 15.8498ZM37.8853 17.2521L37.6745 17.4656L37.6748 17.4659L37.8853 17.2521ZM38.2635 17.8449L38.5291 17.7053L38.529 17.7052L38.2635 17.8449ZM38.518 18.327L38.7879 18.196L38.7874 18.1952L38.518 18.327ZM38.8165 18.9763L39.0924 18.8585L39.0923 18.8583L38.8165 18.9763ZM39.1617 19.8284L38.8788 19.9281L38.8789 19.9284L39.1617 19.8284ZM39.4526 20.763L39.167 20.8547L39.1671 20.8551L39.4526 20.763ZM39.8233 22.274L40.1159 22.2078L40.1159 22.2076L39.8233 22.274ZM39.8928 22.8373L39.5934 22.8568L39.5934 22.8569L39.8928 22.8373ZM39.9458 23.0869L39.652 23.1476L39.6522 23.1486L39.9458 23.0869ZM39.9746 23.2548L40.2737 23.2305L40.2736 23.2292L39.9746 23.2548ZM39.7422 23.5553L39.7871 23.8519L39.7873 23.8519L39.7422 23.5553ZM36.1962 17.1627L36.4945 17.1941L36.5037 17.1069L36.4645 17.0285L36.1962 17.1627ZM36.1315 17.0389L35.9081 17.2391L35.9097 17.2409L36.1315 17.0389ZM35.8667 16.7741L36.0764 16.5595L36.0761 16.5593L35.8667 16.7741ZM35.049 15.9784L34.8406 16.1942L34.8407 16.1943L35.049 15.9784ZM34.6742 15.9701L34.4537 15.7666L34.4537 15.7667L34.6742 15.9701ZM33.7732 16.9681L33.9957 17.1693L33.9963 17.1686L33.7732 16.9681ZM33.7705 17.1049L33.5472 17.3052L33.5475 17.3056L33.7705 17.1049ZM33.842 17.1895L34.0617 16.9852L34.0596 16.983L33.842 17.1895ZM34.5855 17.9859L34.8038 17.7802L34.8037 17.7801L34.5855 17.9859ZM35.1611 18.5898L34.9431 18.7959L34.9436 18.7964L35.1611 18.5898ZM35.3489 18.6565L35.2702 18.367L35.2697 18.3671L35.3489 18.6565ZM35.7759 18.5478L35.8464 18.8394L35.8464 18.8394L35.7759 18.5478ZM36.0786 18.2411L35.7814 18.2001L35.7813 18.2005L36.0786 18.2411ZM31.3407 14.6957L31.0436 14.6538L31.0293 14.7548L31.0797 14.8436L31.3407 14.6957ZM31.4431 14.8677L31.2256 15.0742L31.226 15.0746L31.4431 14.8677ZM31.7966 15.1999L32.0005 14.9798L31.9996 14.979L31.7966 15.1999ZM32.8606 16.1826L32.6576 16.4036L32.6583 16.4042L32.8606 16.1826ZM33.0518 16.1806L32.8494 15.9592L32.8493 15.9592L33.0518 16.1806ZM33.604 15.6737L33.4001 15.4537L33.3999 15.4539L33.604 15.6737ZM33.9926 15.3037L34.2076 15.5129L34.2079 15.5127L33.9926 15.3037ZM33.9947 14.9674L33.7832 15.1801L33.7836 15.1806L33.9947 14.9674ZM32.9204 13.9213L32.7132 14.1383L32.7135 14.1386L32.9204 13.9213ZM32.7313 13.8477L32.7532 14.1469L32.7545 14.1468L32.7313 13.8477ZM31.8331 13.9378L31.8658 14.2361L31.866 14.236L31.8331 13.9378ZM31.5724 14.0644L31.3475 13.8659L31.3467 13.8668L31.5724 14.0644ZM39.379 23.2873C39.3737 23.2881 39.3707 23.2881 39.3695 23.2881C39.3688 23.288 39.3684 23.288 39.3683 23.288C39.3681 23.2879 39.368 23.2879 39.368 23.2879C39.368 23.2879 39.3673 23.2878 39.3658 23.2871C39.3642 23.2864 39.3612 23.285 39.3567 23.2822C39.347 23.2763 39.3331 23.266 39.3124 23.2473C39.2906 23.2276 39.2693 23.2061 39.2384 23.1754L38.8154 23.601C38.9056 23.6906 39.1156 23.9322 39.4658 23.881L39.379 23.2873ZM39.2391 23.1761C38.3996 22.3359 37.5558 21.4996 36.7136 20.663L36.2908 21.0887C37.1336 21.926 37.9762 22.761 38.8147 23.6002L39.2391 23.1761ZM36.7137 20.6631C35.8595 19.8137 35.0052 18.9649 34.1496 18.1161L33.727 18.5421C34.5825 19.3907 35.4365 20.2393 36.2907 21.0886L36.7137 20.6631ZM34.1495 18.1161C33.2249 17.1991 32.3006 16.2864 31.3774 15.3694L30.9546 15.7951C31.8773 16.7116 32.8043 17.627 33.727 18.5421L34.1495 18.1161ZM31.3774 15.3694C30.3679 14.3668 29.3599 13.3623 28.3508 12.358L27.9276 12.7832C28.9363 13.7871 29.9448 14.7922 30.9546 15.7951L31.3774 15.3694ZM28.3509 12.358C27.8517 11.8609 27.3515 11.3552 26.8431 10.8599L26.4244 11.2896C26.9297 11.7819 27.424 12.2817 27.9275 12.7832L28.3509 12.358ZM26.8432 10.86C26.7125 10.7325 26.6752 10.6137 26.7052 10.452L26.1152 10.3426C26.0462 10.7146 26.1602 11.0319 26.4242 11.2895L26.8432 10.86ZM26.7049 10.4534C26.7139 10.4061 26.7196 10.3574 26.7236 10.326C26.7283 10.29 26.7318 10.2674 26.7363 10.2487L26.1529 10.1085C26.1402 10.1614 26.1334 10.212 26.1286 10.2494C26.1231 10.2914 26.1202 10.3164 26.1155 10.3412L26.7049 10.4534ZM26.7367 10.2467C26.7447 10.2127 26.7446 10.251 26.6931 10.2815C26.6425 10.3114 26.6101 10.2936 26.6446 10.3028L26.7989 9.72295C26.6835 9.69224 26.5303 9.68064 26.3876 9.76504C26.244 9.85002 26.1803 9.9911 26.1524 10.1105L26.7367 10.2467ZM26.6393 10.3013C26.6377 10.3009 26.6375 10.3007 26.6408 10.3018C26.6414 10.3021 26.6515 10.3055 26.657 10.3073C26.6708 10.3118 26.7003 10.3212 26.7364 10.3264L26.8213 9.73238C26.8304 9.73369 26.8372 9.73531 26.8406 9.73623C26.844 9.7371 26.8455 9.73765 26.8436 9.73702C26.8427 9.73673 26.8415 9.73632 26.8393 9.73559C26.8376 9.73501 26.8343 9.73389 26.8313 9.7329C26.8251 9.73082 26.8154 9.72762 26.8042 9.7244L26.6393 10.3013ZM26.7358 10.3263C27.0211 10.3676 27.2954 10.4038 27.5725 10.4474L27.666 9.85476C27.3846 9.81041 27.0964 9.77227 26.8219 9.73247L26.7358 10.3263ZM27.5727 10.4475C27.7348 10.473 27.8969 10.5065 28.0673 10.5418L28.1891 9.95432C28.0211 9.91949 27.8448 9.88288 27.6659 9.85474L27.5727 10.4475ZM28.0668 10.5417C28.2794 10.5862 28.4838 10.6282 28.6852 10.6787L28.8312 10.0967C28.6157 10.0427 28.3979 9.99799 28.1896 9.95442L28.0668 10.5417ZM28.6851 10.6786C28.8251 10.7138 28.9176 10.7533 29.0931 10.8058L29.265 10.2309C29.1599 10.1995 28.976 10.1331 28.8313 10.0967L28.6851 10.6786ZM29.093 10.8058C29.3332 10.8776 29.5359 10.9287 29.7535 11.0006L29.9416 10.4309C29.7177 10.3569 29.4706 10.2925 29.2651 10.231L29.093 10.8058ZM29.7536 11.0006C29.9488 11.065 30.1433 11.14 30.3397 11.2199L30.5658 10.6641C30.3633 10.5817 30.1549 10.5012 29.9416 10.4308L29.7536 11.0006ZM30.3405 11.2202C30.6752 11.3554 30.995 11.4787 31.3054 11.6253L31.5616 11.0827C31.231 10.9266 30.8878 10.7941 30.5651 10.6638L30.3405 11.2202ZM31.3059 11.6255C31.4449 11.6908 31.5808 11.7666 31.728 11.8484C31.8719 11.9284 32.0267 12.0143 32.1886 12.0891L32.4404 11.5445C32.3018 11.4804 32.166 11.4054 32.0195 11.324C31.8763 11.2443 31.722 11.1581 31.5612 11.0825L31.3059 11.6255ZM32.1887 12.0892C32.487 12.227 32.6673 12.4655 32.9722 12.7688L33.3954 12.3435C33.1611 12.1104 32.8655 11.7409 32.4403 11.5445L32.1887 12.0892ZM32.9724 12.769C34.0744 13.8634 35.1691 14.9629 36.2681 16.0619L36.6923 15.6376C35.5946 14.5399 34.4982 13.4387 33.3952 12.3433L32.9724 12.769ZM36.2681 16.0619C36.7347 16.5285 37.2025 16.9998 37.6745 17.4656L38.096 17.0386C37.6258 16.5746 37.161 16.1064 36.6923 15.6376L36.2681 16.0619ZM37.6748 17.4659C37.8051 17.5941 37.8757 17.7523 37.9981 17.9847L38.529 17.7052C38.4326 17.5221 38.3107 17.2498 38.0957 17.0383L37.6748 17.4659ZM37.998 17.9845C38.0895 18.1586 38.1707 18.2999 38.2485 18.4589L38.7874 18.1952C38.7057 18.0282 38.6068 17.8531 38.5291 17.7053L37.998 17.9845ZM38.2481 18.4581C38.3507 18.6693 38.4496 18.8814 38.5406 19.0942L39.0923 18.8583C38.9963 18.6338 38.893 18.4125 38.7879 18.196L38.2481 18.4581ZM38.5406 19.094C38.6627 19.3802 38.781 19.6507 38.8788 19.9281L39.4447 19.7287C39.3389 19.4284 39.211 19.1363 39.0924 18.8585L38.5406 19.094ZM38.8789 19.9284C38.9875 20.2356 39.0588 20.5174 39.167 20.8547L39.7383 20.6714C39.6471 20.387 39.5533 20.0361 39.4446 19.7284L38.8789 19.9284ZM39.1671 20.8551C39.3212 21.3334 39.4127 21.82 39.5308 22.3404L40.1159 22.2076C40.0043 21.7157 39.9032 21.183 39.7382 20.671L39.1671 20.8551ZM39.5307 22.3402C39.5676 22.5033 39.5811 22.6672 39.5934 22.8568L40.1922 22.8178C40.1798 22.6277 40.1643 22.4216 40.1159 22.2078L39.5307 22.3402ZM39.5934 22.8569C39.598 22.9265 39.6123 22.9892 39.6239 23.0353C39.6377 23.0903 39.645 23.1138 39.652 23.1476L40.2396 23.0262C40.2293 22.9769 40.2129 22.9175 40.2059 22.8895C40.1966 22.8525 40.1931 22.832 40.1922 22.8177L39.5934 22.8569ZM39.6522 23.1486C39.6653 23.211 39.6728 23.2462 39.6757 23.2803L40.2736 23.2292C40.2668 23.1505 40.2496 23.0743 40.2394 23.0253L39.6522 23.1486ZM39.6756 23.279C39.6765 23.2896 39.6752 23.2929 39.6758 23.2905C39.6765 23.2878 39.6789 23.2812 39.6848 23.2735C39.6907 23.2658 39.6973 23.2608 39.7018 23.2583C39.7059 23.2561 39.7053 23.2575 39.6971 23.2587L39.7873 23.8519C39.9307 23.8301 40.0663 23.7617 40.1605 23.6392C40.2539 23.5177 40.2851 23.3709 40.2737 23.2305L39.6756 23.279ZM39.6973 23.2587C39.6035 23.2729 39.5275 23.2735 39.3956 23.2854L39.4492 23.883C39.5319 23.8756 39.6718 23.8694 39.7871 23.8519L39.6973 23.2587ZM36.4645 17.0285C36.4673 17.0341 36.4681 17.0367 36.4633 17.0247C36.4601 17.0167 36.4535 17.0001 36.4459 16.9829C36.4313 16.9499 36.4031 16.8916 36.3533 16.8369L35.9097 17.2409C35.9014 17.2318 35.8971 17.2248 35.896 17.2228C35.8947 17.2207 35.8952 17.2211 35.8973 17.2259C35.8996 17.2312 35.9017 17.2365 35.9065 17.2484C35.9086 17.2535 35.9115 17.2607 35.9146 17.2681C35.9178 17.2755 35.9222 17.2857 35.9278 17.2968L36.4645 17.0285ZM36.3549 16.8387C36.2628 16.7359 36.1568 16.6381 36.0764 16.5595L35.6571 16.9887C35.7554 17.0848 35.8337 17.1562 35.9081 17.2391L36.3549 16.8387ZM36.0761 16.5593C35.8045 16.2945 35.5318 16.0273 35.2573 15.7625L34.8407 16.1943C35.1137 16.4577 35.3842 16.7227 35.6573 16.9889L36.0761 16.5593ZM35.2574 15.7626C35.157 15.6657 35.0225 15.5917 34.8655 15.587C34.7028 15.582 34.5587 15.653 34.4537 15.7666L34.8946 16.1736C34.8971 16.1709 34.8941 16.175 34.884 16.1796C34.8734 16.1843 34.8604 16.1871 34.8473 16.1867C34.8207 16.1859 34.8199 16.1742 34.8406 16.1942L35.2574 15.7626ZM34.4537 15.7667C34.1479 16.098 33.8482 16.4359 33.5501 16.7675L33.9963 17.1686C34.298 16.8331 34.5924 16.5011 34.8946 16.1736L34.4537 15.7667ZM33.5508 16.7668C33.5018 16.8208 33.4469 16.9069 33.4417 17.0217C33.4363 17.1419 33.4877 17.239 33.5472 17.3052L33.9938 16.9046C34.0113 16.9241 34.0444 16.9744 34.0411 17.0487C34.038 17.1176 34.0054 17.1586 33.9957 17.1693L33.5508 16.7668ZM33.5475 17.3056C33.5533 17.312 33.559 17.3191 33.5727 17.3361C33.5842 17.3504 33.6026 17.373 33.6244 17.396L34.0596 16.983C34.056 16.9792 34.0509 16.9733 34.0393 16.9589C34.0298 16.9471 34.0124 16.9253 33.9935 16.9042L33.5475 17.3056ZM33.6223 17.3938C33.8695 17.6595 34.1173 17.9267 34.3672 18.1917L34.8037 17.7801C34.5557 17.517 34.3097 17.2518 34.0617 16.9852L33.6223 17.3938ZM34.3671 18.1916C34.5513 18.3872 34.7623 18.6047 34.9431 18.7959L35.3791 18.3836C35.1775 18.1705 35.0006 17.9891 34.8038 17.7802L34.3671 18.1916ZM34.9436 18.7964C34.9821 18.8369 35.0432 18.8934 35.1297 18.9292C35.2251 18.9687 35.3274 18.9734 35.428 18.9458L35.2697 18.3671C35.2772 18.3651 35.2908 18.3625 35.3089 18.3635C35.3274 18.3645 35.3446 18.3688 35.3591 18.3748C35.3849 18.3855 35.3924 18.3976 35.3786 18.3831L34.9436 18.7964ZM35.4275 18.946C35.5654 18.9085 35.7054 18.8735 35.8464 18.8394L35.7055 18.2562C35.5617 18.2909 35.4156 18.3274 35.2702 18.367L35.4275 18.946ZM35.8464 18.8394C36.1004 18.778 36.3325 18.5994 36.3758 18.2816L35.7813 18.2005C35.7797 18.2122 35.7772 18.2182 35.776 18.2206C35.7749 18.2229 35.7735 18.2248 35.7712 18.2271C35.7662 18.232 35.7487 18.2458 35.7055 18.2562L35.8464 18.8394ZM36.3757 18.282C36.4247 17.9264 36.4555 17.564 36.4945 17.1941L35.8978 17.1312C35.857 17.5178 35.8286 17.857 35.7814 18.2001L36.3757 18.282ZM31.0797 14.8436C31.0792 14.8429 31.0798 14.8438 31.0817 14.8476C31.0836 14.8514 31.0858 14.856 31.0892 14.8629C31.0952 14.8754 31.1047 14.8953 31.1155 14.916C31.1368 14.9565 31.1717 15.0175 31.2256 15.0742L31.6607 14.6611C31.663 14.6635 31.6584 14.6592 31.6471 14.6377C31.6417 14.6273 31.6367 14.617 31.6294 14.6018C31.6235 14.5897 31.6132 14.5682 31.6017 14.5478L31.0797 14.8436ZM31.226 15.0746C31.3465 15.2011 31.4844 15.3203 31.5936 15.4207L31.9996 14.979C31.8709 14.8607 31.7626 14.768 31.6603 14.6607L31.226 15.0746ZM31.5928 15.4199C31.9469 15.7479 32.3015 16.0764 32.6576 16.4036L33.0636 15.9617C32.7085 15.6355 32.3548 15.3079 32.0005 14.9798L31.5928 15.4199ZM32.6583 16.4042C32.6794 16.4234 32.7128 16.4537 32.7504 16.4783C32.7908 16.5048 32.8631 16.5432 32.9597 16.5419C33.055 16.5407 33.1255 16.5012 33.1638 16.4755C33.2002 16.4511 33.233 16.4214 33.2543 16.4019L32.8493 15.9592C32.8262 15.9804 32.8238 15.9811 32.8297 15.9772C32.8375 15.9719 32.8821 15.9429 32.9517 15.942C33.0224 15.941 33.069 15.9697 33.0793 15.9765C33.0867 15.9813 33.0855 15.9817 33.0629 15.9611L32.6583 16.4042ZM33.2542 16.402C33.4379 16.234 33.6241 16.0644 33.8082 15.8935L33.3999 15.4539C33.2181 15.6227 33.0343 15.7901 32.8494 15.9592L33.2542 16.402ZM33.808 15.8938C33.9358 15.7753 34.0762 15.6479 34.2076 15.5129L33.7776 15.0945C33.66 15.2153 33.535 15.3287 33.4001 15.4537L33.808 15.8938ZM34.2079 15.5127C34.2466 15.4727 34.2898 15.4247 34.324 15.3703C34.3597 15.3133 34.3953 15.2343 34.3963 15.1366C34.3983 14.9468 34.2683 14.8161 34.2057 14.7542L33.7836 15.1806C33.797 15.1938 33.8059 15.2035 33.8119 15.2104C33.8179 15.2174 33.8189 15.2194 33.8175 15.2171C33.8139 15.2114 33.7958 15.1798 33.7963 15.1304C33.7968 15.0822 33.8147 15.053 33.8159 15.0512C33.8164 15.0503 33.8144 15.0536 33.8076 15.0618C33.8008 15.0698 33.7912 15.0805 33.7774 15.0947L34.2079 15.5127ZM34.2062 14.7546C33.8506 14.4012 33.4908 14.0503 33.1273 13.7041L32.7135 14.1386C33.0736 14.4815 33.4303 14.8294 33.7832 15.1801L34.2062 14.7546ZM33.1276 13.7044C33.0723 13.6516 33.0061 13.6128 32.9431 13.5876C32.8816 13.5631 32.7986 13.5416 32.708 13.5486L32.7545 14.1468C32.7384 14.1481 32.7279 14.1464 32.7245 14.1458C32.7206 14.145 32.7195 14.1444 32.7205 14.1448C32.7214 14.1452 32.7221 14.1456 32.722 14.1455C32.7218 14.1454 32.7211 14.145 32.7198 14.144C32.7185 14.143 32.7162 14.1411 32.7132 14.1383L33.1276 13.7044ZM32.7093 13.5485C32.4025 13.5711 32.0963 13.607 31.8002 13.6396L31.866 14.236C32.1682 14.2027 32.4603 14.1684 32.7532 14.1469L32.7093 13.5485ZM31.8004 13.6396C31.6473 13.6564 31.4818 13.7136 31.3475 13.8659L31.7974 14.2629C31.8057 14.2534 31.8118 14.2498 31.8175 14.2471C31.8247 14.2438 31.8388 14.239 31.8658 14.2361L31.8004 13.6396ZM31.3467 13.8668C31.1346 14.1091 31.08 14.3962 31.0436 14.6538L31.6377 14.7377C31.6728 14.4891 31.7117 14.3607 31.7982 14.2619L31.3467 13.8668Z" fill="white" mask="url(#path-7-inside-1_478_306)"/>
<path d="M24.2183 39.0992L24.2886 38.9667C24.1185 38.8765 23.9683 38.7292 23.8069 38.5685L23.8068 38.5684C23.1686 37.9341 22.5358 37.2928 21.9027 36.6512C21.8714 36.6194 21.84 36.5876 21.8086 36.5558L21.8086 36.5558L21.8079 36.5551C21.7839 36.531 21.761 36.5066 21.7386 36.4815C23.3833 36.4795 25.0275 36.4782 26.6722 36.4776L26.6723 36.4776C27.2275 36.4769 27.7826 36.4769 28.3371 36.4783C27.7588 37.0604 27.1805 37.6421 26.6006 38.2214L26.6005 38.2215C26.5712 38.2508 26.5422 38.28 26.5136 38.3089C26.3676 38.456 26.2282 38.5965 26.0746 38.7204L26.1687 38.8372M24.2183 39.0992L24.2885 38.9666C24.5588 39.1097 24.8682 39.1412 25.1956 39.1035C25.5249 39.0653 25.8153 38.929 26.0747 38.7203L26.1687 38.8372M24.2183 39.0992C24.5237 39.2608 24.8662 39.2924 25.2128 39.2526M24.2183 39.0992C24.025 38.9967 23.8593 38.8323 23.7011 38.6748C23.0623 38.0399 22.4291 37.3982 21.7961 36.7567C21.7647 36.7248 21.7333 36.693 21.7018 36.6611C21.6455 36.6048 21.5934 36.5441 21.5413 36.4819L25.2128 39.2526M26.1687 38.8372C25.8909 39.0607 25.5745 39.2106 25.2128 39.2526M26.1687 38.8372C26.3295 38.7075 26.4757 38.5601 26.6216 38.413C26.6499 38.3844 26.6782 38.3559 26.7066 38.3275L25.2128 39.2526M21.6114 36.3316C23.2985 36.3296 24.985 36.3282 26.6722 36.3276L21.6114 36.3316ZM28.5392 36.4795C28.5412 36.4803 28.5431 36.4811 28.545 36.4819L28.5375 36.4789C28.538 36.4791 28.5386 36.4793 28.5392 36.4795ZM28.547 36.4789C28.5468 36.4789 28.5466 36.4789 28.5465 36.4789H28.547ZM25.3339 38.0358C25.3601 38.0098 25.3881 37.9822 25.4141 37.9553C25.6492 37.7133 25.8847 37.4709 26.1189 37.2263L26.1194 37.2258C26.1206 37.2245 26.122 37.2231 26.1234 37.2216C26.1696 37.1731 26.2813 37.0559 26.235 36.8875L26.2349 36.8872C26.2201 36.8338 26.1891 36.7889 26.1603 36.7556C26.13 36.7206 26.0938 36.6887 26.0566 36.6619C25.9889 36.6131 25.8894 36.5606 25.7922 36.5599L25.7916 36.5599C25.6162 36.5595 25.44 36.5596 25.264 36.5598C25.2261 36.5598 25.1882 36.5599 25.1503 36.5599V36.5593H25.0003C24.9283 36.5593 24.8566 36.5594 24.7852 36.5596C24.5958 36.56 24.4079 36.5604 24.2192 36.5579C24.0905 36.5558 23.993 36.606 23.9137 36.6904L23.9135 36.6907C23.8726 36.7343 23.8343 36.7778 23.8061 36.821C23.7772 36.8652 23.7511 36.9206 23.75 36.987C23.7488 37.0545 23.7736 37.1111 23.8035 37.157C23.8322 37.2012 23.8716 37.2445 23.914 37.2876L23.914 37.2877C24.178 37.5557 24.4465 37.8187 24.7157 38.0797L24.7159 38.0798C24.7971 38.1583 24.8975 38.2099 25.0113 38.2069C25.1239 38.204 25.221 38.1484 25.2982 38.0712C25.3094 38.0599 25.3215 38.048 25.3339 38.0358Z" stroke="white" stroke-width="0.3"/>
<path d="M24.6702 10.9075L24.6699 10.9076C24.6525 10.9128 24.6355 10.9178 24.6186 10.9228C24.481 10.9637 24.3609 10.9994 24.2567 11.0586C24.0038 11.2026 23.794 11.4093 23.5692 11.6312C22.9547 12.2383 22.3408 12.8453 21.7268 13.4528C21.7423 13.4538 21.7575 13.4548 21.7724 13.4557C21.779 13.4562 21.7856 13.4566 21.7921 13.457C21.8516 13.4608 21.9068 13.4639 21.9611 13.4639H21.9612C24.0599 13.466 26.1585 13.4667 28.2572 13.4673H28.2581L24.6702 10.9075ZM24.6702 10.9075C24.7663 10.8784 24.8595 10.8589 24.9441 10.8589C25.0502 10.8595 25.161 10.8804 25.2832 10.9059L25.2833 10.9059M24.6702 10.9075L25.2833 10.9059M25.2833 10.9059C25.4779 10.9464 25.6609 11.0192 25.8375 11.1219L25.8375 11.1219M25.2833 10.9059L25.8375 11.1219M25.8375 11.1219C26.1299 11.292 26.3602 11.5273 26.6071 11.7795C26.6583 11.8317 26.7102 11.8847 26.7635 11.938C27.1051 12.2797 27.4445 12.6228 27.7842 12.9663C27.9493 13.1332 28.1145 13.3003 28.2801 13.4673M25.8375 11.1219L28.2801 13.4673M28.2801 13.4673C28.2728 13.4673 28.2655 13.4673 28.2582 13.4673L28.2801 13.4673ZM25.1551 13.4008H25.0051C24.9271 13.4008 24.85 13.4003 24.7734 13.3999C24.6008 13.3989 24.4309 13.3979 24.2606 13.4021L25.1551 13.4008ZM25.1551 13.4008V13.3963M25.1551 13.4008V13.3963M25.1551 13.3963C25.1685 13.3963 25.182 13.3964 25.1954 13.3964L25.1551 13.3963ZM26.1803 13.0868L26.1803 13.0869C26.1837 13.1587 26.1453 13.2126 26.125 13.2375C26.1 13.268 26.0693 13.2941 26.0402 13.3147C26.0106 13.3357 25.9773 13.3547 25.9439 13.369C25.9134 13.382 25.8703 13.3966 25.824 13.3967C25.8241 13.3967 25.8242 13.3966 25.8243 13.3966L25.8235 13.2467V13.3967L26.1803 13.0868ZM26.1803 13.0868C26.1773 13.0243 26.1529 12.9721 26.136 12.9395C26.1289 12.9258 26.121 12.9118 26.1147 12.9005C26.1133 12.8979 26.1119 12.8955 26.1106 12.8932C26.1032 12.8799 26.098 12.8702 26.094 12.8617C26.0868 12.846 26.0783 12.834 26.0716 12.8257C26.0645 12.817 26.0578 12.8107 26.0541 12.8073L26.0499 12.8036C25.965 12.7166 25.8801 12.6297 25.7952 12.5429C25.6233 12.367 25.4515 12.1912 25.2796 12.0148L25.2796 12.0148M26.1803 13.0868L25.2796 12.0148M25.2796 12.0148C25.2352 11.9691 25.1922 11.9259 25.1516 11.8946M25.2796 12.0148L25.1516 11.8946M25.1516 11.8946C25.1109 11.8632 25.053 11.8279 24.9786 11.8274M25.1516 11.8946L24.9786 11.8274M24.9786 11.8274C24.9038 11.8269 24.8452 11.8617 24.8036 11.8934M24.9786 11.8274L24.8036 11.8934M24.8036 11.8934C24.7622 11.925 24.7186 11.9688 24.6731 12.0158M24.8036 11.8934L24.6731 12.0158M24.6731 12.0158C24.588 12.1037 24.5012 12.2013 24.4171 12.296M24.6731 12.0158L24.4171 12.296M24.4171 12.296C24.3587 12.3616 24.3017 12.4258 24.2473 12.4843M24.4171 12.296L24.2473 12.4843M24.2473 12.4843L24.3572 12.5864L24.2473 12.4843ZM26.0474 12.8013C26.0474 12.8014 26.0475 12.8014 26.0475 12.8014L26.0474 12.8014C26.0472 12.8012 26.0472 12.8012 26.0474 12.8013ZM23.8695 12.8787C23.8333 12.9183 23.8162 12.9693 23.8088 13.0031C23.8046 13.0226 23.8014 13.0462 23.8024 13.0713C23.8032 13.0916 23.8074 13.1361 23.8384 13.1772C23.926 13.2937 24.0553 13.4073 24.2605 13.4021L23.8695 12.8787Z" stroke="white" stroke-width="0.3"/>
<path d="M12.0142 24.9465C11.9303 25.0318 11.9269 25.0421 12.0108 25.1246M12.0142 24.9465C12.312 24.6425 12.6105 24.3392 12.909 24.0359L12.0108 25.1246M12.0142 24.9465L11.9071 24.8416C12.205 24.5374 12.5036 24.234 12.8021 23.9307L12.8021 23.9307C12.8748 23.8569 12.9835 23.7759 13.1147 23.8028C13.2443 23.8294 13.3141 23.9451 13.3542 24.0417L13.3553 24.0442L13.3553 24.0442C13.3756 24.0957 13.376 24.1486 13.376 24.1742H13.226L12.0142 24.9465ZM12.0108 25.1246C12.2298 25.3391 12.4506 25.5513 12.6714 25.7634M12.0108 25.1246L12.6714 25.7634M12.6714 25.7634C12.7203 25.8105 12.7693 25.8575 12.8182 25.9046M12.6714 25.7634L12.8182 25.9046M12.8182 25.9046C12.8732 25.9575 12.9289 26.0105 12.9908 26.0552L12.8182 25.9046ZM11.223 25.9279L11.2225 25.9277C11.0516 25.8429 10.9855 25.6853 10.939 25.459L10.939 25.4589C10.9027 25.2828 10.8739 25.1057 10.8538 24.9283L10.8538 24.9283L10.8537 24.9275C10.853 24.9214 10.8534 24.9083 10.8598 24.8798C10.8626 24.8676 10.8658 24.8553 10.8698 24.8403C10.8703 24.8382 10.8709 24.8361 10.8715 24.8339C10.8759 24.8171 10.8811 24.7969 10.8854 24.776L10.8854 24.776L10.8856 24.7747C10.887 24.7675 10.8886 24.7626 10.8916 24.7529C10.8936 24.7465 10.8963 24.7382 10.8999 24.7258C10.9068 24.7025 10.9182 24.6614 10.9158 24.6143L10.9158 24.6143L10.9157 24.613C10.9113 24.5391 10.9312 24.4726 10.9687 24.398C10.9879 24.3598 11.0107 24.3217 11.0366 24.2788C11.039 24.2749 11.0414 24.2709 11.0438 24.2669C11.0671 24.2286 11.0928 24.1863 11.1162 24.1425L11.1162 24.1425C11.3161 23.769 11.6104 23.4791 11.9234 23.1709C11.9751 23.12 12.0273 23.0686 12.0797 23.0162L12.0798 23.0161C12.4333 22.6621 12.7889 22.3107 13.1449 21.9589C13.246 21.8591 13.347 21.7592 13.4481 21.6593V21.6729V21.687V21.7011V21.7152V21.7292V21.7433V21.7574V21.7715V21.7856V21.7997V21.8138V21.8279V21.842V21.856V21.8701V21.8842V21.8983V21.9124V21.9265V21.9405V21.9546V21.9687V21.9828V21.9969V22.0109V22.025V22.0391V22.0532V22.0673V22.0813V22.0954V22.1095V22.1236V22.1376V22.1517V22.1658V22.1799V22.1939V22.208V22.2221V22.2362V22.2502V22.2643V22.2784V22.2924V22.3065V22.3206V22.3346V22.3487V22.3628V22.3768V22.3909V22.405V22.419V22.4331V22.4472V22.4612V22.4753V22.4894V22.5034V22.5175V22.5316V22.5456V22.5597V22.5737V22.5878V22.6019V22.6159V22.63V22.644V22.6581V22.6722V22.6862V22.7003V22.7143V22.7284V22.7424V22.7565V22.7706V22.7846V22.7987V22.8127V22.8268V22.8408V22.8549V22.8689V22.883V22.897V22.9111V22.9251V22.9392V22.9532V22.9673V22.9813V22.9954V23.0094V23.0235V23.0375V23.0516V23.0656V23.0797V23.0937V23.1078V23.1218V23.1359V23.1499V23.1639V23.178V23.192V23.2061V23.2201V23.2342V23.2482V23.2623V23.2763V23.2903V23.3044V23.3184V23.3325V23.3465V23.3605V23.3746V23.3886V23.4027V23.4167V23.4307V23.4448V23.4588V23.4729V23.4869V23.5009V23.515V23.529V23.543V23.5571V23.5711V23.5852V23.5992V23.6132V23.6273V23.6413V23.6553V23.6694V23.6834V23.6974V23.7115V23.7255V23.7395V23.7536V23.7676V23.7816V23.7957V23.8097V23.8237V23.8378V23.8518V23.8658V23.8799V23.8939V23.9079V23.922V23.936V23.95V23.964V23.9781V23.9921V24.0061V24.0202V24.0342V24.0482V24.0622V24.0763V24.0903V24.1043V24.1184V24.1324V24.1464V24.1604V24.1745V24.1885V24.2025V24.2166V24.2306V24.2446V24.2586V24.2727V24.2867V24.3007V24.3147V24.3288V24.3428V24.3568V24.3708V24.3849V24.3989V24.4129V24.4269V24.441V24.455V24.469V24.483V24.4971V24.5111V24.5251V24.5391V24.5531V24.5672V24.5812V24.5952V24.6092V24.6233V24.6373V24.6513V24.6653V24.6794V24.6934V24.7074V24.7214V24.7354V24.7495V24.7635V24.7775V24.7915V24.8056V24.8196V24.8336V24.8476V24.8616V24.8757V24.8897V24.9037V24.9177V24.9318V24.9458V24.9598V24.9738V24.9878V25.0019V25.0159V25.0299V25.0439V25.0579V25.072V25.086V25.1V25.114V25.1281V25.1421V25.1561V25.1701V25.1841V25.1982V25.2122V25.2262V25.2402V25.2542V25.2683V25.2823V25.2963V25.3103V25.3243V25.3384V25.3524V25.3664V25.3804V25.3945V25.4085V25.4225V25.4365V25.4505V25.4646V25.4786V25.4926V25.5066V25.5206V25.5347V25.5487V25.5627V25.5767V25.5908V25.6048V25.6188V25.6328V25.6468V25.6609V25.6749V25.6889V25.7029V25.717V25.731V25.745V25.759V25.773V25.7871V25.8011V25.8151V25.8291V25.8432V25.8572V25.8712V25.8852V25.8993V25.9133V25.9273V25.9413V25.9554V25.9694V25.9834V25.9974V26.0115V26.0255V26.0395V26.0535V26.0676V26.0816V26.0956V26.1096V26.1237V26.1377V26.1517V26.1657V26.1798V26.1938V26.2078V26.2218V26.2359V26.2499V26.2639V26.278V26.292V26.306V26.32V26.3341V26.3481V26.3621V26.3762V26.3902V26.4042V26.4182V26.4323V26.4463V26.4603V26.4744V26.4884V26.5024V26.5165V26.5305V26.5445V26.5586V26.5726V26.5866V26.6006V26.6147V26.6287V26.6427V26.6568V26.6708V26.6848V26.6989V26.7129V26.727V26.741V26.755V26.7691V26.7831V26.7971V26.8112V26.8252V26.8392V26.8533V26.8673V26.8813V26.8954V26.9094V26.9235V26.9375V26.9515V26.9656V26.9796V26.9937V27.0077V27.0217V27.0358V27.0498V27.0639V27.0779V27.0919V27.106V27.12V27.1341V27.1481V27.1622V27.1762V27.1902V27.2043V27.2183V27.2324V27.2464V27.2605V27.2745V27.2886V27.3026V27.3167V27.3307V27.3447V27.3588V27.3728V27.3869V27.4009V27.415V27.429V27.4431V27.4571V27.4712V27.4852V27.4993V27.5133V27.5274V27.5415V27.5555V27.5696V27.5836V27.5977V27.6117V27.6258V27.6398V27.6539V27.6679V27.682V27.6961V27.7101V27.7242V27.7382V27.7523V27.7664V27.7804V27.7945V27.8085V27.8226V27.8367V27.8507V27.8648V27.8788V27.8929V27.907V27.921V27.9351V27.9492V27.9632V27.9773V27.9914V28.0054V28.0195V28.0336V28.0476V28.0617V28.0758V28.0898V28.1039V28.118V28.132V28.1461V28.1541L12.6184 27.3159L11.621 26.3081C11.621 26.3081 11.6209 26.3081 11.6209 26.308C11.5337 26.2197 11.4454 26.1327 11.3579 26.0464C11.3405 26.0292 11.3232 26.0122 11.3059 25.9951L11.2985 25.9873C11.295 25.9837 11.2897 25.978 11.2837 25.9722C11.2728 25.9615 11.252 25.9424 11.223 25.9279Z" stroke="white" stroke-width="0.3"/>
<path d="M36.5759 28.2212C36.5761 28.289 36.5763 28.3569 36.5766 28.4248L36.4266 28.4253L36.5766 28.4227C36.5766 28.4246 36.5769 28.4282 36.5784 28.4357L39.0568 25.4128C39.0447 25.6088 38.9418 25.7689 38.7946 25.9414M36.5759 28.2212C36.6518 28.1417 36.7279 28.0622 36.804 27.983L36.8043 27.9827C37.0455 27.733 37.29 27.4931 37.5328 27.2548C37.9682 26.8275 38.3982 26.4055 38.7946 25.9414M36.5759 28.2212C36.5735 27.5395 36.5718 26.8579 36.5718 26.1764L36.5718 26.1763C36.5713 25.1938 36.5715 24.2114 36.5716 23.2287C36.5717 22.7373 36.5718 22.2458 36.5718 21.7542C36.5718 21.7501 36.5718 21.7459 36.5718 21.7418C36.7384 21.9088 36.905 22.0759 37.0717 22.243C37.5116 22.6842 37.9517 23.1255 38.392 23.5658L38.3922 23.566C38.6234 23.7965 38.8231 24.0449 38.9739 24.3258L38.974 24.3259C38.9976 24.3698 39.0093 24.4147 39.0254 24.4767C39.0317 24.5013 39.0388 24.5285 39.0476 24.5595C39.0532 24.5797 39.0572 24.6018 39.0625 24.6322L39.0629 24.6345C39.0678 24.6622 39.0741 24.6978 39.0841 24.7334L39.0841 24.7334L39.0843 24.7344C39.1375 24.9194 39.1398 25.0988 39.085 25.2784L39.0847 25.2794C39.0842 25.2813 39.0836 25.2833 39.0829 25.2854C39.0742 25.3143 39.0598 25.3622 39.0568 25.4127L36.4264 28.3776C36.4612 28.3412 36.496 28.3048 36.5309 28.2683C36.5459 28.2526 36.5609 28.2369 36.5759 28.2212ZM38.7946 25.9414C38.7946 25.9414 38.7946 25.9414 38.7946 25.9415L38.9087 26.0388L38.7946 25.9414ZM37.1368 23.8932C37.1083 23.8641 37.0668 23.836 37.0499 23.8246C37.0467 23.8225 37.0444 23.8209 37.0432 23.82L36.9722 23.7682L36.8923 23.8048L36.8873 23.8069L36.8732 23.8126C36.8625 23.8172 36.8375 23.8281 36.8135 23.85C36.7241 23.9302 36.6214 24.0454 36.6212 24.2281C36.6191 24.7303 36.6143 25.2318 36.6067 25.734L36.6067 25.7342C36.605 25.8644 36.6369 25.9854 36.7224 26.0966L36.7227 26.0969C36.743 26.1232 36.7659 26.1523 36.7894 26.1753C36.8121 26.1974 36.8541 26.2329 36.9157 26.2411C36.9809 26.2497 37.0319 26.2235 37.0622 26.2032C37.0915 26.1836 37.1195 26.1572 37.1436 26.1337L37.1438 26.1335C37.4462 25.8366 37.7465 25.5377 38.0454 25.2367L38.0454 25.2367C38.0687 25.2132 38.0944 25.1864 38.1141 25.1581C38.1347 25.1287 38.1587 25.084 38.1585 25.0264C38.1583 24.9691 38.1344 24.9248 38.1143 24.8956C38.0948 24.8674 38.0693 24.8402 38.0459 24.816L38.0456 24.8158C37.7818 24.5453 37.5158 24.2765 37.2505 24.0082C37.2126 23.9699 37.1747 23.9315 37.1368 23.8932ZM37.1368 23.8932C37.137 23.8934 37.1372 23.8936 37.1374 23.8939L37.0298 23.9983M37.1368 23.8932C37.1367 23.8931 37.1365 23.893 37.1364 23.8928L37.0298 23.9983M37.0298 23.9983C37.0678 24.0367 37.1058 24.0752 37.1438 24.1137C37.4092 24.382 37.6748 24.6505 37.9383 24.9206C38.0318 25.0168 38.0318 25.0375 37.939 25.131L36.9142 23.9611C36.9209 23.955 36.9298 23.9514 36.9402 23.9473C36.9448 23.9455 36.9497 23.9435 36.9548 23.9412C36.9619 23.9464 36.9693 23.9514 36.9766 23.9564C36.9953 23.9692 37.0139 23.982 37.0298 23.9983Z" stroke="white" stroke-width="0.3"/>
<path d="M17.1754 22.0505L17.1746 22.0513L17.1746 22.0513C17.1709 22.055 17.1651 22.0625 17.1602 22.0725C17.1579 22.0771 17.1562 22.0814 17.1552 22.0848C17.1542 22.0881 17.154 22.0898 17.154 22.09L17.1754 22.0505ZM17.1754 22.0505C17.4118 21.8106 17.6511 21.5734 17.8926 21.3381L17.8927 21.338M17.1754 22.0505L17.8927 21.338M17.8927 21.338C18.47 20.7744 19.0475 20.2112 19.6251 19.6479C20.2026 19.0847 20.7801 18.5214 21.3575 17.9578C21.3575 17.9577 21.3576 17.9577 21.3576 17.9577L21.3666 17.9489C21.6139 17.7077 21.8607 17.4671 22.1075 17.225L22.1076 17.2249M17.8927 21.338L22.1076 17.2249M22.1076 17.2249C22.1426 17.1905 22.1892 17.1778 22.2857 17.1778C22.8565 17.1785 23.4281 17.1792 23.999 17.1792C24.2506 17.1792 24.5022 17.1792 24.7538 17.1793C25.7608 17.1794 26.7679 17.1795 27.7749 17.1778L27.7747 17.0278M22.1076 17.2249L31.0237 20.3432M31.0237 20.3432L31.0237 20.3432C30.0044 19.3156 28.9851 18.2873 27.9657 17.2591L27.9644 17.2577C27.9087 17.202 27.8528 17.1778 27.7747 17.1778V17.0278M31.0237 20.3432C31.145 20.4654 31.2662 20.5877 31.3875 20.7101C31.7922 21.1183 32.1973 21.527 32.604 21.9331L32.6041 21.9332C32.739 22.0675 32.8021 22.2107 32.7993 22.4018L31.0237 20.3432ZM27.7747 17.0278C26.7678 17.0295 25.7608 17.0294 24.7539 17.0293C24.5023 17.0292 24.2506 17.0292 23.999 17.0292C23.4281 17.0292 22.8566 17.0285 22.2858 17.0278L32.71 21.8269C32.3036 21.4211 31.8989 21.0128 31.4942 20.6046C31.3729 20.4822 31.2516 20.3599 31.1302 20.2376C30.1127 19.2118 29.0953 18.1854 28.0778 17.1591L28.0704 17.1516C27.9879 17.0691 27.8944 17.0278 27.7747 17.0278ZM32.5574 24.7498H32.5615V24.8998C32.5615 25.2375 32.5613 25.5751 32.5611 25.9127C32.5607 26.4191 32.5604 26.9255 32.5608 27.4326L32.4109 27.4328L32.5608 27.4316C32.5617 27.5563 32.5254 27.6696 32.4287 27.7673L32.4285 27.7675C31.987 28.2122 31.5461 28.6575 31.1052 29.1029C30.8848 29.3255 30.6643 29.5482 30.4438 29.7708L30.4438 29.7708C30.1486 30.0686 29.8533 30.3661 29.558 30.6636C29.017 31.2085 28.4761 31.7534 27.9365 32.3001L27.9364 32.3001C27.8088 32.4293 27.6583 32.5293 27.4371 32.5284H27.4369C27.2422 32.5273 27.0469 32.5314 26.8496 32.5359L26.8072 32.5368C26.6243 32.541 26.4394 32.5452 26.2544 32.5456C25.0725 32.5476 23.8901 32.5462 22.7085 32.5442C22.6986 32.5442 22.6882 32.5443 22.6773 32.5443C22.5914 32.545 22.4746 32.5458 22.3687 32.5127C22.2576 32.4787 22.1432 32.414 22.0572 32.3288L22.0569 32.3286C21.5643 31.8391 21.0755 31.3452 20.5871 30.8518C20.522 30.786 20.4569 30.7203 20.3917 30.6545L19.1624 29.4135L17.9331 28.1724L17.933 28.1723C17.9192 28.1584 17.906 28.1449 17.8931 28.1318C17.8444 28.082 17.8008 28.0375 17.753 27.9965L17.7528 27.9964C17.5332 27.808 17.4745 27.5547 17.4715 27.3192L32.5574 24.7498ZM32.5574 24.7498C32.5573 24.5893 32.5573 24.4289 32.5572 24.2686C32.5569 23.6381 32.5567 23.0082 32.5587 22.3779C32.5587 22.378 32.5587 22.3781 32.5587 22.3782L32.4088 22.3771L32.5587 22.3776L32.5574 24.7498ZM27.8753 17.4953L27.8754 17.4955C28.7268 18.349 29.5803 19.2005 30.434 20.0523C30.6904 20.3081 30.9467 20.5639 31.2031 20.8197L27.8753 17.4953ZM27.8753 17.4953C27.7571 17.3772 27.6012 17.2601 27.3688 17.3026L27.3687 17.3026C27.3665 17.303 27.3599 17.3036 27.3414 17.3025C27.3386 17.3024 27.3348 17.3021 27.3302 17.3017C27.3143 17.3006 27.2893 17.2987 27.2685 17.2987L27.2684 17.2987L25.1165 17.2998L22.9646 17.3008L27.8753 17.4953ZM21.7324 17.8168C21.4282 18.1258 21.1243 18.4348 20.8204 18.7437C20.1526 19.4227 19.485 20.1014 18.8154 20.7786L18.8153 20.7786C18.4235 21.1752 18.0253 21.5672 17.6259 21.9584L17.7308 22.0655L17.6261 21.9582C17.518 22.0636 17.4535 22.1894 17.4613 22.3573L17.4613 22.3575C17.4661 22.4574 17.4655 22.554 17.4648 22.6551C17.4645 22.7107 17.4641 22.7678 17.4646 22.8275L17.4646 22.8278C17.4662 22.9806 17.4684 23.1327 17.4705 23.2845C17.4748 23.5866 17.479 23.8874 17.479 24.1893L17.479 24.1896C17.4794 24.4507 17.4765 24.7077 17.4735 24.9658L21.7324 17.8168ZM17.468 25.6036L17.468 25.6036C17.466 26.1742 17.4639 26.7469 17.4715 27.3192L17.468 25.6036ZM18.0394 28.0671L18.0394 28.0671L18.0394 28.0671Z" stroke="white" stroke-width="0.3"/>
<path d="M17.0003 34.3925L17.0002 34.3925C16.882 34.5012 16.7685 34.6119 16.653 34.7245C16.6065 34.7698 16.5597 34.8154 16.5122 34.8614C16.6642 35.0275 16.8157 35.1938 16.9671 35.36C17.0479 35.4486 17.1286 35.5372 17.2094 35.6258C17.2199 35.6372 17.2255 35.6392 17.2266 35.6396L17.2266 35.6396C17.2275 35.6399 17.2335 35.6421 17.2499 35.6395L17.2735 35.7876M17.0003 34.3925L17.9736 35.4807C17.9653 35.5086 17.9556 35.5235 17.9487 35.5308C17.9438 35.5359 17.9376 35.5407 17.9225 35.543L17.9447 35.6913L17.9228 35.5429C17.8365 35.5557 17.7477 35.5679 17.6581 35.5802C17.5222 35.599 17.3843 35.618 17.2498 35.6395L17.2735 35.7876M17.0003 34.3925C17.0118 34.3819 17.0216 34.373 17.0301 34.3656M17.0003 34.3925L17.9622 35.2722M17.2735 35.7876C17.4073 35.7662 17.5414 35.7477 17.6754 35.7293C17.7652 35.7169 17.855 35.7046 17.9447 35.6913C18.041 35.6769 18.0919 35.6088 18.1173 35.5235L16.8561 35.4608C16.9369 35.5496 17.0178 35.6383 17.0988 35.7271C17.1456 35.778 17.1999 35.7993 17.2735 35.7876ZM17.9622 35.2722L17.9622 35.2722C17.92 35.2263 17.8784 35.1874 17.8327 35.1447C17.8045 35.1183 17.7746 35.0904 17.7421 35.0584M17.9622 35.2722L17.9639 35.2741M17.9622 35.2722L17.9639 35.2741M17.7421 35.0584C17.742 35.0584 17.742 35.0584 17.742 35.0583L17.847 34.9513L17.7421 35.0585C17.7421 35.0585 17.7421 35.0584 17.7421 35.0584ZM17.7421 35.0584C17.6758 34.9936 17.6102 34.9288 17.5447 34.8643C17.3821 34.7041 17.2209 34.5451 17.0557 34.3891L17.1586 34.2801L17.0558 34.3893C17.046 34.38 17.0375 34.3722 17.0301 34.3656M17.0301 34.3656C17.0325 34.3635 17.0348 34.3615 17.037 34.3596C17.0472 34.351 17.0539 34.3459 17.0583 34.3429C17.0606 34.3414 17.0617 34.3408 17.0617 34.3408C17.0617 34.3408 17.0505 34.347 17.0318 34.3473C17.0113 34.3475 16.999 34.3405 16.999 34.3405C16.999 34.3405 16.9997 34.3409 17.0012 34.3419C17.0049 34.3444 17.011 34.349 17.0207 34.3573C17.0237 34.3598 17.0268 34.3626 17.0301 34.3656ZM17.9639 35.2741C17.9737 35.2843 17.9838 35.2982 17.9954 35.3169C17.9975 35.3203 17.9995 35.3236 18.0015 35.327M17.9639 35.2741L18.0015 35.327M18.0015 35.327C17.9987 35.3451 17.9963 35.361 17.9942 35.3753C17.9878 35.4184 17.9835 35.4475 17.9736 35.4806L18.0015 35.327Z" stroke="white" stroke-width="0.3"/>
<path d="M14.7016 32.0407C14.6686 32.007 14.6182 31.9757 14.5618 31.9526L14.5614 31.9525L14.5614 31.9525C14.5421 31.9445 14.5297 31.9434 14.5235 31.9436C14.5181 31.9438 14.5163 31.945 14.5157 31.9453L14.5157 31.9453C14.5156 31.9454 14.4991 31.9561 14.4932 32.0041L14.4931 32.0051L14.4931 32.0051C14.49 32.0286 14.4877 32.0529 14.4852 32.0796C14.4849 32.0827 14.4846 32.0859 14.4843 32.0891C14.4821 32.1124 14.4798 32.1378 14.4768 32.1632L14.4768 32.1632L14.4058 32.7778C14.4083 32.7837 14.4106 32.789 14.413 32.7942C14.4166 32.8019 14.4197 32.8077 14.4224 32.8121L14.4257 32.8169C14.4265 32.818 14.4269 32.8184 14.4269 32.8184L14.4285 32.8201L14.4285 32.8201C14.6428 33.0496 14.8604 33.2761 15.0797 33.5009C15.0965 33.4939 15.1118 33.4873 15.1268 33.4798C15.1548 33.4658 15.1695 33.4547 15.177 33.4466L14.7016 32.0407ZM14.7016 32.0407C14.8966 32.243 15.0887 32.4464 15.2815 32.6505C15.382 32.7568 15.4826 32.8634 15.5839 32.97C15.5468 33.014 15.5106 33.0576 15.4748 33.1007C15.3762 33.2193 15.2805 33.3345 15.1771 33.4465L14.7016 32.0407ZM15.6257 32.9215L15.6253 32.9212C15.6271 32.919 15.6278 32.918 15.6278 32.918C15.6278 32.918 15.627 32.9191 15.6259 32.9211L15.6839 32.9705L15.7405 32.917M15.6257 32.9215L15.6316 33.0202C15.6316 33.0202 15.6316 33.0202 15.6316 33.0202C15.632 33.0206 15.6322 33.0208 15.6322 33.0208C15.6322 33.0208 15.632 33.0207 15.6318 33.0204L15.6839 32.9708L15.7398 33.0181M15.6257 32.9215L15.6837 32.9707L15.6316 33.02C15.6283 33.0158 15.6133 32.9945 15.6154 32.9597C15.6165 32.941 15.6223 32.9279 15.6253 32.9222C15.6254 32.922 15.6256 32.9218 15.6257 32.9215ZM15.7405 32.917L15.6841 32.9706L15.7398 33.0181M15.7405 32.917C15.7769 32.9555 15.77 32.9823 15.7398 33.0181M15.7405 32.917C15.6238 32.7944 15.5076 32.6714 15.3915 32.5484L15.2872 33.5483M15.7398 33.0181C15.6906 33.0758 15.642 33.1342 15.5934 33.1927C15.4934 33.3131 15.3933 33.4335 15.2872 33.5483M15.2872 33.5483C15.2424 33.5968 15.173 33.625 15.1078 33.6515C15.0999 33.6547 15.0921 33.6579 15.0843 33.6611L15.2872 33.5483Z" stroke="white" stroke-width="0.3"/>
<path d="M33.1187 35.2143L33.1187 35.2143C33.2131 35.114 33.3062 35.0131 33.3992 34.9123C33.416 34.894 33.4328 34.8758 33.4496 34.8576C33.4395 34.8491 33.4293 34.8406 33.4192 34.8321C33.2544 34.6937 33.0905 34.556 32.925 34.4196C32.9236 34.4206 32.9221 34.4218 32.9204 34.4232L32.9202 34.4234C32.8879 34.4503 32.8557 34.477 32.8238 34.5034C32.4974 34.7739 32.1932 35.0258 31.9821 35.3683L31.9541 35.3511C31.9601 35.3621 31.9661 35.373 31.9722 35.384M33.1187 35.2143L31.9498 35.3484C31.954 35.3628 31.9551 35.3756 31.955 35.3852C31.9549 35.3994 31.9524 35.4097 31.951 35.4143C31.9495 35.4195 31.9481 35.4225 31.9481 35.4225C31.9481 35.4225 31.9486 35.4215 31.9498 35.4193C31.9525 35.4145 31.9564 35.4082 31.9625 35.3988C31.9635 35.3973 31.9646 35.3955 31.9659 35.3937C31.9678 35.3907 31.97 35.3874 31.9722 35.384M33.1187 35.2143C33.0717 35.2641 33.0192 35.3176 32.9655 35.3724M33.1187 35.2143L32.9655 35.3724M31.9722 35.384C31.9756 35.3787 31.9792 35.3731 31.9823 35.3679L31.9538 35.3505C31.9492 35.3419 31.9447 35.3334 31.9403 35.3248C31.9444 35.3327 31.9474 35.3405 31.9496 35.3479L31.9248 35.3327L31.9247 35.3327L31.8544 35.2896M31.9722 35.384C32.0081 35.448 32.0475 35.511 32.0892 35.5774C32.0906 35.5796 32.0919 35.5818 32.0933 35.584C32.1364 35.5869 32.1797 35.5897 32.2233 35.5924L32.2236 35.5925C32.2855 35.5964 32.3481 35.6004 32.4106 35.6049L32.4107 35.6049C32.4254 35.606 32.4425 35.6069 32.461 35.6078C32.5186 35.6108 32.591 35.6146 32.656 35.6272L31.8544 35.2896M31.8544 35.2896C31.8505 35.2961 31.8459 35.3031 31.8411 35.3103C31.8211 35.341 31.7981 35.3762 31.807 35.3935L31.8544 35.2896ZM32.9146 34.4107C32.9137 34.4103 32.9132 34.41 32.9132 34.41C32.9132 34.41 32.9139 34.4104 32.9152 34.4115L32.9155 34.4111L32.9146 34.4107ZM32.9146 34.4107L33.0098 34.2951L32.9146 34.4107ZM32.9655 35.3724C32.8908 35.4486 32.8135 35.5273 32.7449 35.6026M32.9655 35.3724L32.7449 35.6026M32.7449 35.6026L32.8558 35.7036L32.7449 35.6026Z" stroke="white" stroke-width="0.3"/>
<path d="M35.59 32.68L35.589 32.6639C35.5845 32.59 35.5805 32.5213 35.5767 32.456C35.5689 32.3219 35.562 32.2024 35.5529 32.0828C35.5523 32.0815 35.5488 32.072 35.5344 32.0552C35.5157 32.0334 35.4872 32.0094 35.4528 31.9886C35.4183 31.9678 35.3839 31.9538 35.3561 31.9475C35.3371 31.9432 35.3274 31.9438 35.3248 31.944C35.3247 31.944 35.3246 31.9441 35.3245 31.9441C35.3232 31.9449 35.3213 31.9461 35.319 31.9478C35.3143 31.9512 35.3087 31.9559 35.3024 31.9621L35.3019 31.9626L35.3019 31.9626C35.2673 31.9956 35.2348 32.0293 35.2 32.0654C35.1897 32.0761 35.1791 32.0871 35.1683 32.0983L35.0606 31.9938L35.1689 32.0976C35.1078 32.1613 35.0468 32.2248 34.9859 32.2882C34.8032 32.4783 34.621 32.6681 34.4397 32.8591L34.4397 32.8592C34.3933 32.908 34.3848 32.9441 34.3854 32.9656C34.3859 32.987 34.3963 33.0222 34.4451 33.0679L35.59 32.68ZM35.59 32.68L35.5944 32.6955M35.59 32.68L35.5944 32.6955M35.5944 32.6955C35.6078 32.743 35.5883 32.8097 35.4631 32.9281L35.4629 32.9282M35.5944 32.6955L35.4629 32.9282M35.4629 32.9282C35.2835 33.0983 35.1109 33.2761 34.941 33.4512C34.9292 33.4632 34.9175 33.4753 34.9058 33.4874M35.4629 32.9282L34.9058 33.4874M34.9058 33.4874C34.8326 33.4189 34.7584 33.3521 34.6852 33.2863C34.6813 33.2828 34.6773 33.2793 34.6734 33.2757C34.5959 33.2061 34.5198 33.1377 34.4451 33.0679L34.9058 33.4874Z" stroke="white" stroke-width="0.3"/>
<path d="M16.5174 15.1518L16.5175 15.1519C16.6745 15.3083 16.8352 15.4615 16.9978 15.6131C16.9987 15.6137 17.0028 15.6162 17.0128 15.6207C17.0183 15.6232 17.0231 15.6252 17.0294 15.6279C17.0319 15.6289 17.0346 15.6301 17.0377 15.6314C17.0967 15.6229 17.1375 15.5989 17.1775 15.5549L17.1786 15.5537L17.1786 15.5537C17.1877 15.5439 17.1967 15.5342 17.2058 15.5244C17.4626 15.2476 17.7218 14.9684 17.9902 14.698L17.9903 14.6979C18.0329 14.6549 18.0457 14.6271 18.0496 14.6094C18.053 14.5939 18.0537 14.5678 18.0315 14.5189L18.0315 14.5187C18.025 14.5044 18.0201 14.4944 18.0156 14.4866C18.0113 14.4791 18.0085 14.4755 18.0072 14.474C18.0069 14.4737 18.0066 14.4734 18.0065 14.4733L16.5174 15.1518ZM16.5174 15.1518C16.5136 15.1481 16.5101 15.1445 16.5068 15.1412M16.5174 15.1518L16.5068 15.1412M16.5068 15.1412C16.5117 15.1363 16.517 15.1311 16.5229 15.1253L16.5068 15.1412Z" stroke="white" stroke-width="0.3"/>
<path d="M15.6038 17.0163C15.6045 17.0151 15.605 17.0145 15.605 17.0145C15.605 17.0145 15.6045 17.0152 15.6033 17.0164L15.6035 17.0167M15.6038 17.0163L15.6035 17.0167M15.6038 17.0163L15.6368 17.0473L15.6373 17.0478L15.7129 17.1188L15.6371 17.048L15.6366 17.0475L15.6035 17.0167M15.6038 17.0163L15.6035 17.0167M14.4314 17.9158L14.4408 17.888L14.439 17.8587C14.4358 17.8046 14.4329 17.7514 14.43 17.699C14.4228 17.567 14.4158 17.4397 14.4043 17.3145C14.3999 17.2623 14.4128 17.2245 14.4477 17.1845C14.4477 17.1844 14.4477 17.1844 14.4478 17.1843L14.7676 16.8195L15.0511 16.4962C15.0685 16.5122 15.0859 16.528 15.1031 16.5438C15.2825 16.7076 15.4477 16.8585 15.5776 17.0438C15.5119 17.1139 15.4466 17.1839 15.3814 17.2537C15.2346 17.411 15.0886 17.5676 14.9401 17.7228L14.9401 17.7229C14.8614 17.8054 14.7824 17.8827 14.7014 17.962C14.6596 18.003 14.6172 18.0445 14.574 18.0875C14.5681 18.0843 14.5619 18.0814 14.5554 18.0787L14.5554 18.0785L14.5493 18.0763C14.4766 18.0496 14.4439 18.021 14.4313 18.0018C14.4236 17.99 14.4136 17.9683 14.4314 17.9158Z" stroke="white" stroke-width="0.3"/>
<path d="M35.6157 18.0795C35.6297 18.009 35.6425 17.9384 35.6554 17.8677C35.6856 17.7017 35.7158 17.5359 35.7602 17.3738C35.7925 17.2569 35.7602 17.1874 35.6831 17.1145C35.5996 17.0355 35.5169 16.9557 35.4342 16.8759C35.3515 16.7961 35.2688 16.7163 35.1852 16.6372C35.1215 16.5771 35.056 16.5193 34.9906 16.4614C34.9669 16.4405 34.9433 16.4196 34.9197 16.3986L35.6157 18.0795ZM35.6157 18.0795C35.6054 18.1324 35.5861 18.1751 35.5208 18.1806L35.6157 18.0795ZM34.8546 16.5414C34.8675 16.5528 34.8802 16.5641 34.8929 16.5753C34.9577 16.6326 35.0205 16.688 35.0822 16.7463L35.1852 16.6373L35.0821 16.7462C35.165 16.8247 35.2472 16.904 35.33 16.9839L35.3303 16.9841C35.4128 17.0637 35.4959 17.1439 35.58 17.2235L35.58 17.2235C35.6099 17.2518 35.6177 17.2671 35.6203 17.275C35.6222 17.2807 35.6261 17.2958 35.6156 17.3339L35.6155 17.3342C35.5693 17.5029 35.5372 17.6793 35.5065 17.848C35.4949 17.9118 35.4834 17.9745 35.4715 18.0352C35.4354 18.0404 35.3981 18.0482 35.3692 18.0543C35.3649 18.0552 35.3607 18.056 35.3568 18.0569C35.3495 18.0527 35.3433 18.0492 35.3389 18.0466C35.3143 18.0321 35.3021 18.0226 35.2952 18.0152L35.2952 18.0152L35.2944 18.0144C35.0187 17.7257 34.747 17.4334 34.4746 17.1403L34.8546 16.5414ZM34.8546 16.5414C34.8063 16.6006 34.7583 16.6588 34.7105 16.7168C34.6288 16.8159 34.5478 16.9142 34.4672 17.0145L34.3503 16.9206L34.4673 17.0144C34.4444 17.043 34.4287 17.0628 34.4177 17.0777C34.4303 17.0925 34.4483 17.112 34.4746 17.1403L34.8546 16.5414Z" stroke="white" stroke-width="0.3"/>
<path d="M32.8076 15.7494C32.8654 15.8085 32.9053 15.8154 32.9617 15.7638C33.0693 15.6651 33.1768 15.5661 33.2842 15.4671C33.3917 15.368 33.4991 15.269 33.6068 15.1703C33.6425 15.1373 33.6473 15.1084 33.6102 15.0706C33.4906 14.949 33.3715 14.8269 33.2523 14.7048C33.1158 14.5649 32.9793 14.425 32.842 14.2859C32.8224 14.2657 32.795 14.253 32.7727 14.2425C32.7638 14.2384 32.7556 14.2346 32.7491 14.2308M32.7491 14.2308L32.7146 14.2909L32.7051 14.2356L32.7103 14.2982L32.6743 14.3608C32.6861 14.3676 32.6984 14.3734 32.7055 14.3767L32.7058 14.3768C32.7071 14.3775 32.7084 14.3781 32.7096 14.3786C32.7125 14.38 32.715 14.3812 32.7173 14.3823L32.7176 14.3851C32.7192 14.385 32.7208 14.3849 32.7225 14.3847C32.7225 14.3848 32.7226 14.3848 32.7227 14.3848C32.7232 14.3847 32.7237 14.3846 32.7242 14.3846C32.7292 14.3841 32.7348 14.3836 32.7428 14.3827C32.7432 14.3826 32.7436 14.3826 32.744 14.3825C32.7503 14.3818 32.758 14.3809 32.7678 14.3797L32.7655 14.3614L32.7654 14.3606L32.7491 14.2308Z" stroke="white" stroke-width="0.3"/>
<path d="M24.9777 37.4619C24.9397 37.4203 24.9023 37.3796 24.8654 37.3393C24.9379 37.3419 25.0099 37.3431 25.0805 37.3424C25.0469 37.3816 25.0125 37.4215 24.9777 37.4619Z" stroke="white" stroke-width="0.3"/>
<path d="M24.9815 12.6256C25.0119 12.6534 25.0422 12.6814 25.0723 12.7096L24.8991 12.7152C24.9264 12.6851 24.9539 12.6553 24.9815 12.6256ZM24.9117 12.5624L24.9119 12.5626L24.9117 12.5624Z" stroke="white" stroke-width="0.3"/>
<path d="M12.706 25.1388C12.707 25.1771 12.7084 25.215 12.7097 25.2521C12.7101 25.2611 12.7104 25.27 12.7107 25.2788C12.7116 25.3044 12.7125 25.3296 12.7132 25.3547C12.627 25.2716 12.5447 25.1916 12.464 25.1096C12.4489 25.0945 12.4454 25.0422 12.4592 25.0271L12.8664 24.8302C12.8494 24.9685 12.8545 25.1064 12.8596 25.2465C12.8602 25.2606 12.8607 25.2748 12.8612 25.289C12.8077 25.2375 12.7563 25.1879 12.706 25.1388ZM12.706 25.1388C12.7053 25.1096 12.7048 25.0802 12.7047 25.0508C12.7047 25.0273 12.7049 25.0037 12.7055 24.9798C12.6795 25.0066 12.6539 25.0341 12.6285 25.0623M12.706 25.1388C12.6799 25.1132 12.654 25.0878 12.6285 25.0623M12.6285 25.0623C12.6092 25.0431 12.59 25.0238 12.5709 25.0044L12.5709 25.0044L12.5701 25.0035C12.5703 25.0038 12.5706 25.0041 12.5709 25.0044C12.5912 25.025 12.5973 25.045 12.5982 25.0482C12.5983 25.0482 12.5983 25.0483 12.5983 25.0483C12.6001 25.0542 12.6004 25.0578 12.6005 25.0592C12.6005 25.0604 12.6008 25.0648 12.5994 25.0721C12.5987 25.076 12.5971 25.0827 12.5936 25.0913C12.5904 25.099 12.5841 25.112 12.5721 25.1258C12.5715 25.1265 12.5708 25.1272 12.5702 25.128L12.5702 25.128L12.5721 25.1258C12.5909 25.1043 12.6096 25.0831 12.6285 25.0623Z" stroke="white" stroke-width="0.3"/>
<path d="M37.5372 24.963C37.5681 24.9906 37.5943 25.0194 37.5537 25.0628C37.4644 25.1576 37.3753 25.2528 37.2864 25.348C37.294 25.2698 37.2992 25.1915 37.301 25.1127M37.5372 24.963L37.5372 24.963C37.4525 24.8897 37.3679 24.8163 37.2827 24.7436C37.292 24.8153 37.2975 24.8861 37.3001 24.9562M37.5372 24.963L37.4965 25.0089L37.4445 24.9599C37.4235 24.9822 37.4026 25.0045 37.3817 25.0267M37.5372 24.963L37.497 25.0094L37.5537 25.0628L37.4969 25.0096L37.4399 25.0753C37.4421 25.0788 37.4438 25.0808 37.4443 25.0813L37.4443 25.0813C37.4445 25.0815 37.4446 25.0816 37.4446 25.0816C37.4445 25.0817 37.443 25.08 37.4382 25.0757C37.4193 25.0594 37.4005 25.0431 37.3817 25.0267M37.3001 24.9562C37.247 24.9104 37.1938 24.8648 37.1405 24.8194C37.1563 24.9757 37.1545 25.1287 37.1416 25.2833C37.1947 25.2264 37.2478 25.1695 37.301 25.1127M37.3001 24.9562C37.3273 24.9797 37.3545 25.0032 37.3817 25.0267M37.3001 24.9562C37.302 25.0087 37.3023 25.0608 37.301 25.1127M37.301 25.1127C37.3279 25.084 37.3548 25.0554 37.3817 25.0267M37.4442 24.9602L37.4963 25.009L37.4389 25.0737C37.4361 25.0691 37.4327 25.0626 37.4299 25.0542C37.4234 25.0345 37.4224 25.0115 37.4289 24.9896C37.4347 24.9704 37.4438 24.9607 37.4442 24.9602L37.4442 24.9602Z" stroke="white" stroke-width="0.3"/>
<path d="M25.0092 31.7044H25.0093C25.2336 31.7046 25.458 31.7044 25.6826 31.7043C26.2819 31.704 26.882 31.7037 27.4814 31.7092C27.5262 31.7094 27.5567 31.702 27.5813 31.6908C27.6068 31.6792 27.6341 31.6597 27.6679 31.6252L25.0092 31.7044ZM25.0092 31.7044C24.8416 31.7044 24.674 31.7043 24.5063 31.7043C23.8361 31.7042 23.1653 31.7041 22.4951 31.7058L22.4954 31.8558V31.7058C22.4554 31.7058 22.436 31.6979 22.4065 31.6688C21.9454 31.2105 21.4832 30.7529 21.021 30.2954C20.6616 29.9396 20.3023 29.5839 19.9436 29.228L19.9436 29.228M25.0092 31.7044L19.9436 29.228M19.9436 29.228C19.6823 28.9689 19.4207 28.7077 19.1588 28.4463C18.8529 28.141 18.5467 27.8353 18.2406 27.5325L18.2405 27.5324M19.9436 29.228L18.2405 27.5324M18.2405 27.5324C18.1649 27.4578 18.1353 27.387 18.1352 27.2718C18.1407 25.7945 18.1448 24.3164 18.1317 22.8387L18.1317 22.8387M18.2405 27.5324L18.1317 22.8387M18.1317 22.8387C18.1294 22.5892 18.2021 22.417 18.3782 22.2403C19.3556 21.2604 20.3278 20.2746 21.2994 19.2894C21.6339 18.9502 21.9684 18.611 22.303 18.2722L22.1963 18.1668M18.1317 22.8387L22.3978 18.1793M22.3978 18.1793L22.3974 18.1798C22.3783 18.2002 22.3503 18.2269 22.3285 18.2477C22.3176 18.258 22.3083 18.2669 22.3023 18.2729L22.1963 18.1668M22.3978 18.1793C22.4335 18.1407 22.4723 18.1238 22.5371 18.1243L22.5379 18.1243M22.3978 18.1793L22.5379 18.1243M22.1963 18.1668C22.2084 18.1547 22.2209 18.1429 22.2333 18.1311M22.1963 18.1668L22.2333 18.1311M22.5379 18.1243C22.6726 18.1244 22.8072 18.1246 22.9419 18.1248C24.4234 18.1267 25.9053 18.1287 27.3878 18.1243L27.388 18.1243M22.5379 18.1243L27.388 18.1243M27.388 18.1243C27.5145 18.1237 27.6003 18.1615 27.6882 18.2499L27.6883 18.25M27.388 18.1243L27.6883 18.25M27.6883 18.25C28.3738 18.9378 29.0608 19.6242 29.7478 20.3106C29.8626 20.4252 29.9774 20.5399 30.0921 20.6546C30.2203 20.7828 30.3486 20.9108 30.4768 21.0389C30.8187 21.3804 31.1605 21.7218 31.501 22.0647L31.501 22.0648M27.6883 18.25L31.501 22.0648M31.501 22.0648C31.6153 22.1798 31.7244 22.2963 31.8241 22.4184L31.8249 22.4194C31.8468 22.4458 31.8627 22.4871 31.864 22.5134C31.8735 22.771 31.8741 23.0294 31.8747 23.2903C31.8748 23.3074 31.8748 23.3246 31.8749 23.3418M31.501 22.0648L31.8749 23.3418M31.8749 23.3418C31.8758 23.8979 31.8763 24.454 31.8768 25.0102C31.8774 25.7523 31.8781 26.4944 31.8797 27.2365L32.0295 27.2362H31.8797C31.8797 27.2819 31.8588 27.3189 31.7963 27.384L31.7962 27.3841C31.4584 27.7371 31.1212 28.0893 30.7807 28.4381L30.7807 28.4381C30.3658 28.8632 29.9504 29.2881 29.5349 29.7131C28.9123 30.35 28.2895 30.987 27.6679 31.6251L31.8749 23.3418ZM27.5937 25.2359L27.6326 25.2327L27.6078 25.0735C27.6 25.0235 27.5919 24.9752 27.584 24.9279C27.5656 24.8177 27.548 24.713 27.5373 24.6052L27.5373 24.6046C27.5132 24.3703 27.4279 24.1614 27.319 23.9738L27.319 23.9737C27.1247 23.6395 26.8715 23.3543 26.5741 23.1129L26.5735 23.1124C26.5701 23.1096 26.5664 23.1066 26.5625 23.1035C26.5324 23.0791 26.4904 23.045 26.4436 23.0188L26.4431 23.0185C26.3883 22.988 26.3391 22.9626 26.2923 22.9385C26.2259 22.9043 26.1642 22.8725 26.0979 22.8319C26.0979 22.8319 26.0978 22.8318 26.0978 22.8318L26.0195 22.9597M27.5937 25.2359L22.5319 24.9822C22.5344 24.8907 22.5527 24.8023 22.5743 24.7235C22.5743 24.7234 22.5743 24.7234 22.5743 24.7234L22.719 24.763M27.5937 25.2359C27.5911 25.3244 27.5761 25.4078 27.5565 25.4858C27.5411 25.5472 27.5225 25.6069 27.5046 25.6629C27.5016 25.6725 27.4986 25.6819 27.4956 25.6912L27.5937 25.2359ZM26.0195 22.9597C25.8654 22.8648 25.7072 22.7961 25.5208 22.7885L25.5272 22.6386C25.4129 22.6338 25.2954 22.6099 25.1694 22.5811C25.0236 22.5475 24.8801 22.5486 24.7317 22.5952L24.7767 22.7383C24.6887 22.7658 24.5931 22.7954 24.5043 22.7885C24.3111 22.7727 24.166 22.8614 24.0229 22.9666C24.0138 22.9733 24.0045 22.9798 23.9953 22.9864C23.9768 22.9996 23.9583 23.0127 23.9404 23.0264C23.8875 23.068 23.8334 23.1083 23.7794 23.1486C23.6535 23.2423 23.5277 23.3361 23.417 23.4453C23.2906 23.57 23.1828 23.715 23.0756 23.8592C23.0521 23.8908 23.0287 23.9223 23.0051 23.9535C22.9569 24.0175 22.9191 24.0938 22.8936 24.1702C22.8297 24.3662 22.7733 24.5643 22.719 24.763M26.0195 22.9597C26.0884 23.0019 26.1601 23.039 26.2318 23.0761C26.2782 23.1001 26.3246 23.1242 26.3702 23.1496L26.0195 22.9597ZM22.719 24.763C22.699 24.8359 22.6839 24.9116 22.6818 24.9865M22.719 24.763L22.6818 24.9865M23.3117 23.3385L23.4163 23.4446L23.3117 23.3385C23.3117 23.3385 23.3117 23.3385 23.3117 23.3385ZM23.3117 23.3385C23.4301 23.2216 23.5698 23.1175 23.6991 23.0211C23.751 22.9825 23.8012 22.945 23.8478 22.9085L23.8489 22.9075L23.8489 22.9076C23.869 22.8921 23.8919 22.8758 23.9116 22.8618C23.9201 22.8558 23.928 22.8501 23.9349 22.8452L24.0229 22.9666L23.934 22.8458C24.0808 22.7378 24.2648 22.6185 24.5162 22.639M23.3117 23.3385L24.732 22.5951C24.6376 22.6246 24.5707 22.6431 24.5162 22.639M24.5162 22.639C24.5161 22.6389 24.516 22.6389 24.5159 22.6389L24.5044 22.7884L24.5166 22.639C24.5164 22.639 24.5163 22.639 24.5162 22.639ZM22.6818 24.9865L22.5319 24.9824C22.5319 24.9823 22.5319 24.9823 22.5319 24.9822L22.6818 24.9865ZM22.6818 24.9865C22.6756 25.199 22.7148 25.404 22.7616 25.6131C22.818 25.8655 22.9349 26.0821 23.0663 26.2898C23.1736 26.4586 23.3055 26.6113 23.4371 26.7638C23.469 26.8008 23.501 26.8379 23.5326 26.8751C23.5869 26.939 23.655 26.9968 23.7279 27.0367M22.6818 24.9865L24.5308 27.5588C24.2275 27.4869 23.9659 27.341 23.7232 27.2058C23.7004 27.193 23.6777 27.1804 23.6552 27.1679L23.7279 27.0367M23.7279 27.0367L23.6559 27.1683C23.565 27.1186 23.483 27.0484 23.4182 26.9722L23.4182 26.9721C23.3885 26.9371 23.3578 26.9016 23.3266 26.8655C23.1945 26.7125 23.0535 26.5493 22.9397 26.3703L22.9395 26.37C22.805 26.1573 22.6772 25.9234 22.6152 25.6458L24.5656 27.4129C24.2835 27.346 24.0397 27.2102 23.7942 27.0736C23.7721 27.0613 23.75 27.049 23.7279 27.0367ZM26.6113 27.0421L26.6111 27.0423C26.5259 27.1243 26.428 27.1867 26.3385 27.2403C26.3172 27.2531 26.2966 27.2652 26.2766 27.2771C26.2083 27.3174 26.1466 27.3538 26.0882 27.3961L26.0002 27.2747L26.6113 27.0421ZM26.6113 27.0421C26.9515 26.7136 27.3064 26.3452 27.454 25.826L26.6113 27.0421ZM22.2333 18.1311C22.2519 18.1135 22.2704 18.096 22.2877 18.0774M22.2333 18.1311L22.2877 18.0774M22.2877 18.0774C22.3558 18.0038 22.437 17.9736 22.5381 17.9743L22.2877 18.0774Z" stroke="white" stroke-width="0.3"/>
<path d="M26.8228 24.9227L26.824 24.9133C26.8448 24.7481 26.8443 24.607 26.7896 24.4708L26.9288 24.4149L26.7897 24.4711C26.7864 24.4628 26.7831 24.4547 26.7798 24.4465C26.6737 24.1832 26.5889 23.9731 26.3932 23.8315L26.3924 23.8309L26.3924 23.8309C26.3582 23.8059 26.3266 23.7784 26.3004 23.7556C26.2982 23.7536 26.296 23.7517 26.2939 23.7498C26.2646 23.7244 26.2413 23.7046 26.2177 23.6883C26.1768 23.66 26.1372 23.6302 26.0999 23.6019C26.0955 23.5986 26.091 23.5952 26.0867 23.5919C26.0536 23.5668 26.0225 23.5431 25.9909 23.5205C25.9193 23.4692 25.8553 23.4304 25.7911 23.4079L25.7911 23.4079C25.6078 23.3435 25.4058 23.3201 25.1876 23.2948C25.1724 23.2931 25.1572 23.2913 25.1418 23.2895L25.1416 23.2895C24.983 23.2707 24.8199 23.2989 24.6354 23.3381L24.6353 23.3382L24.6291 23.3395C24.4384 23.3798 24.2921 23.4108 24.1536 23.5052L24.1535 23.5053C23.89 23.6843 23.6831 23.9161 23.4853 24.1784C23.4789 24.1872 23.4709 24.2037 23.4642 24.2284L23.3195 24.1887L23.4642 24.2282C23.4195 24.3917 23.3761 24.5533 23.3375 24.7157L23.3375 24.716C23.2352 25.143 23.2283 25.5247 23.4557 25.8891L23.4558 25.8892L23.4577 25.8923C23.6807 26.2503 23.8707 26.5553 24.2174 26.7219L24.2181 26.7223L24.2181 26.7223L24.2206 26.7235C24.3631 26.793 24.4743 26.8472 24.5974 26.8615L24.5975 26.8615C24.6462 26.8672 24.6948 26.8707 24.7474 26.8744C24.7572 26.8751 24.7672 26.8759 24.7774 26.8766C24.8399 26.8812 24.9073 26.8867 24.9754 26.8973L24.9756 26.8974C25.1761 26.9291 25.3763 26.9081 25.5673 26.8459C25.8955 26.7388 26.1761 26.5731 26.3822 26.3022L26.8228 24.9227ZM26.8228 24.9227V24.9321C26.8228 24.9886 26.8239 25.042 26.825 25.0935C26.8272 25.2044 26.8293 25.3065 26.82 25.412L26.8228 24.9227Z" stroke="white" stroke-width="0.3"/>
</g>
<defs>
<clipPath id="clip0_478_306">
<rect width="50" height="55" fill="white"/>
</clipPath>
</defs>
</svg>
