<svg width="50" height="55" viewBox="0 0 50 55" fill="none" xmlns="http://www.w3.org/2000/svg">
<g clip-path="url(#clip0_478_248)">
<rect width="50" height="55" fill="white"/>
<path d="M50 0L0 0L0 50L50 50L50 0Z" fill="#161215"/>
<rect y="50" width="50" height="5" fill="#00D1FF"/>
<g filter="url(#filter0_d_478_248)">
<path d="M25.0629 35.868C23.7444 35.868 22.4267 35.8666 21.1083 35.8694C20.9825 35.8694 20.8903 35.8295 20.8009 35.7401C19.9192 34.8501 19.0334 33.9643 18.1489 33.0771C16.8518 31.7752 15.5561 30.4713 14.2549 29.1735C14.1022 29.0215 14.0534 28.8571 14.0541 28.6494C14.0596 27.1948 14.0568 25.7402 14.0568 24.2857C14.0568 23.351 14.0555 22.4164 14.0575 21.4817C14.0575 21.3228 14.0733 21.164 14.0733 21.0051C14.0733 20.8751 14.1277 20.7795 14.2171 20.6915C14.649 20.2678 15.0788 19.8421 15.5087 19.4157C16.6503 18.2837 17.7913 17.151 18.933 16.0196C19.5623 15.3958 20.1929 14.7727 20.827 14.1538C20.869 14.1132 20.9412 14.0857 21.0003 14.0836C21.2527 14.0753 21.5058 14.0781 21.7589 14.0781C24.1138 14.0781 26.4693 14.0781 28.8242 14.0781C28.8585 14.0781 28.8922 14.0809 28.9266 14.0781C29.0676 14.0678 29.1735 14.1249 29.2726 14.2246C30.0848 15.043 30.9005 15.858 31.7161 16.673C33.0414 17.9983 34.3653 19.3263 35.6961 20.6461C35.8853 20.8332 35.963 21.0422 35.963 21.2974C35.9623 23.752 35.9637 26.2065 35.9623 28.6611C35.9623 28.7739 35.9554 28.8894 35.93 28.9995C35.9155 29.0641 35.8681 29.1274 35.8206 29.1762C35.4506 29.5531 35.0778 29.9272 34.7044 30.3014C33.7436 31.2649 32.7821 32.2271 31.8207 33.1899C30.9479 34.0647 30.0759 34.9402 29.2017 35.8137C29.1742 35.8412 29.1302 35.8666 29.0938 35.8666C27.7499 35.8694 26.406 35.8687 25.0622 35.8687C25.0629 35.8687 25.0629 35.868 25.0629 35.868ZM16.6098 25.0215C16.6091 25.0215 16.6084 25.0215 16.6077 25.0215C16.6077 25.527 16.607 26.0332 16.6077 26.5387C16.6084 26.9479 16.6104 27.3571 16.6118 27.7663C16.6125 27.8846 16.6462 27.9871 16.7315 28.0745C16.9433 28.2925 17.1462 28.5187 17.3601 28.734C18.5987 29.9781 19.838 31.2209 21.0794 32.463C21.3483 32.7319 21.6227 32.996 21.8985 33.258C21.9412 33.2986 22.0038 33.3343 22.0608 33.3419C22.2066 33.3605 22.3552 33.3687 22.5024 33.3694C23.73 33.3708 24.9569 33.3708 26.1846 33.368C26.721 33.3667 27.2582 33.3591 27.7946 33.3495C27.8503 33.3488 27.9143 33.3261 27.9583 33.2924C28.1061 33.1782 28.2554 33.0627 28.3888 32.932C29.4328 31.9066 30.472 30.8777 31.5139 29.8502C32.0662 29.3055 32.6219 28.765 33.1714 28.2175C33.2244 28.1652 33.2636 28.0855 33.2787 28.0126C33.3035 27.8943 33.3131 27.7705 33.3131 27.6487C33.3158 26.9128 33.3165 26.177 33.3124 25.4411C33.311 25.2203 33.2897 24.9995 33.2794 24.7781C33.2759 24.7017 33.278 24.6247 33.2814 24.5484C33.2911 24.3386 33.3096 24.1288 33.3117 23.9191C33.3138 23.6894 33.2973 23.4597 33.2959 23.2293C33.2945 22.9906 33.3021 22.7527 33.3041 22.514C33.3055 22.3888 33.3083 22.2637 33.3014 22.1399C33.2986 22.0876 33.2842 22.0257 33.2512 21.9879C33.1398 21.8593 33.0201 21.7375 32.9004 21.6165C31.6632 20.3669 30.4259 19.1179 29.188 17.869C28.8118 17.49 28.4356 17.1111 28.0553 16.7362C28.0119 16.6936 27.9452 16.6578 27.8854 16.651C27.6653 16.6269 27.4438 16.6035 27.2231 16.6021C26.0752 16.598 24.9274 16.5987 23.7795 16.6021C23.2713 16.6035 22.763 16.6145 22.2548 16.6262C22.197 16.6276 22.1282 16.651 22.0856 16.6881C21.8181 16.9247 21.5505 17.1633 21.2933 17.4109C20.3174 18.3504 19.3449 19.294 18.3711 20.2362C17.8223 20.7678 17.2741 21.2995 16.7274 21.8331C16.6882 21.871 16.6448 21.9225 16.638 21.9721C16.618 22.1179 16.6084 22.2657 16.6084 22.4122C16.6084 23.2822 16.6098 24.1515 16.6098 25.0215Z" fill="#00D1FF"/>
<path d="M10.4537 26.4266C10.5383 26.4204 10.6236 26.4108 10.7082 26.4094C10.907 26.4059 11.0645 26.5064 11.1979 26.637C11.691 27.1198 12.1793 27.6074 12.6683 28.0951C13.0486 28.474 13.4248 28.8571 13.8058 29.2347C14.7212 30.1425 15.6414 31.0462 16.5554 31.9561C17.8766 33.2704 19.1971 34.5853 20.5114 35.9058C21.4467 36.846 22.3724 37.7957 23.3022 38.7421C23.3579 38.7985 23.4075 38.8611 23.4584 38.9223C23.6021 39.0949 23.6303 39.295 23.5897 39.5082C23.5705 39.6086 23.5464 39.7077 23.5209 39.8067C23.4921 39.9181 23.4137 39.9738 23.2995 39.9587C22.8834 39.9016 22.4632 39.8652 22.0533 39.7771C21.5127 39.6616 20.9715 39.5433 20.4481 39.359C20.2232 39.2799 19.9935 39.2146 19.7707 39.1307C19.4894 39.0247 19.2101 38.9133 18.9357 38.7909C18.6049 38.643 18.2796 38.4814 17.9529 38.3246C17.8305 38.2662 17.7109 38.1994 17.5864 38.1451C17.4206 38.0729 17.2927 37.9567 17.1668 37.8308C16.4516 37.1121 15.7336 36.3962 15.0163 35.6795C14.4172 35.0812 13.8196 34.4829 13.2192 33.8859C12.8547 33.5234 12.4833 33.1679 12.1236 32.8006C12.0184 32.6926 11.9303 32.562 11.8595 32.4279C11.6635 32.0565 11.4757 31.6803 11.2942 31.3013C11.1979 31.0991 11.1154 30.8901 11.0369 30.6796C10.887 30.2752 10.7309 29.8729 10.603 29.4609C10.4847 29.0792 10.3891 28.69 10.3038 28.2993C10.1931 27.789 10.1023 27.2753 10.0053 26.7622C9.99638 26.7134 10.0005 26.6604 10.0046 26.6102C10.0122 26.5236 10.0617 26.4672 10.147 26.4527C10.2474 26.4355 10.3492 26.4259 10.4503 26.4128C10.4524 26.4183 10.453 26.4225 10.4537 26.4266ZM17.2611 36.2222C17.3532 36.2105 17.4454 36.1871 17.5375 36.1885C17.7005 36.1905 17.8525 36.1555 18.0011 36.0942C18.1943 36.0145 18.3979 35.9533 18.5238 35.7634C18.6744 35.5372 18.7239 35.28 18.5148 35.0784C18.096 34.6747 17.6854 34.2621 17.27 33.8549C17.2239 33.8096 17.1689 33.7738 17.1173 33.7346C17.0492 33.683 16.9873 33.6981 16.9282 33.7532C16.6029 34.0537 16.2748 34.3501 15.9537 34.6548C15.7886 34.8116 15.7913 34.8584 15.9502 35.0269C16.2872 35.3838 16.6297 35.7359 16.964 36.0949C17.0479 36.1857 17.1345 36.2401 17.2611 36.2222ZM14.4826 31.3763C14.4805 31.368 14.4777 31.3605 14.4757 31.3522C14.4014 31.3962 14.3244 31.4361 14.2535 31.4843C14.0651 31.6129 13.9262 31.769 13.9069 32.0166C13.8877 32.2704 13.8423 32.5228 13.8079 32.7752C13.7941 32.8749 13.8223 32.9581 13.8952 33.0296C14.0383 33.1679 14.1751 33.3123 14.3196 33.4485C14.563 33.6782 14.8106 33.9038 15.0561 34.1307C15.1008 34.172 15.1428 34.1878 15.1937 34.1335C15.3643 33.9512 15.541 33.7745 15.7102 33.5908C15.8753 33.4113 16.0341 33.2257 16.1937 33.0413C16.2494 32.9774 16.2425 32.9141 16.182 32.8529C16.094 32.7642 16.0073 32.6741 15.922 32.5833C15.6105 32.2532 15.2941 31.9265 14.9894 31.5902C14.8505 31.4368 14.682 31.3791 14.4826 31.3763Z" fill="#00D1FF"/>
<path d="M26.7245 39.9553C26.6901 39.9553 26.6564 39.956 26.622 39.9553C26.5168 39.9519 26.4728 39.9168 26.4549 39.8116C26.4349 39.6967 26.4253 39.5805 26.4026 39.4664C26.3545 39.2208 26.4349 39.0214 26.6083 38.8494C26.9047 38.5551 27.1977 38.258 27.4927 37.9622C29.3496 36.1033 31.2058 34.245 33.0628 32.3867C34.1308 31.3179 35.2003 30.2505 36.2677 29.1811C37.0723 28.375 37.8742 27.5663 38.6768 26.7581C38.8137 26.6199 38.9588 26.4927 39.1445 26.4253C39.183 26.4115 39.227 26.4019 39.2676 26.4046C39.412 26.4129 39.5558 26.4273 39.7002 26.4383C39.976 26.4604 40.0276 26.5697 39.9884 26.7974C39.9169 27.2134 39.8419 27.6288 39.7552 28.0415C39.6768 28.4156 39.5867 28.7877 39.4911 29.1584C39.4444 29.3393 39.3749 29.514 39.3137 29.6914C39.2215 29.9562 39.1335 30.223 39.0317 30.4844C38.8316 30.9967 38.6143 31.5022 38.3509 31.9864C38.2766 32.1233 38.2044 32.2622 38.1383 32.4032C38.0558 32.5799 37.921 32.714 37.7869 32.8482C36.8921 33.7443 35.9981 34.6425 35.1019 35.5372C34.4369 36.2016 33.7677 36.8619 33.1006 37.5242C33.06 37.564 33.0181 37.6026 32.9816 37.6459C32.7072 37.9774 32.3241 38.1486 31.9624 38.3563C31.5167 38.6122 31.0408 38.7972 30.5669 38.9856C30.1907 39.1355 29.8021 39.2559 29.4191 39.3893C28.97 39.5461 28.5071 39.6472 28.0408 39.7339C27.6199 39.8123 27.197 39.8797 26.7754 39.9512C26.7589 39.954 26.7417 39.954 26.7245 39.9553ZM31.3496 35.3337C31.3626 35.432 31.3695 35.5317 31.3902 35.6287C31.4012 35.6782 31.4273 35.7312 31.4617 35.7683C31.6488 35.9705 31.8778 36.0929 32.1536 36.1315C32.3523 36.159 32.549 36.2009 32.7457 36.2388C32.8516 36.2594 32.9314 36.2388 33.0091 36.1521C33.3619 35.7594 33.7223 35.3729 34.0799 34.9843C34.1831 34.8722 34.1886 34.811 34.0751 34.7113C33.7161 34.3976 33.3516 34.0902 32.9892 33.7801C32.9438 33.7409 32.9094 33.747 32.8654 33.7883C32.6508 33.9912 32.4321 34.19 32.2175 34.3921C31.9569 34.637 31.6976 34.8839 31.4397 35.1315C31.3847 35.1858 31.3351 35.2463 31.3496 35.3337ZM36.1666 32.7574C36.1356 32.4499 36.1047 32.1425 36.0723 31.8351C36.0703 31.8138 36.062 31.787 36.0469 31.7739C35.9369 31.6769 35.8316 31.5724 35.7113 31.4912C35.6239 31.4321 35.5118 31.4108 35.4169 31.3612C35.3585 31.331 35.3186 31.3379 35.2739 31.3805C34.7904 31.844 34.3048 32.3055 33.8227 32.7711C33.6955 32.8935 33.6934 33.0338 33.8193 33.1611C34.1432 33.4878 34.4733 33.8083 34.8007 34.1315C34.8571 34.1872 34.9066 34.1865 34.9671 34.126C35.3241 33.7684 35.6824 33.4114 36.0448 33.0593C36.1315 32.9726 36.1858 32.8832 36.1666 32.7574Z" fill="#00D1FF"/>
<path d="M10.6505 23.5773C10.4682 23.5636 10.3231 23.5546 10.1794 23.5402C10.0742 23.5299 10.0267 23.4879 10.0233 23.3841C10.0198 23.2981 10.0391 23.2114 10.0487 23.1255C10.0611 23.0099 10.0687 22.8937 10.0865 22.7795C10.1223 22.5498 10.1615 22.3215 10.2028 22.0925C10.2358 21.9116 10.2715 21.7314 10.3121 21.5526C10.3575 21.3538 10.4015 21.1537 10.46 20.9584C10.548 20.6654 10.6457 20.3752 10.744 20.0856C10.8321 19.8257 10.9173 19.5643 11.0219 19.3112C11.1649 18.9653 11.3231 18.6255 11.4806 18.2865C11.5831 18.065 11.6897 17.8443 11.808 17.6317C11.8802 17.5018 11.9655 17.3732 12.0686 17.2679C12.6463 16.6806 13.2309 16.1008 13.8134 15.5176C14.7474 14.5837 15.6814 13.6497 16.6153 12.715C16.8265 12.5039 17.0273 12.2818 17.2522 12.0871C17.4131 11.9475 17.5988 11.8306 17.7866 11.7281C18.0727 11.572 18.3663 11.4262 18.6648 11.2948C19.0781 11.1133 19.4949 10.9393 19.9172 10.7818C20.2116 10.6717 20.5169 10.5913 20.8195 10.5046C21.0919 10.4269 21.3656 10.3499 21.6421 10.2887C21.9908 10.2116 22.3429 10.1477 22.6943 10.0837C22.803 10.0638 22.9144 10.061 23.0244 10.0486C23.1001 10.0404 23.1771 10.0342 23.2514 10.0177C23.4061 9.98262 23.4735 10.0191 23.5182 10.1704C23.5416 10.2495 23.5753 10.3258 23.5911 10.4056C23.6469 10.6924 23.5671 10.9393 23.3601 11.1442C23.0815 11.42 22.8016 11.6944 22.5238 11.9702C21.3904 13.094 20.2576 14.2185 19.1242 15.3422C18.0307 16.4261 16.9365 17.5086 15.843 18.5925C14.5033 19.9199 13.1642 21.2479 11.8238 22.5746C11.5329 22.8621 11.2378 23.1454 10.9421 23.4274C10.8506 23.5141 10.7564 23.6028 10.6505 23.5773ZM17.2763 13.7618C17.2212 13.8024 17.1538 13.8436 17.0974 13.8959C16.7955 14.1751 16.495 14.4564 16.1965 14.7398C16.0816 14.8491 15.9737 14.966 15.8629 15.0795C15.8168 15.1263 15.8141 15.1689 15.8657 15.2171C15.9695 15.3134 16.0679 15.4158 16.1731 15.5114C16.4076 15.7253 16.647 15.9351 16.8808 16.1497C17.0349 16.2906 17.0369 16.2948 17.1882 16.149C17.5115 15.8381 17.8326 15.5252 18.1538 15.2123C18.29 15.0795 18.4241 14.9447 18.5575 14.8099C18.6009 14.7659 18.627 14.7143 18.6064 14.6483C18.5617 14.5046 18.5218 14.3601 18.475 14.2171C18.4296 14.0782 18.3251 13.9949 18.1896 13.964C17.9557 13.9103 17.7185 13.8705 17.4833 13.8223C17.4207 13.8079 17.3595 13.7859 17.2763 13.7618ZM15.1463 15.8972C15.1415 15.9041 15.1374 15.9117 15.1325 15.9186C15.0301 15.9048 14.9675 15.975 14.9063 16.0348C14.5679 16.367 14.2337 16.7026 13.8973 17.0375C13.8272 17.1077 13.8073 17.1888 13.8238 17.2865C13.8726 17.574 13.9221 17.8621 13.9599 18.1517C13.9868 18.358 14.1044 18.4756 14.2894 18.5423C14.3581 18.5671 14.4276 18.5918 14.495 18.62C14.6154 18.6716 14.6683 18.6654 14.7618 18.5705C15.0349 18.2934 15.3059 18.0148 15.5775 17.7363C15.7639 17.5451 15.9503 17.3539 16.1332 17.16C16.2267 17.0609 16.2247 17.0389 16.1387 16.9378C16.0521 16.8367 15.964 16.7363 15.876 16.6359C15.6896 16.4254 15.5053 16.2129 15.3148 16.0073C15.2701 15.9598 15.2027 15.9337 15.1463 15.8972Z" fill="#00D1FF"/>
<path d="M39.4224 23.5842C39.2436 23.6103 39.1397 23.5003 39.0269 23.3882C38.1879 22.5484 37.3447 21.7128 36.5022 20.8758C35.648 20.0265 34.7938 19.1778 33.9383 18.3291C33.0146 17.413 32.0889 16.499 31.166 15.5822C30.1564 14.5795 29.1481 13.5747 28.1392 12.5706C27.6378 12.0713 27.1406 11.5685 26.6337 11.0747C26.4363 10.8822 26.3607 10.6642 26.4102 10.3973C26.424 10.3251 26.4274 10.2501 26.4446 10.1786C26.4803 10.0252 26.5718 9.97297 26.7217 10.0129C26.741 10.0184 26.7596 10.0266 26.7788 10.0294C27.0587 10.0699 27.34 10.1071 27.6193 10.1511C27.7898 10.1779 27.959 10.213 28.1282 10.2481C28.3386 10.2921 28.5498 10.3354 28.7582 10.3877C28.9005 10.4234 29.0388 10.4764 29.1791 10.5184C29.4019 10.5851 29.6268 10.6428 29.8476 10.7157C30.0518 10.7831 30.2533 10.8609 30.4528 10.942C30.7815 11.0747 31.113 11.2027 31.4335 11.354C31.7334 11.495 32.014 11.6779 32.3145 11.8168C32.6763 11.9839 32.9142 12.2879 33.1838 12.5562C34.2863 13.651 35.3819 14.7514 36.4802 15.8498C36.9479 16.3174 37.4142 16.7872 37.8853 17.2521C38.0579 17.422 38.1542 17.6372 38.2635 17.8449C38.3481 18.0059 38.4382 18.164 38.518 18.327C38.6218 18.5409 38.7229 18.7576 38.8165 18.9763C38.9368 19.2583 39.0599 19.5395 39.1617 19.8284C39.2704 20.1358 39.3529 20.4522 39.4526 20.763C39.6122 21.2582 39.7085 21.7678 39.8233 22.274C39.866 22.4625 39.8804 22.6475 39.8928 22.8373C39.8983 22.9212 39.9286 23.0037 39.9458 23.0869C39.9574 23.1427 39.9698 23.1984 39.9746 23.2548C39.9877 23.4157 39.9004 23.5312 39.7422 23.5553C39.6376 23.5711 39.5297 23.5746 39.4224 23.5842ZM36.1962 17.1627C36.1817 17.1338 36.1666 17.0774 36.1315 17.0389C36.0483 16.946 35.9561 16.8615 35.8667 16.7741C35.5944 16.5086 35.3227 16.2425 35.049 15.9784C34.928 15.8615 34.7815 15.8539 34.6742 15.9701C34.3702 16.2996 34.0731 16.6345 33.7732 16.9681C33.734 17.0114 33.7285 17.0581 33.7705 17.1049C33.7952 17.1324 33.8165 17.1627 33.842 17.1895C34.0896 17.4557 34.3365 17.7218 34.5855 17.9859C34.776 18.1881 34.9699 18.3876 35.1611 18.5898C35.2134 18.6448 35.2684 18.6785 35.3489 18.6565C35.4905 18.618 35.6336 18.5822 35.7759 18.5478C35.941 18.5079 36.0559 18.4075 36.0786 18.2411C36.1267 17.8917 36.1563 17.5409 36.1962 17.1627ZM31.3407 14.6957C31.364 14.737 31.3916 14.8133 31.4431 14.8677C31.5545 14.9846 31.6777 15.0905 31.7966 15.1999C32.1508 15.5279 32.505 15.856 32.8606 16.1826C32.9479 16.2624 32.9631 16.2617 33.0518 16.1806C33.2361 16.0121 33.4211 15.8436 33.604 15.6737C33.7354 15.552 33.8681 15.4316 33.9926 15.3037C34.1295 15.1627 34.1315 15.1029 33.9947 14.9674C33.6405 14.6153 33.2822 14.2659 32.9204 13.9213C32.8743 13.8773 32.7932 13.8429 32.7313 13.8477C32.4314 13.8697 32.1323 13.9048 31.8331 13.9378C31.7327 13.9488 31.6446 13.9825 31.5724 14.0644C31.4232 14.2349 31.3764 14.4426 31.3407 14.6957Z" fill="#00D1FF"/>
<path d="M21.4267 36.3454C21.457 36.3419 21.5031 36.3316 21.5498 36.3316C23.2575 36.3296 24.9645 36.3282 26.6722 36.3275C27.2973 36.3268 27.9225 36.3268 28.547 36.3289C28.5772 36.3289 28.6082 36.3474 28.6384 36.3571C28.6261 36.3805 28.6185 36.408 28.6006 36.4258C27.97 37.0606 27.3393 37.6954 26.7066 38.3275C26.5319 38.5022 26.3606 38.6823 26.1687 38.8371C25.8909 39.0606 25.5745 39.2105 25.2128 39.2525C24.8662 39.2924 24.5237 39.2607 24.2183 39.0991C24.025 38.9966 23.8593 38.8323 23.7011 38.6748C23.0306 38.0084 22.3662 37.3344 21.7018 36.6611C21.6049 36.5641 21.5203 36.454 21.4267 36.3454ZM25.0003 36.7099V36.7092C24.7389 36.7092 24.4783 36.7113 24.2169 36.7078C24.1358 36.7064 24.0773 36.7353 24.023 36.7931C23.862 36.965 23.8565 37.0152 24.0209 37.1824C24.2836 37.4492 24.5512 37.7112 24.8201 37.9719C24.9418 38.0895 25.0739 38.0833 25.1921 37.965C25.23 37.9272 25.2692 37.8894 25.3063 37.8509C25.5415 37.6088 25.7767 37.3667 26.0106 37.1225C26.0615 37.0689 26.113 37.0097 26.0903 36.9272C26.0642 36.833 25.8923 36.7106 25.7912 36.7099C25.5285 36.7092 25.2644 36.7099 25.0003 36.7099Z" fill="#00D1FF"/>
<path d="M21.3978 13.5836C21.4102 13.5658 21.4198 13.5458 21.435 13.5307C22.111 12.8615 22.7871 12.193 23.4638 11.5245C23.686 11.3051 23.9095 11.0837 24.1825 10.9283C24.318 10.8512 24.4755 10.8093 24.6268 10.7639C24.7293 10.7329 24.8386 10.7089 24.9445 10.7089C25.0676 10.7096 25.1921 10.7336 25.3139 10.7591C25.5257 10.8031 25.7238 10.8822 25.9129 10.9922C26.2877 11.2102 26.569 11.5314 26.8695 11.832C27.3957 12.3581 27.917 12.8883 28.4411 13.4165C28.4789 13.455 28.5229 13.4867 28.56 13.5259C28.5758 13.5424 28.5814 13.5685 28.591 13.5905C28.571 13.5974 28.5511 13.6098 28.5305 13.6105C28.4397 13.6146 28.3489 13.6173 28.2581 13.6173C26.1591 13.6167 24.0601 13.616 21.9611 13.6139C21.8421 13.6139 21.7231 13.6002 21.6042 13.5974C21.5388 13.596 21.4728 13.6043 21.4075 13.6084C21.4047 13.6002 21.4013 13.5919 21.3978 13.5836ZM25.0051 13.2508C25.0051 13.2494 25.0051 13.2473 25.0051 13.246C25.0168 13.246 25.0278 13.246 25.0395 13.246C25.3008 13.2467 25.5621 13.248 25.8235 13.2467C25.8916 13.2467 26.0332 13.1524 26.0305 13.094C26.0277 13.0362 25.9837 12.9805 25.9576 12.9241C25.9555 12.9193 25.95 12.9158 25.9459 12.9117C25.688 12.6476 25.4301 12.3842 25.1722 12.1194C24.9892 11.9317 24.9665 11.9282 24.7809 12.1201C24.6351 12.2707 24.5003 12.4324 24.3572 12.5864C24.2334 12.7191 24.1027 12.8457 23.9803 12.9798C23.9583 13.0039 23.9432 13.0671 23.9583 13.0871C24.0312 13.1841 24.1199 13.2556 24.2568 13.2522C24.5051 13.246 24.7554 13.2508 25.0051 13.2508Z" fill="#00D1FF"/>
<path d="M13.5981 21.3063C13.5981 23.7141 13.5981 26.0944 13.5981 28.4981C13.5562 28.4657 13.53 28.4499 13.5094 28.4293C12.8443 27.7573 12.1793 27.0854 11.5142 26.4135C11.4104 26.3083 11.3052 26.2051 11.1999 26.1012C11.1862 26.0875 11.1724 26.0703 11.1559 26.062C10.9186 25.9444 10.8402 25.7237 10.7921 25.4892C10.755 25.309 10.7254 25.1274 10.7048 24.9451C10.6972 24.8812 10.7247 24.8124 10.7385 24.7457C10.7467 24.7037 10.768 24.6625 10.766 24.6219C10.7529 24.4025 10.8898 24.2478 10.984 24.0717C11.2302 23.6116 11.6133 23.2705 11.9736 22.9101C12.4791 22.4039 12.9895 21.9026 13.4977 21.3991C13.5238 21.3723 13.5513 21.3489 13.5981 21.3063ZM13.2267 25.0084C13.2267 25.0084 13.226 25.0084 13.2267 25.0084C13.2267 24.7306 13.2267 24.4527 13.226 24.1742C13.226 24.1494 13.2247 24.1219 13.2157 24.0992C13.1414 23.9204 13.0424 23.9005 12.909 24.0359C12.6105 24.3392 12.312 24.6425 12.0142 24.9465C11.9303 25.0318 11.9269 25.0421 12.0108 25.1246C12.2783 25.3867 12.5486 25.6453 12.8182 25.9046C12.8732 25.9575 12.9289 26.0105 12.9908 26.0552C13.0135 26.0717 13.0651 26.0813 13.0816 26.0682C13.1566 26.005 13.2309 25.9417 13.2288 25.8241C13.2233 25.5531 13.2267 25.2808 13.2267 25.0084Z" fill="#00D1FF"/>
<path d="M36.4431 21.4124C36.4782 21.4412 36.5002 21.4577 36.5188 21.4763C37.1783 22.1372 37.8379 22.7995 38.4981 23.4598C38.7367 23.6977 38.9465 23.9577 39.1061 24.2548C39.1494 24.3353 39.1666 24.4295 39.192 24.5189C39.2078 24.576 39.2127 24.6365 39.2285 24.6929C39.289 24.9034 39.2924 25.1124 39.2285 25.3222C39.2189 25.3545 39.2085 25.3882 39.2065 25.4219C39.1913 25.6688 39.0607 25.8607 38.9087 26.0388C38.2883 26.7651 37.5744 27.4013 36.9121 28.0869C36.7746 28.23 36.6377 28.3737 36.5002 28.5175C36.4912 28.5271 36.4782 28.5333 36.4514 28.5532C36.4417 28.503 36.4273 28.4645 36.4266 28.4253C36.4238 27.6757 36.4218 26.926 36.4218 26.1764C36.4211 24.7025 36.4218 23.2287 36.4218 21.7542C36.4218 21.6716 36.4232 21.5891 36.4259 21.5073C36.4266 21.4818 36.4349 21.4557 36.4431 21.4124ZM36.9548 23.9412C36.9383 23.9488 36.9238 23.9522 36.9142 23.9611C36.8344 24.0327 36.7712 24.1104 36.7712 24.2287C36.7691 24.7314 36.7643 25.2335 36.7567 25.7362C36.7553 25.838 36.7794 25.9247 36.8413 26.0051C36.9259 26.1145 36.9417 26.1214 37.0387 26.0265C37.3406 25.73 37.6405 25.4316 37.939 25.131C38.0318 25.0375 38.0318 25.0168 37.9383 24.9206C37.637 24.6118 37.333 24.305 37.0298 23.9983C37.0077 23.9756 36.9802 23.9598 36.9548 23.9412Z" fill="#00D1FF"/>
<path d="M16.997 24.9225C16.997 24.0903 16.997 23.2575 16.997 22.4253C16.997 22.309 16.9943 22.1921 17.0046 22.0766C17.0087 22.0305 17.0355 21.9782 17.0685 21.9452C17.3058 21.7045 17.5458 21.4666 17.7879 21.2307C18.9426 20.1034 20.0981 18.9776 21.2528 17.8504C21.5031 17.6062 21.7528 17.3628 22.0024 17.1179C22.0822 17.0395 22.1819 17.0278 22.2858 17.0278C22.8566 17.0285 23.4281 17.0292 23.999 17.0292C25.2575 17.0292 26.5161 17.0299 27.7747 17.0278C27.8944 17.0278 27.9879 17.0691 28.0704 17.1516C29.0904 18.1805 30.1103 19.2094 31.1302 20.2376C31.6563 20.7678 32.1818 21.2994 32.71 21.8269C32.8716 21.9879 32.9528 22.1694 32.9493 22.404C32.9383 23.0972 32.9411 23.7898 32.9397 24.483C32.9383 25.2045 32.9383 25.9259 32.9369 26.6474C32.9356 27.0621 32.9349 27.4768 32.9266 27.8908C32.9252 27.9506 32.9005 28.0235 32.8606 28.0662C32.6749 28.2656 32.4816 28.4582 32.2884 28.6501C30.915 30.0118 29.5422 31.3749 28.1647 32.7325C27.8338 33.0592 27.926 32.998 27.5175 32.9987C25.7871 33.0028 24.0567 32.998 22.3271 33.0035C22.1297 33.0042 21.9859 32.9444 21.8477 32.8034C20.3601 31.2821 18.8677 29.7663 17.3766 28.2484C17.281 28.1515 17.1882 28.0517 17.0933 27.9541C17.0266 27.8853 16.9963 27.8076 16.997 27.7092C16.9998 26.7801 16.9984 25.8516 16.9984 24.9225C16.9977 24.9225 16.997 24.9225 16.997 24.9225ZM32.4115 24.8998C32.4101 24.8998 32.4087 24.8998 32.4074 24.8998C32.4074 24.0587 32.406 23.2182 32.4087 22.3771C32.4094 22.2781 32.3792 22.2045 32.3097 22.1357C31.9039 21.7341 31.5016 21.329 31.0972 20.926C29.9872 19.818 28.8765 18.7114 27.7692 17.6014C27.6619 17.4941 27.5539 17.4212 27.3958 17.4501C27.3545 17.4577 27.3105 17.4487 27.2685 17.4487C25.8339 17.4494 24.3992 17.4501 22.9646 17.4508C22.7913 17.4508 22.618 17.4597 22.4453 17.4529C22.358 17.4494 22.2906 17.4701 22.2308 17.5299C22.1008 17.6612 21.9687 17.7899 21.8394 17.9219C20.867 18.9095 19.8966 19.8985 18.922 20.884C18.5293 21.2816 18.1304 21.6743 17.7308 22.0656C17.6476 22.1467 17.6057 22.2327 17.6112 22.3503C17.6187 22.5085 17.6132 22.6674 17.6146 22.8262C17.6194 23.2808 17.629 23.7347 17.629 24.1893C17.6297 24.6611 17.6194 25.1323 17.618 25.604C17.616 26.1749 17.6139 26.7464 17.6215 27.3172C17.6242 27.5304 17.6765 27.7333 17.8505 27.8826C17.9172 27.9396 17.9777 28.0043 18.0396 28.0669C18.8594 28.8942 19.6785 29.7216 20.4983 30.549C21.052 31.1081 21.6049 31.6679 22.1627 32.2222C22.2301 32.289 22.3229 32.3419 22.413 32.3694C22.5052 32.3983 22.6097 32.3942 22.7088 32.3942C23.8903 32.3962 25.0725 32.3976 26.2541 32.3956C26.6489 32.3949 27.0436 32.3763 27.4377 32.3784C27.6041 32.379 27.7183 32.3075 27.8297 32.1947C28.664 31.3495 29.5016 30.5084 30.3372 29.6652C30.9989 28.9974 31.6598 28.3289 32.3221 27.6618C32.3867 27.5964 32.4115 27.5235 32.4108 27.4328C32.4101 26.5875 32.4115 25.7437 32.4115 24.8998Z" fill="#00D1FF"/>
<path d="M18.1586 35.2973C18.1421 35.3901 18.1366 35.4589 18.1173 35.5236C18.0919 35.6088 18.041 35.6769 17.9447 35.6914C17.7212 35.7244 17.497 35.7519 17.2735 35.7877C17.1999 35.7994 17.1456 35.778 17.0988 35.7271C16.856 35.461 16.6139 35.1948 16.3705 34.9287C16.3265 34.8805 16.323 34.8358 16.3712 34.7891C16.5472 34.6199 16.7192 34.4472 16.8987 34.2822C17.0204 34.1701 17.0403 34.1687 17.1586 34.2801C17.3918 34.5002 17.618 34.7272 17.8471 34.9514C17.922 35.025 18.0018 35.0937 18.0726 35.1708C18.1125 35.2127 18.138 35.2657 18.1586 35.2973Z" fill="#00D1FF"/>
<path d="M14.2522 32.8008C14.2797 32.5628 14.3037 32.3544 14.3278 32.146C14.334 32.0924 14.3374 32.0387 14.3443 31.9858C14.3636 31.829 14.4757 31.7547 14.6187 31.8138C14.6875 31.842 14.7577 31.8833 14.8092 31.9363C15.1222 32.2609 15.4296 32.5903 15.7405 32.917C15.7769 32.9555 15.77 32.9823 15.7398 33.0181C15.5891 33.1948 15.4447 33.3778 15.2872 33.5483C15.237 33.6027 15.1559 33.6316 15.0843 33.6611C15.0623 33.6701 15.0163 33.6501 14.9956 33.6295C14.768 33.3963 14.5417 33.1611 14.3189 32.9225C14.2824 32.8847 14.2659 32.8276 14.2522 32.8008Z" fill="#00D1FF"/>
<path d="M33.6577 34.8536C33.516 35.0063 33.373 35.1631 33.2278 35.3172C33.1054 35.4472 32.9761 35.5716 32.8558 35.7037C32.7904 35.7752 32.7196 35.7924 32.6274 35.7745C32.5532 35.7601 32.4755 35.7601 32.3998 35.7546C32.276 35.7456 32.1515 35.7388 32.0277 35.7298C32.0195 35.7291 32.0071 35.7284 32.0037 35.7236C31.9363 35.615 31.8654 35.507 31.807 35.3935C31.796 35.3722 31.8338 35.3234 31.8544 35.2897C32.102 34.888 32.4693 34.604 32.8241 34.3083C32.8833 34.2587 32.9472 34.2443 33.0098 34.2952C33.2244 34.4719 33.4362 34.6507 33.6494 34.8296C33.6522 34.833 33.6529 34.8399 33.6577 34.8536Z" fill="#00D1FF"/>
<path d="M35.7387 32.6547C35.7779 32.7937 35.692 32.9181 35.5661 33.0371C35.3687 33.2242 35.1796 33.4209 34.9898 33.6162C34.9313 33.6767 34.888 33.6767 34.8268 33.619C34.6679 33.469 34.5022 33.3267 34.3426 33.1774C34.2037 33.0474 34.1996 32.8941 34.3309 32.7558C34.573 32.5007 34.8172 32.2476 35.0606 31.9938C35.106 31.947 35.1507 31.8996 35.1982 31.8542C35.2181 31.8349 35.2415 31.8164 35.2669 31.8054C35.3997 31.7469 35.6913 31.9223 35.7023 32.0688C35.716 32.249 35.725 32.4305 35.7387 32.6547Z" fill="#00D1FF"/>
<path d="M17.0114 15.7843C16.9729 15.7644 16.9275 15.7527 16.8965 15.7238C16.7329 15.5711 16.5705 15.4164 16.4117 15.2582C16.3023 15.1496 16.3065 15.1275 16.4179 15.0182C16.6345 14.8057 16.8525 14.5939 17.0671 14.3793C17.2397 14.2067 17.4385 14.153 17.6723 14.2232C17.7941 14.2596 17.9165 14.294 18.0389 14.3263C18.1104 14.3449 18.1393 14.393 18.1682 14.457C18.2308 14.5952 18.2039 14.6956 18.0967 14.8036C17.8209 15.0815 17.5547 15.3689 17.2886 15.6557C17.2143 15.7376 17.1283 15.7788 17.0114 15.7843Z" fill="#00D1FF"/>
<path d="M14.2893 17.8677C14.2776 17.6731 14.2707 17.4998 14.2549 17.3279C14.2467 17.2329 14.2742 17.1552 14.3347 17.0858C14.5479 16.8423 14.7618 16.5988 14.975 16.3554C15.0073 16.3182 15.0451 16.2859 15.0898 16.3279C15.314 16.5363 15.5506 16.7323 15.7226 16.9902C15.7556 17.039 15.7515 17.0775 15.7129 17.1188C15.4915 17.3547 15.2721 17.5926 15.0486 17.8265C14.9193 17.962 14.7824 18.0906 14.6504 18.2233C14.6077 18.2659 14.5658 18.2776 14.519 18.2316C14.5128 18.2254 14.5059 18.2206 14.4977 18.2171C14.323 18.1532 14.2302 18.0424 14.2893 17.8677Z" fill="#00D1FF"/>
<path d="M35.3475 18.2253C35.2932 18.1902 35.2292 18.164 35.1859 18.118C34.9094 17.8284 34.6371 17.5354 34.3647 17.2425C34.2196 17.0863 34.2196 17.0836 34.3503 16.9206C34.4851 16.7528 34.624 16.587 34.7602 16.4199C34.8076 16.3615 34.8592 16.3456 34.9197 16.3986C35.0084 16.4777 35.0985 16.5554 35.1852 16.6372C35.3523 16.7954 35.516 16.9564 35.6831 17.1145C35.7602 17.1874 35.7925 17.2569 35.7602 17.3738C35.6969 17.6049 35.6625 17.8436 35.6157 18.0795C35.6054 18.1324 35.5861 18.1751 35.5208 18.1806C35.4679 18.1847 35.4149 18.1991 35.3619 18.2088C35.3564 18.2156 35.3516 18.2204 35.3475 18.2253Z" fill="#00D1FF"/>
<path d="M32.7491 14.2308C32.7718 14.2439 32.8145 14.2577 32.842 14.2859C33.0992 14.5465 33.3537 14.8099 33.6102 15.0706C33.6473 15.1084 33.6425 15.1373 33.6068 15.1703C33.3915 15.3677 33.1769 15.5664 32.9617 15.7638C32.9053 15.8154 32.8654 15.8085 32.8076 15.7494C32.5923 15.5314 32.3681 15.3216 32.1481 15.1084C32.0504 15.0135 31.9541 14.9165 31.8551 14.823C31.8021 14.7728 31.7849 14.7157 31.8035 14.6455C31.8173 14.5933 31.8276 14.5403 31.8413 14.4887C31.862 14.4096 31.906 14.3684 31.994 14.356C32.232 14.3223 32.4679 14.2762 32.7051 14.2356C32.7134 14.235 32.7216 14.2343 32.7491 14.2308Z" fill="#00D1FF"/>
<path d="M24.5058 37.1686C24.8373 37.192 25.1599 37.2091 25.4295 37.1665C25.2974 37.3199 25.142 37.5014 24.9811 37.6878C24.8126 37.5035 24.6592 37.3364 24.5058 37.1686Z" fill="#00D1FF"/>
<path d="M25.3992 12.8491C25.1234 12.8581 24.8476 12.867 24.5691 12.8759C24.5718 12.8691 24.5732 12.8539 24.5815 12.8443C24.697 12.715 24.8119 12.5857 24.9308 12.4605C24.946 12.4447 24.9982 12.4385 25.012 12.4509C25.1502 12.5747 25.2837 12.7026 25.4185 12.8299C25.413 12.8367 25.4061 12.8429 25.3992 12.8491Z" fill="#00D1FF"/>
<path d="M12.8643 25.5002C12.7212 25.362 12.5905 25.2382 12.464 25.1096C12.4489 25.0945 12.4454 25.0422 12.4592 25.0271C12.5926 24.8744 12.7322 24.7279 12.9158 24.6075C12.8161 24.9047 12.8698 25.1942 12.8643 25.5002Z" fill="#00D1FF"/>
<path d="M37.1149 25.5174C37.1576 25.2141 37.172 24.9259 37.1101 24.6178C37.1472 24.6398 37.1741 24.6515 37.1954 24.6694C37.3102 24.7664 37.4237 24.8647 37.5372 24.963C37.5681 24.9906 37.5943 25.0194 37.5537 25.0628C37.4196 25.2051 37.2862 25.3482 37.1527 25.4912C37.1459 25.4988 37.1356 25.5036 37.1149 25.5174Z" fill="#00D1FF"/>
<path d="M25.0092 31.8544C24.1715 31.8544 23.3331 31.8537 22.4954 31.8558C22.415 31.8558 22.3579 31.8317 22.3008 31.7753C21.481 30.9603 20.6585 30.1488 19.838 29.3345C19.2692 28.7705 18.7046 28.2024 18.1351 27.6392C18.0292 27.5346 17.9852 27.4246 17.9852 27.2712C17.9907 25.7939 17.9948 24.3167 17.9818 22.8401C17.979 22.5492 18.0684 22.3387 18.272 22.1344C19.5856 20.8174 20.8895 19.4901 22.1963 18.1668C22.2265 18.1366 22.2589 18.1084 22.2877 18.0774C22.3558 18.0038 22.437 17.9736 22.5381 17.9743C24.1543 17.9763 25.7705 17.9791 27.3874 17.9743C27.5559 17.9736 27.6797 18.0286 27.7945 18.1441C28.5944 18.9467 29.3963 19.7473 30.1982 20.5485C30.6679 21.0182 31.1391 21.4873 31.6074 21.9591C31.7236 22.076 31.8364 22.1963 31.9403 22.3236C31.9809 22.3724 32.0111 22.4446 32.0139 22.5072C32.0242 22.785 32.0242 23.0636 32.0249 23.3414C32.0269 24.6399 32.0269 25.9377 32.0297 27.2362C32.0297 27.3441 31.9712 27.4184 31.9045 27.4879C31.5668 27.8407 31.2291 28.1935 30.888 28.5429C29.8509 29.6054 28.8117 30.6659 27.7753 31.7299C27.6907 31.8166 27.6068 31.8599 27.4802 31.8592C26.657 31.8516 25.8331 31.8551 25.0092 31.8544ZM27.4355 25.0986C27.4438 25.0979 27.4513 25.0973 27.4596 25.0966C27.4348 24.9377 27.4039 24.7795 27.3881 24.62C27.3668 24.4129 27.2911 24.2245 27.1893 24.0491C27.005 23.7321 26.7643 23.4604 26.4796 23.2293C26.4445 23.2011 26.4094 23.1716 26.3702 23.1496C26.254 23.0849 26.1329 23.0292 26.0195 22.9597C25.8654 22.8648 25.7072 22.7961 25.5208 22.7885C25.3915 22.783 25.2622 22.7562 25.1357 22.7273C25.0133 22.6991 24.8971 22.7005 24.7767 22.7383C24.6887 22.7658 24.5931 22.7954 24.5043 22.7885C24.3111 22.7727 24.166 22.8614 24.0229 22.9666C23.9954 22.9866 23.9672 23.0058 23.9404 23.0264C23.7643 23.1647 23.5752 23.2892 23.417 23.4453C23.263 23.5973 23.1364 23.7795 23.0051 23.9535C22.9569 24.0175 22.9191 24.0938 22.8936 24.1702C22.8297 24.3662 22.7733 24.5643 22.719 24.763C22.699 24.8359 22.6839 24.9116 22.6818 24.9865C22.6756 25.199 22.7148 25.404 22.7616 25.6131C22.818 25.8655 22.9349 26.0821 23.0663 26.2898C23.1997 26.4996 23.3709 26.6846 23.5326 26.8751C23.5869 26.939 23.655 26.9968 23.7279 27.0367C23.9961 27.1853 24.2581 27.34 24.5656 27.4129C24.851 27.481 25.1323 27.5394 25.417 27.4638C25.613 27.4115 25.8248 27.4026 26.0002 27.2747C26.1653 27.155 26.3626 27.0732 26.5071 26.9342C26.8475 26.6055 27.1742 26.2616 27.3097 25.785C27.3736 25.5601 27.474 25.3435 27.4355 25.0986Z" fill="#00D1FF"/>
<path d="M26.9728 24.9321C26.9728 25.0965 26.9838 25.2622 26.9694 25.4252C26.9591 25.5414 26.9164 25.6549 26.8827 25.7684C26.8119 26.0105 26.6503 26.1969 26.5017 26.3929C26.272 26.6948 25.9618 26.875 25.6138 26.9885C25.4027 27.0572 25.1785 27.0813 24.9522 27.0455C24.8291 27.0263 24.7039 27.0249 24.5801 27.0105C24.4261 26.9926 24.2906 26.9245 24.1524 26.8571C23.759 26.668 23.5478 26.3207 23.3284 25.9685C23.0705 25.5552 23.085 25.126 23.1916 24.6811C23.2308 24.516 23.2748 24.3523 23.3195 24.1886C23.3291 24.1536 23.3436 24.1178 23.3649 24.0889C23.5671 23.8207 23.7858 23.5738 24.0691 23.3812C24.2376 23.2664 24.4158 23.2313 24.6042 23.1914C24.7885 23.1522 24.9735 23.1185 25.1592 23.1405C25.3889 23.1673 25.6255 23.1907 25.8408 23.2664C26.0093 23.3255 26.1516 23.4603 26.303 23.5649C26.3655 23.6082 26.4192 23.6646 26.4811 23.71C26.7245 23.886 26.8222 24.1508 26.9288 24.4149C26.9976 24.5862 26.9948 24.7574 26.9728 24.9321Z" fill="#00D1FF"/>
</g>
</g>
<defs>
<filter id="filter0_d_478_248" x="0" y="0" width="50" height="49.9611" filterUnits="userSpaceOnUse" color-interpolation-filters="sRGB">
<feFlood flood-opacity="0" result="BackgroundImageFix"/>
<feColorMatrix in="SourceAlpha" type="matrix" values="0 0 0 0 0 0 0 0 0 0 0 0 0 0 0 0 0 0 127 0" result="hardAlpha"/>
<feOffset/>
<feGaussianBlur stdDeviation="5"/>
<feComposite in2="hardAlpha" operator="out"/>
<feColorMatrix type="matrix" values="0 0 0 0 0 0 0 0 0 0.819608 0 0 0 0 1 0 0 0 0.4 0"/>
<feBlend mode="normal" in2="BackgroundImageFix" result="effect1_dropShadow_478_248"/>
<feBlend mode="normal" in="SourceGraphic" in2="effect1_dropShadow_478_248" result="shape"/>
</filter>
<clipPath id="clip0_478_248">
<rect width="50" height="55" fill="white"/>
</clipPath>
</defs>
</svg>
