<svg width="53" height="57" viewBox="0 0 54 59" fill="none" xmlns="http://www.w3.org/2000/svg">
<path d="M54 2L1 2L1 56L54 56L54 2Z" fill="#161215"/>
<g filter="url(#filter0_d_406_2289)">
<g opacity="0.5">
<path d="M14.2645 33.7664C14.2593 33.8726 14.2661 33.979 14.2846 34.0836H18.4549C18.551 33.7854 18.6467 33.4871 18.742 33.1888H14.315C14.2974 33.3816 14.2779 33.5743 14.2645 33.7664Z" fill="#FF9B26"/>
<path d="M10.4353 29.9796C10.4468 30.0238 10.4714 30.0632 10.5059 30.0924C10.6537 30.2114 10.8045 30.3279 10.9541 30.445H12.0318C12.1364 30.2523 12.2386 30.0583 12.342 29.865H10.408C10.4171 29.9028 10.4256 29.9412 10.4353 29.9796Z" fill="#FF9B26"/>
<path d="M13.8869 43.1846C13.8795 43.3291 13.8966 43.4737 13.9374 43.6122H16.5709C16.6317 43.43 16.6968 43.2491 16.7624 43.0688C16.8421 42.85 16.923 42.6313 17.0057 42.4125H13.904C13.9003 42.6703 13.9003 42.9275 13.8869 43.1846Z" fill="#FF9B26"/>
<path d="M21.5518 29.8644H15.1099C15.0345 30.0577 14.9566 30.251 14.8794 30.4444H21.7039C21.6834 30.3924 21.666 30.3392 21.6516 30.2851C21.6175 30.1451 21.5847 30.0044 21.5518 29.8644Z" fill="#FF9B26"/>
<path d="M14.3225 22.8876C14.3314 22.846 14.3475 22.8064 14.3699 22.7705L14.5761 22.496H10.8455L10.5742 23.1472H14.2458L14.3225 22.8876Z" fill="#FF9B26"/>
<path d="M25.0702 43.0849C25.0793 42.8915 25.0799 42.697 25.0811 42.503V42.4125H23.6908C23.8372 42.812 23.9821 43.2119 24.1256 43.6122H24.8634V43.0663L25.0702 43.0849Z" fill="#FF9B26"/>
<path d="M25.4492 33.6747C25.4608 33.513 25.4742 33.3512 25.4888 33.1901H21.9515L22.2386 34.0849H25.4553C25.4418 33.9486 25.4398 33.8114 25.4492 33.6747Z" fill="#FF9B26"/>
<path d="M12.6523 27.0927H10.2415C10.1642 27.3077 10.0778 27.519 10.0091 27.7372C10.0091 27.7446 10.003 27.7508 10 27.7582H12.9175C12.9307 27.6906 12.9302 27.6209 12.9161 27.5535C12.9019 27.4861 12.8745 27.4223 12.8354 27.366C12.7802 27.2711 12.7192 27.1799 12.6529 27.0927H12.6523Z" fill="#FF9B26"/>
<path d="M22.635 37.552C22.6162 37.6623 22.5967 37.7732 22.5779 37.8835C22.5458 38.0341 22.5609 38.1913 22.621 38.3327C22.6368 38.3699 22.6514 38.4096 22.6666 38.4461H25.1328L25.1444 37.5513L22.635 37.552Z" fill="#FF9B26"/>
<path d="M22.6848 20.6524C22.7049 20.6047 22.7256 20.5595 22.7517 20.5068L23.369 19.2055C23.4096 18.8164 23.4558 18.4277 23.5077 18.0393C23.5562 17.6525 23.7495 17.2998 24.0472 17.0547C24.3178 16.8366 24.5903 16.6209 24.8615 16.4034C24.777 16.3179 24.6998 16.2411 24.631 16.1611C24.6164 16.1444 24.631 16.0899 24.6475 16.057C24.8287 15.6381 25.0112 15.2199 25.1948 14.8022C25.2112 14.7638 25.2271 14.7254 25.2483 14.6739L23.1416 13.6701L22.4999 15.2316L22.1204 15.1647C22.1363 15.1195 22.1484 15.0811 22.163 15.0439C22.4302 14.3928 22.6972 13.7424 22.964 13.0926C22.9872 13.0356 22.9996 12.9746 23.0005 12.9129C23.0041 12.5667 23.0041 12.2205 23.0005 11.8743C22.9984 11.8135 22.9839 11.7538 22.9579 11.6989C22.9032 11.5794 22.832 11.4684 22.7803 11.347C22.6421 11.0402 22.4335 10.7718 22.1721 10.5643C21.7757 10.2107 21.268 10.0135 20.7411 10.0085C20.5963 10.0184 20.451 10.0184 20.3062 10.0085C19.8491 9.97786 19.3911 10.0511 18.9652 10.2229C18.9226 10.2389 18.883 10.262 18.8478 10.2911C18.7091 10.4069 18.579 10.534 18.4348 10.6418C18.2356 10.8088 18.0725 11.016 17.9556 11.2503C17.7615 11.5879 17.6655 11.9747 17.6788 12.3657C17.6706 12.7912 17.7567 13.2131 17.9306 13.6001C18.1526 14.076 18.3363 14.5705 18.5388 15.0569C18.5522 15.0891 18.5625 15.122 18.5784 15.1647L18.1988 15.236C17.9842 14.7148 17.7731 14.198 17.556 13.6719L15.448 14.6758C15.5137 14.8282 15.5763 14.9763 15.6402 15.1232C15.7746 15.433 15.9072 15.7429 16.0465 16.0465C16.0652 16.075 16.0721 16.1098 16.0657 16.1435C16.0593 16.1771 16.0402 16.2068 16.0124 16.2262C15.9394 16.2931 15.8768 16.3718 15.816 16.4387C15.788 16.427 15.7777 16.4257 15.7752 16.4208C15.6244 16.0998 15.3008 16.0942 15.029 15.9963C15.0129 15.9946 14.9967 15.9964 14.9813 16.0014C14.9659 16.0064 14.9517 16.0146 14.9396 16.0254C14.0881 16.7029 13.2387 17.3823 12.3913 18.0635C12.3513 18.1024 12.3259 18.1544 12.3195 18.2104C12.2692 18.5991 12.2232 18.9884 12.1814 19.3784C12.181 19.4302 12.199 19.4803 12.2319 19.5197C12.311 19.6182 12.4497 19.6975 12.4709 19.8041C12.4922 19.9107 12.3937 20.0315 12.3493 20.1456C12.1956 20.5227 12.0416 20.8997 11.8871 21.2764H15.5009L15.5618 21.1971C15.5678 21.225 15.5727 21.2486 15.5782 21.2764H22.4245L22.4647 21.1798L22.6848 20.6524ZM21.9252 13.7023C21.9218 13.7209 21.914 13.7385 21.9026 13.7535C21.8911 13.7684 21.8764 13.7804 21.8595 13.7884C21.5554 13.8987 21.2513 14.0078 20.9424 14.107C20.7599 14.1652 20.7599 14.1584 20.7599 14.3548V16.6036H19.8914V14.133C19.506 14.0513 19.1283 13.9356 18.7626 13.7872C18.7475 13.7804 18.7341 13.7701 18.7235 13.7571C18.713 13.744 18.7055 13.7287 18.7018 13.7122C18.6976 13.4328 18.7018 13.1545 18.7018 12.8602C18.9877 12.9662 19.2711 13.0461 19.532 13.1756C19.8906 13.3194 20.2791 13.3686 20.6614 13.3187C20.7883 13.2958 20.9113 13.254 21.0263 13.1948C21.317 13.0864 21.6126 12.9754 21.9252 12.8577C21.9252 13.1508 21.9252 13.4266 21.9252 13.7023Z" fill="#FF9B26"/>
<path d="M15.8094 22.496C15.85 22.7141 15.8946 22.9312 15.9432 23.1472H21.645C21.735 22.9304 21.8254 22.7133 21.9163 22.496H15.8094Z" fill="#FF9B26"/>
<path d="M21.2753 27.2594C21.2941 27.203 21.3154 27.1479 21.3361 27.0927H16.5314C16.5229 27.1287 16.5138 27.1646 16.5028 27.2005C16.4457 27.3864 16.3915 27.5723 16.3362 27.7582H21.1293V27.5618C21.1293 27.5618 21.2704 27.2712 21.2753 27.2594Z" fill="#FF9B26"/>
<path d="M18.0626 37.5519H13.9653C13.9612 37.8501 13.9574 38.1484 13.9537 38.4467H18.0371C18.1345 38.1776 18.147 37.8843 18.073 37.6076C18.0687 37.5891 18.0663 37.5729 18.0626 37.5519Z" fill="#FF9B26"/>
<path d="M21.3549 24.6307H16.4486C16.515 24.8468 16.5558 25.0702 16.5702 25.2962H21.3056C21.3165 25.1425 21.3271 24.9886 21.3372 24.8345C21.3445 24.767 21.3494 24.6988 21.3549 24.6307Z" fill="#FF9B26"/>
<path d="M10.132 25.2962H13.1473L13.5056 24.6307H10.1776C10.163 24.8525 10.1472 25.0744 10.132 25.2962Z" fill="#FF9B26"/>
</g>
<path d="M40.1124 48.5769H38.4636C38.286 48.4802 38.1115 48.3792 37.9303 48.29C37.8271 48.241 37.7419 48.1598 37.687 48.0583C37.3975 47.547 37.1007 47.0401 36.8075 46.5314C36.7067 46.4056 36.6299 46.2616 36.5813 46.1069C36.5919 45.9415 36.6315 45.7793 36.6981 45.6279C36.7115 45.5796 36.7212 45.53 36.7388 45.4829C36.85 45.2262 36.8698 44.9381 36.7948 44.6681C36.7839 44.6228 36.7756 44.5768 36.7698 44.5305C36.7395 44.2729 36.6895 44.018 36.6202 43.7683C36.2097 42.6127 35.7803 41.4644 35.3576 40.3137C35.2475 40.0132 35.1381 39.7126 35.0268 39.4084L35.3917 39.1735C35.2792 38.8873 35.177 38.6072 35.059 38.3345C34.999 38.1926 34.9843 38.0349 35.017 37.884C35.1645 37.217 35.2303 36.5338 35.2129 35.8503C35.2111 35.7887 35.2021 35.7275 35.1861 35.6681C34.6756 34.0727 34.164 32.4777 33.6511 30.8831C33.6389 30.8459 33.6219 30.81 33.603 30.7622C33.513 30.8478 33.4315 30.9184 33.3597 30.9971C33.3347 31.0257 33.3034 31.0479 33.2685 31.0621C33.2336 31.0763 33.1959 31.082 33.1584 31.0789C32.9111 31.0723 32.6636 31.0723 32.4158 31.0789C32.3784 31.082 32.3407 31.0763 32.3057 31.0621C32.2708 31.0479 32.2396 31.0257 32.2145 30.9971C32.1391 30.9165 32.0564 30.8447 31.9712 30.7622C31.9566 30.7982 31.9463 30.818 31.939 30.8391C31.4188 32.456 30.8998 34.0731 30.3821 35.6904C30.3701 35.7307 30.3631 35.7723 30.3614 35.8143C30.3323 36.4162 30.3838 37.0193 30.5146 37.607C30.605 37.9289 30.5715 38.2737 30.421 38.5712C30.3417 38.7389 30.2729 38.9115 30.2148 39.088C30.2045 39.1159 30.1966 39.1444 30.1868 39.1748L30.5438 39.4078C30.5317 39.4443 30.5244 39.4697 30.5152 39.4958L29.2046 43.0687C29.0963 43.3662 28.9838 43.6636 28.9005 43.9691C28.8318 44.2256 28.8117 44.4958 28.76 44.7586C28.7162 44.9468 28.7257 45.1438 28.7874 45.3268C28.8646 45.5449 28.9151 45.7729 28.9826 45.9948C28.9943 46.0286 28.9981 46.0647 28.9938 46.1003C28.9894 46.1359 28.9771 46.17 28.9577 46.1999C28.5855 46.8369 28.2181 47.477 27.8453 48.114C27.8088 48.1715 27.7589 48.2187 27.6999 48.2516C27.5053 48.3644 27.3058 48.4685 27.1082 48.5757H25.4563C25.3444 48.2584 25.235 47.9399 25.1188 47.6245C25.1063 47.5928 25.1014 47.5585 25.1045 47.5244C25.1076 47.4904 25.1185 47.4576 25.1364 47.4287C25.4405 46.8505 25.7385 46.2693 26.0426 45.6936C26.098 45.5924 26.1257 45.4779 26.1229 45.3621C26.1174 45.0678 26.1229 44.7722 26.1229 44.4692L26.3692 44.4915C26.4075 44.3415 26.4526 44.1934 26.4799 44.0422C26.4948 43.9726 26.488 43.9001 26.4605 43.8346C26.3576 43.6352 26.3109 43.4107 26.3254 43.1858C26.3413 42.8717 26.3376 42.5563 26.3419 42.2415C26.367 40.3209 26.3921 38.4 26.4173 36.4786C26.4173 36.4383 26.4209 36.3981 26.4234 36.3504L26.8965 36.4842C26.9428 36.3373 26.9859 36.2023 27.0267 36.0647C27.0316 36.0422 27.0316 36.019 27.0267 35.9965C26.9415 35.4525 26.8534 34.909 26.7706 34.3643C26.7265 34.1678 26.7038 33.9668 26.7031 33.7651C26.7494 33.1145 26.8248 32.4638 26.8795 31.8163C26.9019 31.5618 26.9635 31.3126 27.062 31.0776C27.2955 30.5051 27.5199 29.9282 27.748 29.3525C27.8046 29.2106 27.8617 29.0687 27.9304 28.9057L28.271 29.4554C28.2868 29.4108 28.296 29.3866 28.3033 29.3612C28.5161 28.6411 28.7241 27.9198 28.9437 27.2017C29.0087 26.9948 29.0375 26.7779 29.0288 26.5609C29.0167 26.2623 28.9984 25.9617 29.0155 25.6637C29.0421 25.1983 28.9576 24.7333 28.7691 24.3085C28.6267 23.995 28.5116 23.6695 28.4249 23.3356C28.2917 22.7779 28.2005 22.2109 28.0904 21.6482C28.0624 21.5039 28.0296 21.3607 27.9961 21.1947C27.5893 21.735 27.1982 22.2518 26.8102 22.7705C26.7879 22.8064 26.7719 22.8461 26.7627 22.8876C26.6139 23.3808 26.4663 23.8741 26.32 24.3673C26.3072 24.4095 26.2908 24.4504 26.2744 24.4956L26.073 24.3865L24.7715 26.8063C24.8281 26.8534 24.8725 26.8974 24.9224 26.9302C25.0685 27.0467 25.1874 27.1949 25.2702 27.364C25.3365 27.452 25.3713 27.5604 25.3688 27.6713C25.3664 27.7822 25.3269 27.8889 25.2569 27.9738C25.1771 28.1017 25.1059 28.235 25.044 28.3728L24.5891 27.9335C24.5641 28.2904 24.5568 28.6219 24.5112 28.9472C24.4908 29.0528 24.499 29.1619 24.5347 29.2631C24.5705 29.3643 24.6326 29.4537 24.7144 29.5217C24.7508 29.5551 24.7752 29.6029 24.8117 29.6363C24.8621 29.6822 24.8542 29.7218 24.8238 29.7776C24.687 30.0286 24.5581 30.2845 24.4194 30.5342C24.4057 30.5557 24.3878 30.5743 24.3669 30.5886C24.346 30.603 24.3225 30.6129 24.2977 30.6179C24.1153 30.6433 23.9328 30.6619 23.7504 30.6761C23.7097 30.6771 23.6699 30.6642 23.6373 30.6395C23.4025 30.4594 23.17 30.2766 22.9397 30.0911C22.9053 30.0618 22.8807 30.0225 22.8691 29.9784C22.7663 29.5533 22.6696 29.1263 22.565 28.7006C22.5042 28.4577 22.4434 28.216 22.3826 27.9738V27.8573C22.4045 27.8174 22.4236 27.776 22.4397 27.7333C22.6017 27.3321 22.7346 26.9193 22.8375 26.4983C22.8732 26.3954 22.8785 26.284 22.8526 26.1781C22.8268 26.0721 22.771 25.9762 22.6921 25.9022C22.6672 25.8805 22.6514 25.8452 22.6264 25.8217C22.5934 25.7874 22.5689 25.7455 22.5549 25.6996C22.5409 25.6537 22.5379 25.605 22.5462 25.5577C22.5802 25.1004 22.607 24.6425 22.641 24.1858C22.6466 24.074 22.6694 23.9638 22.7086 23.8592C23.0808 22.9545 23.4597 22.0523 23.8374 21.1494C23.8532 21.1122 23.872 21.0763 23.8982 21.0255L24.1919 21.5683C24.2156 21.5138 24.2296 21.4828 24.2424 21.4512L24.7776 20.1406C24.8244 20.026 24.9217 19.9002 24.8992 19.7992C24.8767 19.6982 24.7387 19.6133 24.6602 19.5147C24.628 19.4751 24.6108 19.425 24.6116 19.3735C24.6521 18.9839 24.6981 18.5946 24.7496 18.2054C24.756 18.1494 24.7814 18.0975 24.8214 18.0585C25.6684 17.3765 26.5176 16.6971 27.3691 16.0205C27.3812 16.0096 27.3954 16.0014 27.4108 15.9964C27.4262 15.9914 27.4424 15.9897 27.4585 15.9914C27.731 16.0893 28.0545 16.0942 28.2047 16.4158C28.2047 16.4208 28.2175 16.422 28.2455 16.4338C28.3063 16.3669 28.3671 16.2882 28.4419 16.2212C28.4697 16.2019 28.4888 16.1722 28.4952 16.1385C28.5016 16.1049 28.4947 16.07 28.476 16.0415C28.3367 15.7354 28.2041 15.4262 28.0697 15.1182C28.0053 14.9714 27.9438 14.8233 27.8775 14.6709L29.9855 13.667L30.6278 15.231L31.0073 15.1598C30.9915 15.117 30.9811 15.0829 30.9677 15.0519C30.7676 14.5649 30.584 14.071 30.3595 13.5951C30.1861 13.2081 30.1007 12.7861 30.1096 12.3607C30.0959 11.9699 30.1914 11.5831 30.3851 11.2454C30.5021 11.0111 30.6652 10.8039 30.8643 10.6368C31.0085 10.5284 31.1386 10.4014 31.2773 10.2861C31.3125 10.257 31.3522 10.234 31.3947 10.218C31.8234 10.0465 32.2842 9.9747 32.7436 10.0079C32.8884 10.0178 33.0337 10.0178 33.1785 10.0079C33.7059 10.012 34.2143 10.2088 34.6114 10.5625C34.8728 10.7701 35.0814 11.0388 35.2196 11.3457C35.2701 11.4697 35.3412 11.5781 35.3972 11.6977C35.423 11.7526 35.4375 11.8123 35.4397 11.8731C35.4438 12.2193 35.4438 12.5654 35.4397 12.9116C35.4387 12.9733 35.4263 13.0343 35.4032 13.0913C35.1373 13.7436 34.8699 14.3947 34.601 15.0445C34.5858 15.0817 34.5743 15.1201 34.5585 15.1653L34.938 15.2323L35.5796 13.6707L37.6882 14.6752C37.6675 14.7266 37.6517 14.7644 37.6347 14.8035C37.4522 15.2215 37.2698 15.6402 37.0873 16.0595C37.0733 16.0917 37.0557 16.1463 37.0703 16.1624C37.1542 16.2603 37.2467 16.3483 37.3561 16.4604C37.4583 16.1729 37.687 16.1091 37.9199 16.0521C37.9645 16.0415 38.008 16.027 38.0501 16.0087C38.0789 15.9952 38.1112 15.9912 38.1424 15.9973C38.1736 16.0034 38.2022 16.0193 38.224 16.0428C39.0542 16.7095 39.8868 17.372 40.7176 18.04C40.7701 18.0863 40.8052 18.1498 40.8167 18.2197C40.8629 18.5425 40.886 18.8684 40.9384 19.1894C40.9639 19.2737 40.962 19.3642 40.9331 19.4473C40.9042 19.5305 40.8497 19.602 40.7778 19.6511C40.7529 19.6684 40.7358 19.6969 40.7121 19.713C40.6996 19.7212 40.6888 19.7318 40.6803 19.7443C40.6719 19.7567 40.6659 19.7708 40.6628 19.7856C40.6597 19.8004 40.6595 19.8157 40.6622 19.8305C40.6649 19.8454 40.6705 19.8596 40.6787 19.8723C40.9 20.4046 41.1147 20.9387 41.3331 21.4723C41.344 21.4977 41.3604 21.5237 41.3805 21.5609L41.6706 21.0224C41.6901 21.0614 41.6992 21.0782 41.7065 21.0955C42.0998 22.0378 42.4927 22.9803 42.8852 23.923C42.8993 23.9586 42.9077 23.9963 42.9101 24.0346C42.9405 24.4683 42.9478 24.9064 43.0062 25.3359C43.0299 25.4623 43.021 25.5928 42.9804 25.7147C42.9398 25.8365 42.8688 25.9456 42.7745 26.0311C42.7384 26.0623 42.7121 26.1036 42.6987 26.1498C42.6853 26.196 42.6854 26.2452 42.6991 26.2914C42.7264 26.4116 42.724 26.5392 42.7599 26.6582C42.8432 26.9358 42.9423 27.2091 43.0342 27.483C43.078 27.6069 43.1321 27.7309 43.182 27.8548V27.9713C43.1718 27.9911 43.1634 28.0119 43.157 28.0332C43.0062 28.6744 42.8539 29.3147 42.7003 29.9542C42.6875 30.0093 42.6584 30.0591 42.617 30.0967C42.3907 30.2826 42.1602 30.4605 41.9285 30.6383C41.8958 30.663 41.856 30.6759 41.8154 30.6749C41.6293 30.66 41.4431 30.6408 41.2583 30.6129C41.2372 30.6088 41.2172 30.6003 41.1994 30.5881C41.1816 30.5758 41.1665 30.56 41.1549 30.5416C41.0132 30.2851 40.88 30.0224 40.7401 29.764C40.7262 29.7439 40.7203 29.7193 40.7236 29.695C40.7269 29.6708 40.7391 29.6487 40.7577 29.6332C40.8496 29.5291 40.9402 29.4219 41.0229 29.3122C41.0511 29.2772 41.0672 29.2336 41.0685 29.1883C41.0588 28.9714 41.0417 28.7545 41.0259 28.537C41.0119 28.3425 40.9955 28.1479 40.9785 27.9316L40.5254 28.3691C40.4038 28.1386 40.2894 27.9198 40.1775 27.7005C40.1726 27.6887 40.17 27.6761 40.17 27.6633C40.17 27.6505 40.1726 27.6379 40.1775 27.6261C40.2722 27.3255 40.4576 27.0629 40.7072 26.8757C40.7385 26.8529 40.7676 26.8272 40.7942 26.7989L39.4939 24.3822L39.2896 24.4894C39.2792 24.4603 39.2701 24.438 39.2646 24.4181C39.1138 23.9051 38.9605 23.3926 38.8079 22.8826C38.79 22.8238 38.7625 22.7684 38.7264 22.719C38.5105 22.4278 38.2909 22.1384 38.072 21.8515L37.5787 21.199C37.5682 21.2255 37.5591 21.2526 37.5514 21.2802C37.4723 21.6836 37.3987 22.0857 37.3148 22.4897C37.2394 22.8529 37.1749 23.2209 37.0654 23.5748C36.9286 24.0178 36.7516 24.4485 36.5935 24.8847C36.5756 24.9313 36.5653 24.9805 36.5631 25.0304C36.5537 25.6252 36.5464 26.2201 36.5412 26.815C36.5409 26.8689 36.5484 26.9226 36.5637 26.9742C36.7927 27.7591 37.023 28.5426 37.2546 29.3246C37.2655 29.3624 37.2825 29.3977 37.3014 29.4486L37.6353 28.9101C37.6578 28.9615 37.6736 28.995 37.6876 29.0297C37.9917 29.7918 38.2958 30.5528 38.5938 31.3168C38.6327 31.4258 38.6571 31.5396 38.6662 31.6552C38.7203 32.1763 38.769 32.6987 38.817 33.2192C38.8561 33.4487 38.8712 33.6817 38.862 33.9145C38.7866 34.5224 38.6887 35.1278 38.5762 35.7295C38.5324 35.9849 38.5681 36.248 38.6783 36.4817L39.1448 36.3497C39.1448 36.3838 39.1497 36.4067 39.1503 36.4303C39.1803 38.685 39.2113 40.9396 39.2433 43.1939C39.2552 43.4108 39.2092 43.6268 39.1101 43.8191C39.0835 43.8565 39.0686 43.9012 39.0676 43.9474C39.1053 44.1284 39.1539 44.3062 39.1989 44.4859L39.4252 44.4654C39.4325 44.7833 39.4361 45.0938 39.4501 45.4036C39.4533 45.4877 39.4741 45.57 39.5109 45.6453C39.815 46.2445 40.1289 46.84 40.436 47.4386C40.4605 47.4837 40.4678 47.5364 40.4567 47.5867C40.3442 47.9182 40.2274 48.2485 40.1124 48.5769ZM34.3645 12.8571C34.0519 12.9742 33.7563 13.0858 33.4607 13.1948C33.3457 13.2542 33.2228 13.296 33.0958 13.3187C32.7139 13.3685 32.3258 13.3193 31.9676 13.1756C31.7061 13.0473 31.4202 12.9668 31.1374 12.8602C31.1374 13.1533 31.1374 13.4328 31.1374 13.7122C31.1408 13.729 31.1481 13.7448 31.1587 13.7582C31.1693 13.7715 31.1828 13.7821 31.1982 13.7891C31.5644 13.9375 31.9425 14.0532 32.3283 14.1348V16.6054H33.1961V14.3542C33.1961 14.1565 33.1961 14.164 33.3786 14.1063C33.6863 14.0066 33.9916 13.8975 34.2957 13.7878C34.3124 13.7795 34.327 13.7675 34.3384 13.7525C34.3498 13.7376 34.3576 13.7202 34.3614 13.7017C34.3669 13.4266 34.3645 13.1508 34.3645 12.8571Z" fill="#FF9B26"/>
</g>
<rect x="1" y="55" width="53" height="4" fill="#FF8900"/>
<defs>
<filter id="filter0_d_406_2289" x="0" y="0" width="53.182" height="58.5769" filterUnits="userSpaceOnUse" color-interpolation-filters="sRGB">
<feFlood flood-opacity="0" result="BackgroundImageFix"/>
<feColorMatrix in="SourceAlpha" type="matrix" values="0 0 0 0 0 0 0 0 0 0 0 0 0 0 0 0 0 0 127 0" result="hardAlpha"/>
<feOffset/>
<feGaussianBlur stdDeviation="5"/>
<feComposite in2="hardAlpha" operator="out"/>
<feColorMatrix type="matrix" values="0 0 0 0 1 0 0 0 0 0.537255 0 0 0 0 0 0 0 0 0.4 0"/>
<feBlend mode="normal" in2="BackgroundImageFix" result="effect1_dropShadow_406_2289"/>
<feBlend mode="normal" in="SourceGraphic" in2="effect1_dropShadow_406_2289" result="shape"/>
</filter>
</defs>
</svg>
