<svg width="69" height="67" viewBox="0 0 69 67" fill="none" xmlns="http://www.w3.org/2000/svg">
<path d="M61 2L8 2L8 56L61 56L61 2Z" fill="#161215"/>
<g filter="url(#filter0_d_406_2289)">
<g opacity="0.5">
<path d="M21.2645 33.7664C21.2593 33.8726 21.2661 33.979 21.2846 34.0836H25.4549C25.551 33.7854 25.6467 33.4871 25.742 33.1888H21.315C21.2974 33.3816 21.2779 33.5743 21.2645 33.7664Z" fill="#FF9B26"/>
<path d="M17.4353 29.9796C17.4468 30.0238 17.4714 30.0632 17.5059 30.0924C17.6537 30.2114 17.8045 30.3279 17.9541 30.445H19.0318C19.1364 30.2523 19.2386 30.0583 19.342 29.865H17.408C17.4171 29.9028 17.4256 29.9412 17.4353 29.9796Z" fill="#FF9B26"/>
<path d="M20.8869 43.1846C20.8795 43.3291 20.8966 43.4737 20.9374 43.6122H23.5709C23.6317 43.43 23.6968 43.2491 23.7624 43.0688C23.8421 42.85 23.923 42.6313 24.0057 42.4125H20.904C20.9003 42.6703 20.9003 42.9275 20.8869 43.1846Z" fill="#FF9B26"/>
<path d="M28.5518 29.8644H22.1099C22.0345 30.0577 21.9566 30.251 21.8794 30.4444H28.7039C28.6834 30.3924 28.666 30.3392 28.6516 30.2851C28.6175 30.1451 28.5847 30.0044 28.5518 29.8644Z" fill="#FF9B26"/>
<path d="M21.3225 22.8876C21.3314 22.846 21.3475 22.8064 21.3699 22.7705L21.5761 22.496H17.8455L17.5742 23.1472H21.2458L21.3225 22.8876Z" fill="#FF9B26"/>
<path d="M32.0702 43.0849C32.0793 42.8915 32.0799 42.697 32.0811 42.503V42.4125H30.6908C30.8372 42.812 30.9821 43.2119 31.1256 43.6122H31.8634V43.0663L32.0702 43.0849Z" fill="#FF9B26"/>
<path d="M32.4492 33.6747C32.4608 33.513 32.4742 33.3512 32.4888 33.1901H28.9515L29.2386 34.0849H32.4553C32.4418 33.9486 32.4398 33.8114 32.4492 33.6747Z" fill="#FF9B26"/>
<path d="M19.6523 27.0927H17.2415C17.1642 27.3077 17.0778 27.519 17.0091 27.7372C17.0091 27.7446 17.003 27.7508 17 27.7582H19.9175C19.9307 27.6906 19.9302 27.6209 19.9161 27.5535C19.9019 27.4861 19.8745 27.4223 19.8354 27.366C19.7802 27.2711 19.7192 27.1799 19.6529 27.0927H19.6523Z" fill="#FF9B26"/>
<path d="M29.635 37.552C29.6162 37.6623 29.5967 37.7732 29.5779 37.8835C29.5458 38.0341 29.5609 38.1913 29.621 38.3327C29.6368 38.3699 29.6514 38.4096 29.6666 38.4461H32.1328L32.1444 37.5513L29.635 37.552Z" fill="#FF9B26"/>
<path d="M29.6848 20.6524C29.7049 20.6047 29.7256 20.5595 29.7517 20.5068L30.369 19.2055C30.4096 18.8164 30.4558 18.4277 30.5077 18.0393C30.5562 17.6525 30.7495 17.2998 31.0472 17.0547C31.3178 16.8366 31.5903 16.6209 31.8615 16.4034C31.777 16.3179 31.6998 16.2411 31.631 16.1611C31.6164 16.1444 31.631 16.0899 31.6475 16.057C31.8287 15.6381 32.0112 15.2199 32.1948 14.8022C32.2112 14.7638 32.2271 14.7254 32.2483 14.6739L30.1416 13.6701L29.4999 15.2316L29.1204 15.1647C29.1363 15.1195 29.1484 15.0811 29.163 15.0439C29.4302 14.3928 29.6972 13.7424 29.964 13.0926C29.9872 13.0356 29.9996 12.9746 30.0005 12.9129C30.0041 12.5667 30.0041 12.2205 30.0005 11.8743C29.9984 11.8135 29.9839 11.7538 29.9579 11.6989C29.9032 11.5794 29.832 11.4684 29.7803 11.347C29.6421 11.0402 29.4335 10.7718 29.1721 10.5643C28.7757 10.2107 28.268 10.0135 27.7411 10.0085C27.5963 10.0184 27.451 10.0184 27.3062 10.0085C26.8491 9.97786 26.3911 10.0511 25.9652 10.2229C25.9226 10.2389 25.883 10.262 25.8478 10.2911C25.7091 10.4069 25.579 10.534 25.4348 10.6418C25.2356 10.8088 25.0725 11.016 24.9556 11.2503C24.7615 11.5879 24.6655 11.9747 24.6788 12.3657C24.6706 12.7912 24.7567 13.2131 24.9306 13.6001C25.1526 14.076 25.3363 14.5705 25.5388 15.0569C25.5522 15.0891 25.5625 15.122 25.5784 15.1647L25.1988 15.236C24.9842 14.7148 24.7731 14.198 24.556 13.6719L22.448 14.6758C22.5137 14.8282 22.5763 14.9763 22.6402 15.1232C22.7746 15.433 22.9072 15.7429 23.0465 16.0465C23.0652 16.075 23.0721 16.1098 23.0657 16.1435C23.0593 16.1771 23.0402 16.2068 23.0124 16.2262C22.9394 16.2931 22.8768 16.3718 22.816 16.4387C22.788 16.427 22.7777 16.4257 22.7752 16.4208C22.6244 16.0998 22.3008 16.0942 22.029 15.9963C22.0129 15.9946 21.9967 15.9964 21.9813 16.0014C21.9659 16.0064 21.9517 16.0146 21.9396 16.0254C21.0881 16.7029 20.2387 17.3823 19.3913 18.0635C19.3513 18.1024 19.3259 18.1544 19.3195 18.2104C19.2692 18.5991 19.2232 18.9884 19.1814 19.3784C19.181 19.4302 19.199 19.4803 19.2319 19.5197C19.311 19.6182 19.4497 19.6975 19.4709 19.8041C19.4922 19.9107 19.3937 20.0315 19.3493 20.1456C19.1956 20.5227 19.0416 20.8997 18.8871 21.2764H22.5009L22.5618 21.1971C22.5678 21.225 22.5727 21.2486 22.5782 21.2764H29.4245L29.4647 21.1798L29.6848 20.6524ZM28.9252 13.7023C28.9218 13.7209 28.914 13.7385 28.9026 13.7535C28.8911 13.7684 28.8764 13.7804 28.8595 13.7884C28.5554 13.8987 28.2513 14.0078 27.9424 14.107C27.7599 14.1652 27.7599 14.1584 27.7599 14.3548V16.6036H26.8914V14.133C26.506 14.0513 26.1283 13.9356 25.7626 13.7872C25.7475 13.7804 25.7341 13.7701 25.7235 13.7571C25.713 13.744 25.7055 13.7287 25.7018 13.7122C25.6976 13.4328 25.7018 13.1545 25.7018 12.8602C25.9877 12.9662 26.2711 13.0461 26.532 13.1756C26.8906 13.3194 27.2791 13.3686 27.6614 13.3187C27.7883 13.2958 27.9113 13.254 28.0263 13.1948C28.317 13.0864 28.6126 12.9754 28.9252 12.8577C28.9252 13.1508 28.9252 13.4266 28.9252 13.7023Z" fill="#FF9B26"/>
<path d="M22.8094 22.496C22.85 22.7141 22.8946 22.9312 22.9432 23.1472H28.645C28.735 22.9304 28.8254 22.7133 28.9163 22.496H22.8094Z" fill="#FF9B26"/>
<path d="M28.2753 27.2594C28.2941 27.203 28.3154 27.1479 28.3361 27.0927H23.5314C23.5229 27.1287 23.5138 27.1646 23.5028 27.2005C23.4457 27.3864 23.3915 27.5723 23.3362 27.7582H28.1293V27.5618C28.1293 27.5618 28.2704 27.2712 28.2753 27.2594Z" fill="#FF9B26"/>
<path d="M25.0626 37.5519H20.9653C20.9612 37.8501 20.9574 38.1484 20.9537 38.4467H25.0371C25.1345 38.1776 25.147 37.8843 25.073 37.6076C25.0687 37.5891 25.0663 37.5729 25.0626 37.5519Z" fill="#FF9B26"/>
<path d="M28.3549 24.6307H23.4486C23.515 24.8468 23.5558 25.0702 23.5702 25.2962H28.3056C28.3165 25.1425 28.3271 24.9886 28.3372 24.8345C28.3445 24.767 28.3494 24.6988 28.3549 24.6307Z" fill="#FF9B26"/>
<path d="M17.132 25.2962H20.1473L20.5056 24.6307H17.1776C17.163 24.8525 17.1472 25.0744 17.132 25.2962Z" fill="#FF9B26"/>
</g>
<path d="M47.1124 48.5769H45.4636C45.286 48.4802 45.1115 48.3792 44.9303 48.29C44.8271 48.241 44.7419 48.1598 44.687 48.0583C44.3975 47.547 44.1007 47.0401 43.8075 46.5314C43.7067 46.4056 43.6299 46.2616 43.5813 46.1069C43.5919 45.9415 43.6315 45.7793 43.6981 45.6279C43.7115 45.5796 43.7212 45.53 43.7388 45.4829C43.85 45.2262 43.8698 44.9381 43.7948 44.6681C43.7839 44.6228 43.7756 44.5768 43.7698 44.5305C43.7395 44.2729 43.6895 44.018 43.6202 43.7683C43.2097 42.6127 42.7803 41.4644 42.3576 40.3137C42.2475 40.0132 42.1381 39.7126 42.0268 39.4084L42.3917 39.1735C42.2792 38.8873 42.177 38.6072 42.059 38.3345C41.999 38.1926 41.9843 38.0349 42.017 37.884C42.1645 37.217 42.2303 36.5338 42.2129 35.8503C42.2111 35.7887 42.2021 35.7275 42.1861 35.6681C41.6756 34.0727 41.164 32.4777 40.6511 30.8831C40.6389 30.8459 40.6219 30.81 40.603 30.7622C40.513 30.8478 40.4315 30.9184 40.3597 30.9971C40.3347 31.0257 40.3034 31.0479 40.2685 31.0621C40.2336 31.0763 40.1959 31.082 40.1584 31.0789C39.9111 31.0723 39.6636 31.0723 39.4158 31.0789C39.3784 31.082 39.3407 31.0763 39.3057 31.0621C39.2708 31.0479 39.2396 31.0257 39.2145 30.9971C39.1391 30.9165 39.0564 30.8447 38.9712 30.7622C38.9566 30.7982 38.9463 30.818 38.939 30.8391C38.4188 32.456 37.8998 34.0731 37.3821 35.6904C37.3701 35.7307 37.3631 35.7723 37.3614 35.8143C37.3323 36.4162 37.3838 37.0193 37.5146 37.607C37.605 37.9289 37.5715 38.2737 37.421 38.5712C37.3417 38.7389 37.2729 38.9115 37.2148 39.088C37.2045 39.1159 37.1966 39.1444 37.1868 39.1748L37.5438 39.4078C37.5317 39.4443 37.5244 39.4697 37.5152 39.4958L36.2046 43.0687C36.0963 43.3662 35.9838 43.6636 35.9005 43.9691C35.8318 44.2256 35.8117 44.4958 35.76 44.7586C35.7162 44.9468 35.7257 45.1438 35.7874 45.3268C35.8646 45.5449 35.9151 45.7729 35.9826 45.9948C35.9943 46.0286 35.9981 46.0647 35.9938 46.1003C35.9894 46.1359 35.9771 46.17 35.9577 46.1999C35.5855 46.8369 35.2181 47.477 34.8453 48.114C34.8088 48.1715 34.7589 48.2187 34.6999 48.2516C34.5053 48.3644 34.3058 48.4685 34.1082 48.5757H32.4563C32.3444 48.2584 32.235 47.9399 32.1188 47.6245C32.1063 47.5928 32.1014 47.5585 32.1045 47.5244C32.1076 47.4904 32.1185 47.4576 32.1364 47.4287C32.4405 46.8505 32.7385 46.2693 33.0426 45.6936C33.098 45.5924 33.1257 45.4779 33.1229 45.3621C33.1174 45.0678 33.1229 44.7722 33.1229 44.4692L33.3692 44.4915C33.4075 44.3415 33.4526 44.1934 33.4799 44.0422C33.4948 43.9726 33.488 43.9001 33.4605 43.8346C33.3576 43.6352 33.3109 43.4107 33.3254 43.1858C33.3413 42.8717 33.3376 42.5563 33.3419 42.2415C33.367 40.3209 33.3921 38.4 33.4173 36.4786C33.4173 36.4383 33.4209 36.3981 33.4234 36.3504L33.8965 36.4842C33.9428 36.3373 33.9859 36.2023 34.0267 36.0647C34.0316 36.0422 34.0316 36.019 34.0267 35.9965C33.9415 35.4525 33.8534 34.909 33.7706 34.3643C33.7265 34.1678 33.7038 33.9668 33.7031 33.7651C33.7494 33.1145 33.8248 32.4638 33.8795 31.8163C33.9019 31.5618 33.9635 31.3126 34.062 31.0776C34.2955 30.5051 34.5199 29.9282 34.748 29.3525C34.8046 29.2106 34.8617 29.0687 34.9304 28.9057L35.271 29.4554C35.2868 29.4108 35.296 29.3866 35.3033 29.3612C35.5161 28.6411 35.7241 27.9198 35.9437 27.2017C36.0087 26.9948 36.0375 26.7779 36.0288 26.5609C36.0167 26.2623 35.9984 25.9617 36.0155 25.6637C36.0421 25.1983 35.9576 24.7333 35.7691 24.3085C35.6267 23.995 35.5116 23.6695 35.4249 23.3356C35.2917 22.7779 35.2005 22.2109 35.0904 21.6482C35.0624 21.5039 35.0296 21.3607 34.9961 21.1947C34.5893 21.735 34.1982 22.2518 33.8102 22.7705C33.7879 22.8064 33.7719 22.8461 33.7627 22.8876C33.6139 23.3808 33.4663 23.8741 33.32 24.3673C33.3072 24.4095 33.2908 24.4504 33.2744 24.4956L33.073 24.3865L31.7715 26.8063C31.8281 26.8534 31.8725 26.8974 31.9224 26.9302C32.0685 27.0467 32.1874 27.1949 32.2702 27.364C32.3365 27.452 32.3713 27.5604 32.3688 27.6713C32.3664 27.7822 32.3269 27.8889 32.2569 27.9738C32.1771 28.1017 32.1059 28.235 32.044 28.3728L31.5891 27.9335C31.5641 28.2904 31.5568 28.6219 31.5112 28.9472C31.4908 29.0528 31.499 29.1619 31.5347 29.2631C31.5705 29.3643 31.6326 29.4537 31.7144 29.5217C31.7508 29.5551 31.7752 29.6029 31.8117 29.6363C31.8621 29.6822 31.8542 29.7218 31.8238 29.7776C31.687 30.0286 31.5581 30.2845 31.4194 30.5342C31.4057 30.5557 31.3878 30.5743 31.3669 30.5886C31.346 30.603 31.3225 30.6129 31.2977 30.6179C31.1153 30.6433 30.9328 30.6619 30.7504 30.6761C30.7097 30.6771 30.6699 30.6642 30.6373 30.6395C30.4025 30.4594 30.17 30.2766 29.9397 30.0911C29.9053 30.0618 29.8807 30.0225 29.8691 29.9784C29.7663 29.5533 29.6696 29.1263 29.565 28.7006C29.5042 28.4577 29.4434 28.216 29.3826 27.9738V27.8573C29.4045 27.8174 29.4236 27.776 29.4397 27.7333C29.6017 27.3321 29.7346 26.9193 29.8375 26.4983C29.8732 26.3954 29.8785 26.284 29.8526 26.1781C29.8268 26.0721 29.771 25.9762 29.6921 25.9022C29.6672 25.8805 29.6514 25.8452 29.6264 25.8217C29.5934 25.7874 29.5689 25.7455 29.5549 25.6996C29.5409 25.6537 29.5379 25.605 29.5462 25.5577C29.5802 25.1004 29.607 24.6425 29.641 24.1858C29.6466 24.074 29.6694 23.9638 29.7086 23.8592C30.0808 22.9545 30.4597 22.0523 30.8374 21.1494C30.8532 21.1122 30.872 21.0763 30.8982 21.0255L31.1919 21.5683C31.2156 21.5138 31.2296 21.4828 31.2424 21.4512L31.7776 20.1406C31.8244 20.026 31.9217 19.9002 31.8992 19.7992C31.8767 19.6982 31.7387 19.6133 31.6602 19.5147C31.628 19.4751 31.6108 19.425 31.6116 19.3735C31.6521 18.9839 31.6981 18.5946 31.7496 18.2054C31.756 18.1494 31.7814 18.0975 31.8214 18.0585C32.6684 17.3765 33.5176 16.6971 34.3691 16.0205C34.3812 16.0096 34.3954 16.0014 34.4108 15.9964C34.4262 15.9914 34.4424 15.9897 34.4585 15.9914C34.731 16.0893 35.0545 16.0942 35.2047 16.4158C35.2047 16.4208 35.2175 16.422 35.2455 16.4338C35.3063 16.3669 35.3671 16.2882 35.4419 16.2212C35.4697 16.2019 35.4888 16.1722 35.4952 16.1385C35.5016 16.1049 35.4947 16.07 35.476 16.0415C35.3367 15.7354 35.2041 15.4262 35.0697 15.1182C35.0053 14.9714 34.9438 14.8233 34.8775 14.6709L36.9855 13.667L37.6278 15.231L38.0073 15.1598C37.9915 15.117 37.9811 15.0829 37.9677 15.0519C37.7676 14.5649 37.584 14.071 37.3595 13.5951C37.1861 13.2081 37.1007 12.7861 37.1096 12.3607C37.0959 11.9699 37.1914 11.5831 37.3851 11.2454C37.5021 11.0111 37.6652 10.8039 37.8643 10.6368C38.0085 10.5284 38.1386 10.4014 38.2773 10.2861C38.3125 10.257 38.3522 10.234 38.3947 10.218C38.8234 10.0465 39.2842 9.9747 39.7436 10.0079C39.8884 10.0178 40.0337 10.0178 40.1785 10.0079C40.7059 10.012 41.2143 10.2088 41.6114 10.5625C41.8728 10.7701 42.0814 11.0388 42.2196 11.3457C42.2701 11.4697 42.3412 11.5781 42.3972 11.6977C42.423 11.7526 42.4375 11.8123 42.4397 11.8731C42.4438 12.2193 42.4438 12.5654 42.4397 12.9116C42.4387 12.9733 42.4263 13.0343 42.4032 13.0913C42.1373 13.7436 41.8699 14.3947 41.601 15.0445C41.5858 15.0817 41.5743 15.1201 41.5585 15.1653L41.938 15.2323L42.5796 13.6707L44.6882 14.6752C44.6675 14.7266 44.6517 14.7644 44.6347 14.8035C44.4522 15.2215 44.2698 15.6402 44.0873 16.0595C44.0733 16.0917 44.0557 16.1463 44.0703 16.1624C44.1542 16.2603 44.2467 16.3483 44.3561 16.4604C44.4583 16.1729 44.687 16.1091 44.9199 16.0521C44.9645 16.0415 45.008 16.027 45.0501 16.0087C45.0789 15.9952 45.1112 15.9912 45.1424 15.9973C45.1736 16.0034 45.2022 16.0193 45.224 16.0428C46.0542 16.7095 46.8868 17.372 47.7176 18.04C47.7701 18.0863 47.8052 18.1498 47.8167 18.2197C47.8629 18.5425 47.886 18.8684 47.9384 19.1894C47.9639 19.2737 47.962 19.3642 47.9331 19.4473C47.9042 19.5305 47.8497 19.602 47.7778 19.6511C47.7529 19.6684 47.7358 19.6969 47.7121 19.713C47.6996 19.7212 47.6888 19.7318 47.6803 19.7443C47.6719 19.7567 47.6659 19.7708 47.6628 19.7856C47.6597 19.8004 47.6595 19.8157 47.6622 19.8305C47.6649 19.8454 47.6705 19.8596 47.6787 19.8723C47.9 20.4046 48.1147 20.9387 48.3331 21.4723C48.344 21.4977 48.3604 21.5237 48.3805 21.5609L48.6706 21.0224C48.6901 21.0614 48.6992 21.0782 48.7065 21.0955C49.0998 22.0378 49.4927 22.9803 49.8852 23.923C49.8993 23.9586 49.9077 23.9963 49.9101 24.0346C49.9405 24.4683 49.9478 24.9064 50.0062 25.3359C50.0299 25.4623 50.021 25.5928 49.9804 25.7147C49.9398 25.8365 49.8688 25.9456 49.7745 26.0311C49.7384 26.0623 49.7121 26.1036 49.6987 26.1498C49.6853 26.196 49.6854 26.2452 49.6991 26.2914C49.7264 26.4116 49.724 26.5392 49.7599 26.6582C49.8432 26.9358 49.9423 27.2091 50.0342 27.483C50.078 27.6069 50.1321 27.7309 50.182 27.8548V27.9713C50.1718 27.9911 50.1634 28.0119 50.157 28.0332C50.0062 28.6744 49.8539 29.3147 49.7003 29.9542C49.6875 30.0093 49.6584 30.0591 49.617 30.0967C49.3907 30.2826 49.1602 30.4605 48.9285 30.6383C48.8958 30.663 48.856 30.6759 48.8154 30.6749C48.6293 30.66 48.4431 30.6408 48.2583 30.6129C48.2372 30.6088 48.2172 30.6003 48.1994 30.5881C48.1816 30.5758 48.1665 30.56 48.1549 30.5416C48.0132 30.2851 47.88 30.0224 47.7401 29.764C47.7262 29.7439 47.7203 29.7193 47.7236 29.695C47.7269 29.6708 47.7391 29.6487 47.7577 29.6332C47.8496 29.5291 47.9402 29.4219 48.0229 29.3122C48.0511 29.2772 48.0672 29.2336 48.0685 29.1883C48.0588 28.9714 48.0417 28.7545 48.0259 28.537C48.0119 28.3425 47.9955 28.1479 47.9785 27.9316L47.5254 28.3691C47.4038 28.1386 47.2894 27.9198 47.1775 27.7005C47.1726 27.6887 47.17 27.6761 47.17 27.6633C47.17 27.6505 47.1726 27.6379 47.1775 27.6261C47.2722 27.3255 47.4576 27.0629 47.7072 26.8757C47.7385 26.8529 47.7676 26.8272 47.7942 26.7989L46.4939 24.3822L46.2896 24.4894C46.2792 24.4603 46.2701 24.438 46.2646 24.4181C46.1138 23.9051 45.9605 23.3926 45.8079 22.8826C45.79 22.8238 45.7625 22.7684 45.7264 22.719C45.5105 22.4278 45.2909 22.1384 45.072 21.8515L44.5787 21.199C44.5682 21.2255 44.5591 21.2526 44.5514 21.2802C44.4723 21.6836 44.3987 22.0857 44.3148 22.4897C44.2394 22.8529 44.1749 23.2209 44.0654 23.5748C43.9286 24.0178 43.7516 24.4485 43.5935 24.8847C43.5756 24.9313 43.5653 24.9805 43.5631 25.0304C43.5537 25.6252 43.5464 26.2201 43.5412 26.815C43.5409 26.8689 43.5484 26.9226 43.5637 26.9742C43.7927 27.7591 44.023 28.5426 44.2546 29.3246C44.2655 29.3624 44.2825 29.3977 44.3014 29.4486L44.6353 28.9101C44.6578 28.9615 44.6736 28.995 44.6876 29.0297C44.9917 29.7918 45.2958 30.5528 45.5938 31.3168C45.6327 31.4258 45.6571 31.5396 45.6662 31.6552C45.7203 32.1763 45.769 32.6987 45.817 33.2192C45.8561 33.4487 45.8712 33.6817 45.862 33.9145C45.7866 34.5224 45.6887 35.1278 45.5762 35.7295C45.5324 35.9849 45.5681 36.248 45.6783 36.4817L46.1448 36.3497C46.1448 36.3838 46.1497 36.4067 46.1503 36.4303C46.1803 38.685 46.2113 40.9396 46.2433 43.1939C46.2552 43.4108 46.2092 43.6268 46.1101 43.8191C46.0835 43.8565 46.0686 43.9012 46.0676 43.9474C46.1053 44.1284 46.1539 44.3062 46.1989 44.4859L46.4252 44.4654C46.4325 44.7833 46.4361 45.0938 46.4501 45.4036C46.4533 45.4877 46.4741 45.57 46.5109 45.6453C46.815 46.2445 47.1289 46.84 47.436 47.4386C47.4605 47.4837 47.4678 47.5364 47.4567 47.5867C47.3442 47.9182 47.2274 48.2485 47.1124 48.5769ZM41.3645 12.8571C41.0519 12.9742 40.7563 13.0858 40.4607 13.1948C40.3457 13.2542 40.2228 13.296 40.0958 13.3187C39.7139 13.3685 39.3258 13.3193 38.9676 13.1756C38.7061 13.0473 38.4202 12.9668 38.1374 12.8602C38.1374 13.1533 38.1374 13.4328 38.1374 13.7122C38.1408 13.729 38.1481 13.7448 38.1587 13.7582C38.1693 13.7715 38.1828 13.7821 38.1982 13.7891C38.5644 13.9375 38.9425 14.0532 39.3283 14.1348V16.6054H40.1961V14.3542C40.1961 14.1565 40.1961 14.164 40.3786 14.1063C40.6863 14.0066 40.9916 13.8975 41.2957 13.7878C41.3124 13.7795 41.327 13.7675 41.3384 13.7525C41.3498 13.7376 41.3576 13.7202 41.3614 13.7017C41.3669 13.4266 41.3645 13.1508 41.3645 12.8571Z" fill="#FF9B26"/>
</g>
<g filter="url(#filter1_d_406_2289)">
<rect x="8" y="55" width="53" height="4" fill="#FF8900"/>
</g>
<defs>
<filter id="filter0_d_406_2289" x="7" y="0" width="53.182" height="58.5769" filterUnits="userSpaceOnUse" color-interpolation-filters="sRGB">
<feFlood flood-opacity="0" result="BackgroundImageFix"/>
<feColorMatrix in="SourceAlpha" type="matrix" values="0 0 0 0 0 0 0 0 0 0 0 0 0 0 0 0 0 0 127 0" result="hardAlpha"/>
<feOffset/>
<feGaussianBlur stdDeviation="5"/>
<feComposite in2="hardAlpha" operator="out"/>
<feColorMatrix type="matrix" values="0 0 0 0 1 0 0 0 0 0.537255 0 0 0 0 0 0 0 0 0.4 0"/>
<feBlend mode="normal" in2="BackgroundImageFix" result="effect1_dropShadow_406_2289"/>
<feBlend mode="normal" in="SourceGraphic" in2="effect1_dropShadow_406_2289" result="shape"/>
</filter>
<filter id="filter1_d_406_2289" x="0" y="47" width="69" height="20" filterUnits="userSpaceOnUse" color-interpolation-filters="sRGB">
<feFlood flood-opacity="0" result="BackgroundImageFix"/>
<feColorMatrix in="SourceAlpha" type="matrix" values="0 0 0 0 0 0 0 0 0 0 0 0 0 0 0 0 0 0 127 0" result="hardAlpha"/>
<feOffset/>
<feGaussianBlur stdDeviation="4"/>
<feComposite in2="hardAlpha" operator="out"/>
<feColorMatrix type="matrix" values="0 0 0 0 1 0 0 0 0 0.537255 0 0 0 0 0 0 0 0 0.4 0"/>
<feBlend mode="normal" in2="BackgroundImageFix" result="effect1_dropShadow_406_2289"/>
<feBlend mode="normal" in="SourceGraphic" in2="effect1_dropShadow_406_2289" result="shape"/>
</filter>
</defs>
</svg>
