<svg width="53" height="57" viewBox="0 0 53 57" fill="none" xmlns="http://www.w3.org/2000/svg">
<path d="M53 0L0 0L0 54L53 54L53 0Z" fill="#161215"/>
<g opacity="0.5">
<path d="M17.3456 31.9336H13.4166C13.4125 31.881 13.4117 31.8281 13.4143 31.7752C13.4244 31.6304 13.4379 31.4857 13.4517 31.3388H17.5365C17.4731 31.5371 17.4095 31.7354 17.3456 31.9336Z" stroke="white" stroke-width="0.3"/>
<path d="M9.93588 28.2404C9.83951 28.1652 9.74382 28.0906 9.64913 28.015H11.0921C11.0423 28.1086 10.9926 28.2018 10.9424 28.295H10.0058C9.98245 28.2768 9.95915 28.2586 9.93588 28.2404Z" stroke="white" stroke-width="0.3"/>
<path d="M15.4633 41.4622H13.0553L13.0367 41.1924C13.0474 40.9869 13.0497 40.7808 13.052 40.5779C13.052 40.5728 13.0521 40.5677 13.0521 40.5625H15.7891C15.7325 40.7142 15.6767 40.8659 15.6215 41.0174C15.5679 41.1644 15.5145 41.3127 15.4633 41.4622Z" stroke="white" stroke-width="0.3"/>
<path d="M20.4995 28.2944H14.1009C14.1382 28.2012 14.1754 28.1078 14.2122 28.0144H20.4329C20.4548 28.1075 20.4769 28.201 20.4995 28.2944Z" stroke="white" stroke-width="0.3"/>
<path d="M13.25 20.6804L13.2495 20.6801L13.2427 20.691C13.2121 20.74 13.19 20.7938 13.1772 20.8501L13.1337 20.9972H9.79918L9.94549 20.646H13.2758L13.25 20.6804Z" stroke="white" stroke-width="0.3"/>
<path d="M23.926 40.9213L23.8768 40.9169L23.7134 40.9022V41.0663V41.4622H23.2312C23.1234 41.1621 23.0148 40.8622 22.9054 40.5625H23.9307C23.93 40.6833 23.9291 40.8027 23.926 40.9213Z" stroke="white" stroke-width="0.3"/>
<path d="M24.2996 31.664L24.2996 31.6644C24.2934 31.7545 24.2919 31.8448 24.295 31.9349H21.348L21.1572 31.3401H24.325C24.3159 31.4479 24.3073 31.5559 24.2996 31.664Z" stroke="white" stroke-width="0.3"/>
<path d="M11.7057 25.4414L11.7053 25.4417L11.7122 25.4516C11.7398 25.4913 11.7592 25.5364 11.7692 25.5842C11.7709 25.5922 11.7723 25.6002 11.7734 25.6082H9.21076C9.23882 25.5292 9.2683 25.4508 9.29833 25.371C9.31423 25.3288 9.33028 25.2861 9.34635 25.2427H11.5772C11.6231 25.3068 11.666 25.3731 11.7057 25.4414Z" stroke="white" stroke-width="0.3"/>
<path d="M21.7246 35.9147L21.7247 35.9147L21.7257 35.9087L21.7542 35.7433L21.7614 35.7019L23.9925 35.7014L23.9848 36.2961H21.7683C21.7653 36.2888 21.7622 36.2814 21.7591 36.274L21.7591 36.274C21.711 36.161 21.6989 36.0353 21.7246 35.9147Z" stroke="white" stroke-width="0.3"/>
<path d="M21.5464 18.5947L21.5466 18.5943C21.5678 18.5439 21.5896 18.4962 21.6168 18.4413L22.2225 17.1644C22.2626 16.7826 22.308 16.4011 22.3589 16.0201C22.4123 15.596 22.6244 15.2085 22.9518 14.9389L22.953 14.9379L22.953 14.9379C23.1105 14.811 23.2693 14.6843 23.4278 14.5579C23.498 14.502 23.5681 14.446 23.638 14.3902C23.5961 14.3468 23.5555 14.3034 23.5173 14.2589C23.4815 14.2174 23.4764 14.1707 23.4753 14.1505C23.474 14.1258 23.4771 14.1032 23.4804 14.0863C23.4867 14.0541 23.4982 14.0212 23.5112 13.9942C23.6912 13.5782 23.8724 13.1627 24.0548 12.7479L22.2201 11.8737L21.6387 13.2886L21.5928 13.4003L21.4739 13.3794L21.0944 13.3124L20.9206 13.2818L20.9788 13.1152C20.9829 13.1036 20.987 13.0915 20.9912 13.0791C21.0014 13.0492 21.0121 13.0178 21.0234 12.9891L21.0242 12.9869L21.0242 12.9869L21.8251 11.036C21.8251 11.0359 21.8251 11.0359 21.8251 11.0358C21.8413 10.9962 21.8499 10.9538 21.8505 10.9107L22.0005 10.9129M21.5464 18.5947L21.7803 9.34698M21.5464 18.5947L21.3263 19.122L21.3261 19.1223L21.3244 19.1264H14.6999L14.6394 18.8493L14.4427 19.1059L14.4269 19.1264M21.5464 18.5947L14.4269 19.1264M22.0005 10.9129L21.8505 10.9113C21.8541 10.5668 21.8541 10.2223 21.8505 9.87785C21.8489 9.83797 21.8393 9.79894 21.8224 9.76319L21.8215 9.76138L21.8215 9.76137C21.7987 9.71142 21.7725 9.66286 21.7437 9.60924C21.7411 9.60442 21.7385 9.59957 21.7358 9.59466C21.705 9.53735 21.6716 9.47437 21.643 9.40726M22.0005 10.9129C21.9996 10.9746 21.9872 11.0356 21.964 11.0926L21.9579 9.69895C21.9839 9.75376 21.9984 9.81348 22.0005 9.87431C22.0041 10.2205 22.0041 10.5667 22.0005 10.9129ZM21.643 9.40726C21.6427 9.40675 21.6425 9.40624 21.6423 9.40572L21.7803 9.34698M21.643 9.40726C21.6432 9.40771 21.6434 9.40816 21.6436 9.40862L21.7803 9.34698M21.643 9.40726C21.5144 9.1227 21.3209 8.87398 21.0789 8.68182L21.0721 8.67646L21.0723 8.67628C20.7041 8.34786 20.2335 8.16454 19.7453 8.15856M21.7803 9.34698C21.6421 9.04023 21.4335 8.77181 21.1721 8.56434C20.7757 8.21069 20.268 8.01349 19.7411 8.00851M19.7453 8.15856C19.7473 8.15843 19.7493 8.1583 19.7513 8.15816L19.7411 8.00851M19.7453 8.15856C19.7434 8.15854 19.7415 8.15852 19.7397 8.1585L19.7411 8.00851M19.7453 8.15856C19.5957 8.16849 19.4456 8.16836 19.296 8.15816L19.3062 8.00851M19.7411 8.00851C19.5963 8.01838 19.451 8.01838 19.3062 8.00851M21.1204 13.1647C21.1255 13.1503 21.1301 13.1367 21.1346 13.1235C21.1442 13.0952 21.1531 13.0692 21.163 13.0439L21.1722 13.0215L21.1465 13.017L21.1432 13.0357L21.1431 13.0361L21.1204 13.1647ZM21.1204 13.1647L21.262 13.2142C21.2649 13.206 21.2676 13.1983 21.27 13.1911L21.1204 13.1647ZM14.4269 19.1264H11.1107C11.2368 18.8185 11.3626 18.5104 11.4882 18.2022L11.4882 18.2022L11.4891 18.2C11.497 18.1797 11.5082 18.1569 11.523 18.1285C11.5261 18.1227 11.5293 18.1164 11.5328 18.1099C11.5446 18.0874 11.5583 18.0615 11.5702 18.0366C11.599 17.976 11.639 17.8798 11.618 17.7747C11.5974 17.6712 11.5243 17.5963 11.4772 17.5509C11.4562 17.5306 11.4381 17.5141 11.4221 17.4995C11.3922 17.4722 11.3696 17.4516 11.3489 17.4258L11.3489 17.4258L11.3469 17.4234C11.3381 17.4129 11.3326 17.3994 11.3316 17.3849C11.373 16.9992 11.4185 16.6141 11.4683 16.2296L11.4683 16.2296L11.4685 16.2273C11.4708 16.2073 11.4793 16.189 11.4921 16.1749C12.3332 15.4988 13.1762 14.8246 14.0212 14.1522C14.0752 14.1698 14.1296 14.1845 14.1797 14.1981C14.1864 14.1999 14.1931 14.2017 14.1997 14.2035C14.2709 14.2229 14.3337 14.2408 14.3915 14.2641C14.5018 14.3084 14.5848 14.3683 14.6395 14.4846L14.6394 14.4846L14.6406 14.4869C14.6599 14.5262 14.6899 14.546 14.7044 14.5543C14.7171 14.5616 14.7292 14.5661 14.7328 14.5674L14.7332 14.5676C14.7366 14.5689 14.7392 14.5698 14.7415 14.5707C14.7467 14.5726 14.7506 14.574 14.7578 14.577L14.8556 14.6182L14.927 14.5396C14.9492 14.5152 14.9694 14.492 14.9888 14.4698C15.0288 14.4239 15.0652 14.382 15.1081 14.342C15.163 14.3 15.2002 14.2391 15.2131 14.1714C15.2258 14.1042 15.2137 14.0345 15.179 13.9756C15.0645 13.7258 14.9546 13.4718 14.8437 13.2155C14.8218 13.1649 14.7998 13.1142 14.7778 13.0635L14.7778 13.0634C14.7398 12.9761 14.7026 12.8891 14.6647 12.8006C14.6574 12.7835 14.6501 12.7664 14.6428 12.7492L16.4776 11.8754C16.576 12.1143 16.6732 12.3511 16.7703 12.5877C16.8667 12.8225 16.9629 13.0571 17.0602 13.2931L17.1066 13.4059L17.2265 13.3834L17.606 13.3121L17.7807 13.2793L17.719 13.1127C17.715 13.1017 17.7106 13.0893 17.706 13.0764C17.6969 13.0506 17.6871 13.0227 17.6774 12.9994L17.6773 12.9992C17.613 12.8447 17.5498 12.6875 17.4863 12.5294C17.3532 12.1978 17.2183 11.862 17.067 11.5376C16.9025 11.1712 16.821 10.7717 16.8288 10.3686L16.829 10.3686L16.8288 10.3606C16.8164 9.99741 16.9055 9.63828 17.0856 9.32508L17.0858 9.32521L17.0898 9.31726C17.197 9.10243 17.3462 8.91255 17.5281 8.75932C17.6214 8.68921 17.7152 8.6063 17.8032 8.52853C17.8522 8.48521 17.8993 8.44348 17.9437 8.40644C17.9661 8.38794 17.9912 8.37338 18.0181 8.36328L18.0181 8.36332L18.0213 8.36202C18.4263 8.19864 18.8617 8.12904 19.2962 8.15817L19.3062 8.00851M14.4269 19.1264L19.3062 8.00851M17.5784 13.1647L17.4289 13.1928C17.4315 13.2 17.4344 13.2079 17.4377 13.2167L17.5784 13.1647ZM17.5784 13.1647C17.5724 13.1486 17.5672 13.1338 17.5623 13.12C17.5543 13.0972 17.5471 13.0769 17.5388 13.0569C17.534 13.0453 17.5292 13.0338 17.5244 13.0222L17.5507 13.0173L17.5567 13.0494L17.5567 13.0495L17.5784 13.1647ZM17.9652 8.22291C17.9226 8.23893 17.883 8.26196 17.8478 8.29107C17.7962 8.33415 17.7459 8.37876 17.6955 8.42336C17.6104 8.49873 17.5254 8.57406 17.4348 8.6418C17.2356 8.80881 17.0725 9.01599 16.9556 9.25031C16.7615 9.58789 16.6655 9.9747 16.6788 10.3657L17.9652 8.22291ZM14.7572 14.3853C14.7449 14.3631 14.7318 14.3426 14.7178 14.3235C14.7134 14.3285 14.7091 14.3333 14.705 14.3379L14.7572 14.3853ZM14.872 14.3753L14.911 14.357C14.9083 14.3513 14.9056 14.3457 14.9028 14.3401C14.9026 14.3404 14.9024 14.3406 14.9022 14.3409C14.9049 14.3452 14.9075 14.3498 14.9099 14.3547L14.8751 14.3718C14.8741 14.3729 14.8731 14.3741 14.872 14.3753ZM21.0727 11.7297L21.0752 11.7161V11.7023V11.7007V11.6991V11.6975V11.6959V11.6942V11.6926V11.691V11.6894V11.6878V11.6862V11.6845V11.6829V11.6813V11.6797V11.6781V11.6765V11.6748V11.6732V11.6716V11.67V11.6684V11.6668V11.6652V11.6635V11.6619V11.6603V11.6587V11.6571V11.6555V11.6538V11.6522V11.6506V11.649V11.6474V11.6458V11.6441V11.6425V11.6409V11.6393V11.6377V11.6361V11.6344V11.6328V11.6312V11.6296V11.628V11.6264V11.6247V11.6231V11.6215V11.6199V11.6183V11.6167V11.615V11.6134V11.6118V11.6102V11.6086V11.607V11.6053V11.6037V11.6021V11.6005V11.5989V11.5973V11.5956V11.594V11.5924V11.5908V11.5892V11.5876V11.5859V11.5843V11.5827V11.5811V11.5795V11.5778V11.5762V11.5746V11.573V11.5714V11.5698V11.5681V11.5665V11.5649V11.5633V11.5617V11.56V11.5584V11.5568V11.5552V11.5536V11.5519V11.5503V11.5487V11.5471V11.5455V11.5439V11.5422V11.5406V11.539V11.5374V11.5358V11.5341V11.5325V11.5309V11.5293V11.5277V11.526V11.5244V11.5228V11.5212V11.5196V11.5179V11.5163V11.5147V11.5131V11.5114V11.5098V11.5082V11.5066V11.505V11.5033V11.5017V11.5001V11.4985V11.4969V11.4952V11.4936V11.492V11.4904V11.4887V11.4871V11.4855V11.4839V11.4823V11.4806V11.479V11.4774V11.4758V11.4741V11.4725V11.4709V11.4693V11.4676V11.466V11.4644V11.4628V11.4611V11.4595V11.4579V11.4563V11.4546V11.453V11.4514V11.4498V11.4481V11.4465V11.4449V11.4433V11.4416V11.44V11.4384V11.4368V11.4351V11.4335V11.4319V11.4303V11.4286V11.427V11.4254V11.4238V11.4221V11.4205V11.4189V11.4172V11.4156V11.414V11.4124V11.4107V11.4091V11.4075V11.4058V11.4042V11.4026V11.401V11.3993V11.3977V11.3961V11.3944V11.3928V11.3912V11.3895V11.3879V11.3863V11.3847V11.383V11.3814V11.3798V11.3781V11.3765V11.3749V11.3732V11.3716V11.37V11.3683V11.3667V11.3651V11.3634V11.3618V11.3602V11.3585V11.3569V11.3553V11.3536V11.352V11.3504V11.3487V11.3471V11.3455V11.3438V11.3422V11.3406V11.3389V11.3373V11.3357V11.334V11.3324V11.3308V11.3291V11.3275V11.3259V11.3242V11.3226V11.3209V11.3193V11.3177V11.316V11.3144V11.3128V11.3111V11.3095V11.3078V11.3062V11.3046V11.3029V11.3013V11.2996V11.298V11.2964V11.2947V11.2931V11.2914V11.2898V11.2882V11.2865V11.2849V11.2832V11.2816V11.28V11.2783V11.2767V11.275V11.2734V11.2717V11.2701V11.2685V11.2668V11.2652V11.2635V11.2619V11.2602V11.2586V11.2569V11.2553V11.2537V11.252V11.2504V11.2487V11.2471V11.2454V11.2438V11.2421V11.2405V11.2388V11.2372V11.2355V11.2339V11.2322V11.2306V11.229V11.2273V11.2257V11.224V11.2224V11.2207V11.2191V11.2174V11.2158V11.2141V11.2125V11.2108V11.2092V11.2075V11.2059V11.2042V11.2025V11.2009V11.1992V11.1976V11.1959V11.1943V11.1926V11.191V11.1893V11.1877V11.186V11.1844V11.1827V11.181V11.1794V11.1777V11.1761V11.1744V11.1728V11.1711V11.1695V11.1678V11.1661V11.1645V11.1628V11.1612V11.1595V11.1578V11.1562V11.1545V11.1529V11.1512V11.1495V11.1479V11.1462V11.1446V11.1429V11.1412V11.1396V11.1379V11.1363V11.1346V11.1329V11.1313V11.1296V11.1279V11.1263V11.1246V11.1229V11.1213V11.1196V11.118V11.1163V11.1146V11.113V11.1113V11.1096V11.108V11.1063V11.1046V11.103V11.1013V11.0996V11.0979V11.0963V11.0946V11.0929V11.0913V11.0896V11.0879V11.0863V11.0846V11.0829V11.0812V11.0796V11.0779V11.0762V11.0746V11.0729V11.0712V11.0695V11.0679V11.0662V11.0645V11.0628V11.0612V11.0595V11.0578V11.0561V11.0545V11.0528V11.0511V11.0494V11.0478V11.0461V11.0444V11.0427V11.041V11.0394V11.0377V11.036V11.0343V11.0326V11.031V11.0293V11.0276V11.0259V11.0242V11.0225V11.0209V11.0192V11.0175V11.0158V11.0141V11.0124V11.0108V11.0091V11.0074V11.0057V11.004V11.0023V11.0006V10.999V10.9973V10.9956V10.9939V10.9922V10.9905V10.9888V10.9871V10.9855V10.9838V10.9821V10.9804V10.9787V10.977V10.9753V10.9736V10.9719V10.9702V10.9685V10.9668V10.9652V10.9635V10.9618V10.9601V10.9584V10.9567V10.955V10.9533V10.9516V10.9499V10.9482V10.9465V10.9448V10.9431V10.9414V10.9397V10.938V10.9363V10.9346V10.9329V10.9312V10.9295V10.9278V10.9261V10.9244V10.9227V10.921V10.9193V10.9176V10.9159V10.9142V10.9125V10.9108V10.9091V10.9074V10.9056V10.9039V10.9022V10.9005V10.8988V10.8971V10.8954V10.8937V10.892V10.8903V10.8886V10.8869V10.8851V10.8834V10.8817V10.88V10.8783V10.8766V10.8749V10.8732V10.8714V10.8697V10.868V10.8663V10.8646V10.8629V10.8611V10.8594V10.8577V10.6409L20.8723 10.7173C20.5598 10.835 20.2644 10.9459 19.9739 11.0543L19.9656 11.0574L19.9576 11.0615C19.8568 11.1134 19.7493 11.1501 19.6383 11.1705C19.2846 11.216 18.9254 11.1707 18.5932 11.0385C18.4044 10.9454 18.1991 10.8748 18.0006 10.8065C17.9166 10.7776 17.8338 10.7491 17.754 10.7195L17.5518 10.6446V10.8602C17.5518 10.9578 17.5513 11.0545 17.5509 11.1504C17.5499 11.3405 17.549 11.5279 17.5518 11.7145L17.5521 11.73L17.5555 11.7452C17.5642 11.784 17.5818 11.8205 17.607 11.8515C17.6322 11.8826 17.6644 11.9075 17.7012 11.924L17.7012 11.9241L17.7062 11.9262C18.0424 12.0626 18.3886 12.172 18.7414 12.2534V14.6036V14.7536H18.8914H19.7599H19.9099V14.6036V12.3548C19.9099 12.3173 19.91 12.2927 19.9108 12.275C19.925 12.2699 19.9436 12.264 19.9704 12.2554C19.9759 12.2537 19.9818 12.2518 19.988 12.2498L19.9882 12.2498C20.3001 12.1497 20.6065 12.0398 20.9107 11.9295L20.9174 11.927L20.924 11.9239C20.9626 11.9055 20.9961 11.8782 21.0218 11.8444C21.0476 11.8106 21.065 11.7713 21.0727 11.7297ZM20.8595 11.7884C20.5554 11.8987 20.2513 12.0078 19.9424 12.107C19.9363 12.1089 19.9303 12.1108 19.9246 12.1126C19.7599 12.165 19.7599 12.165 19.7599 12.3548L20.8595 11.7884Z" stroke="white" stroke-width="0.3"/>
<path d="M15.0636 20.9972C15.0382 20.8805 15.0139 20.7634 14.9908 20.646H20.6911C20.6422 20.7631 20.5935 20.8802 20.5449 20.9972H15.0636Z" stroke="white" stroke-width="0.3"/>
<path d="M15.5314 25.0927C15.5229 25.1287 15.5138 25.1646 15.5028 25.2005C15.462 25.3333 15.4227 25.4661 15.3834 25.5989C15.3825 25.602 15.3816 25.6051 15.3807 25.6082H15.5371M15.5314 25.0927V25.2092V25.2093V25.2427H15.64H15.6413H15.6468M15.5314 25.0927H20.1758L20.1293 25.6082M15.5314 25.0927L15.6774 25.1273C15.6686 25.1642 15.6588 25.203 15.6468 25.2427M15.6468 25.2427C15.6466 25.2432 15.6465 25.2437 15.6463 25.2442L15.6462 25.2446L15.6462 25.2446C15.6089 25.3658 15.5731 25.4867 15.5371 25.6082M15.6468 25.2427H20.1171C20.1165 25.244 20.1159 25.2452 20.1153 25.2466L20.0654 25.3497L20.0165 25.4507L20.0004 25.4838L19.9959 25.493L19.9948 25.4955L19.9945 25.4961L19.9944 25.4962L19.9944 25.4963L19.9944 25.4963L20.1293 25.5618M15.5371 25.6082C15.5339 25.619 15.5307 25.6298 15.5275 25.6407C15.5159 25.6798 15.5043 25.7189 15.4927 25.7582H19.9793V25.6082M15.5371 25.6082H19.9793M19.9793 25.6082V25.5618V25.5273L19.9944 25.4963L20.1293 25.5618M19.9793 25.6082H20.1293M20.1293 25.6082V25.5618M20.1293 25.6082L20.2753 25.2594C20.2704 25.2712 20.1293 25.5618 20.1293 25.5618" stroke="white" stroke-width="0.3"/>
<path d="M13.1056 36.2967C13.1081 36.0984 13.1106 35.9001 13.1133 35.7019H16.9416C16.9847 35.8986 16.9797 36.1029 16.9273 36.2967H13.1056Z" stroke="white" stroke-width="0.3"/>
<path d="M20.1881 22.8184L20.188 22.8184L20.1875 22.8247C20.1805 22.932 20.1732 23.0391 20.1658 23.1462H15.7077C15.6941 23.0231 15.6731 22.9011 15.6446 22.7807H20.1919C20.1907 22.7933 20.1894 22.8059 20.1881 22.8184Z" stroke="white" stroke-width="0.3"/>
<path d="M12.2545 22.7807L12.0577 23.1462H9.29267C9.29408 23.1258 9.2955 23.1055 9.29691 23.0851C9.30395 22.9837 9.31101 22.8822 9.31788 22.7807H12.2545Z" stroke="white" stroke-width="0.3"/>
</g>
<mask id="path-17-inside-1_461_6" fill="white">
<path d="M39.1124 46.5769H37.4636C37.286 46.4802 37.1115 46.3792 36.9303 46.29C36.8271 46.241 36.7419 46.1598 36.687 46.0583C36.3975 45.547 36.1007 45.0401 35.8075 44.5314C35.7067 44.4056 35.6299 44.2616 35.5813 44.1069C35.5919 43.9415 35.6315 43.7793 35.6981 43.6279C35.7115 43.5796 35.7212 43.53 35.7388 43.4829C35.85 43.2262 35.8698 42.9381 35.7948 42.6681C35.7839 42.6228 35.7756 42.5768 35.7698 42.5305C35.7395 42.2729 35.6895 42.018 35.6202 41.7683C35.2097 40.6127 34.7803 39.4644 34.3576 38.3137C34.2475 38.0132 34.1381 37.7126 34.0268 37.4084L34.3917 37.1735C34.2792 36.8873 34.177 36.6072 34.059 36.3345C33.999 36.1926 33.9843 36.0349 34.017 35.884C34.1645 35.217 34.2303 34.5338 34.2129 33.8503C34.2111 33.7887 34.2021 33.7275 34.1861 33.6681C33.6756 32.0727 33.164 30.4777 32.6511 28.8831C32.6389 28.8459 32.6219 28.81 32.603 28.7622C32.513 28.8478 32.4315 28.9184 32.3597 28.9971C32.3347 29.0257 32.3034 29.0479 32.2685 29.0621C32.2336 29.0763 32.1959 29.082 32.1584 29.0789C31.9111 29.0723 31.6636 29.0723 31.4158 29.0789C31.3784 29.082 31.3407 29.0763 31.3057 29.0621C31.2708 29.0479 31.2396 29.0257 31.2145 28.9971C31.1391 28.9165 31.0564 28.8447 30.9712 28.7622C30.9566 28.7982 30.9463 28.818 30.939 28.8391C30.4188 30.456 29.8998 32.0731 29.3821 33.6904C29.3701 33.7307 29.3631 33.7723 29.3614 33.8143C29.3323 34.4162 29.3838 35.0193 29.5146 35.607C29.605 35.9289 29.5715 36.2737 29.421 36.5712C29.3417 36.7389 29.2729 36.9115 29.2148 37.088C29.2045 37.1159 29.1966 37.1444 29.1868 37.1748L29.5438 37.4078C29.5317 37.4443 29.5244 37.4697 29.5152 37.4958L28.2046 41.0687C28.0963 41.3662 27.9838 41.6636 27.9005 41.9691C27.8318 42.2256 27.8117 42.4958 27.76 42.7586C27.7162 42.9468 27.7257 43.1438 27.7874 43.3268C27.8646 43.5449 27.9151 43.7729 27.9826 43.9948C27.9943 44.0286 27.9981 44.0647 27.9938 44.1003C27.9894 44.1359 27.9771 44.17 27.9577 44.1999C27.5855 44.8369 27.2181 45.477 26.8453 46.114C26.8088 46.1715 26.7589 46.2187 26.6999 46.2516C26.5053 46.3644 26.3058 46.4685 26.1082 46.5757H24.4563C24.3444 46.2584 24.235 45.9399 24.1188 45.6245C24.1063 45.5928 24.1014 45.5585 24.1045 45.5244C24.1076 45.4904 24.1185 45.4576 24.1364 45.4287C24.4405 44.8505 24.7385 44.2693 25.0426 43.6936C25.098 43.5924 25.1257 43.4779 25.1229 43.3621C25.1174 43.0678 25.1229 42.7722 25.1229 42.4692L25.3692 42.4915C25.4075 42.3415 25.4526 42.1934 25.4799 42.0422C25.4948 41.9726 25.488 41.9001 25.4605 41.8346C25.3576 41.6352 25.3109 41.4107 25.3254 41.1858C25.3413 40.8717 25.3376 40.5563 25.3419 40.2415C25.367 38.3209 25.3921 36.4 25.4173 34.4786C25.4173 34.4383 25.4209 34.3981 25.4234 34.3504L25.8965 34.4842C25.9428 34.3373 25.9859 34.2023 26.0267 34.0647C26.0316 34.0422 26.0316 34.019 26.0267 33.9965C25.9415 33.4525 25.8534 32.909 25.7706 32.3643C25.7265 32.1678 25.7038 31.9668 25.7031 31.7651C25.7494 31.1145 25.8248 30.4638 25.8795 29.8163C25.9019 29.5618 25.9635 29.3126 26.062 29.0776C26.2955 28.5051 26.5199 27.9282 26.748 27.3525C26.8046 27.2106 26.8617 27.0687 26.9304 26.9057L27.271 27.4554C27.2868 27.4108 27.296 27.3866 27.3033 27.3612C27.5161 26.6411 27.7241 25.9198 27.9437 25.2017C28.0087 24.9948 28.0375 24.7779 28.0288 24.5609C28.0167 24.2623 27.9984 23.9617 28.0155 23.6637C28.0421 23.1983 27.9576 22.7333 27.7691 22.3085C27.6267 21.995 27.5116 21.6695 27.4249 21.3356C27.2917 20.7779 27.2005 20.2109 27.0904 19.6482C27.0624 19.5039 27.0296 19.3607 26.9961 19.1947C26.5893 19.735 26.1982 20.2518 25.8102 20.7705C25.7879 20.8064 25.7719 20.8461 25.7627 20.8876C25.6139 21.3808 25.4663 21.8741 25.32 22.3673C25.3072 22.4095 25.2908 22.4504 25.2744 22.4956L25.073 22.3865L23.7715 24.8063C23.8281 24.8534 23.8725 24.8974 23.9224 24.9302C24.0685 25.0467 24.1874 25.1949 24.2702 25.364C24.3365 25.452 24.3713 25.5604 24.3688 25.6713C24.3664 25.7822 24.3269 25.8889 24.2569 25.9738C24.1771 26.1017 24.1059 26.235 24.044 26.3728L23.5891 25.9335C23.5641 26.2904 23.5568 26.6219 23.5112 26.9472C23.4908 27.0528 23.499 27.1619 23.5347 27.2631C23.5705 27.3643 23.6326 27.4537 23.7144 27.5217C23.7508 27.5551 23.7752 27.6029 23.8117 27.6363C23.8621 27.6822 23.8542 27.7218 23.8238 27.7776C23.687 28.0286 23.5581 28.2845 23.4194 28.5342C23.4057 28.5557 23.3878 28.5743 23.3669 28.5886C23.346 28.603 23.3225 28.6129 23.2977 28.6179C23.1153 28.6433 22.9328 28.6619 22.7504 28.6761C22.7097 28.6771 22.6699 28.6642 22.6373 28.6395C22.4025 28.4594 22.17 28.2766 21.9397 28.0911C21.9053 28.0618 21.8807 28.0225 21.8691 27.9784C21.7663 27.5533 21.6696 27.1263 21.565 26.7006C21.5042 26.4577 21.4434 26.216 21.3826 25.9738V25.8573C21.4045 25.8174 21.4236 25.776 21.4397 25.7333C21.6017 25.3321 21.7346 24.9193 21.8375 24.4983C21.8732 24.3954 21.8785 24.284 21.8526 24.1781C21.8268 24.0721 21.771 23.9762 21.6921 23.9022C21.6672 23.8805 21.6514 23.8452 21.6264 23.8217C21.5934 23.7874 21.5689 23.7455 21.5549 23.6996C21.5409 23.6537 21.5379 23.605 21.5462 23.5577C21.5802 23.1004 21.607 22.6425 21.641 22.1858C21.6466 22.074 21.6694 21.9638 21.7086 21.8592C22.0808 20.9545 22.4597 20.0523 22.8374 19.1494C22.8532 19.1122 22.872 19.0763 22.8982 19.0255L23.1919 19.5683C23.2156 19.5138 23.2296 19.4828 23.2424 19.4512L23.7776 18.1406C23.8244 18.026 23.9217 17.9002 23.8992 17.7992C23.8767 17.6982 23.7387 17.6133 23.6602 17.5147C23.628 17.4751 23.6108 17.425 23.6116 17.3735C23.6521 16.9839 23.6981 16.5946 23.7496 16.2054C23.756 16.1494 23.7814 16.0975 23.8214 16.0585C24.6684 15.3765 25.5176 14.6971 26.3691 14.0205C26.3812 14.0096 26.3954 14.0014 26.4108 13.9964C26.4262 13.9914 26.4424 13.9897 26.4585 13.9914C26.731 14.0893 27.0545 14.0942 27.2047 14.4158C27.2047 14.4208 27.2175 14.422 27.2455 14.4338C27.3063 14.3669 27.3671 14.2882 27.4419 14.2212C27.4697 14.2019 27.4888 14.1722 27.4952 14.1385C27.5016 14.1049 27.4947 14.07 27.476 14.0415C27.3367 13.7354 27.2041 13.4262 27.0697 13.1182C27.0053 12.9714 26.9438 12.8233 26.8775 12.6709L28.9855 11.667L29.6278 13.231L30.0073 13.1598C29.9915 13.117 29.9811 13.0829 29.9677 13.0519C29.7676 12.5649 29.584 12.071 29.3595 11.5951C29.1861 11.2081 29.1007 10.7861 29.1096 10.3607C29.0959 9.96987 29.1914 9.58306 29.3851 9.24536C29.5021 9.01109 29.6652 8.80394 29.8643 8.63685C30.0085 8.52841 30.1386 8.40138 30.2773 8.28612C30.3125 8.25701 30.3522 8.23398 30.3947 8.21796C30.8234 8.04647 31.2842 7.9747 31.7436 8.00789C31.8884 8.01776 32.0337 8.01776 32.1785 8.00789C32.7059 8.01203 33.2143 8.20882 33.6114 8.56249C33.8728 8.77014 34.0814 9.03877 34.2196 9.34574C34.2701 9.46968 34.3412 9.57812 34.3972 9.69771C34.423 9.75257 34.4375 9.81226 34.4397 9.87308C34.4438 10.2193 34.4438 10.5654 34.4397 10.9116C34.4387 10.9733 34.4263 11.0343 34.4032 11.0913C34.1373 11.7436 33.8699 12.3947 33.601 13.0445C33.5858 13.0817 33.5743 13.1201 33.5585 13.1653L33.938 13.2323L34.5796 11.6707L36.6882 12.6752C36.6675 12.7266 36.6517 12.7644 36.6347 12.8035C36.4522 13.2215 36.2698 13.6402 36.0873 14.0595C36.0733 14.0917 36.0557 14.1463 36.0703 14.1624C36.1542 14.2603 36.2467 14.3483 36.3561 14.4604C36.4583 14.1729 36.687 14.1091 36.9199 14.0521C36.9645 14.0415 37.008 14.027 37.0501 14.0087C37.0789 13.9952 37.1112 13.9912 37.1424 13.9973C37.1736 14.0034 37.2022 14.0193 37.224 14.0428C38.0542 14.7095 38.8868 15.372 39.7176 16.04C39.7701 16.0863 39.8052 16.1498 39.8167 16.2197C39.8629 16.5425 39.886 16.8684 39.9384 17.1894C39.9639 17.2737 39.962 17.3642 39.9331 17.4473C39.9042 17.5305 39.8497 17.602 39.7778 17.6511C39.7529 17.6684 39.7358 17.6969 39.7121 17.713C39.6996 17.7212 39.6888 17.7318 39.6803 17.7443C39.6719 17.7567 39.6659 17.7708 39.6628 17.7856C39.6597 17.8004 39.6595 17.8157 39.6622 17.8305C39.6649 17.8454 39.6705 17.8596 39.6787 17.8723C39.9 18.4046 40.1147 18.9387 40.3331 19.4723C40.344 19.4977 40.3604 19.5237 40.3805 19.5609L40.6706 19.0224C40.6901 19.0614 40.6992 19.0782 40.7065 19.0955C41.0998 20.0378 41.4927 20.9803 41.8852 21.923C41.8993 21.9586 41.9077 21.9963 41.9101 22.0346C41.9405 22.4683 41.9478 22.9064 42.0062 23.3359C42.0299 23.4623 42.021 23.5928 41.9804 23.7147C41.9398 23.8365 41.8688 23.9456 41.7745 24.0311C41.7384 24.0623 41.7121 24.1036 41.6987 24.1498C41.6853 24.196 41.6854 24.2452 41.6991 24.2914C41.7264 24.4116 41.724 24.5392 41.7599 24.6582C41.8432 24.9358 41.9423 25.2091 42.0342 25.483C42.078 25.6069 42.1321 25.7309 42.182 25.8548V25.9713C42.1718 25.9911 42.1634 26.0119 42.157 26.0332C42.0062 26.6744 41.8539 27.3147 41.7003 27.9542C41.6875 28.0093 41.6584 28.0591 41.617 28.0967C41.3907 28.2826 41.1602 28.4605 40.9285 28.6383C40.8958 28.663 40.856 28.6759 40.8154 28.6749C40.6293 28.66 40.4431 28.6408 40.2583 28.6129C40.2372 28.6088 40.2172 28.6003 40.1994 28.5881C40.1816 28.5758 40.1665 28.56 40.1549 28.5416C40.0132 28.2851 39.88 28.0224 39.7401 27.764C39.7262 27.7439 39.7203 27.7193 39.7236 27.695C39.7269 27.6708 39.7391 27.6487 39.7577 27.6332C39.8496 27.5291 39.9402 27.4219 40.0229 27.3122C40.0511 27.2772 40.0672 27.2336 40.0685 27.1883C40.0588 26.9714 40.0417 26.7545 40.0259 26.537C40.0119 26.3425 39.9955 26.1479 39.9785 25.9316L39.5254 26.3691C39.4038 26.1386 39.2894 25.9198 39.1775 25.7005C39.1726 25.6887 39.17 25.6761 39.17 25.6633C39.17 25.6505 39.1726 25.6379 39.1775 25.6261C39.2722 25.3255 39.4576 25.0629 39.7072 24.8757C39.7385 24.8529 39.7676 24.8272 39.7942 24.7989L38.4939 22.3822L38.2896 22.4894C38.2792 22.4603 38.2701 22.438 38.2646 22.4181C38.1138 21.9051 37.9605 21.3926 37.8079 20.8826C37.79 20.8238 37.7625 20.7684 37.7264 20.719C37.5105 20.4278 37.2909 20.1384 37.072 19.8515L36.5787 19.199C36.5682 19.2255 36.5591 19.2526 36.5514 19.2802C36.4723 19.6836 36.3987 20.0857 36.3148 20.4897C36.2394 20.8529 36.1749 21.2209 36.0654 21.5748C35.9286 22.0178 35.7516 22.4485 35.5935 22.8847C35.5756 22.9313 35.5653 22.9805 35.5631 23.0304C35.5537 23.6252 35.5464 24.2201 35.5412 24.815C35.5409 24.8689 35.5484 24.9226 35.5637 24.9742C35.7927 25.7591 36.023 26.5426 36.2546 27.3246C36.2655 27.3624 36.2825 27.3977 36.3014 27.4486L36.6353 26.9101C36.6578 26.9615 36.6736 26.995 36.6876 27.0297C36.9917 27.7918 37.2958 28.5528 37.5938 29.3168C37.6327 29.4258 37.6571 29.5396 37.6662 29.6552C37.7203 30.1763 37.769 30.6987 37.817 31.2192C37.8561 31.4487 37.8712 31.6817 37.862 31.9145C37.7866 32.5224 37.6887 33.1278 37.5762 33.7295C37.5324 33.9849 37.5681 34.248 37.6783 34.4817L38.1448 34.3497C38.1448 34.3838 38.1497 34.4067 38.1503 34.4303C38.1803 36.685 38.2113 38.9396 38.2433 41.1939C38.2552 41.4108 38.2092 41.6268 38.1101 41.8191C38.0835 41.8565 38.0686 41.9012 38.0676 41.9474C38.1053 42.1284 38.1539 42.3062 38.1989 42.4859L38.4252 42.4654C38.4325 42.7833 38.4361 43.0938 38.4501 43.4036C38.4533 43.4877 38.4741 43.57 38.5109 43.6453C38.815 44.2445 39.1289 44.84 39.436 45.4386C39.4605 45.4837 39.4678 45.5364 39.4567 45.5867C39.3442 45.9182 39.2274 46.2485 39.1124 46.5769ZM33.3645 10.8571C33.0519 10.9742 32.7563 11.0858 32.4607 11.1948C32.3457 11.2542 32.2228 11.296 32.0958 11.3187C31.7139 11.3685 31.3258 11.3193 30.9676 11.1756C30.7061 11.0473 30.4202 10.9668 30.1374 10.8602C30.1374 11.1533 30.1374 11.4328 30.1374 11.7122C30.1408 11.729 30.1481 11.7448 30.1587 11.7582C30.1693 11.7715 30.1828 11.7821 30.1982 11.7891C30.5644 11.9375 30.9425 12.0532 31.3283 12.1348V14.6054H32.1961V12.3542C32.1961 12.1565 32.1961 12.164 32.3786 12.1063C32.6863 12.0066 32.9916 11.8975 33.2957 11.7878C33.3124 11.7795 33.327 11.7675 33.3384 11.7525C33.3498 11.7376 33.3576 11.7202 33.3614 11.7017C33.3669 11.4266 33.3645 11.1508 33.3645 10.8571Z"/>
</mask>
<path d="M39.1124 46.5769H37.4636C37.286 46.4802 37.1115 46.3792 36.9303 46.29C36.8271 46.241 36.7419 46.1598 36.687 46.0583C36.3975 45.547 36.1007 45.0401 35.8075 44.5314C35.7067 44.4056 35.6299 44.2616 35.5813 44.1069C35.5919 43.9415 35.6315 43.7793 35.6981 43.6279C35.7115 43.5796 35.7212 43.53 35.7388 43.4829C35.85 43.2262 35.8698 42.9381 35.7948 42.6681C35.7839 42.6228 35.7756 42.5768 35.7698 42.5305C35.7395 42.2729 35.6895 42.018 35.6202 41.7683C35.2097 40.6127 34.7803 39.4644 34.3576 38.3137C34.2475 38.0132 34.1381 37.7126 34.0268 37.4084L34.3917 37.1735C34.2792 36.8873 34.177 36.6072 34.059 36.3345C33.999 36.1926 33.9843 36.0349 34.017 35.884C34.1645 35.217 34.2303 34.5338 34.2129 33.8503C34.2111 33.7887 34.2021 33.7275 34.1861 33.6681C33.6756 32.0727 33.164 30.4777 32.6511 28.8831C32.6389 28.8459 32.6219 28.81 32.603 28.7622C32.513 28.8478 32.4315 28.9184 32.3597 28.9971C32.3347 29.0257 32.3034 29.0479 32.2685 29.0621C32.2336 29.0763 32.1959 29.082 32.1584 29.0789C31.9111 29.0723 31.6636 29.0723 31.4158 29.0789C31.3784 29.082 31.3407 29.0763 31.3057 29.0621C31.2708 29.0479 31.2396 29.0257 31.2145 28.9971C31.1391 28.9165 31.0564 28.8447 30.9712 28.7622C30.9566 28.7982 30.9463 28.818 30.939 28.8391C30.4188 30.456 29.8998 32.0731 29.3821 33.6904C29.3701 33.7307 29.3631 33.7723 29.3614 33.8143C29.3323 34.4162 29.3838 35.0193 29.5146 35.607C29.605 35.9289 29.5715 36.2737 29.421 36.5712C29.3417 36.7389 29.2729 36.9115 29.2148 37.088C29.2045 37.1159 29.1966 37.1444 29.1868 37.1748L29.5438 37.4078C29.5317 37.4443 29.5244 37.4697 29.5152 37.4958L28.2046 41.0687C28.0963 41.3662 27.9838 41.6636 27.9005 41.9691C27.8318 42.2256 27.8117 42.4958 27.76 42.7586C27.7162 42.9468 27.7257 43.1438 27.7874 43.3268C27.8646 43.5449 27.9151 43.7729 27.9826 43.9948C27.9943 44.0286 27.9981 44.0647 27.9938 44.1003C27.9894 44.1359 27.9771 44.17 27.9577 44.1999C27.5855 44.8369 27.2181 45.477 26.8453 46.114C26.8088 46.1715 26.7589 46.2187 26.6999 46.2516C26.5053 46.3644 26.3058 46.4685 26.1082 46.5757H24.4563C24.3444 46.2584 24.235 45.9399 24.1188 45.6245C24.1063 45.5928 24.1014 45.5585 24.1045 45.5244C24.1076 45.4904 24.1185 45.4576 24.1364 45.4287C24.4405 44.8505 24.7385 44.2693 25.0426 43.6936C25.098 43.5924 25.1257 43.4779 25.1229 43.3621C25.1174 43.0678 25.1229 42.7722 25.1229 42.4692L25.3692 42.4915C25.4075 42.3415 25.4526 42.1934 25.4799 42.0422C25.4948 41.9726 25.488 41.9001 25.4605 41.8346C25.3576 41.6352 25.3109 41.4107 25.3254 41.1858C25.3413 40.8717 25.3376 40.5563 25.3419 40.2415C25.367 38.3209 25.3921 36.4 25.4173 34.4786C25.4173 34.4383 25.4209 34.3981 25.4234 34.3504L25.8965 34.4842C25.9428 34.3373 25.9859 34.2023 26.0267 34.0647C26.0316 34.0422 26.0316 34.019 26.0267 33.9965C25.9415 33.4525 25.8534 32.909 25.7706 32.3643C25.7265 32.1678 25.7038 31.9668 25.7031 31.7651C25.7494 31.1145 25.8248 30.4638 25.8795 29.8163C25.9019 29.5618 25.9635 29.3126 26.062 29.0776C26.2955 28.5051 26.5199 27.9282 26.748 27.3525C26.8046 27.2106 26.8617 27.0687 26.9304 26.9057L27.271 27.4554C27.2868 27.4108 27.296 27.3866 27.3033 27.3612C27.5161 26.6411 27.7241 25.9198 27.9437 25.2017C28.0087 24.9948 28.0375 24.7779 28.0288 24.5609C28.0167 24.2623 27.9984 23.9617 28.0155 23.6637C28.0421 23.1983 27.9576 22.7333 27.7691 22.3085C27.6267 21.995 27.5116 21.6695 27.4249 21.3356C27.2917 20.7779 27.2005 20.2109 27.0904 19.6482C27.0624 19.5039 27.0296 19.3607 26.9961 19.1947C26.5893 19.735 26.1982 20.2518 25.8102 20.7705C25.7879 20.8064 25.7719 20.8461 25.7627 20.8876C25.6139 21.3808 25.4663 21.8741 25.32 22.3673C25.3072 22.4095 25.2908 22.4504 25.2744 22.4956L25.073 22.3865L23.7715 24.8063C23.8281 24.8534 23.8725 24.8974 23.9224 24.9302C24.0685 25.0467 24.1874 25.1949 24.2702 25.364C24.3365 25.452 24.3713 25.5604 24.3688 25.6713C24.3664 25.7822 24.3269 25.8889 24.2569 25.9738C24.1771 26.1017 24.1059 26.235 24.044 26.3728L23.5891 25.9335C23.5641 26.2904 23.5568 26.6219 23.5112 26.9472C23.4908 27.0528 23.499 27.1619 23.5347 27.2631C23.5705 27.3643 23.6326 27.4537 23.7144 27.5217C23.7508 27.5551 23.7752 27.6029 23.8117 27.6363C23.8621 27.6822 23.8542 27.7218 23.8238 27.7776C23.687 28.0286 23.5581 28.2845 23.4194 28.5342C23.4057 28.5557 23.3878 28.5743 23.3669 28.5886C23.346 28.603 23.3225 28.6129 23.2977 28.6179C23.1153 28.6433 22.9328 28.6619 22.7504 28.6761C22.7097 28.6771 22.6699 28.6642 22.6373 28.6395C22.4025 28.4594 22.17 28.2766 21.9397 28.0911C21.9053 28.0618 21.8807 28.0225 21.8691 27.9784C21.7663 27.5533 21.6696 27.1263 21.565 26.7006C21.5042 26.4577 21.4434 26.216 21.3826 25.9738V25.8573C21.4045 25.8174 21.4236 25.776 21.4397 25.7333C21.6017 25.3321 21.7346 24.9193 21.8375 24.4983C21.8732 24.3954 21.8785 24.284 21.8526 24.1781C21.8268 24.0721 21.771 23.9762 21.6921 23.9022C21.6672 23.8805 21.6514 23.8452 21.6264 23.8217C21.5934 23.7874 21.5689 23.7455 21.5549 23.6996C21.5409 23.6537 21.5379 23.605 21.5462 23.5577C21.5802 23.1004 21.607 22.6425 21.641 22.1858C21.6466 22.074 21.6694 21.9638 21.7086 21.8592C22.0808 20.9545 22.4597 20.0523 22.8374 19.1494C22.8532 19.1122 22.872 19.0763 22.8982 19.0255L23.1919 19.5683C23.2156 19.5138 23.2296 19.4828 23.2424 19.4512L23.7776 18.1406C23.8244 18.026 23.9217 17.9002 23.8992 17.7992C23.8767 17.6982 23.7387 17.6133 23.6602 17.5147C23.628 17.4751 23.6108 17.425 23.6116 17.3735C23.6521 16.9839 23.6981 16.5946 23.7496 16.2054C23.756 16.1494 23.7814 16.0975 23.8214 16.0585C24.6684 15.3765 25.5176 14.6971 26.3691 14.0205C26.3812 14.0096 26.3954 14.0014 26.4108 13.9964C26.4262 13.9914 26.4424 13.9897 26.4585 13.9914C26.731 14.0893 27.0545 14.0942 27.2047 14.4158C27.2047 14.4208 27.2175 14.422 27.2455 14.4338C27.3063 14.3669 27.3671 14.2882 27.4419 14.2212C27.4697 14.2019 27.4888 14.1722 27.4952 14.1385C27.5016 14.1049 27.4947 14.07 27.476 14.0415C27.3367 13.7354 27.2041 13.4262 27.0697 13.1182C27.0053 12.9714 26.9438 12.8233 26.8775 12.6709L28.9855 11.667L29.6278 13.231L30.0073 13.1598C29.9915 13.117 29.9811 13.0829 29.9677 13.0519C29.7676 12.5649 29.584 12.071 29.3595 11.5951C29.1861 11.2081 29.1007 10.7861 29.1096 10.3607C29.0959 9.96987 29.1914 9.58306 29.3851 9.24536C29.5021 9.01109 29.6652 8.80394 29.8643 8.63685C30.0085 8.52841 30.1386 8.40138 30.2773 8.28612C30.3125 8.25701 30.3522 8.23398 30.3947 8.21796C30.8234 8.04647 31.2842 7.9747 31.7436 8.00789C31.8884 8.01776 32.0337 8.01776 32.1785 8.00789C32.7059 8.01203 33.2143 8.20882 33.6114 8.56249C33.8728 8.77014 34.0814 9.03877 34.2196 9.34574C34.2701 9.46968 34.3412 9.57812 34.3972 9.69771C34.423 9.75257 34.4375 9.81226 34.4397 9.87308C34.4438 10.2193 34.4438 10.5654 34.4397 10.9116C34.4387 10.9733 34.4263 11.0343 34.4032 11.0913C34.1373 11.7436 33.8699 12.3947 33.601 13.0445C33.5858 13.0817 33.5743 13.1201 33.5585 13.1653L33.938 13.2323L34.5796 11.6707L36.6882 12.6752C36.6675 12.7266 36.6517 12.7644 36.6347 12.8035C36.4522 13.2215 36.2698 13.6402 36.0873 14.0595C36.0733 14.0917 36.0557 14.1463 36.0703 14.1624C36.1542 14.2603 36.2467 14.3483 36.3561 14.4604C36.4583 14.1729 36.687 14.1091 36.9199 14.0521C36.9645 14.0415 37.008 14.027 37.0501 14.0087C37.0789 13.9952 37.1112 13.9912 37.1424 13.9973C37.1736 14.0034 37.2022 14.0193 37.224 14.0428C38.0542 14.7095 38.8868 15.372 39.7176 16.04C39.7701 16.0863 39.8052 16.1498 39.8167 16.2197C39.8629 16.5425 39.886 16.8684 39.9384 17.1894C39.9639 17.2737 39.962 17.3642 39.9331 17.4473C39.9042 17.5305 39.8497 17.602 39.7778 17.6511C39.7529 17.6684 39.7358 17.6969 39.7121 17.713C39.6996 17.7212 39.6888 17.7318 39.6803 17.7443C39.6719 17.7567 39.6659 17.7708 39.6628 17.7856C39.6597 17.8004 39.6595 17.8157 39.6622 17.8305C39.6649 17.8454 39.6705 17.8596 39.6787 17.8723C39.9 18.4046 40.1147 18.9387 40.3331 19.4723C40.344 19.4977 40.3604 19.5237 40.3805 19.5609L40.6706 19.0224C40.6901 19.0614 40.6992 19.0782 40.7065 19.0955C41.0998 20.0378 41.4927 20.9803 41.8852 21.923C41.8993 21.9586 41.9077 21.9963 41.9101 22.0346C41.9405 22.4683 41.9478 22.9064 42.0062 23.3359C42.0299 23.4623 42.021 23.5928 41.9804 23.7147C41.9398 23.8365 41.8688 23.9456 41.7745 24.0311C41.7384 24.0623 41.7121 24.1036 41.6987 24.1498C41.6853 24.196 41.6854 24.2452 41.6991 24.2914C41.7264 24.4116 41.724 24.5392 41.7599 24.6582C41.8432 24.9358 41.9423 25.2091 42.0342 25.483C42.078 25.6069 42.1321 25.7309 42.182 25.8548V25.9713C42.1718 25.9911 42.1634 26.0119 42.157 26.0332C42.0062 26.6744 41.8539 27.3147 41.7003 27.9542C41.6875 28.0093 41.6584 28.0591 41.617 28.0967C41.3907 28.2826 41.1602 28.4605 40.9285 28.6383C40.8958 28.663 40.856 28.6759 40.8154 28.6749C40.6293 28.66 40.4431 28.6408 40.2583 28.6129C40.2372 28.6088 40.2172 28.6003 40.1994 28.5881C40.1816 28.5758 40.1665 28.56 40.1549 28.5416C40.0132 28.2851 39.88 28.0224 39.7401 27.764C39.7262 27.7439 39.7203 27.7193 39.7236 27.695C39.7269 27.6708 39.7391 27.6487 39.7577 27.6332C39.8496 27.5291 39.9402 27.4219 40.0229 27.3122C40.0511 27.2772 40.0672 27.2336 40.0685 27.1883C40.0588 26.9714 40.0417 26.7545 40.0259 26.537C40.0119 26.3425 39.9955 26.1479 39.9785 25.9316L39.5254 26.3691C39.4038 26.1386 39.2894 25.9198 39.1775 25.7005C39.1726 25.6887 39.17 25.6761 39.17 25.6633C39.17 25.6505 39.1726 25.6379 39.1775 25.6261C39.2722 25.3255 39.4576 25.0629 39.7072 24.8757C39.7385 24.8529 39.7676 24.8272 39.7942 24.7989L38.4939 22.3822L38.2896 22.4894C38.2792 22.4603 38.2701 22.438 38.2646 22.4181C38.1138 21.9051 37.9605 21.3926 37.8079 20.8826C37.79 20.8238 37.7625 20.7684 37.7264 20.719C37.5105 20.4278 37.2909 20.1384 37.072 19.8515L36.5787 19.199C36.5682 19.2255 36.5591 19.2526 36.5514 19.2802C36.4723 19.6836 36.3987 20.0857 36.3148 20.4897C36.2394 20.8529 36.1749 21.2209 36.0654 21.5748C35.9286 22.0178 35.7516 22.4485 35.5935 22.8847C35.5756 22.9313 35.5653 22.9805 35.5631 23.0304C35.5537 23.6252 35.5464 24.2201 35.5412 24.815C35.5409 24.8689 35.5484 24.9226 35.5637 24.9742C35.7927 25.7591 36.023 26.5426 36.2546 27.3246C36.2655 27.3624 36.2825 27.3977 36.3014 27.4486L36.6353 26.9101C36.6578 26.9615 36.6736 26.995 36.6876 27.0297C36.9917 27.7918 37.2958 28.5528 37.5938 29.3168C37.6327 29.4258 37.6571 29.5396 37.6662 29.6552C37.7203 30.1763 37.769 30.6987 37.817 31.2192C37.8561 31.4487 37.8712 31.6817 37.862 31.9145C37.7866 32.5224 37.6887 33.1278 37.5762 33.7295C37.5324 33.9849 37.5681 34.248 37.6783 34.4817L38.1448 34.3497C38.1448 34.3838 38.1497 34.4067 38.1503 34.4303C38.1803 36.685 38.2113 38.9396 38.2433 41.1939C38.2552 41.4108 38.2092 41.6268 38.1101 41.8191C38.0835 41.8565 38.0686 41.9012 38.0676 41.9474C38.1053 42.1284 38.1539 42.3062 38.1989 42.4859L38.4252 42.4654C38.4325 42.7833 38.4361 43.0938 38.4501 43.4036C38.4533 43.4877 38.4741 43.57 38.5109 43.6453C38.815 44.2445 39.1289 44.84 39.436 45.4386C39.4605 45.4837 39.4678 45.5364 39.4567 45.5867C39.3442 45.9182 39.2274 46.2485 39.1124 46.5769ZM33.3645 10.8571C33.0519 10.9742 32.7563 11.0858 32.4607 11.1948C32.3457 11.2542 32.2228 11.296 32.0958 11.3187C31.7139 11.3685 31.3258 11.3193 30.9676 11.1756C30.7061 11.0473 30.4202 10.9668 30.1374 10.8602C30.1374 11.1533 30.1374 11.4328 30.1374 11.7122C30.1408 11.729 30.1481 11.7448 30.1587 11.7582C30.1693 11.7715 30.1828 11.7821 30.1982 11.7891C30.5644 11.9375 30.9425 12.0532 31.3283 12.1348V14.6054H32.1961V12.3542C32.1961 12.1565 32.1961 12.164 32.3786 12.1063C32.6863 12.0066 32.9916 11.8975 33.2957 11.7878C33.3124 11.7795 33.327 11.7675 33.3384 11.7525C33.3498 11.7376 33.3576 11.7202 33.3614 11.7017C33.3669 11.4266 33.3645 11.1508 33.3645 10.8571Z" stroke="white" stroke-width="0.6" mask="url(#path-17-inside-1_461_6)"/>
<rect y="53" width="53" height="4" fill="#161215"/>
</svg>
