<svg width="50" height="55" viewBox="0 0 50 55" fill="none" xmlns="http://www.w3.org/2000/svg">
<g clip-path="url(#clip0_476_197)">
<rect width="50" height="55" fill="white"/>
<path d="M50 0L0 0L0 50L50 50L50 0Z" fill="#161215"/>
<rect y="50" width="50" height="5" fill="#00D1FF"/>
<g filter="url(#filter0_d_476_197)">
<path d="M32.0669 6.5931C31.9905 6.52601 31.9119 6.46046 31.8378 6.39106C31.6921 6.25534 31.4546 6.23915 31.3034 6.3687C30.9788 6.64785 30.658 6.93163 30.3364 7.21464C30.3009 7.24625 30.2678 7.28095 30.2385 7.31797C30.0179 7.59481 30.0141 7.69428 30.2285 7.97035C30.4791 8.29269 30.7135 8.63122 30.9942 8.92579C31.2155 9.15868 31.4954 9.33604 31.7499 9.5373C31.79 9.56892 31.8409 9.59051 31.8748 9.62753C31.9635 9.72469 32.0399 9.74551 32.1363 9.63138C32.2026 9.55273 32.2674 9.61982 32.3167 9.66917C32.5187 9.87121 32.7169 10.0771 32.9197 10.2784C33.6369 10.9917 34.3579 11.7027 35.0735 12.4183C35.6403 12.9851 36.2002 13.5588 36.7662 14.1264C37.7216 15.0841 38.6794 16.0403 39.6364 16.9965C39.8469 17.207 40.0597 17.4145 40.271 17.6235C40.3404 17.6921 40.3643 17.7569 40.3196 17.8648C40.2594 18.0098 40.2903 18.1687 40.3975 18.2882C40.5077 18.4123 40.635 18.5211 40.7568 18.6344C41.0067 18.8665 41.2557 19.1002 41.5095 19.3277C41.7038 19.502 41.902 19.6732 42.1055 19.8374C42.2482 19.9523 42.3191 19.9484 42.4441 19.8189C42.8443 19.4002 43.2422 18.9807 43.6332 18.5542C43.7558 18.4208 43.7357 18.2782 43.6 18.1463C43.2137 17.7708 42.8242 17.3975 42.4379 17.0212C42.2929 16.8801 42.151 16.7359 42.0084 16.5925C41.9343 16.5184 41.8557 16.4722 41.7431 16.5038C41.6375 16.5338 41.5465 16.5076 41.4632 16.4243C40.9087 15.8684 40.352 15.3139 39.7921 14.7633C39.3904 14.3685 38.9817 13.9814 38.5784 13.5881C38.2429 13.2611 37.9105 12.9311 37.5797 12.601C36.9482 11.9702 36.3197 11.3364 35.6866 10.7071C35.0735 10.0972 34.4566 9.49181 33.8436 8.88261C33.7364 8.77619 33.6346 8.66515 33.5374 8.54948C33.5097 8.51632 33.4888 8.45694 33.4965 8.41607C33.5282 8.25182 33.4927 8.10916 33.3832 7.98423C33.2467 7.82923 33.1094 7.67578 32.9737 7.52078C32.9575 7.50227 32.946 7.47914 32.9328 7.45754C32.9413 7.44906 32.949 7.44135 32.9575 7.43287C33.1287 7.5871 33.3038 7.7367 33.4703 7.89555C33.6708 8.08679 33.8528 8.29731 34.0626 8.47776C34.4389 8.80241 34.7689 9.1687 35.0974 9.53962C35.3496 9.8234 35.628 10.084 35.8979 10.3524C36.0297 10.4835 36.1716 10.6046 36.3043 10.7349C36.6119 11.0372 36.915 11.3433 37.2227 11.6448C37.3129 11.7335 37.4232 11.8021 37.5103 11.8931C37.8242 12.224 38.1272 12.564 38.4426 12.8933C38.6701 13.1308 38.9084 13.3575 39.1436 13.5873C39.2855 13.7261 39.4289 13.8618 39.5739 13.9976C39.8129 14.2227 40.0628 14.4371 40.2911 14.6731C40.6327 15.0255 40.955 15.3956 41.2935 15.7511C41.5195 15.9879 41.7593 16.2123 41.9914 16.4429C42.168 16.6179 42.3415 16.7968 42.5196 16.9695C42.6877 17.1322 42.8628 17.2872 43.0324 17.4484C43.0988 17.5109 43.1551 17.5834 43.2214 17.6458C43.4373 17.8486 43.6501 18.0561 43.8745 18.2481C44.0164 18.3692 44.0488 18.6229 43.9154 18.7563C43.4967 19.1735 43.0733 19.586 42.6592 20.0078C42.5335 20.1358 42.4063 20.1836 42.2336 20.122C42.1865 20.105 42.1148 20.1196 42.0693 20.1459C41.9536 20.2129 41.8364 20.2369 41.7045 20.2207C41.3784 20.1806 41.0514 20.1451 40.7244 20.1081C40.5039 20.0834 40.2833 20.0595 40.0628 20.034C40.0312 20.0302 39.9988 20.0279 39.9695 20.0163C39.5862 19.8605 39.1768 19.8806 38.7765 19.8312C38.5174 19.7996 38.2583 19.7657 38.0015 19.721C37.8573 19.6955 37.7586 19.7325 37.6553 19.8413C37.2944 20.2207 36.9219 20.5885 36.5533 20.9602C36.5264 20.9872 36.4924 21.0072 36.4408 21.0465C36.4346 20.9895 36.4261 20.9525 36.4269 20.9162C36.4369 20.3965 36.45 19.8775 36.4577 19.3578C36.46 19.195 36.4647 19.03 36.4354 18.8719C36.4184 18.7794 36.3498 18.6869 36.2834 18.6136C35.9997 18.2982 35.7089 17.9882 35.4182 17.6798C35.3234 17.5795 35.284 17.4685 35.3103 17.3327C35.3396 17.1777 35.2578 17.0721 35.1553 16.9688C34.5368 16.3418 33.9245 15.7087 33.3053 15.0826C32.8341 14.606 32.356 14.1356 31.8802 13.6637C31.7538 13.538 31.6196 13.42 31.4939 13.2935C31.4237 13.2226 31.3667 13.2295 31.3027 13.2951C31.1939 13.4053 31.0829 13.5125 30.9749 13.6236C29.782 14.8443 28.5906 16.065 27.3976 17.2857C27.0591 17.6319 26.719 17.9766 26.382 18.3237C26.244 18.4655 26.2394 18.6915 26.3759 18.8388C26.5185 18.9938 26.6689 19.1411 26.8185 19.2884C27.2673 19.731 27.7192 20.1713 28.168 20.6147C28.5744 21.0165 28.9777 21.4198 29.3818 21.8239C29.502 21.9442 29.6162 22.0714 29.7365 22.1917C29.8529 22.3074 29.9925 22.3744 30.1598 22.3845C30.3102 22.3937 30.4382 22.4492 30.5508 22.5595C30.8616 22.8657 31.1816 23.1626 31.4978 23.4633C31.5857 23.5466 31.6882 23.5782 31.8108 23.5828C32.4362 23.6067 33.0616 23.6376 33.6878 23.6684C33.7294 23.6707 33.7703 23.6869 33.7973 23.6939C33.7132 23.7926 33.6361 23.8967 33.5459 23.9869C33.3392 24.1951 33.1249 24.3956 32.9151 24.6015C32.8388 24.6763 32.7655 24.7203 32.6444 24.711C32.5434 24.7041 32.4385 24.7665 32.3344 24.7966C32.2604 24.8182 32.1872 24.849 32.1124 24.856C31.955 24.8691 31.7962 24.8683 31.6373 24.8737C31.598 24.8752 31.5564 24.8845 31.5193 24.876C31.17 24.8004 30.8176 24.8367 30.466 24.8483C30.3387 24.8521 30.2254 24.8205 30.129 24.7272C29.4889 24.1111 28.8427 23.5003 28.2058 22.8811C27.7647 22.4523 27.339 22.0089 26.9002 21.5779C26.3712 21.0581 25.8376 20.5422 25.3017 20.0294C25.1343 19.869 25.1266 19.6816 25.1405 19.4673C25.1582 19.1974 25.1351 18.9251 25.1312 18.6537C25.1297 18.5573 25.1312 18.4601 25.1312 18.3638C25.132 18.2118 25.122 18.0592 25.1366 17.9088C25.1459 17.8139 25.179 17.7168 25.2222 17.6304C25.2693 17.5348 25.2939 17.453 25.2369 17.3513C25.2184 17.3181 25.2299 17.2433 25.2569 17.2132C25.4405 17.0066 25.6286 16.8037 25.8206 16.6048C25.9386 16.4822 26.0659 16.3688 26.1869 16.2501C26.4692 15.9732 26.7514 15.6964 27.0313 15.4172C27.1154 15.3332 27.1886 15.2383 27.2727 15.155C27.5464 14.8859 27.8248 14.6214 28.097 14.3515C28.2119 14.2374 28.3114 14.1071 28.4271 13.9929C28.6692 13.7531 28.9198 13.5218 29.1627 13.2827C29.3093 13.1378 29.4519 12.9882 29.5892 12.8347C29.7604 12.6435 29.9447 12.473 30.1891 12.379C30.2331 12.362 30.2724 12.3327 30.3133 12.3095C30.3773 12.2733 30.385 12.2255 30.3333 12.1754C30.2585 12.1029 30.2593 12.0319 30.2848 11.9301C30.3094 11.8314 30.294 11.7065 30.2539 11.6109C30.1529 11.3664 30.1367 11.1112 30.1128 10.8552C30.0904 10.6107 30.065 10.3663 30.0326 10.1234C30.021 10.0378 29.9748 9.95758 29.9632 9.87198C29.9061 9.44477 29.8575 9.01679 29.8005 8.58958C29.7797 8.43303 29.745 8.27804 29.7195 8.12149C29.7133 8.08448 29.7049 8.02587 29.7249 8.00968C29.8676 7.89015 29.7789 7.7367 29.7974 7.59943C29.8059 7.54083 29.8174 7.47065 29.8552 7.43133C30.0118 7.26939 30.1807 7.11901 30.341 6.96016C30.476 6.82675 30.6063 6.68718 30.7382 6.54991C30.8916 6.38952 31.0443 6.22835 31.197 6.06718C31.2579 6.00318 31.6319 5.97156 31.6805 6.03325C31.8193 6.20984 31.9527 6.39183 32.0884 6.57151C32.0807 6.5769 32.0738 6.58539 32.0669 6.5931Z" fill="#00D1FF"/>
<path d="M13.4901 28.9345C13.4901 29.4966 13.4901 30.0542 13.4901 30.6125C13.4901 30.7551 13.4924 30.8978 13.4901 31.0405C13.4886 31.1669 13.5341 31.2703 13.6243 31.3589C13.9088 31.6404 14.1926 31.9234 14.4756 32.2064C14.5312 32.2627 14.5928 32.3167 14.6337 32.3822C14.6615 32.4277 14.68 32.501 14.6638 32.5473C14.5836 32.7678 14.6499 32.9344 14.8142 33.0878C15.0864 33.3423 15.3501 33.606 15.6161 33.8675C16.0773 34.3209 16.5384 34.7735 16.9965 35.2308C17.4592 35.6927 17.9203 36.1577 18.3768 36.6258C18.464 36.7153 18.5465 36.7199 18.639 36.6582C18.7115 36.6104 18.7809 36.5564 18.8418 36.4947C19.4186 35.9156 19.9908 35.3318 20.5699 34.755C21.5593 33.7695 22.5556 32.7902 23.5411 31.8008C23.6429 31.699 23.6985 31.5494 23.7632 31.416C23.7779 31.3859 23.754 31.3196 23.7262 31.2895C23.4949 31.0397 23.2643 30.7883 23.0222 30.5485C22.5942 30.1243 22.1577 29.7079 21.7266 29.2869C21.429 28.9962 21.1136 28.7209 20.8445 28.4055C20.5923 28.1101 20.2993 27.8649 20.0163 27.6058C19.9091 27.5079 19.8096 27.4901 19.6993 27.5696C19.5605 27.669 19.4865 27.6251 19.3808 27.5117C19.1626 27.2765 18.949 27.0359 18.7331 26.7977C18.6529 26.7097 18.5665 26.6272 18.4894 26.5378C18.3707 26.3997 18.218 26.3558 18.0429 26.3566C17.4399 26.3596 16.8369 26.3596 16.2338 26.3604C16.1922 26.3604 16.1505 26.3558 16.085 26.3519C16.1205 26.308 16.1374 26.2833 16.1583 26.2617C16.3163 26.1013 16.4752 25.9425 16.6325 25.7813C16.7705 25.6394 16.9055 25.4944 17.0451 25.3541C17.0744 25.324 17.1152 25.297 17.1546 25.287C17.3944 25.2245 17.6342 25.1636 17.8756 25.1104C17.935 25.0973 18.0013 25.1173 18.0645 25.1173C18.1455 25.1173 18.2272 25.105 18.3082 25.1096C18.4223 25.1158 18.5349 25.1312 18.6483 25.1428C18.6914 25.1474 18.7377 25.1636 18.7778 25.1536C19.0855 25.0749 19.3901 25.1837 19.697 25.1698C19.768 25.1667 19.8551 25.24 19.9137 25.2986C20.5044 25.8916 21.0897 26.4907 21.6788 27.0853C22.386 27.7978 23.097 28.5073 23.8041 29.2198C24.0694 29.4874 24.3316 29.7588 24.5907 30.0326C24.7403 30.1899 24.8698 30.3673 24.8729 30.594C24.8752 30.7567 24.8073 30.9263 24.8366 31.0806C24.869 31.2525 24.768 31.4044 24.8359 31.5864C24.8976 31.753 24.8474 31.9589 24.8582 32.147C24.8667 32.2874 24.7904 32.3799 24.7194 32.4863C24.677 32.5496 24.6678 32.6437 24.6662 32.7239C24.6647 32.8241 24.6292 32.895 24.5598 32.9637C24.091 33.431 23.6252 33.9022 23.1563 34.3702C22.7492 34.7759 22.3374 35.1768 21.931 35.5825C21.3873 36.1261 20.8468 36.6736 20.3039 37.218C20.1944 37.3276 20.0826 37.4347 19.9638 37.5334C19.9183 37.5712 19.8512 37.5874 19.7911 37.6028C19.6207 37.6453 19.5659 37.7686 19.6338 37.9283C19.6793 38.0347 19.7194 38.1511 19.7248 38.2645C19.7394 38.5714 19.7957 38.8652 19.8813 39.1621C19.9546 39.4158 19.9507 39.6926 19.9692 39.9602C19.99 40.2571 20.0379 40.5471 20.1142 40.8362C20.1767 41.0707 20.1867 41.319 20.2121 41.5626C20.2268 41.7014 20.2522 41.8464 20.2291 41.9806C20.1875 42.2158 20.2314 42.4664 20.0101 42.6677C19.5998 43.0409 19.2228 43.4504 18.8318 43.8452C18.686 43.9925 18.447 43.9902 18.2928 43.8444C18.0144 43.5807 17.726 43.327 17.453 43.0571C17.2193 42.8265 17.0019 42.5805 16.7775 42.3407C16.7836 42.333 16.7898 42.3253 16.7952 42.3176C16.8153 42.3284 16.8384 42.3353 16.8538 42.35C17.2533 42.7301 17.6512 43.1111 18.0499 43.492C18.1301 43.5684 18.2087 43.647 18.2951 43.7164C18.3228 43.7388 18.3799 43.7496 18.4108 43.7365C18.4786 43.7072 18.5465 43.6671 18.6005 43.617C18.959 43.28 19.3138 42.9399 19.6693 42.5998C19.7232 42.5474 19.7726 42.4903 19.8235 42.4348C19.8859 42.3669 19.8805 42.2975 19.8651 42.2065C19.8104 41.8858 19.5474 41.7346 19.3431 41.5403C18.9182 41.1362 18.4794 40.746 18.0429 40.3543C18.0082 40.3227 17.9419 40.3026 17.8964 40.3103C17.7167 40.3404 17.5856 40.2756 17.4615 40.1491C17.1245 39.8075 16.7783 39.4759 16.4374 39.1382C16.3534 39.0549 16.2793 38.9601 16.196 38.876C15.6508 38.3277 15.1064 37.7787 14.5589 37.2335C14.0978 36.7746 13.6305 36.3228 13.1693 35.8639C12.7367 35.4329 12.3103 34.9964 11.8792 34.5638C11.5183 34.2014 11.1536 33.842 10.7942 33.478C10.4904 33.1703 10.1912 32.858 9.89044 32.548C9.85188 32.5079 9.81873 32.4601 9.77477 32.4285C9.67298 32.356 9.6136 32.2828 9.69689 32.1548C9.71616 32.1255 9.69843 32.0614 9.68069 32.0213C9.65833 31.972 9.62131 31.9273 9.5843 31.8864C9.33599 31.6142 9.08692 31.3427 8.83552 31.0736C8.59493 30.8168 8.35819 30.5546 8.10371 30.3125C8.00809 30.2207 7.87083 30.1668 7.74436 30.1166C7.69115 30.0958 7.61481 30.1259 7.55158 30.1444C7.51533 30.1544 7.4814 30.1822 7.45287 30.2092C7.10432 30.5392 6.75037 30.8639 6.41492 31.207C6.32007 31.3034 6.27997 31.4546 6.21982 31.5833C6.20825 31.608 6.20903 31.6535 6.22445 31.6736C6.3085 31.7823 6.39487 31.891 6.48972 31.9913C6.58226 32.0892 6.68559 32.1771 6.7843 32.2697C6.77581 32.2789 6.76733 32.2889 6.75885 32.2982C6.72106 32.272 6.67942 32.2504 6.64626 32.2188C6.4635 32.0437 6.2792 31.8702 6.10184 31.689C5.95455 31.5378 5.97229 31.3042 6.12112 31.1561C6.43574 30.843 6.74497 30.5246 7.05651 30.2092C7.17912 30.085 7.30173 29.9616 7.42742 29.8406C7.45056 29.8182 7.48912 29.8005 7.52073 29.8005C7.65414 29.7997 7.78909 29.8167 7.92172 29.8066C8.09369 29.7935 8.26411 29.7573 8.4353 29.7365C8.49314 29.7295 8.55406 29.7334 8.61112 29.7442C8.99978 29.8159 9.38766 29.8891 9.77554 29.9655C9.86114 29.9825 9.94442 30.0094 10.0277 30.0334C10.1349 30.0642 10.2375 30.0565 10.3508 30.0434C10.5066 30.0249 10.6739 30.0588 10.8289 30.1004C11.0718 30.1652 11.3132 30.2231 11.5669 30.2015C11.7589 30.1853 11.9108 30.277 12.055 30.3881C12.1692 30.476 12.1907 30.4744 12.2895 30.3673C12.3604 30.2901 12.4383 30.2177 12.3542 30.0997C12.3442 30.085 12.3673 30.0334 12.3882 30.0125C12.739 29.6624 13.0914 29.3139 13.4446 28.9653C13.4631 28.953 13.4793 28.943 13.4901 28.9345Z" fill="#00D1FF"/>
<path d="M15.0186 32.7424C15.0347 32.555 15.1311 32.4277 15.2491 32.3098C15.8915 31.6682 16.5331 31.0243 17.1747 30.3819C17.9142 29.6408 18.6537 28.899 19.3955 28.1603C19.4727 28.0831 19.5652 28.0176 19.6593 27.9613C19.8428 27.8518 19.8775 27.848 20.034 28.0006C20.4975 28.451 20.9525 28.9106 21.4113 29.3656C21.9881 29.9385 22.5649 30.5115 23.1417 31.0852C23.2173 31.1608 23.2867 31.2433 23.3623 31.3188C23.4324 31.389 23.4278 31.4561 23.3654 31.5263C23.3075 31.5911 23.2528 31.6597 23.1911 31.7214C21.793 33.1117 20.3949 34.5021 18.9961 35.8909C18.8781 36.0081 18.7516 36.1169 18.6313 36.2318C18.5504 36.3089 18.4894 36.2919 18.4139 36.2156C17.9512 35.7475 17.4862 35.281 17.0181 34.8183C16.4482 34.2546 15.8745 33.6955 15.3031 33.1341C15.2352 33.0678 15.1643 33.0022 15.1072 32.9274C15.0671 32.8735 15.0479 32.8041 15.0186 32.7424Z" fill="#00D1FF"/>
<path d="M34.9077 17.2873C34.853 17.3783 34.8206 17.4654 34.7612 17.5255C34.233 18.063 33.7001 18.5967 33.1673 19.1295C32.2774 20.0186 31.3867 20.9062 30.4968 21.7946C30.4629 21.8285 30.4297 21.8617 30.3958 21.8956C30.2261 22.0606 30.1282 22.0691 29.947 21.911C29.8128 21.7938 29.6902 21.6635 29.5645 21.5362C28.6646 20.6294 27.7647 19.7225 26.8648 18.8157C26.837 18.7871 26.8092 18.7586 26.783 18.7293C26.6396 18.5689 26.6404 18.5118 26.7884 18.3622C28.2659 16.8716 29.7426 15.3795 31.224 13.8935C31.5193 13.5966 31.4245 13.6012 31.7222 13.905C32.5272 14.7271 33.3338 15.5468 34.1381 16.3688C34.3463 16.5817 34.5546 16.7945 34.7527 17.0158C34.8167 17.0868 34.8514 17.1862 34.9077 17.2873Z" fill="#00D1FF"/>
<path d="M35.9919 21.9774C36.1307 22.1764 36.2517 22.3622 36.3867 22.538C36.5047 22.6915 36.6427 22.8288 36.7638 22.9807C36.8208 23.0524 36.8579 23.1403 36.9018 23.2213C36.9149 23.2452 36.918 23.2745 36.9303 23.2991C37.0684 23.5706 37.2195 23.8359 37.3421 24.1142C37.4748 24.4142 37.5958 24.7211 37.6922 25.0342C37.7678 25.2802 37.7917 25.5416 37.848 25.7938C37.9459 26.2326 37.875 26.676 37.8881 27.1171C37.892 27.2458 37.8387 27.38 37.7986 27.5073C37.6706 27.9067 37.5388 28.3046 37.4023 28.701C37.3576 28.8313 37.309 28.9647 37.2357 29.0796C37.0907 29.3063 36.9465 29.54 36.7646 29.7358C36.5841 29.9317 36.362 30.0898 36.1507 30.2556C35.995 30.3774 35.8222 30.4784 35.6657 30.5995C35.3171 30.871 34.9053 30.9951 34.4982 31.1424C34.1365 31.2727 33.7694 31.2234 33.4047 31.2519C33.1009 31.2766 32.7963 31.2966 32.4917 31.292C32.3297 31.2897 32.1593 31.2542 32.0082 31.1948C31.8123 31.1177 31.6172 31.0684 31.409 31.0637C31.1591 31.0583 30.9332 30.9889 30.7103 30.8625C30.4566 30.719 30.1783 30.618 29.906 30.5101C29.7187 30.4353 29.5637 30.3196 29.4056 30.1978C29.0724 29.9417 28.7177 29.715 28.3823 29.4621C28.1933 29.3194 28.026 29.149 27.851 28.9894C27.7314 28.8799 27.6096 28.7711 27.4986 28.6539C27.1932 28.3324 26.894 28.0039 26.5878 27.6831C26.5377 27.6306 26.5354 27.5921 26.5763 27.5412C26.5863 27.5288 26.594 27.515 26.6048 27.5034C26.9017 27.1949 27.1955 26.8842 27.497 26.5796C27.5865 26.4893 27.6543 26.5079 27.7391 26.5973C27.9265 26.7939 28.1162 26.9898 28.3113 27.1795C28.6437 27.5026 28.9753 27.8257 29.3184 28.1373C29.4758 28.2799 29.6601 28.3933 29.8297 28.5236C29.9554 28.62 30.0865 28.7118 30.1983 28.8228C30.4643 29.085 30.7959 29.2146 31.1399 29.3295C31.2764 29.3757 31.4013 29.4559 31.5355 29.5107C31.6396 29.5531 31.7468 29.5916 31.8563 29.6132C32.0537 29.6518 32.2557 29.6711 32.4531 29.7096C32.7184 29.7613 32.9813 29.7428 33.2451 29.7089C33.2998 29.7019 33.3607 29.6749 33.4086 29.6903C33.707 29.7844 33.9769 29.6657 34.2553 29.5932C34.5899 29.506 34.856 29.3156 35.0889 29.068C35.139 29.0148 35.1991 28.9547 35.2655 28.9339C35.5007 28.8621 35.6109 28.6709 35.7389 28.4881C35.9171 28.2329 36.0057 27.9437 36.0859 27.6484C36.1137 27.5466 36.1631 27.4456 36.2248 27.3607C36.3265 27.2219 36.3397 27.07 36.3343 26.9096C36.3296 26.7793 36.3211 26.6474 36.3289 26.5179C36.3558 26.0768 36.2787 25.6488 36.143 25.2347C36.079 25.0381 35.9533 24.8622 35.8569 24.6756C35.7867 24.5391 35.7166 24.4019 35.651 24.2623C35.5084 23.9616 35.3233 23.6909 35.0734 23.4711C34.7997 23.2305 34.7935 23.2028 35.0395 22.946C35.2971 22.6768 35.5554 22.4077 35.8153 22.1401C35.8654 22.0861 35.924 22.0391 35.9919 21.9774Z" fill="#00D1FF"/>
<path d="M14.057 27.9104C13.6151 27.5464 13.3128 27.1115 13.0283 26.6635C12.9936 26.6087 12.9804 26.5401 12.9588 26.4784C12.9457 26.4414 12.9419 26.3998 12.9226 26.3666C12.7892 26.1368 12.6596 25.9047 12.5154 25.6818C12.3504 25.4289 12.3257 25.1397 12.2702 24.8567C12.2216 24.6092 12.1522 24.3647 12.1106 24.1156C12.0751 23.902 12.0435 23.683 12.0512 23.4679C12.0597 23.225 12.1461 22.9828 12.1414 22.7415C12.133 22.3605 12.3443 22.0552 12.4329 21.7089C12.507 21.4213 12.5694 21.129 12.7422 20.8776C12.8748 20.6856 13.0167 20.499 13.1416 20.3024C13.2735 20.0942 13.4609 19.9569 13.6614 19.8243C13.9914 19.6045 14.3099 19.367 14.6399 19.1464C14.7363 19.0824 14.8512 19.0439 14.9615 19.0038C15.1658 18.929 15.3717 18.8542 15.5807 18.7932C15.7118 18.7555 15.8498 18.7354 15.9856 18.7238C16.1437 18.7107 16.3025 18.7184 16.4614 18.7107C16.7899 18.6953 17.1176 18.6699 17.4461 18.6606C17.5248 18.6583 17.605 18.703 17.6852 18.72C17.7962 18.7439 17.9072 18.7763 18.0198 18.7794C18.2905 18.7871 18.5465 18.8341 18.7833 18.9737C18.8473 19.0115 18.9213 19.0408 18.9938 19.0516C19.293 19.094 19.5698 19.1958 19.8305 19.3438C20.2091 19.559 20.5862 19.7764 20.9579 20.0032C21.2756 20.1967 21.5285 20.4674 21.7853 20.7327C21.9673 20.92 22.157 21.0997 22.3451 21.2817C22.5441 21.4737 22.7438 21.665 22.9466 21.8539C23.1171 22.0135 23.2913 22.1685 23.4687 22.3297C23.4486 22.3621 23.4379 22.3875 23.4201 22.406C23.1047 22.7307 22.7901 23.0561 22.4724 23.3777C22.3405 23.5111 22.3405 23.5034 22.211 23.3769C22.1061 23.2751 21.9812 23.1934 21.8802 23.0885C21.557 22.75 21.2401 22.4068 20.9239 22.0621C20.6178 21.729 20.26 21.4606 19.886 21.2123C19.6223 21.0373 19.3608 20.8545 19.0832 20.7041C18.8935 20.6016 18.6807 20.536 18.4725 20.4774C18.1756 20.3934 17.8749 20.317 17.571 20.2646C17.3621 20.2291 17.1438 20.2199 16.9325 20.2353C16.5601 20.2623 16.1768 20.199 15.8151 20.3317C15.5784 20.418 15.3363 20.4944 15.145 20.6779C15.0432 20.7758 14.9206 20.8553 14.7988 20.927C14.3947 21.1668 14.1402 21.5223 13.9806 21.9557C13.8927 22.194 13.7948 22.4276 13.7138 22.6682C13.6752 22.7831 13.6498 22.9073 13.6475 23.0276C13.6428 23.2481 13.6637 23.4687 13.6675 23.69C13.6745 24.0956 13.7994 24.4804 13.8711 24.8744C13.8757 24.9014 13.8788 24.9307 13.8919 24.9546C14.0539 25.267 14.1981 25.5901 14.3839 25.8877C14.5875 26.2131 14.8319 26.5123 15.054 26.8262C15.0749 26.8555 15.081 26.9295 15.061 26.9488C14.724 27.275 14.3855 27.5966 14.057 27.9104Z" fill="#00D1FF"/>
<path d="M24.7727 29.766C23.2258 28.1936 21.7097 26.6521 20.1913 25.1075C20.3556 25.1214 20.5121 25.1669 20.6563 25.1407C20.9447 25.089 21.2486 25.0574 21.4722 24.8245C21.6588 24.6302 21.8493 24.4397 22.0421 24.2508C22.231 24.0642 22.4284 23.886 22.615 23.6979C23.0677 23.2413 23.5173 22.7825 23.9661 22.3222C24.2838 21.996 24.6084 21.6767 24.9076 21.3343C25.0233 21.2025 25.0788 21.0166 25.1559 20.8531C25.169 20.8254 25.1536 20.7845 25.1505 20.7498C25.1475 20.7151 25.139 20.6796 25.1405 20.6449C25.1467 20.537 25.1567 20.429 25.166 20.3064C26.6928 21.7908 28.2027 23.3154 29.7326 24.8206C29.7257 24.8361 29.7195 24.8523 29.7126 24.8677C29.5892 24.8584 29.4643 24.8607 29.344 24.8376C29.0386 24.779 28.7919 24.8939 28.5752 25.089C28.4132 25.2347 28.2598 25.389 28.1055 25.5432C27.3198 26.3328 26.534 27.1225 25.7497 27.9144C25.4906 28.1766 25.2392 28.4458 24.9801 28.708C24.8845 28.8043 24.8899 28.9239 24.8837 29.0411C24.8768 29.1714 24.8907 29.304 24.8737 29.4328C24.8598 29.5369 24.8143 29.6356 24.7727 29.766ZM27.1871 25.0651C27.2542 24.6957 27.1408 24.3618 26.9966 24.0287C26.9334 23.8822 26.8517 23.7588 26.7368 23.6516C26.5424 23.4704 26.3535 23.283 26.1553 23.1072C26.0929 23.0516 26.0111 23.01 25.9309 22.9838C25.698 22.9074 25.4652 22.8165 25.2246 22.7794C24.9971 22.7447 24.7511 22.7309 24.5313 22.7825C24.3139 22.8334 24.1041 22.9568 23.9159 23.0848C23.7008 23.2306 23.5096 23.4125 23.3129 23.5853C23.2397 23.6501 23.1672 23.7241 23.1209 23.8089C23.0106 24.0102 22.9112 24.2184 22.8178 24.4281C22.7816 24.5091 22.7569 24.6016 22.7569 24.6895C22.7562 24.9594 22.7654 25.2293 22.7801 25.4985C22.7847 25.5787 22.8055 25.6658 22.8448 25.7344C23.0847 26.1563 23.3353 26.5711 23.7849 26.8109C23.8365 26.8387 23.882 26.8796 23.9306 26.9143C24.1419 27.0647 24.3794 27.1595 24.6331 27.1811C24.8806 27.2027 25.132 27.1927 25.3803 27.1796C25.6811 27.1641 25.9556 27.0523 26.1785 26.8549C26.3882 26.6683 26.5787 26.4578 26.7622 26.2449C27.0414 25.9218 27.2419 25.564 27.1879 25.1129C27.1856 25.0967 27.1871 25.0805 27.1871 25.0651Z" fill="#00D1FF"/>
<path d="M18.7532 41.3538C18.8804 41.4772 19.0076 41.6006 19.1356 41.7239C19.2181 41.8041 19.3045 41.8797 19.3832 41.9638C19.4217 42.0054 19.4533 42.0578 19.4757 42.111C19.5366 42.2576 19.4919 42.374 19.3762 42.4812C19.1009 42.738 18.8357 43.0063 18.5611 43.2647C18.43 43.388 18.4246 43.3826 18.2974 43.2585C18.2349 43.1976 18.1733 43.1359 18.1123 43.0734C18.1015 43.0626 18.0954 43.0472 18.0884 43.0364C18.0923 43.0248 18.0923 43.014 18.0969 43.011C18.2928 42.8938 18.2889 42.8822 18.1254 42.7172C17.709 42.2977 17.3042 41.8666 16.8831 41.4509C16.2678 40.8433 15.6393 40.2495 15.0239 39.6426C14.6653 39.2887 14.3237 38.9178 13.9675 38.5615C13.5858 38.1806 13.194 37.8096 12.8108 37.4302C12.2895 36.9136 11.7743 36.3915 11.2538 35.8741C10.7703 35.3929 10.2799 34.9179 9.79792 34.4351C9.27431 33.91 8.75996 33.3756 8.23559 32.8512C7.86544 32.4811 7.48604 32.1217 7.11513 31.7624C7.09508 31.767 7.08505 31.7654 7.0812 31.7701C6.93854 31.9143 6.92928 31.9235 7.06886 32.0724C7.31871 32.3384 7.58089 32.5921 7.83768 32.852C7.9148 32.9299 7.9896 33.0101 8.06517 33.0887C8.059 33.0964 8.05283 33.1049 8.04666 33.1126C8.02661 33.1026 8.00116 33.0964 7.98574 33.081C7.55005 32.6422 7.11513 32.2011 6.67943 31.7624C6.61157 31.6945 6.61312 31.6344 6.64473 31.541C6.7365 31.2711 6.92466 31.0861 7.13209 30.9095C7.26781 30.7938 7.40045 30.6735 7.52614 30.5471C7.60634 30.4669 7.69888 30.446 7.7837 30.5023C7.91017 30.5864 8.0243 30.6897 8.13766 30.7907C8.17621 30.8247 8.17313 30.8655 8.11067 30.8879C7.96029 30.9419 7.94487 31.0159 8.06054 31.1339C8.17467 31.2496 8.29265 31.3614 8.4091 31.4747C8.70367 31.7631 8.99825 32.0515 9.29282 32.3399C9.71232 32.7502 10.1534 33.1412 10.5452 33.5761C10.9284 34.0025 11.3518 34.3842 11.762 34.7806C11.944 34.9564 12.1113 35.1477 12.2926 35.325C12.6349 35.6612 12.9873 35.9867 13.3251 36.3267C13.568 36.5712 13.787 36.8395 14.0284 37.0855C14.3206 37.3816 14.626 37.6647 14.9252 37.9538C15.3008 38.3178 15.6809 38.6779 16.0503 39.0489C16.3603 39.3604 16.6526 39.6897 16.961 40.002C17.3057 40.3513 17.6604 40.6906 18.0113 41.0353C18.3198 41.3384 18.6275 41.6422 18.9359 41.9452C19.0277 42.0355 19.0724 42.0308 19.148 41.936C19.2012 41.8697 19.1742 41.8211 19.1256 41.7702C18.9976 41.6353 18.8719 41.4988 18.7447 41.3623C18.7485 41.36 18.7508 41.3569 18.7532 41.3538Z" fill="#00D1FF"/>
<path d="M43.0317 18.0522C43.1095 18.124 43.1813 18.1803 43.2406 18.2473C43.3548 18.3761 43.3633 18.4262 43.243 18.5535C42.9461 18.8673 42.6376 19.1712 42.3346 19.4796C42.286 19.529 42.2513 19.5159 42.1927 19.4819C41.7639 19.2367 41.4616 18.8519 41.1131 18.5188C40.9735 18.3854 40.8393 18.2466 40.7028 18.1109C40.7113 18.1001 40.7198 18.0893 40.7275 18.0792C40.7583 18.1008 40.793 18.1186 40.8185 18.1448C41.1593 18.4879 41.4994 18.8326 41.8395 19.1766C41.8449 19.182 41.8503 19.1897 41.8572 19.1928C41.9259 19.2221 41.969 19.3539 42.0716 19.2421C42.1834 19.1195 42.1857 19.0833 42.0677 18.966C41.2789 18.1833 40.4877 17.4037 39.7011 16.6187C39.159 16.0781 38.6269 15.5268 38.0833 14.987C37.3738 14.2821 36.6559 13.5866 35.9457 12.8833C35.2979 12.2409 34.6556 11.5924 34.0109 10.947C33.3161 10.2506 32.6221 9.55276 31.925 8.8595C31.6072 8.54334 31.2818 8.23488 30.9595 7.92411C30.9402 7.90561 30.9178 7.88941 30.9001 7.87399C30.8862 7.87939 30.877 7.88093 30.8724 7.88556C30.7181 8.06754 30.7135 8.07911 30.8831 8.25262C31.1716 8.54719 31.4669 8.8356 31.7607 9.12477C31.8 9.16333 31.8486 9.19186 31.8926 9.22579C31.8825 9.23659 31.8733 9.24661 31.8633 9.25741C31.7422 9.1641 31.6096 9.08236 31.5016 8.97517C31.2572 8.73227 31.0235 8.47856 30.7883 8.22717C30.7096 8.14312 30.6379 8.05289 30.5654 7.96421C30.4174 7.78454 30.4212 7.5879 30.5832 7.4167C30.6865 7.3072 30.7991 7.20618 30.9071 7.10131C31.0011 7.01031 31.0975 6.92086 31.1885 6.82678C31.3073 6.70417 31.46 6.66253 31.6188 6.65173C31.672 6.64788 31.7399 6.69029 31.7815 6.73116C31.9735 6.92086 32.1548 7.11981 32.346 7.31029C32.5511 7.51464 32.7624 7.71282 32.9691 7.91563C33.0269 7.97192 33.077 8.03593 33.131 8.09608C33.1202 8.10687 33.1094 8.1169 33.0986 8.12769C32.6845 7.73287 32.2697 7.33805 31.8556 6.94322C31.8486 6.95016 31.8417 6.95788 31.8347 6.96482C31.8386 7.00183 31.8586 7.05735 31.8424 7.07123C31.8162 7.0936 31.7669 7.0882 31.6959 7.09899C31.7484 7.17302 31.7854 7.24551 31.8401 7.29949C32.5025 7.94956 33.1696 8.595 33.832 9.24584C34.078 9.48798 34.3116 9.74246 34.5569 9.98537C35.1429 10.5668 35.7352 11.1413 36.3189 11.7243C36.7338 12.1392 37.1371 12.5664 37.5496 12.9836C37.8288 13.265 38.1149 13.5395 38.3987 13.8164C38.8583 14.266 39.3217 14.7109 39.7759 15.1651C40.1515 15.5406 40.51 15.9332 40.8856 16.3087C41.1879 16.611 41.5071 16.8971 41.8148 17.194C42.1225 17.4916 42.4255 17.7947 42.7309 18.0954C42.7425 18.1062 42.7517 18.1193 42.7625 18.1309C42.9098 18.2813 42.9561 18.272 43.0317 18.0522Z" fill="#00D1FF"/>
<path d="M15.9 26.7044C16.4668 26.7044 17.0336 26.7037 17.6003 26.7044C17.7708 26.7044 17.9443 26.6913 18.1108 26.7176C18.2203 26.7345 18.346 26.787 18.4208 26.8656C18.69 27.1455 18.9375 27.4463 19.2012 27.7316C19.286 27.8234 19.266 27.8797 19.1881 27.956C18.7748 28.3624 18.3669 28.7734 17.9535 29.179C16.9773 30.1391 15.9979 31.0961 15.0232 32.0577C14.9376 32.1417 14.8836 32.141 14.8003 32.06C14.542 31.8078 14.2798 31.5595 14.0145 31.3143C13.9166 31.2241 13.8788 31.12 13.8757 30.9881C13.8611 30.2864 13.8395 29.5847 13.821 28.8821C13.8164 28.6909 13.8757 28.539 14.0253 28.3994C14.3176 28.1264 14.5821 27.8241 14.8636 27.5396C15.0363 27.3653 15.2214 27.2026 15.3995 27.033C15.4512 26.9836 15.5113 26.9381 15.5468 26.8787C15.6301 26.7422 15.7488 26.6967 15.9 26.7044Z" fill="#00D1FF"/>
<path d="M33.8467 23.2822C33.1819 23.2529 32.5565 23.2251 31.9304 23.1997C31.8139 23.195 31.7175 23.1573 31.6327 23.0747C31.3389 22.7902 31.0436 22.508 30.7444 22.2304C30.6719 22.1625 30.6711 22.1185 30.7405 22.0484C31.2309 21.551 31.7152 21.0482 32.2057 20.5516C33.104 19.6432 34.0063 18.7394 34.9039 17.8302C34.9864 17.747 35.0427 17.7369 35.1244 17.8264C35.3966 18.1256 35.675 18.4186 35.9488 18.717C36.0405 18.8173 36.0737 18.9322 36.066 19.0764C36.0336 19.6625 36.0174 20.2493 35.9935 20.8361C35.9858 21.0266 35.9819 21.2171 35.9596 21.4052C35.9511 21.4723 35.9033 21.5448 35.8539 21.5949C35.5054 21.9481 35.1522 22.2959 34.7998 22.6445C34.6556 22.7863 34.5013 22.919 34.3664 23.0694C34.2122 23.239 34.0394 23.3308 33.8467 23.2822Z" fill="#00D1FF"/>
<path d="M16.4644 41.9545C16.4305 41.9375 16.4112 41.9321 16.3981 41.9198C16.2199 41.7509 16.0441 41.5805 15.8652 41.4132C15.7041 41.262 15.5383 41.1163 15.3763 40.9651C15.2082 40.8086 15.0424 40.649 14.8758 40.4909C14.6291 40.2565 14.3738 40.0305 14.1394 39.7853C13.9042 39.5393 13.6906 39.2717 13.4647 39.0165C13.3991 38.9424 13.3251 38.8769 13.2549 38.8075C13.1901 38.7435 13.1269 38.6787 13.0606 38.6162C12.8855 38.4512 12.7074 38.2885 12.5339 38.1212C12.4398 38.031 12.3565 37.9299 12.2609 37.8405C12.0743 37.6654 11.8769 37.5012 11.6949 37.3215C11.4497 37.0809 11.2114 36.8318 10.9747 36.5828C10.7356 36.3306 10.5035 36.0707 10.2637 35.8193C10.0979 35.6451 9.92745 35.4746 9.7524 35.3096C9.59123 35.1577 9.41773 35.0197 9.25579 34.8685C9.08228 34.7066 8.91726 34.5362 8.74838 34.3688C8.55482 34.1776 8.35818 33.9894 8.17003 33.7928C7.88625 33.4951 7.60864 33.1913 7.32794 32.8905C7.33488 32.8828 7.34259 32.8743 7.34953 32.8666C7.40428 32.9168 7.46058 32.9669 7.51456 33.0178C7.68961 33.1843 7.8608 33.3548 8.04047 33.5167C8.15537 33.62 8.18853 33.6177 8.27798 33.4928C8.34584 33.3987 8.39751 33.4157 8.46537 33.4859C8.68823 33.7172 8.90955 33.9509 9.1378 34.1768C9.86267 34.894 10.5906 35.6073 11.3163 36.3229C11.5052 36.5095 11.6895 36.7015 11.8777 36.8889C12.493 37.502 13.1115 38.1119 13.7253 38.7273C14.3083 39.3118 14.8836 39.9033 15.4665 40.4878C15.758 40.7801 16.058 41.0631 16.3557 41.3492C16.4459 41.4355 16.5076 41.5219 16.469 41.6622C16.4451 41.7486 16.4644 41.8465 16.4644 41.9545Z" fill="#00D1FF"/>
<path d="M17.4545 42.5005C17.2787 42.3463 17.1014 42.192 16.9279 42.0355C16.9147 42.0239 16.924 41.9884 16.9225 41.9645C16.9433 41.9684 16.9703 41.9661 16.9849 41.9776C17.0204 42.0085 17.0505 42.0455 17.0829 42.0802C17.2116 42.2152 17.3396 42.3501 17.4684 42.4858C17.4638 42.4905 17.4592 42.4951 17.4545 42.5005Z" fill="#00D1FF"/>
<path d="M6.85136 32.3701C6.9678 32.4888 7.08347 32.6068 7.19991 32.7256C7.19606 32.7294 7.19143 32.734 7.18758 32.7379C7.07036 32.6222 6.95315 32.5058 6.83594 32.3901C6.84056 32.3839 6.84596 32.377 6.85136 32.3701Z" fill="#00D1FF"/>
<path d="M25.0325 26.834C24.6724 26.8965 24.3701 26.7654 24.0863 26.5626C24.0092 26.5071 23.9275 26.457 23.845 26.4107C23.5419 26.2418 23.373 25.9619 23.2258 25.6642C23.2134 25.6396 23.1995 25.6133 23.1965 25.5863C23.1456 25.1537 23.0654 24.7196 23.2743 24.3032C23.2813 24.2893 23.289 24.2746 23.2936 24.26C23.4563 23.7387 23.8296 23.448 24.337 23.3015C24.4472 23.2698 24.5537 23.2267 24.6624 23.1889C24.6847 23.1812 24.7079 23.1688 24.7302 23.1688C25.1837 23.1788 25.6386 23.2043 26.0319 23.4619C26.3843 23.6924 26.6311 24.0132 26.7429 24.425C26.7653 24.5075 26.7614 24.5977 26.7661 24.6849C26.7761 24.8831 26.7722 25.082 26.7938 25.2787C26.8139 25.4622 26.7583 25.6149 26.6542 25.7552C26.5147 25.9426 26.392 26.1516 26.2209 26.3043C26.0042 26.4963 25.7574 26.6644 25.5006 26.7963C25.3718 26.861 25.1906 26.824 25.0325 26.834Z" fill="#00D1FF"/>
</g>
</g>
<defs>
<filter id="filter0_d_476_197" x="-4" y="-4" width="58" height="57.9547" filterUnits="userSpaceOnUse" color-interpolation-filters="sRGB">
<feFlood flood-opacity="0" result="BackgroundImageFix"/>
<feColorMatrix in="SourceAlpha" type="matrix" values="0 0 0 0 0 0 0 0 0 0 0 0 0 0 0 0 0 0 127 0" result="hardAlpha"/>
<feOffset/>
<feGaussianBlur stdDeviation="5"/>
<feComposite in2="hardAlpha" operator="out"/>
<feColorMatrix type="matrix" values="0 0 0 0 0 0 0 0 0 0.819608 0 0 0 0 1 0 0 0 0.4 0"/>
<feBlend mode="normal" in2="BackgroundImageFix" result="effect1_dropShadow_476_197"/>
<feBlend mode="normal" in="SourceGraphic" in2="effect1_dropShadow_476_197" result="shape"/>
</filter>
<clipPath id="clip0_476_197">
<rect width="50" height="55" fill="white"/>
</clipPath>
</defs>
</svg>
