<svg width="50" height="55" viewBox="0 0 50 55" fill="none" xmlns="http://www.w3.org/2000/svg">
<g clip-path="url(#clip0_477_98)">
<rect width="50" height="55" fill="white"/>
<path d="M50 0L0 0L0 50L50 50L50 0Z" fill="#161215"/>
<rect y="50" width="50" height="5" fill="#161215"/>
<g filter="url(#filter0_d_477_98)">
<mask id="path-3-inside-1_477_98" fill="white">
<path d="M32.0669 6.5931C31.9905 6.52601 31.9119 6.46046 31.8378 6.39106C31.6921 6.25534 31.4546 6.23915 31.3034 6.3687C30.9788 6.64785 30.658 6.93163 30.3364 7.21464C30.3009 7.24625 30.2678 7.28095 30.2385 7.31797C30.0179 7.59481 30.0141 7.69428 30.2285 7.97035C30.4791 8.29269 30.7135 8.63122 30.9942 8.92579C31.2155 9.15868 31.4954 9.33604 31.7499 9.5373C31.79 9.56892 31.8409 9.59051 31.8748 9.62753C31.9635 9.72469 32.0399 9.74551 32.1363 9.63138C32.2026 9.55273 32.2674 9.61982 32.3167 9.66917C32.5187 9.87121 32.7169 10.0771 32.9197 10.2784C33.6369 10.9917 34.3579 11.7027 35.0735 12.4183C35.6403 12.9851 36.2002 13.5588 36.7662 14.1264C37.7216 15.0841 38.6794 16.0403 39.6364 16.9965C39.8469 17.207 40.0597 17.4145 40.271 17.6235C40.3404 17.6921 40.3643 17.7569 40.3196 17.8648C40.2594 18.0098 40.2903 18.1687 40.3975 18.2882C40.5077 18.4123 40.635 18.5211 40.7568 18.6344C41.0067 18.8665 41.2557 19.1002 41.5095 19.3277C41.7038 19.502 41.902 19.6732 42.1055 19.8374C42.2482 19.9523 42.3191 19.9484 42.4441 19.8189C42.8443 19.4002 43.2422 18.9807 43.6332 18.5542C43.7558 18.4208 43.7357 18.2782 43.6 18.1463C43.2137 17.7708 42.8242 17.3975 42.4379 17.0212C42.2929 16.8801 42.151 16.7359 42.0084 16.5925C41.9343 16.5184 41.8557 16.4722 41.7431 16.5038C41.6375 16.5338 41.5465 16.5076 41.4632 16.4243C40.9087 15.8684 40.352 15.3139 39.7921 14.7633C39.3904 14.3685 38.9817 13.9814 38.5784 13.5881C38.2429 13.2611 37.9105 12.9311 37.5797 12.601C36.9482 11.9702 36.3197 11.3364 35.6866 10.7071C35.0735 10.0972 34.4566 9.49181 33.8436 8.88261C33.7364 8.77619 33.6346 8.66515 33.5374 8.54948C33.5097 8.51632 33.4888 8.45694 33.4965 8.41607C33.5282 8.25182 33.4927 8.10916 33.3832 7.98423C33.2467 7.82923 33.1094 7.67578 32.9737 7.52078C32.9575 7.50227 32.946 7.47914 32.9328 7.45754C32.9413 7.44906 32.949 7.44135 32.9575 7.43287C33.1287 7.5871 33.3038 7.7367 33.4703 7.89555C33.6708 8.08679 33.8528 8.29731 34.0626 8.47776C34.4389 8.80241 34.7689 9.1687 35.0974 9.53962C35.3496 9.8234 35.628 10.084 35.8979 10.3524C36.0297 10.4835 36.1716 10.6046 36.3043 10.7349C36.6119 11.0372 36.915 11.3433 37.2227 11.6448C37.3129 11.7335 37.4232 11.8021 37.5103 11.8931C37.8242 12.224 38.1272 12.564 38.4426 12.8933C38.6701 13.1308 38.9084 13.3575 39.1436 13.5873C39.2855 13.7261 39.4289 13.8618 39.5739 13.9976C39.8129 14.2227 40.0628 14.4371 40.2911 14.6731C40.6327 15.0255 40.955 15.3956 41.2935 15.7511C41.5195 15.9879 41.7593 16.2123 41.9914 16.4429C42.168 16.6179 42.3415 16.7968 42.5196 16.9695C42.6877 17.1322 42.8628 17.2872 43.0324 17.4484C43.0988 17.5109 43.1551 17.5834 43.2214 17.6458C43.4373 17.8486 43.6501 18.0561 43.8745 18.2481C44.0164 18.3692 44.0488 18.6229 43.9154 18.7563C43.4967 19.1735 43.0733 19.586 42.6592 20.0078C42.5335 20.1358 42.4063 20.1836 42.2336 20.122C42.1865 20.105 42.1148 20.1196 42.0693 20.1459C41.9536 20.2129 41.8364 20.2369 41.7045 20.2207C41.3784 20.1806 41.0514 20.1451 40.7244 20.1081C40.5039 20.0834 40.2833 20.0595 40.0628 20.034C40.0312 20.0302 39.9988 20.0279 39.9695 20.0163C39.5862 19.8605 39.1768 19.8806 38.7765 19.8312C38.5174 19.7996 38.2583 19.7657 38.0015 19.721C37.8573 19.6955 37.7586 19.7325 37.6553 19.8413C37.2944 20.2207 36.9219 20.5885 36.5533 20.9602C36.5264 20.9872 36.4924 21.0072 36.4408 21.0465C36.4346 20.9895 36.4261 20.9525 36.4269 20.9162C36.4369 20.3965 36.45 19.8775 36.4577 19.3578C36.46 19.195 36.4647 19.03 36.4354 18.8719C36.4184 18.7794 36.3498 18.6869 36.2834 18.6136C35.9997 18.2982 35.7089 17.9882 35.4182 17.6798C35.3234 17.5795 35.284 17.4685 35.3103 17.3327C35.3396 17.1777 35.2578 17.0721 35.1553 16.9688C34.5368 16.3418 33.9245 15.7087 33.3053 15.0826C32.8341 14.606 32.356 14.1356 31.8802 13.6637C31.7538 13.538 31.6196 13.42 31.4939 13.2935C31.4237 13.2226 31.3667 13.2295 31.3027 13.2951C31.1939 13.4053 31.0829 13.5125 30.9749 13.6236C29.782 14.8443 28.5906 16.065 27.3976 17.2857C27.0591 17.6319 26.719 17.9766 26.382 18.3237C26.244 18.4655 26.2394 18.6915 26.3759 18.8388C26.5185 18.9938 26.6689 19.1411 26.8185 19.2884C27.2673 19.731 27.7192 20.1713 28.168 20.6147C28.5744 21.0165 28.9777 21.4198 29.3818 21.8239C29.502 21.9442 29.6162 22.0714 29.7365 22.1917C29.8529 22.3074 29.9925 22.3744 30.1598 22.3845C30.3102 22.3937 30.4382 22.4492 30.5508 22.5595C30.8616 22.8657 31.1816 23.1626 31.4978 23.4633C31.5857 23.5466 31.6882 23.5782 31.8108 23.5828C32.4362 23.6067 33.0616 23.6376 33.6878 23.6684C33.7294 23.6707 33.7703 23.6869 33.7973 23.6939C33.7132 23.7926 33.6361 23.8967 33.5459 23.9869C33.3392 24.1951 33.1249 24.3956 32.9151 24.6015C32.8388 24.6763 32.7655 24.7203 32.6444 24.711C32.5434 24.7041 32.4385 24.7665 32.3344 24.7966C32.2604 24.8182 32.1872 24.849 32.1124 24.856C31.955 24.8691 31.7962 24.8683 31.6373 24.8737C31.598 24.8753 31.5564 24.8845 31.5193 24.876C31.17 24.8004 30.8176 24.8367 30.466 24.8483C30.3387 24.8521 30.2254 24.8205 30.129 24.7272C29.4889 24.1111 28.8427 23.5003 28.2058 22.8811C27.7647 22.4523 27.339 22.0089 26.9002 21.5779C26.3712 21.0581 25.8376 20.5422 25.3017 20.0294C25.1343 19.869 25.1266 19.6816 25.1405 19.4673C25.1582 19.1974 25.1351 18.9251 25.1312 18.6537C25.1297 18.5573 25.1312 18.4601 25.1312 18.3638C25.132 18.2118 25.122 18.0592 25.1366 17.9088C25.1459 17.8139 25.179 17.7168 25.2222 17.6304C25.2693 17.5348 25.2939 17.453 25.2369 17.3513C25.2184 17.3181 25.2299 17.2433 25.2569 17.2132C25.4405 17.0066 25.6286 16.8037 25.8206 16.6048C25.9386 16.4822 26.0659 16.3688 26.1869 16.2501C26.4692 15.9732 26.7514 15.6964 27.0313 15.4172C27.1154 15.3332 27.1886 15.2383 27.2727 15.155C27.5464 14.8859 27.8248 14.6214 28.097 14.3515C28.2119 14.2374 28.3114 14.1071 28.4271 13.9929C28.6692 13.7531 28.9198 13.5218 29.1627 13.2827C29.3093 13.1378 29.4519 12.9882 29.5892 12.8347C29.7604 12.6435 29.9447 12.473 30.1891 12.379C30.2331 12.362 30.2724 12.3327 30.3133 12.3095C30.3773 12.2733 30.385 12.2255 30.3333 12.1754C30.2585 12.1029 30.2593 12.0319 30.2848 11.9301C30.3094 11.8314 30.294 11.7065 30.2539 11.6109C30.1529 11.3664 30.1367 11.1112 30.1128 10.8552C30.0904 10.6107 30.065 10.3663 30.0326 10.1234C30.021 10.0378 29.9748 9.95758 29.9632 9.87198C29.9061 9.44477 29.8575 9.01679 29.8005 8.58958C29.7797 8.43303 29.745 8.27804 29.7195 8.12149C29.7133 8.08448 29.7049 8.02587 29.7249 8.00968C29.8676 7.89015 29.7789 7.7367 29.7974 7.59943C29.8059 7.54083 29.8174 7.47065 29.8552 7.43133C30.0118 7.26939 30.1807 7.11901 30.341 6.96016C30.476 6.82675 30.6063 6.68718 30.7382 6.54991C30.8916 6.38952 31.0443 6.22835 31.197 6.06718C31.2579 6.00318 31.6319 5.97156 31.6805 6.03325C31.8193 6.20984 31.9527 6.39183 32.0884 6.57151C32.0807 6.5769 32.0738 6.58539 32.0669 6.5931Z"/>
</mask>
<path d="M32.0669 6.5931C31.9905 6.52601 31.9119 6.46046 31.8378 6.39106C31.6921 6.25534 31.4546 6.23915 31.3034 6.3687C30.9788 6.64785 30.658 6.93163 30.3364 7.21464C30.3009 7.24625 30.2678 7.28095 30.2385 7.31797C30.0179 7.59481 30.0141 7.69428 30.2285 7.97035C30.4791 8.29269 30.7135 8.63122 30.9942 8.92579C31.2155 9.15868 31.4954 9.33604 31.7499 9.5373C31.79 9.56892 31.8409 9.59051 31.8748 9.62753C31.9635 9.72469 32.0399 9.74551 32.1363 9.63138C32.2026 9.55273 32.2674 9.61982 32.3167 9.66917C32.5187 9.87121 32.7169 10.0771 32.9197 10.2784C33.6369 10.9917 34.3579 11.7027 35.0735 12.4183C35.6403 12.9851 36.2002 13.5588 36.7662 14.1264C37.7216 15.0841 38.6794 16.0403 39.6364 16.9965C39.8469 17.207 40.0597 17.4145 40.271 17.6235C40.3404 17.6921 40.3643 17.7569 40.3196 17.8648C40.2594 18.0098 40.2903 18.1687 40.3975 18.2882C40.5077 18.4123 40.635 18.5211 40.7568 18.6344C41.0067 18.8665 41.2557 19.1002 41.5095 19.3277C41.7038 19.502 41.902 19.6732 42.1055 19.8374C42.2482 19.9523 42.3191 19.9484 42.4441 19.8189C42.8443 19.4002 43.2422 18.9807 43.6332 18.5542C43.7558 18.4208 43.7357 18.2782 43.6 18.1463C43.2137 17.7708 42.8242 17.3975 42.4379 17.0212C42.2929 16.8801 42.151 16.7359 42.0084 16.5925C41.9343 16.5184 41.8557 16.4722 41.7431 16.5038C41.6375 16.5338 41.5465 16.5076 41.4632 16.4243C40.9087 15.8684 40.352 15.3139 39.7921 14.7633C39.3904 14.3685 38.9817 13.9814 38.5784 13.5881C38.2429 13.2611 37.9105 12.9311 37.5797 12.601C36.9482 11.9702 36.3197 11.3364 35.6866 10.7071C35.0735 10.0972 34.4566 9.49181 33.8436 8.88261C33.7364 8.77619 33.6346 8.66515 33.5374 8.54948C33.5097 8.51632 33.4888 8.45694 33.4965 8.41607C33.5282 8.25182 33.4927 8.10916 33.3832 7.98423C33.2467 7.82923 33.1094 7.67578 32.9737 7.52078C32.9575 7.50227 32.946 7.47914 32.9328 7.45754C32.9413 7.44906 32.949 7.44135 32.9575 7.43287C33.1287 7.5871 33.3038 7.7367 33.4703 7.89555C33.6708 8.08679 33.8528 8.29731 34.0626 8.47776C34.4389 8.80241 34.7689 9.1687 35.0974 9.53962C35.3496 9.8234 35.628 10.084 35.8979 10.3524C36.0297 10.4835 36.1716 10.6046 36.3043 10.7349C36.6119 11.0372 36.915 11.3433 37.2227 11.6448C37.3129 11.7335 37.4232 11.8021 37.5103 11.8931C37.8242 12.224 38.1272 12.564 38.4426 12.8933C38.6701 13.1308 38.9084 13.3575 39.1436 13.5873C39.2855 13.7261 39.4289 13.8618 39.5739 13.9976C39.8129 14.2227 40.0628 14.4371 40.2911 14.6731C40.6327 15.0255 40.955 15.3956 41.2935 15.7511C41.5195 15.9879 41.7593 16.2123 41.9914 16.4429C42.168 16.6179 42.3415 16.7968 42.5196 16.9695C42.6877 17.1322 42.8628 17.2872 43.0324 17.4484C43.0988 17.5109 43.1551 17.5834 43.2214 17.6458C43.4373 17.8486 43.6501 18.0561 43.8745 18.2481C44.0164 18.3692 44.0488 18.6229 43.9154 18.7563C43.4967 19.1735 43.0733 19.586 42.6592 20.0078C42.5335 20.1358 42.4063 20.1836 42.2336 20.122C42.1865 20.105 42.1148 20.1196 42.0693 20.1459C41.9536 20.2129 41.8364 20.2369 41.7045 20.2207C41.3784 20.1806 41.0514 20.1451 40.7244 20.1081C40.5039 20.0834 40.2833 20.0595 40.0628 20.034C40.0312 20.0302 39.9988 20.0279 39.9695 20.0163C39.5862 19.8605 39.1768 19.8806 38.7765 19.8312C38.5174 19.7996 38.2583 19.7657 38.0015 19.721C37.8573 19.6955 37.7586 19.7325 37.6553 19.8413C37.2944 20.2207 36.9219 20.5885 36.5533 20.9602C36.5264 20.9872 36.4924 21.0072 36.4408 21.0465C36.4346 20.9895 36.4261 20.9525 36.4269 20.9162C36.4369 20.3965 36.45 19.8775 36.4577 19.3578C36.46 19.195 36.4647 19.03 36.4354 18.8719C36.4184 18.7794 36.3498 18.6869 36.2834 18.6136C35.9997 18.2982 35.7089 17.9882 35.4182 17.6798C35.3234 17.5795 35.284 17.4685 35.3103 17.3327C35.3396 17.1777 35.2578 17.0721 35.1553 16.9688C34.5368 16.3418 33.9245 15.7087 33.3053 15.0826C32.8341 14.606 32.356 14.1356 31.8802 13.6637C31.7538 13.538 31.6196 13.42 31.4939 13.2935C31.4237 13.2226 31.3667 13.2295 31.3027 13.2951C31.1939 13.4053 31.0829 13.5125 30.9749 13.6236C29.782 14.8443 28.5906 16.065 27.3976 17.2857C27.0591 17.6319 26.719 17.9766 26.382 18.3237C26.244 18.4655 26.2394 18.6915 26.3759 18.8388C26.5185 18.9938 26.6689 19.1411 26.8185 19.2884C27.2673 19.731 27.7192 20.1713 28.168 20.6147C28.5744 21.0165 28.9777 21.4198 29.3818 21.8239C29.502 21.9442 29.6162 22.0714 29.7365 22.1917C29.8529 22.3074 29.9925 22.3744 30.1598 22.3845C30.3102 22.3937 30.4382 22.4492 30.5508 22.5595C30.8616 22.8657 31.1816 23.1626 31.4978 23.4633C31.5857 23.5466 31.6882 23.5782 31.8108 23.5828C32.4362 23.6067 33.0616 23.6376 33.6878 23.6684C33.7294 23.6707 33.7703 23.6869 33.7973 23.6939C33.7132 23.7926 33.6361 23.8967 33.5459 23.9869C33.3392 24.1951 33.1249 24.3956 32.9151 24.6015C32.8388 24.6763 32.7655 24.7203 32.6444 24.711C32.5434 24.7041 32.4385 24.7665 32.3344 24.7966C32.2604 24.8182 32.1872 24.849 32.1124 24.856C31.955 24.8691 31.7962 24.8683 31.6373 24.8737C31.598 24.8753 31.5564 24.8845 31.5193 24.876C31.17 24.8004 30.8176 24.8367 30.466 24.8483C30.3387 24.8521 30.2254 24.8205 30.129 24.7272C29.4889 24.1111 28.8427 23.5003 28.2058 22.8811C27.7647 22.4523 27.339 22.0089 26.9002 21.5779C26.3712 21.0581 25.8376 20.5422 25.3017 20.0294C25.1343 19.869 25.1266 19.6816 25.1405 19.4673C25.1582 19.1974 25.1351 18.9251 25.1312 18.6537C25.1297 18.5573 25.1312 18.4601 25.1312 18.3638C25.132 18.2118 25.122 18.0592 25.1366 17.9088C25.1459 17.8139 25.179 17.7168 25.2222 17.6304C25.2693 17.5348 25.2939 17.453 25.2369 17.3513C25.2184 17.3181 25.2299 17.2433 25.2569 17.2132C25.4405 17.0066 25.6286 16.8037 25.8206 16.6048C25.9386 16.4822 26.0659 16.3688 26.1869 16.2501C26.4692 15.9732 26.7514 15.6964 27.0313 15.4172C27.1154 15.3332 27.1886 15.2383 27.2727 15.155C27.5464 14.8859 27.8248 14.6214 28.097 14.3515C28.2119 14.2374 28.3114 14.1071 28.4271 13.9929C28.6692 13.7531 28.9198 13.5218 29.1627 13.2827C29.3093 13.1378 29.4519 12.9882 29.5892 12.8347C29.7604 12.6435 29.9447 12.473 30.1891 12.379C30.2331 12.362 30.2724 12.3327 30.3133 12.3095C30.3773 12.2733 30.385 12.2255 30.3333 12.1754C30.2585 12.1029 30.2593 12.0319 30.2848 11.9301C30.3094 11.8314 30.294 11.7065 30.2539 11.6109C30.1529 11.3664 30.1367 11.1112 30.1128 10.8552C30.0904 10.6107 30.065 10.3663 30.0326 10.1234C30.021 10.0378 29.9748 9.95758 29.9632 9.87198C29.9061 9.44477 29.8575 9.01679 29.8005 8.58958C29.7797 8.43303 29.745 8.27804 29.7195 8.12149C29.7133 8.08448 29.7049 8.02587 29.7249 8.00968C29.8676 7.89015 29.7789 7.7367 29.7974 7.59943C29.8059 7.54083 29.8174 7.47065 29.8552 7.43133C30.0118 7.26939 30.1807 7.11901 30.341 6.96016C30.476 6.82675 30.6063 6.68718 30.7382 6.54991C30.8916 6.38952 31.0443 6.22835 31.197 6.06718C31.2579 6.00318 31.6319 5.97156 31.6805 6.03325C31.8193 6.20984 31.9527 6.39183 32.0884 6.57151C32.0807 6.5769 32.0738 6.58539 32.0669 6.5931Z" stroke="white" stroke-width="0.6" mask="url(#path-3-inside-1_477_98)"/>
<mask id="path-4-inside-2_477_98" fill="white">
<path d="M13.4901 28.9345C13.4901 29.4966 13.4901 30.0542 13.4901 30.6125C13.4901 30.7551 13.4924 30.8978 13.4901 31.0405C13.4886 31.1669 13.5341 31.2703 13.6243 31.3589C13.9088 31.6404 14.1926 31.9234 14.4756 32.2064C14.5312 32.2627 14.5928 32.3167 14.6337 32.3822C14.6615 32.4277 14.68 32.501 14.6638 32.5473C14.5836 32.7678 14.6499 32.9344 14.8142 33.0878C15.0864 33.3423 15.3501 33.606 15.6161 33.8675C16.0773 34.3209 16.5384 34.7735 16.9965 35.2308C17.4592 35.6927 17.9203 36.1577 18.3768 36.6258C18.464 36.7153 18.5465 36.7199 18.639 36.6582C18.7115 36.6104 18.7809 36.5564 18.8418 36.4947C19.4186 35.9156 19.9908 35.3318 20.5699 34.755C21.5593 33.7695 22.5556 32.7902 23.5411 31.8008C23.6429 31.699 23.6984 31.5494 23.7632 31.416C23.7779 31.3859 23.754 31.3196 23.7262 31.2895C23.4949 31.0397 23.2643 30.7883 23.0222 30.5485C22.5942 30.1243 22.1577 29.7079 21.7266 29.2869C21.429 28.9962 21.1136 28.7209 20.8445 28.4055C20.5923 28.1101 20.2993 27.8649 20.0163 27.6058C19.9091 27.5079 19.8096 27.4901 19.6993 27.5696C19.5605 27.669 19.4865 27.6251 19.3808 27.5117C19.1626 27.2765 18.949 27.0359 18.7331 26.7977C18.6529 26.7097 18.5665 26.6272 18.4894 26.5378C18.3707 26.3997 18.218 26.3558 18.0429 26.3566C17.4399 26.3596 16.8369 26.3596 16.2338 26.3604C16.1922 26.3604 16.1505 26.3558 16.085 26.3519C16.1205 26.308 16.1374 26.2833 16.1583 26.2617C16.3163 26.1013 16.4752 25.9425 16.6325 25.7813C16.7705 25.6394 16.9055 25.4944 17.0451 25.3541C17.0744 25.324 17.1152 25.297 17.1546 25.287C17.3944 25.2245 17.6342 25.1636 17.8756 25.1104C17.935 25.0973 18.0013 25.1173 18.0645 25.1173C18.1455 25.1173 18.2272 25.105 18.3082 25.1096C18.4223 25.1158 18.5349 25.1312 18.6483 25.1428C18.6914 25.1474 18.7377 25.1636 18.7778 25.1536C19.0855 25.0749 19.3901 25.1837 19.697 25.1698C19.768 25.1667 19.8551 25.24 19.9137 25.2986C20.5044 25.8916 21.0897 26.4907 21.6788 27.0853C22.386 27.7978 23.097 28.5073 23.8041 29.2198C24.0694 29.4874 24.3316 29.7588 24.5907 30.0326C24.7403 30.1899 24.8698 30.3673 24.8729 30.594C24.8752 30.7567 24.8073 30.9263 24.8366 31.0806C24.869 31.2525 24.768 31.4044 24.8359 31.5864C24.8976 31.753 24.8474 31.9589 24.8582 32.147C24.8667 32.2874 24.7904 32.3799 24.7194 32.4863C24.677 32.5496 24.6678 32.6437 24.6662 32.7239C24.6647 32.8241 24.6292 32.895 24.5598 32.9637C24.091 33.431 23.6252 33.9022 23.1563 34.3702C22.7492 34.7759 22.3374 35.1768 21.931 35.5825C21.3873 36.1261 20.8468 36.6736 20.3039 37.218C20.1944 37.3276 20.0826 37.4347 19.9638 37.5334C19.9183 37.5712 19.8512 37.5874 19.7911 37.6028C19.6207 37.6453 19.5659 37.7686 19.6338 37.9283C19.6793 38.0347 19.7194 38.1511 19.7248 38.2645C19.7394 38.5714 19.7957 38.8652 19.8813 39.1621C19.9546 39.4158 19.9507 39.6926 19.9692 39.9602C19.99 40.2571 20.0379 40.5471 20.1142 40.8362C20.1767 41.0707 20.1867 41.319 20.2121 41.5626C20.2268 41.7014 20.2522 41.8464 20.2291 41.9806C20.1875 42.2158 20.2314 42.4664 20.0101 42.6677C19.5998 43.0409 19.2228 43.4504 18.8318 43.8452C18.686 43.9925 18.447 43.9902 18.2928 43.8444C18.0144 43.5807 17.726 43.327 17.453 43.0571C17.2193 42.8265 17.0019 42.5805 16.7775 42.3407C16.7836 42.333 16.7898 42.3253 16.7952 42.3176C16.8153 42.3284 16.8384 42.3353 16.8538 42.35C17.2533 42.7301 17.6512 43.1111 18.0499 43.492C18.1301 43.5684 18.2087 43.647 18.2951 43.7164C18.3228 43.7388 18.3799 43.7496 18.4108 43.7365C18.4786 43.7072 18.5465 43.6671 18.6005 43.617C18.959 43.28 19.3138 42.9399 19.6693 42.5998C19.7232 42.5474 19.7726 42.4903 19.8235 42.4348C19.8859 42.3669 19.8805 42.2975 19.8651 42.2065C19.8104 41.8858 19.5474 41.7346 19.3431 41.5403C18.9182 41.1362 18.4794 40.746 18.0429 40.3543C18.0082 40.3227 17.9419 40.3026 17.8964 40.3103C17.7167 40.3404 17.5856 40.2756 17.4615 40.1491C17.1245 39.8075 16.7783 39.4759 16.4374 39.1382C16.3534 39.0549 16.2793 38.9601 16.196 38.876C15.6508 38.3277 15.1064 37.7787 14.5589 37.2335C14.0978 36.7746 13.6305 36.3228 13.1693 35.8639C12.7367 35.4329 12.3103 34.9964 11.8792 34.5638C11.5183 34.2014 11.1536 33.842 10.7942 33.478C10.4904 33.1703 10.1912 32.858 9.89044 32.548C9.85188 32.5079 9.81873 32.4601 9.77477 32.4285C9.67298 32.356 9.6136 32.2828 9.69689 32.1548C9.71616 32.1255 9.69843 32.0614 9.68069 32.0213C9.65833 31.972 9.62131 31.9273 9.5843 31.8864C9.33599 31.6142 9.08692 31.3427 8.83552 31.0736C8.59493 30.8168 8.35819 30.5546 8.10371 30.3125C8.00809 30.2207 7.87083 30.1668 7.74436 30.1166C7.69115 30.0958 7.61481 30.1259 7.55158 30.1444C7.51533 30.1544 7.4814 30.1822 7.45287 30.2092C7.10432 30.5392 6.75037 30.8639 6.41492 31.207C6.32007 31.3034 6.27997 31.4546 6.21982 31.5833C6.20825 31.608 6.20903 31.6535 6.22445 31.6736C6.3085 31.7823 6.39487 31.891 6.48972 31.9913C6.58226 32.0892 6.68559 32.1771 6.7843 32.2697C6.77581 32.2789 6.76733 32.2889 6.75885 32.2982C6.72106 32.272 6.67942 32.2504 6.64626 32.2188C6.4635 32.0437 6.2792 31.8702 6.10184 31.689C5.95455 31.5378 5.97229 31.3042 6.12112 31.1561C6.43574 30.843 6.74497 30.5246 7.05651 30.2092C7.17912 30.085 7.30173 29.9616 7.42742 29.8406C7.45056 29.8182 7.48912 29.8005 7.52073 29.8005C7.65414 29.7997 7.78909 29.8167 7.92172 29.8066C8.09369 29.7935 8.26411 29.7573 8.4353 29.7365C8.49314 29.7295 8.55406 29.7334 8.61112 29.7442C8.99978 29.8159 9.38766 29.8891 9.77554 29.9655C9.86114 29.9825 9.94442 30.0094 10.0277 30.0334C10.1349 30.0642 10.2375 30.0565 10.3508 30.0434C10.5066 30.0249 10.6739 30.0588 10.8289 30.1004C11.0718 30.1652 11.3132 30.2231 11.5669 30.2015C11.7589 30.1853 11.9108 30.277 12.055 30.3881C12.1692 30.476 12.1907 30.4744 12.2895 30.3673C12.3604 30.2901 12.4383 30.2177 12.3542 30.0997C12.3442 30.085 12.3673 30.0334 12.3882 30.0125C12.739 29.6624 13.0914 29.3139 13.4446 28.9653C13.4631 28.953 13.4793 28.943 13.4901 28.9345Z"/>
</mask>
<path d="M13.4901 28.9345C13.4901 29.4966 13.4901 30.0542 13.4901 30.6125C13.4901 30.7551 13.4924 30.8978 13.4901 31.0405C13.4886 31.1669 13.5341 31.2703 13.6243 31.3589C13.9088 31.6404 14.1926 31.9234 14.4756 32.2064C14.5312 32.2627 14.5928 32.3167 14.6337 32.3822C14.6615 32.4277 14.68 32.501 14.6638 32.5473C14.5836 32.7678 14.6499 32.9344 14.8142 33.0878C15.0864 33.3423 15.3501 33.606 15.6161 33.8675C16.0773 34.3209 16.5384 34.7735 16.9965 35.2308C17.4592 35.6927 17.9203 36.1577 18.3768 36.6258C18.464 36.7153 18.5465 36.7199 18.639 36.6582C18.7115 36.6104 18.7809 36.5564 18.8418 36.4947C19.4186 35.9156 19.9908 35.3318 20.5699 34.755C21.5593 33.7695 22.5556 32.7902 23.5411 31.8008C23.6429 31.699 23.6984 31.5494 23.7632 31.416C23.7779 31.3859 23.754 31.3196 23.7262 31.2895C23.4949 31.0397 23.2643 30.7883 23.0222 30.5485C22.5942 30.1243 22.1577 29.7079 21.7266 29.2869C21.429 28.9962 21.1136 28.7209 20.8445 28.4055C20.5923 28.1101 20.2993 27.8649 20.0163 27.6058C19.9091 27.5079 19.8096 27.4901 19.6993 27.5696C19.5605 27.669 19.4865 27.6251 19.3808 27.5117C19.1626 27.2765 18.949 27.0359 18.7331 26.7977C18.6529 26.7097 18.5665 26.6272 18.4894 26.5378C18.3707 26.3997 18.218 26.3558 18.0429 26.3566C17.4399 26.3596 16.8369 26.3596 16.2338 26.3604C16.1922 26.3604 16.1505 26.3558 16.085 26.3519C16.1205 26.308 16.1374 26.2833 16.1583 26.2617C16.3163 26.1013 16.4752 25.9425 16.6325 25.7813C16.7705 25.6394 16.9055 25.4944 17.0451 25.3541C17.0744 25.324 17.1152 25.297 17.1546 25.287C17.3944 25.2245 17.6342 25.1636 17.8756 25.1104C17.935 25.0973 18.0013 25.1173 18.0645 25.1173C18.1455 25.1173 18.2272 25.105 18.3082 25.1096C18.4223 25.1158 18.5349 25.1312 18.6483 25.1428C18.6914 25.1474 18.7377 25.1636 18.7778 25.1536C19.0855 25.0749 19.3901 25.1837 19.697 25.1698C19.768 25.1667 19.8551 25.24 19.9137 25.2986C20.5044 25.8916 21.0897 26.4907 21.6788 27.0853C22.386 27.7978 23.097 28.5073 23.8041 29.2198C24.0694 29.4874 24.3316 29.7588 24.5907 30.0326C24.7403 30.1899 24.8698 30.3673 24.8729 30.594C24.8752 30.7567 24.8073 30.9263 24.8366 31.0806C24.869 31.2525 24.768 31.4044 24.8359 31.5864C24.8976 31.753 24.8474 31.9589 24.8582 32.147C24.8667 32.2874 24.7904 32.3799 24.7194 32.4863C24.677 32.5496 24.6678 32.6437 24.6662 32.7239C24.6647 32.8241 24.6292 32.895 24.5598 32.9637C24.091 33.431 23.6252 33.9022 23.1563 34.3702C22.7492 34.7759 22.3374 35.1768 21.931 35.5825C21.3873 36.1261 20.8468 36.6736 20.3039 37.218C20.1944 37.3276 20.0826 37.4347 19.9638 37.5334C19.9183 37.5712 19.8512 37.5874 19.7911 37.6028C19.6207 37.6453 19.5659 37.7686 19.6338 37.9283C19.6793 38.0347 19.7194 38.1511 19.7248 38.2645C19.7394 38.5714 19.7957 38.8652 19.8813 39.1621C19.9546 39.4158 19.9507 39.6926 19.9692 39.9602C19.99 40.2571 20.0379 40.5471 20.1142 40.8362C20.1767 41.0707 20.1867 41.319 20.2121 41.5626C20.2268 41.7014 20.2522 41.8464 20.2291 41.9806C20.1875 42.2158 20.2314 42.4664 20.0101 42.6677C19.5998 43.0409 19.2228 43.4504 18.8318 43.8452C18.686 43.9925 18.447 43.9902 18.2928 43.8444C18.0144 43.5807 17.726 43.327 17.453 43.0571C17.2193 42.8265 17.0019 42.5805 16.7775 42.3407C16.7836 42.333 16.7898 42.3253 16.7952 42.3176C16.8153 42.3284 16.8384 42.3353 16.8538 42.35C17.2533 42.7301 17.6512 43.1111 18.0499 43.492C18.1301 43.5684 18.2087 43.647 18.2951 43.7164C18.3228 43.7388 18.3799 43.7496 18.4108 43.7365C18.4786 43.7072 18.5465 43.6671 18.6005 43.617C18.959 43.28 19.3138 42.9399 19.6693 42.5998C19.7232 42.5474 19.7726 42.4903 19.8235 42.4348C19.8859 42.3669 19.8805 42.2975 19.8651 42.2065C19.8104 41.8858 19.5474 41.7346 19.3431 41.5403C18.9182 41.1362 18.4794 40.746 18.0429 40.3543C18.0082 40.3227 17.9419 40.3026 17.8964 40.3103C17.7167 40.3404 17.5856 40.2756 17.4615 40.1491C17.1245 39.8075 16.7783 39.4759 16.4374 39.1382C16.3534 39.0549 16.2793 38.9601 16.196 38.876C15.6508 38.3277 15.1064 37.7787 14.5589 37.2335C14.0978 36.7746 13.6305 36.3228 13.1693 35.8639C12.7367 35.4329 12.3103 34.9964 11.8792 34.5638C11.5183 34.2014 11.1536 33.842 10.7942 33.478C10.4904 33.1703 10.1912 32.858 9.89044 32.548C9.85188 32.5079 9.81873 32.4601 9.77477 32.4285C9.67298 32.356 9.6136 32.2828 9.69689 32.1548C9.71616 32.1255 9.69843 32.0614 9.68069 32.0213C9.65833 31.972 9.62131 31.9273 9.5843 31.8864C9.33599 31.6142 9.08692 31.3427 8.83552 31.0736C8.59493 30.8168 8.35819 30.5546 8.10371 30.3125C8.00809 30.2207 7.87083 30.1668 7.74436 30.1166C7.69115 30.0958 7.61481 30.1259 7.55158 30.1444C7.51533 30.1544 7.4814 30.1822 7.45287 30.2092C7.10432 30.5392 6.75037 30.8639 6.41492 31.207C6.32007 31.3034 6.27997 31.4546 6.21982 31.5833C6.20825 31.608 6.20903 31.6535 6.22445 31.6736C6.3085 31.7823 6.39487 31.891 6.48972 31.9913C6.58226 32.0892 6.68559 32.1771 6.7843 32.2697C6.77581 32.2789 6.76733 32.2889 6.75885 32.2982C6.72106 32.272 6.67942 32.2504 6.64626 32.2188C6.4635 32.0437 6.2792 31.8702 6.10184 31.689C5.95455 31.5378 5.97229 31.3042 6.12112 31.1561C6.43574 30.843 6.74497 30.5246 7.05651 30.2092C7.17912 30.085 7.30173 29.9616 7.42742 29.8406C7.45056 29.8182 7.48912 29.8005 7.52073 29.8005C7.65414 29.7997 7.78909 29.8167 7.92172 29.8066C8.09369 29.7935 8.26411 29.7573 8.4353 29.7365C8.49314 29.7295 8.55406 29.7334 8.61112 29.7442C8.99978 29.8159 9.38766 29.8891 9.77554 29.9655C9.86114 29.9825 9.94442 30.0094 10.0277 30.0334C10.1349 30.0642 10.2375 30.0565 10.3508 30.0434C10.5066 30.0249 10.6739 30.0588 10.8289 30.1004C11.0718 30.1652 11.3132 30.2231 11.5669 30.2015C11.7589 30.1853 11.9108 30.277 12.055 30.3881C12.1692 30.476 12.1907 30.4744 12.2895 30.3673C12.3604 30.2901 12.4383 30.2177 12.3542 30.0997C12.3442 30.085 12.3673 30.0334 12.3882 30.0125C12.739 29.6624 13.0914 29.3139 13.4446 28.9653C13.4631 28.953 13.4793 28.943 13.4901 28.9345Z" stroke="white" stroke-width="0.6" mask="url(#path-4-inside-2_477_98)"/>
<path d="M17.2808 30.4879L17.2808 30.4879C17.0671 30.7019 16.8534 30.916 16.6396 31.1303C16.2117 31.559 15.7835 31.988 15.3551 32.4159C15.2562 32.5148 15.192 32.6029 15.1725 32.7197C15.1776 32.7319 15.1825 32.7439 15.1868 32.7545C15.1907 32.7641 15.1941 32.7726 15.1969 32.7792C15.2089 32.8074 15.2181 32.825 15.2272 32.8373C15.2686 32.8915 15.3185 32.94 15.3773 32.997C15.3873 33.0067 15.3975 33.0166 15.4079 33.0268L15.4082 33.0271C15.6095 33.2248 15.8111 33.4224 16.0129 33.6201C16.3835 33.9831 16.7545 34.3465 17.1236 34.7116M17.2808 30.4879L18.5206 36.1101L18.4139 36.2156L18.5205 36.1101C18.0576 35.6417 17.5922 35.1748 17.1236 34.7116M17.2808 30.4879C17.3733 30.3952 17.4658 30.3025 17.5583 30.2098C18.2054 29.5613 18.8525 28.9127 19.5014 28.2666L19.5016 28.2663M17.2808 30.4879L19.5016 28.2663M17.1236 34.7116L17.0181 34.8183L17.1236 34.7116C17.1236 34.7116 17.1236 34.7116 17.1236 34.7116ZM19.5016 28.2663C19.567 28.201 19.6483 28.1427 19.7363 28.09M19.5016 28.2663L19.7363 28.09M19.7363 28.09L19.6593 27.9613L19.7363 28.09ZM23.085 31.6153L23.085 31.6154C21.687 33.0056 20.2891 34.3958 18.8904 35.7845L18.8904 35.7845C18.8223 35.8522 18.7568 35.9119 18.689 35.9738C18.6384 36.0199 18.5864 36.0673 18.531 36.1202L23.085 31.6153Z" stroke="white" stroke-width="0.3"/>
<path d="M30.4968 21.7946C30.8525 21.4395 31.2083 21.0846 31.5641 20.7296C32.0986 20.1964 32.6331 19.6633 33.1673 19.1295C33.7001 18.5967 34.233 18.063 34.7612 17.5255C34.801 17.4852 34.8287 17.4328 34.859 17.3753C34.874 17.3469 34.8897 17.3173 34.9077 17.2873L30.4968 21.7946ZM30.4968 21.7946L30.3958 21.8956L30.4968 21.7946ZM34.7373 17.2847C34.7324 17.2938 34.7277 17.3027 34.7233 17.311C34.7163 17.3242 34.7101 17.3361 34.7048 17.3457C34.684 17.3835 34.6691 17.4053 34.6545 17.4202L34.6542 17.4204C34.1265 17.9574 33.5941 18.4906 33.0612 19.0234C33.0612 19.0234 33.0612 19.0234 33.0612 19.0234L34.7373 17.2847ZM34.7373 17.2847C34.7314 17.2728 34.7257 17.2613 34.7204 17.2504C34.7127 17.2347 34.7056 17.2204 34.6996 17.2086C34.6774 17.1651 34.6598 17.1368 34.6414 17.1163L34.641 17.1159C34.4454 16.8974 34.2395 16.687 34.0309 16.4737C33.5917 16.0249 33.1523 15.5771 32.7126 15.1292C32.3468 14.7565 31.9809 14.3837 31.615 14.01L34.7373 17.2847ZM26.8948 18.6293C26.8606 18.5911 26.8419 18.5663 26.8318 18.5493C26.8308 18.5474 26.8299 18.5458 26.8291 18.5444C26.8297 18.5435 26.8303 18.5426 26.831 18.5415C26.841 18.526 26.8598 18.5033 26.8949 18.4678C27.1554 18.205 27.4158 17.9422 27.6763 17.6794C28.8932 16.4513 30.1102 15.2233 31.3302 13.9994L31.3303 13.9993C31.3686 13.9608 31.4004 13.9273 31.4269 13.8995L31.4314 13.8947C31.4461 13.8792 31.4584 13.8662 31.4692 13.8551C31.4788 13.8653 31.4896 13.877 31.5022 13.8906C31.5069 13.8958 31.512 13.9012 31.5173 13.907L26.8948 18.6293Z" stroke="white" stroke-width="0.3"/>
<path d="M35.9649 22.2025C35.9718 22.2125 35.9786 22.2224 35.9854 22.2324C36.0786 22.3685 36.1702 22.5024 36.2677 22.6294L36.2678 22.6295C36.3304 22.7109 36.3977 22.7873 36.4619 22.8595L36.4747 22.8739C36.5353 22.9421 36.5927 23.0067 36.6465 23.0742C36.6781 23.1139 36.6991 23.1554 36.7266 23.2094C36.7389 23.2337 36.7525 23.2605 36.7689 23.2909C36.7693 23.2921 36.7705 23.2955 36.7725 23.3024C36.7727 23.3031 36.773 23.3041 36.7733 23.3051C36.7766 23.3166 36.7839 23.3418 36.7962 23.3662L36.7966 23.3671C36.8425 23.4573 36.8886 23.5447 36.9341 23.6309C37.03 23.8127 37.1231 23.9891 37.2049 24.1747L37.2049 24.1749C37.336 24.4713 37.4547 24.7724 37.5488 25.0783C37.5838 25.1919 37.6074 25.3112 37.6296 25.4377C37.6345 25.4656 37.6394 25.4941 37.6444 25.5229C37.6613 25.6219 37.679 25.7254 37.7016 25.8265C37.7467 26.0284 37.7537 26.235 37.7499 26.4519C37.7487 26.5208 37.7463 26.5923 37.7439 26.6651C37.7389 26.8149 37.7337 26.9704 37.7382 27.1215L37.7382 27.1215C37.7405 27.2006 37.714 27.2821 37.6789 27.3896C37.6715 27.4125 37.6637 27.4365 37.6557 27.4619C37.528 27.8602 37.3965 28.257 37.2605 28.6521L37.2604 28.6523C37.2155 28.7832 37.1718 28.9008 37.1093 28.9988C37.0985 29.0158 37.0877 29.0327 37.077 29.0495C36.9415 29.2619 36.8128 29.4635 36.6547 29.6337L36.6542 29.6342C36.5169 29.7832 36.3552 29.908 36.1823 30.0412C36.1415 30.0727 36.1001 30.1046 36.0583 30.1374C35.9851 30.1947 35.9072 30.2476 35.8244 30.3036L35.8179 30.3081C35.7384 30.3618 35.6544 30.4186 35.5739 30.4809L35.5735 30.4812C35.29 30.702 34.9625 30.8182 34.6053 30.9449C34.5532 30.9633 34.5005 30.982 34.4471 31.0013M35.9649 22.2025L34.4471 31.0013M35.9649 22.2025C35.9511 22.2155 35.9381 22.2283 35.9252 22.2422L35.9229 22.2447L35.9229 22.2446C35.6634 22.5118 35.4054 22.7806 35.1479 23.0497L35.1478 23.0497C35.0852 23.1151 35.0475 23.157 35.0254 23.1886C35.0206 23.1954 35.0173 23.2007 35.015 23.2047C35.0183 23.2095 35.0234 23.2162 35.0312 23.2251C35.0587 23.2567 35.1026 23.297 35.1725 23.3584L35.1725 23.3585C35.441 23.5947 35.6373 23.8834 35.7866 24.198L35.7868 24.1985C35.8511 24.3354 35.9201 24.4704 35.9903 24.607C36.0202 24.6648 36.0513 24.7186 36.0844 24.7757C36.1032 24.8083 36.1227 24.842 36.143 24.8781C36.1958 24.9724 36.2489 25.0756 36.2856 25.188M35.9649 22.2025L36.2856 25.188M34.4471 31.0013C34.4472 31.0013 34.4473 31.0013 34.4473 31.0013L34.4981 31.1421L34.4471 31.0013ZM32.0631 31.0553C31.8558 30.9736 31.6429 30.9189 31.4123 30.9138L31.4122 30.9138C31.1904 30.909 30.9886 30.8479 30.7844 30.732L30.7842 30.7319C30.559 30.6046 30.3148 30.5091 30.0834 30.4186C30.0423 30.4025 30.0017 30.3866 29.9617 30.3708M32.0631 31.0553L33.2641 29.8576C32.9962 29.8921 32.7139 29.9132 32.4244 29.8569L32.4244 29.8568C32.3299 29.8384 32.2337 29.8244 32.1332 29.8099L32.1314 29.8096C32.0327 29.7953 31.9298 29.7804 31.8275 29.7604L31.8272 29.7604C31.7036 29.736 31.586 29.6932 31.4789 29.6496L31.4788 29.6496C31.4149 29.6235 31.3529 29.5921 31.2972 29.564C31.2883 29.5596 31.2797 29.5552 31.2712 29.5509C31.2066 29.5185 31.1494 29.4911 31.092 29.4716C30.7465 29.3562 30.3856 29.218 30.093 28.9297L30.0926 28.9292C30.0117 28.8489 29.921 28.7806 29.8213 28.7055C29.7943 28.6851 29.7667 28.6643 29.7384 28.6426L29.7383 28.6426C29.6795 28.5974 29.6199 28.555 29.5577 28.5109C29.5329 28.4933 29.5077 28.4754 29.4819 28.4569C29.3939 28.3936 29.3028 28.3256 29.2177 28.2484L29.2176 28.2483C28.8834 27.9449 28.5604 27.6308 28.2391 27.3185L28.2068 27.2871L28.2068 27.2871C28.0096 27.0954 27.8184 26.8979 27.6306 26.7008L27.6303 26.7005C27.6218 26.6916 27.6148 26.6848 27.609 26.6798C27.6073 26.6814 27.6055 26.6832 27.6035 26.6852M32.0631 31.0553L32.0083 31.1946L32.063 31.0552C32.063 31.0552 32.0631 31.0552 32.0631 31.0553ZM29.9617 30.3708C29.796 30.3046 29.656 30.2013 29.4971 30.0789L29.497 30.0788C29.3273 29.9485 29.1527 29.826 28.9807 29.7058C28.9712 29.6992 28.9618 29.6926 28.9524 29.686C28.7892 29.5721 28.6287 29.46 28.4727 29.3424M29.9617 30.3708C29.9616 30.3707 29.9614 30.3707 29.9613 30.3706L29.9061 30.51L29.9617 30.3708ZM28.4727 29.3424C28.3422 29.2439 28.2251 29.1338 28.1015 29.0176C28.0531 28.9721 28.0037 28.9256 27.952 28.8785L27.851 28.9893L27.9523 28.8788C27.9357 28.8636 27.9192 28.8485 27.9028 28.8336C27.7989 28.7387 27.6994 28.6478 27.6074 28.5508L27.6073 28.5506C27.4675 28.4034 27.3242 28.2495 27.1802 28.095C27.0256 27.929 26.8703 27.7622 26.7179 27.6022M28.4727 29.3424L28.3824 29.4619L28.4726 29.3423C28.4726 29.3423 28.4726 29.3424 28.4727 29.3424ZM26.7179 27.6022C26.8 27.5169 26.8816 27.4317 26.9631 27.3466C27.1758 27.1245 27.3875 26.9035 27.6035 26.6852M26.7179 27.6022C26.7171 27.603 26.7163 27.6038 26.7155 27.6046L26.6921 27.6353L26.6628 27.6115L26.6628 27.6115L26.5763 27.5412L26.6632 27.611L26.6633 27.6111L26.6925 27.6345C26.6951 27.6283 26.6987 27.6164 26.6975 27.6C26.6973 27.597 26.6969 27.5942 26.6964 27.5915L26.6901 27.5855L26.69 27.5854L26.6048 27.5034L26.6913 27.5841L26.6914 27.5842L26.6957 27.5882C26.6952 27.5859 26.6945 27.5837 26.6939 27.5818C26.6939 27.5818 26.6939 27.5818 26.6939 27.5817C26.6924 27.5772 26.6908 27.5741 26.6899 27.5724C26.6895 27.5717 26.6893 27.5714 26.6893 27.5714C26.6893 27.5714 26.6911 27.574 26.6963 27.5794L26.6964 27.5795C26.7035 27.587 26.7107 27.5946 26.7179 27.6022ZM27.6035 26.6852C27.6036 26.6852 27.6036 26.6851 27.6036 26.6851L27.497 26.5796M27.6035 26.6852L27.7391 26.5973C27.6543 26.5079 27.5865 26.4893 27.497 26.5796M27.6035 26.6852L27.497 26.5796M27.6035 26.6852L27.497 26.5796M36.2307 27.6877C36.2307 27.6877 36.2307 27.6878 36.2307 27.6878L36.0859 27.6484L36.2307 27.6877ZM36.2307 27.6877C36.2535 27.6042 36.2946 27.5198 36.3458 27.4493C36.478 27.2689 36.4899 27.0746 36.4842 26.9046L36.4842 26.9043C36.4832 26.8775 36.4821 26.8513 36.4811 26.8255C36.4768 26.7205 36.4728 26.6236 36.4786 26.527L36.2307 27.6877ZM36.2856 25.188C36.2856 25.1881 36.2856 25.1882 36.2856 25.1883L36.1431 25.2347L36.2856 25.188ZM33.3207 29.847C33.3056 29.8505 33.2856 29.8549 33.2642 29.8576L33.3207 29.847ZM33.3207 29.847C33.3265 29.8457 33.3315 29.8445 33.3359 29.8435M33.3207 29.847L33.3359 29.8435M33.3359 29.8435C33.3448 29.8414 33.3516 29.8398 33.3592 29.8382M33.3359 29.8435L33.3592 29.8382M33.3592 29.8382C33.3651 29.837 33.3692 29.8364 33.3719 29.836M33.3592 29.8382L33.3719 29.836M33.3719 29.836C33.5496 29.8901 33.7159 29.8809 33.8679 29.8515C33.963 29.8331 34.065 29.8034 34.1583 29.7763C34.2062 29.7624 34.2518 29.7491 34.2931 29.7383C34.6628 29.6421 34.9522 29.4322 35.1981 29.1709C35.253 29.1126 35.2875 29.0841 35.3104 29.077L33.3719 29.836ZM33.736 31.2403C33.6255 31.2418 33.515 31.2433 33.4047 31.2519L36.1507 30.2556C36.0712 30.3178 35.9874 30.3745 35.9035 30.4312C35.8229 30.4857 35.7424 30.5402 35.6657 30.5995C35.3615 30.8364 35.0092 30.9611 34.6539 31.0869C34.602 31.1052 34.55 31.1236 34.4982 31.1424C34.2459 31.2333 33.991 31.2368 33.736 31.2403Z" stroke="white" stroke-width="0.3"/>
<path d="M13.1002 26.4283L13.1004 26.4289C13.107 26.4478 13.1158 26.4768 13.1227 26.4993C13.1263 26.5112 13.1294 26.5213 13.1313 26.5272C13.1403 26.5549 13.1476 26.5717 13.1549 26.5832C13.4148 26.9924 13.6822 27.3783 14.0515 27.7082C14.0958 27.6659 14.1403 27.6235 14.1848 27.581C14.4249 27.3519 14.6685 27.1195 14.9115 26.8846C14.8431 26.7888 14.7706 26.6915 14.6971 26.5928C14.5462 26.3902 14.3908 26.1816 14.2567 25.9673L14.2567 25.9672C14.1223 25.7519 14.0071 25.5198 13.8958 25.2957C13.85 25.2035 13.8049 25.1126 13.7593 25.0248C13.7346 24.9785 13.7267 24.9236 13.724 24.9049C13.7237 24.9026 13.7235 24.9009 13.7233 24.8998L13.8711 24.8744M13.1002 26.4283L13.5175 23.6926C13.5213 23.9094 13.5564 24.1178 13.5982 24.3173C13.6148 24.3967 13.632 24.4726 13.6488 24.5472C13.6756 24.6658 13.7016 24.781 13.7235 24.9013L13.8711 24.8744M13.1002 26.4283C13.0979 26.4216 13.0966 26.4163 13.094 26.4062C13.0926 26.4004 13.0908 26.3931 13.0882 26.3831C13.0825 26.3616 13.0727 26.3264 13.0523 26.2913L13.1002 26.4283ZM13.8711 24.8744C13.8488 24.752 13.8214 24.6305 13.794 24.5089C13.7332 24.2393 13.6723 23.9696 13.6675 23.69L14.0338 25.2362C13.987 25.1421 13.9403 25.0479 13.8919 24.9546C13.8808 24.9343 13.8769 24.9101 13.8731 24.8867C13.8725 24.8826 13.8718 24.8785 13.8711 24.8744ZM22.211 23.3769C22.2147 23.3805 22.2183 23.384 22.2218 23.3874C22.3406 23.5037 22.3443 23.5073 22.4724 23.3777C22.7322 23.1147 22.9899 22.8492 23.2477 22.5836C23.3052 22.5244 23.3626 22.4652 23.4201 22.406C23.432 22.3936 23.4408 22.3781 23.4513 22.3594C23.4565 22.3503 23.4621 22.3404 23.4687 22.3297M22.211 23.3769L22.9466 21.8539C23.0669 21.9665 23.1891 22.0769 23.3129 22.1887C23.3646 22.2354 23.4165 22.2823 23.4687 22.3297M22.211 23.3769C22.1627 23.33 22.1101 23.2874 22.0576 23.2448M22.211 23.3769L22.0576 23.2448M23.4687 22.3297L23.3412 22.2507C23.3347 22.2611 23.3292 22.2707 23.3247 22.2786L23.314 22.2975C23.3119 22.301 23.3106 22.3032 23.3098 22.3043L23.3678 22.4407L23.409 22.3954L23.4201 22.406L23.4091 22.3953L23.4687 22.3297ZM14.9615 19.0038C14.9515 19.0074 14.9414 19.011 14.9313 19.0147C14.8305 19.0511 14.7276 19.0882 14.6399 19.1464C14.4774 19.255 14.3177 19.3678 14.158 19.4804L14.9615 19.0038ZM14.9615 19.0038C15.1658 18.929 15.3717 18.8542 15.5807 18.7932L14.9615 19.0038ZM12.1414 22.7415C12.1439 22.8713 12.1201 23.0014 12.0962 23.1317C12.0757 23.2436 12.0551 23.3557 12.0512 23.4679L12.1414 22.7415ZM12.1414 22.7415C12.136 22.4966 12.2213 22.283 12.3066 22.0697M12.1414 22.7415L12.3066 22.0697M14.7231 19.2713C14.5622 19.3788 14.4039 19.4905 14.2438 19.6035L14.2371 19.6082C14.0752 19.7224 13.9115 19.8379 13.7445 19.9491L13.7441 19.9494C13.5453 20.0809 13.3818 20.2034 13.2683 20.3826L13.2682 20.3828C13.1853 20.5133 13.0927 20.643 13.0029 20.7686C12.9557 20.8346 12.9093 20.8996 12.8656 20.9629L12.7422 20.8776M14.7231 19.2713L12.5782 21.7463M14.7231 19.2713C14.7948 19.2237 14.8806 19.1926 14.9853 19.1547C14.9943 19.1514 15.0035 19.1481 15.0128 19.1447L15.0131 19.1446C15.2178 19.0697 15.4191 18.9966 15.6225 18.9373C15.7407 18.9033 15.8681 18.8844 15.9983 18.8733L15.9856 18.7239L15.998 18.8733C16.071 18.8673 16.1454 18.8659 16.2245 18.8653C16.2359 18.8652 16.2475 18.8651 16.2592 18.865C16.3265 18.8645 16.3975 18.864 16.4684 18.8606C16.4685 18.8606 16.4686 18.8606 16.4686 18.8606L16.4614 18.7107L14.7231 19.2713ZM12.7422 20.8776L12.8658 20.9626C12.7256 21.1666 12.666 21.401 12.5987 21.6659C12.592 21.6924 12.5852 21.7192 12.5782 21.7463M12.7422 20.8776C12.5859 21.105 12.5199 21.3658 12.4539 21.6264M12.7422 20.8776L12.4539 21.6264M12.5782 21.7463L12.433 21.7089L12.5782 21.7461C12.5782 21.7462 12.5782 21.7463 12.5782 21.7463ZM16.9325 20.2353C17.1438 20.2199 17.3621 20.2291 17.571 20.2646C17.8749 20.317 18.1756 20.3934 18.4725 20.4774L18.5131 20.333C18.5132 20.333 18.5132 20.333 18.5132 20.3331C18.7219 20.3918 18.9489 20.461 19.1546 20.5722L19.1547 20.5722C19.3901 20.6998 19.6148 20.8503 19.832 20.9958C19.878 21.0267 19.9236 21.0572 19.9689 21.0873L19.969 21.0873C20.3471 21.3384 20.7163 21.6145 21.0344 21.9606L21.0345 21.9607C21.3504 22.3051 21.6664 22.6473 21.9884 22.9846L16.9217 20.0857L16.9325 20.2353ZM16.9325 20.2353C16.8151 20.2438 16.6965 20.2433 16.5779 20.2429C16.3205 20.2419 16.0628 20.2409 15.8151 20.3317M16.9325 20.2353L16.9216 20.0857C16.8086 20.0939 16.7013 20.0934 16.5878 20.0928C16.5174 20.0925 16.4445 20.0922 16.3665 20.0939C16.1729 20.0982 15.9673 20.1161 15.7635 20.1908L15.8151 20.3317M15.8151 20.3317C15.7945 20.3392 15.7739 20.3466 15.7532 20.3541C15.5366 20.4321 15.3196 20.5104 15.145 20.6779C15.0432 20.7758 14.9206 20.8553 14.7988 20.927L15.8151 20.3317ZM15.8151 20.3317L15.7637 20.1908C15.743 20.1983 15.7217 20.2059 15.7002 20.2137C15.4874 20.29 15.2401 20.3788 15.0412 20.5697L15.041 20.5698M15.8151 20.3317L15.041 20.5698M13.8399 21.9038C13.8087 21.9882 13.7751 22.075 13.741 22.163C13.6827 22.3135 13.623 22.4677 13.5716 22.6204L13.5716 22.6205C13.5293 22.7466 13.5002 22.8861 13.4975 23.0247L13.6473 23.0276L13.4975 23.0244C13.4951 23.14 13.4993 23.2545 13.5045 23.3654C13.5055 23.388 13.5066 23.4104 13.5077 23.4327C13.5119 23.5208 13.516 23.6064 13.5175 23.6925L13.8399 21.9038ZM13.8399 21.9038C14.0087 21.4454 14.2825 21.059 14.7222 20.798M13.8399 21.9038L14.7222 20.798M15.041 20.5698C14.9523 20.6552 14.8421 20.7275 14.7227 20.7977L14.7222 20.798M15.041 20.5698L14.7222 20.798M12.3066 22.0697C12.3539 21.9511 12.4013 21.8326 12.4329 21.7089M12.3066 22.0697L12.4329 21.7089M12.4329 21.7089C12.44 21.6814 12.447 21.6539 12.4539 21.6264M12.4329 21.7089L12.4539 21.6264M22.0576 23.2448C21.9961 23.1949 21.9346 23.1451 21.8802 23.0885L22.0576 23.2448ZM22.241 21.3896C22.4401 21.5818 22.6405 21.7737 22.8442 21.9635L19.7564 19.4743C20.1346 19.6892 20.5101 19.9057 20.8798 20.1312L20.8798 20.1313C21.161 20.3026 21.3896 20.5391 21.6339 20.7919C21.6484 20.8068 21.6629 20.8219 21.6775 20.837L21.6777 20.8372C21.8251 20.9889 21.9778 21.136 22.1286 21.2813C22.1662 21.3175 22.2036 21.3535 22.2409 21.3895L22.241 21.3896ZM14.957 26.8407L14.9566 26.841L14.957 26.8407Z" stroke="white" stroke-width="0.3"/>
<path d="M22.615 23.6979C22.5122 23.8015 22.4062 23.9021 22.3001 24.0027C22.2135 24.0848 22.1269 24.1669 22.0421 24.2508C21.8493 24.4397 21.6588 24.6302 21.4722 24.8245M22.615 23.6979L21.4722 24.8245M22.615 23.6979C23.0677 23.2413 23.5173 22.7825 23.9661 22.3222L22.615 23.6979ZM21.4722 24.8245L21.5804 24.9284C21.5804 24.9284 21.5804 24.9284 21.5804 24.9284L21.4722 24.8245ZM28.1055 25.5432L28.1256 25.5231C28.2731 25.3756 28.4203 25.2284 28.5752 25.089M28.1055 25.5432L29.5583 24.8595M28.1055 25.5432C27.3198 26.3328 26.534 27.1225 25.7497 27.9144L28.1055 25.5432ZM28.5752 25.089C28.7919 24.8939 29.0386 24.779 29.344 24.8376C29.4142 24.8511 29.4861 24.8559 29.5583 24.8595M28.5752 25.089L28.4748 24.9775C28.4748 24.9775 28.4748 24.9775 28.4748 24.9775L28.5752 25.089ZM29.5583 24.8595C29.5711 24.8601 29.584 24.8607 29.5968 24.8613C29.6272 24.8627 29.6577 24.864 29.688 24.866L29.6944 24.8595M29.5583 24.8595C29.5021 24.8042 29.4459 24.7488 29.3898 24.6935C29.4555 24.7047 29.5184 24.7075 29.5906 24.7107C29.601 24.7111 29.6116 24.7116 29.6224 24.7121C29.654 24.7433 29.6856 24.7744 29.7173 24.8055L29.7167 24.8134M29.6944 24.8595L29.7126 24.8677L29.7148 24.8388M29.6944 24.8595L29.5758 24.8061C29.5782 24.8008 29.5806 24.795 29.5841 24.7867L29.5844 24.786C29.5874 24.7785 29.5915 24.7689 29.5959 24.7591L29.7167 24.8134M29.6944 24.8595L29.7148 24.8388M29.7148 24.8388L29.7326 24.8206L29.7167 24.8134M29.7148 24.8388L29.7167 24.8134M26.7368 23.6516C26.8517 23.7588 26.9334 23.8822 26.9966 24.0287C27.1408 24.3618 27.2542 24.6957 27.1871 25.0651C27.1871 25.0695 27.187 25.0739 27.1869 25.0783C27.1866 25.0897 27.1862 25.1013 27.1879 25.1129C27.2419 25.564 27.0414 25.9218 26.7622 26.2449C26.5787 26.4578 26.3882 26.6683 26.1785 26.8549C25.9556 27.0523 25.6811 27.1641 25.3803 27.1796M26.7368 23.6516L22.7569 24.6895C22.7562 24.9594 22.7654 25.2293 22.7801 25.4985C22.7847 25.5787 22.8055 25.6658 22.8448 25.7344C23.0847 26.1563 23.3353 26.5711 23.7849 26.8109M26.7368 23.6516C26.6674 23.5869 26.5988 23.5215 26.5301 23.456M26.7368 23.6516L26.5301 23.456M25.3803 27.1796C25.132 27.1927 24.8806 27.2027 24.6331 27.1811C24.3794 27.1595 24.1419 27.0647 23.9306 26.9143C23.9149 26.9031 23.8995 26.8912 23.8841 26.8793C23.8519 26.8545 23.8198 26.8297 23.7849 26.8109M25.3803 27.1796L25.3882 27.3293C25.3882 27.3293 25.3882 27.3293 25.3881 27.3294M25.3803 27.1796L25.3881 27.3294M23.7849 26.8109L23.7143 26.9433C23.2217 26.6805 22.9527 26.2276 22.7144 25.8086L25.388 27.3294C25.1398 27.3425 24.8792 27.3531 24.6203 27.3305C24.3367 27.3064 24.074 27.2005 23.8436 27.0365L23.8434 27.0363C23.8256 27.0236 23.8057 27.0083 23.7889 26.9954C23.7813 26.9895 23.7744 26.9841 23.7686 26.9798C23.7465 26.9631 23.7295 26.9515 23.7139 26.9431L23.7849 26.8109ZM25.3881 27.3294C25.7224 27.3122 26.0294 27.1874 26.2779 26.9672L26.2782 26.967C26.4955 26.7736 26.6911 26.5571 26.8757 26.343C27.1664 26.0066 27.3981 25.6075 27.3368 25.0951L27.3369 25.0951L27.3366 25.0934C27.3366 25.0928 27.3366 25.0919 27.3366 25.0905L27.3369 25.0809C27.3369 25.0805 27.3369 25.08 27.3369 25.0795C27.4077 24.6684 27.2788 24.3029 27.1343 23.9692C27.0641 23.8066 26.9712 23.6652 26.8391 23.5419L26.8391 23.5419C26.7723 23.4797 26.7048 23.4153 26.6367 23.3504C26.5115 23.231 26.3841 23.1096 26.2549 22.995L26.1554 23.1071L26.255 22.9951C26.1733 22.9225 26.0718 22.8721 25.9777 22.8413L25.3881 27.3294ZM25.1827 21.1678C25.1427 21.2557 25.0928 21.3507 25.0206 21.433L25.1827 21.1678ZM25.1827 21.1678C25.201 21.1276 25.2182 21.0868 25.2343 21.0484M25.1827 21.1678L25.2343 21.0484M25.2343 21.0484C25.2359 21.0445 25.2375 21.0407 25.2391 21.0369M25.2343 21.0484L25.2391 21.0369M25.2391 21.0369C25.257 20.9943 25.2739 20.9548 25.2916 20.9171M25.2391 21.0369L25.2916 20.9171M25.2916 20.9171C25.3185 20.8601 25.3108 20.8039 25.3078 20.7826M25.2916 20.9171L25.3078 20.7826M25.3078 20.7826C25.3062 20.772 25.3041 20.7608 25.3028 20.7535M25.3078 20.7826L25.3028 20.7535M25.3028 20.7535C25.3025 20.7521 25.3023 20.7508 25.3021 20.7497M25.3028 20.7535L25.3021 20.7497M25.3021 20.7497C25.3005 20.7409 25.3001 20.7377 25.2999 20.7365M25.3021 20.7497L25.2999 20.7365M25.2999 20.7365C25.2985 20.7202 25.2958 20.7009 25.2939 20.6878M25.2999 20.7365L25.2939 20.6878M25.2939 20.6878C25.2933 20.6838 25.2928 20.6803 25.2925 20.6778M25.2939 20.6878L25.2925 20.6778M25.2925 20.6778C25.2906 20.6632 25.2902 20.6561 25.2903 20.6522L25.2925 20.6778ZM26.5301 23.456C26.4064 23.3381 26.2828 23.2202 26.1553 23.1072M26.5301 23.456L26.1553 23.1072M26.1553 23.1072C26.0929 23.0516 26.0111 23.01 25.9309 22.9838L26.1553 23.1072ZM24.8837 29.0411L24.7339 29.0331L24.7339 29.0332L24.8837 29.0411ZM24.8736 28.6023C24.8736 28.6024 24.8735 28.6024 24.8734 28.6025L24.9801 28.708L24.8736 28.6023ZM25.2912 20.6378C25.2951 20.5739 25.3002 20.5107 25.3057 20.4424C25.2591 20.397 25.2126 20.3517 25.166 20.3064C25.1628 20.3477 25.1596 20.3873 25.1565 20.4258C25.1545 20.4512 25.1525 20.4761 25.1505 20.5007C25.1974 20.5463 25.2443 20.592 25.2912 20.6378ZM25.2472 22.6312C25.0125 22.5953 24.7443 22.5784 24.4971 22.6365L25.9775 22.8412C25.9334 22.8268 25.8882 22.8113 25.8419 22.7955C25.6555 22.7319 25.453 22.6628 25.2474 22.6312L25.2472 22.6312ZM22.6809 24.367C22.6385 24.4618 22.607 24.5752 22.6069 24.6891L22.6809 24.367Z" stroke="white" stroke-width="0.3"/>
<path d="M18.8307 42.0522C18.875 42.0957 18.952 42.1654 19.0561 42.1598C19.1506 42.1547 19.2147 42.0905 19.253 42.0446C19.2598 42.0516 19.2666 42.0587 19.2733 42.0659C19.2977 42.0924 19.3205 42.1289 19.3373 42.169C19.3565 42.2151 19.3552 42.2452 19.3484 42.2682C19.3406 42.2945 19.3203 42.3285 19.2743 42.3712L19.2739 42.3715C19.1349 42.5011 18.9987 42.6335 18.8638 42.7649L18.8409 42.7871C18.7133 42.9113 18.5868 43.0345 18.4583 43.1554L18.4583 43.1554C18.4484 43.1648 18.4397 43.1729 18.4319 43.18L16.0503 39.0489C16.2106 39.2099 16.3661 39.3757 16.5216 39.5415C16.6669 39.6964 16.8121 39.8511 16.961 40.002M18.8307 42.0522L18.9359 41.9452M18.8307 42.0522C18.8308 42.0522 18.8308 42.0522 18.8308 42.0522L18.9359 41.9452M18.8307 42.0522C18.6769 41.9011 18.5233 41.7498 18.3698 41.5985L18.3684 41.5971C18.2143 41.4454 18.0603 41.2938 17.9062 41.1423C17.7962 41.0343 17.6854 40.9263 17.5744 40.8182C17.3332 40.5832 17.091 40.3473 16.8543 40.1074C16.8543 40.1074 16.8543 40.1074 16.8543 40.1073L16.961 40.002M18.9359 41.9452C19.0265 42.0343 19.0713 42.0309 19.1452 41.9395L16.961 40.002M18.9359 41.9452C18.7817 41.7937 18.6276 41.642 18.4736 41.4903C18.3196 41.3386 18.1655 41.1868 18.0113 41.0353C17.9004 40.9263 17.789 40.8178 17.6777 40.7094C17.4371 40.475 17.1967 40.2408 16.961 40.002M19.3241 41.9033C19.3164 41.9502 19.2946 41.9929 19.2651 42.0297C19.2652 42.0296 19.2652 42.0295 19.2653 42.0295L19.148 41.9361L19.265 42.0299L19.3241 41.9033ZM19.3241 41.9033C19.3442 41.9231 19.3639 41.9432 19.3832 41.9638L19.3241 41.9033ZM15.1293 39.5358C15.4318 39.8342 15.7377 40.1295 16.0442 40.4255L16.0577 40.4386C16.3686 40.7388 16.6801 41.0397 16.9885 41.3442C17.2318 41.5843 17.4726 41.8326 17.712 42.0795C17.8859 42.2588 18.0591 42.4374 18.2319 42.6115L18.232 42.6116C18.2709 42.6509 18.309 42.6894 18.336 42.7242C18.3601 42.7552 18.4018 42.8151 18.3954 42.8941L15.1293 39.5358ZM15.1293 39.5358C14.9515 39.3604 14.7777 39.1804 14.6029 38.9989C14.5901 38.9856 14.5772 38.9723 14.5644 38.9589C14.4026 38.7909 14.2397 38.6216 14.0735 38.4554L14.0734 38.4553C13.8679 38.2502 13.6554 38.044 13.4438 37.8387C13.2657 37.666 13.0883 37.4939 12.9163 37.3236C12.6363 37.0461 12.3601 36.7691 12.0835 36.4917C11.8434 36.2508 11.603 36.0097 11.3596 35.7677C11.1414 35.5506 10.9236 35.3364 10.7061 35.1226L15.1293 39.5358ZM18.3923 43.2131C18.3923 43.2131 18.3926 43.213 18.3931 43.2126L18.3923 43.2131Z" stroke="white" stroke-width="0.3"/>
<path d="M43.0791 18.2962C43.091 18.2815 43.1004 18.267 43.1078 18.2543C43.1241 18.2265 43.1386 18.1943 43.1522 18.1597C43.1838 18.1883 43.2135 18.2167 43.2406 18.2473C43.3548 18.3761 43.3633 18.4262 43.243 18.5535C43.0402 18.7678 42.832 18.9775 42.6239 19.1872C42.5273 19.2845 42.4306 19.3818 42.3346 19.4796M43.0791 18.2962C43.059 18.2772 43.0373 18.2581 43.0127 18.2365C42.9985 18.224 42.9833 18.2107 42.967 18.1961C42.9184 18.2628 42.8649 18.2354 42.7625 18.1309C42.7582 18.1263 42.7541 18.1214 42.7501 18.1165C42.744 18.1092 42.7379 18.1019 42.7309 18.0954C42.6345 18.0005 42.5384 17.9053 42.4422 17.8102C42.2338 17.6039 42.0254 17.3977 41.8148 17.194C41.6909 17.0744 41.5651 16.9566 41.4393 16.8388C41.2528 16.664 41.0661 16.4893 40.8856 16.3087C40.6978 16.1209 40.5143 15.9289 40.3308 15.7369C40.1472 15.5449 39.9637 15.3529 39.7759 15.1651C39.4646 14.8538 39.1489 14.5468 38.8331 14.2397C38.6882 14.0988 38.5432 13.9578 38.3987 13.8164M43.0791 18.2962C43.0536 18.328 43.0167 18.3603 42.9643 18.3749C42.8836 18.3973 42.8154 18.3651 42.775 18.3392C42.7337 18.3126 42.6933 18.2746 42.6554 18.2359L42.6528 18.2333L42.6529 18.2332C42.6479 18.2279 42.6436 18.223 42.6403 18.2191L42.6322 18.2094C42.6296 18.2063 42.6284 18.2049 42.6281 18.2046C42.628 18.2046 42.628 18.2046 42.628 18.2046L42.6256 18.2023L42.6257 18.2023C42.5287 18.1068 42.4323 18.0114 42.336 17.9161C42.1279 17.7101 41.9205 17.505 41.7106 17.3019C41.5905 17.1859 41.4659 17.0692 41.3404 16.9516C41.1517 16.7749 40.9609 16.5961 40.7795 16.4148C40.5906 16.2258 40.4061 16.0328 40.2229 15.8412L40.2223 15.8405C40.0386 15.6483 39.8562 15.4575 39.6699 15.2712C39.3593 14.9606 39.0449 14.6549 38.7295 14.3482C38.5844 14.207 38.439 14.0657 38.2938 13.9236L38.3987 13.8164M43.0791 18.2962C43.0963 18.3125 43.1125 18.3288 43.1283 18.3468L43.1284 18.3468C43.1518 18.3732 43.1657 18.3909 43.174 18.4034M38.3987 13.8164C38.3277 13.7472 38.2566 13.6781 38.1855 13.609C37.9723 13.4018 37.759 13.1946 37.5496 12.9836C37.3655 12.7973 37.1832 12.6091 37.0008 12.4209C36.7747 12.1874 36.5486 11.954 36.3189 11.7243M38.3987 13.8164L38.2939 13.9238C38.2235 13.855 38.1527 13.7863 38.0818 13.7174C37.8683 13.5099 37.6536 13.3014 37.4431 13.0892L37.443 13.089C37.2556 12.8996 37.0731 12.7111 36.8911 12.5232C36.6667 12.2915 36.4432 12.0608 36.2129 11.8304M36.3189 11.7243C35.9897 11.3955 35.6578 11.0694 35.3258 10.7433C35.0691 10.4911 34.8124 10.2389 34.5569 9.98537M36.3189 11.7243L36.2129 11.8304M36.3189 11.7243L36.2128 11.8303C36.2129 11.8304 36.2129 11.8304 36.2129 11.8304M34.5569 9.98537C34.4382 9.86783 34.3222 9.74758 34.2063 9.62734C34.0826 9.49908 33.9589 9.37082 33.832 9.24584M34.5569 9.98537L34.4512 10.0919M34.5569 9.98537L34.4513 10.0919C34.4513 10.0919 34.4512 10.0919 34.4512 10.0919M33.832 9.24584C33.4874 8.90725 33.1415 8.57012 32.7957 8.23304C32.4768 7.92218 32.1579 7.61137 31.8401 7.29949C31.8219 7.28147 31.8056 7.26139 31.79 7.23988C31.7796 7.24094 31.7714 7.2416 31.764 7.2422C31.75 7.24332 31.7384 7.24426 31.7185 7.24729L31.6959 7.09899L31.7565 7.05606L31.752 7.05179L31.7909 7.01107L31.7581 6.9728L31.7448 6.95734C31.7378 6.9634 31.7318 6.96974 31.7268 6.97606C31.7152 6.99057 31.7086 7.00499 31.7049 7.01584C31.6998 7.03077 31.699 7.04252 31.6988 7.04742C31.6986 7.0503 31.6987 7.05247 31.6987 7.05375L31.6989 7.05594C31.6988 7.05579 31.6987 7.05462 31.6983 7.05205C31.6974 7.04707 31.6964 7.04235 31.695 7.03523C31.6944 7.03232 31.6937 7.029 31.6929 7.0251C31.6907 7.01436 31.6873 6.9976 31.6855 6.98036L31.6823 6.94939M33.832 9.24584L33.7268 9.35274C33.7268 9.35278 33.7268 9.35281 33.7269 9.35284M33.832 9.24584L33.7269 9.35284M31.6823 6.94939C31.7008 6.9468 31.7175 6.94513 31.7315 6.94386C31.7378 6.94329 31.7431 6.94283 31.7477 6.94244C31.7562 6.9417 31.7624 6.94116 31.7689 6.94042C31.7738 6.93987 31.7763 6.93945 31.7771 6.9393C31.7558 6.91758 31.7344 6.89597 31.7129 6.87449M31.6823 6.94939L31.6781 6.90928L31.7129 6.87449M31.6823 6.94939C31.6794 6.94981 31.6764 6.95024 31.6734 6.9507L31.433 6.98728L31.5735 7.1857C31.5891 7.20762 31.6013 7.2267 31.615 7.24788C31.6232 7.2607 31.6319 7.27428 31.6422 7.28972C31.6664 7.32621 31.6962 7.36822 31.7348 7.40631L31.7351 7.40655C32.0548 7.72035 32.3733 8.03077 32.6916 8.34102C33.0364 8.67712 33.381 9.01303 33.7269 9.35284M31.7129 6.87449L31.7287 6.85875L31.7363 6.85085L31.7367 6.85041C31.7399 6.84702 31.7446 6.84209 31.7495 6.83716L31.8186 6.76804C31.8063 6.75571 31.7939 6.74342 31.7815 6.73116C31.7399 6.69029 31.672 6.64788 31.6188 6.65173C31.46 6.66253 31.3073 6.70417 31.1885 6.82678C31.1228 6.89477 31.0542 6.96035 30.9857 7.02584C30.9594 7.05096 30.9331 7.07608 30.9071 7.10131M31.7129 6.87449C31.7008 6.8623 31.6885 6.85016 31.6763 6.83806C31.6649 6.82693 31.6492 6.81512 31.6344 6.8073C31.6291 6.80446 31.625 6.80278 31.6224 6.80186C31.4851 6.81205 31.3774 6.84738 31.2963 6.93114C31.2283 7.00137 31.1565 7.07005 31.0873 7.1362C31.0615 7.16088 31.0361 7.1852 31.0113 7.20913L30.9071 7.10131M30.9071 7.10131C30.8722 7.13521 30.8368 7.1687 30.8014 7.20221C30.7273 7.27237 30.6531 7.3426 30.5832 7.4167C30.4212 7.5879 30.4174 7.78454 30.5654 7.96421C30.5759 7.97705 30.5864 7.98993 30.5969 8.00281C30.6018 8.00884 30.6067 8.01488 30.6116 8.02091C30.6211 7.97693 30.6415 7.94047 30.6601 7.91244C30.668 7.90046 30.677 7.8881 30.6866 7.87546M30.9071 7.10131L31.0116 7.2089C30.9736 7.24577 30.9367 7.28073 30.9006 7.31491C30.8283 7.38331 30.7594 7.44856 30.6923 7.51965L30.6921 7.51978C30.6307 7.58471 30.6094 7.64303 30.608 7.69163C30.6066 7.74051 30.6247 7.80028 30.6812 7.86882L30.6816 7.86928L30.6816 7.86928C30.6833 7.87134 30.6849 7.8734 30.6866 7.87546M30.6866 7.87546C30.6958 7.88665 30.7048 7.89775 30.7138 7.90876C30.7379 7.93834 30.7614 7.96727 30.7849 7.99557C30.8044 7.96612 30.8337 7.9312 30.8724 7.88556C30.8754 7.88247 30.8806 7.88076 30.8878 7.87836C30.8914 7.87716 30.8955 7.87579 30.9001 7.87399C30.9069 7.87987 30.9143 7.88586 30.922 7.89205C30.9345 7.9021 30.9476 7.91266 30.9595 7.92411C31.0429 8.0045 31.1265 8.08474 31.2101 8.165C31.4497 8.39498 31.6894 8.62512 31.925 8.8595C32.4612 9.39278 32.9956 9.9288 33.53 10.4648C33.6903 10.6255 33.8506 10.7863 34.0109 10.947M30.6866 7.87546C30.7079 7.84762 30.7327 7.81836 30.7579 7.78858L30.7659 7.77913L30.7663 7.77949C30.7821 7.76366 30.7982 7.75419 30.8089 7.74877C30.8192 7.74351 30.8284 7.74019 30.8327 7.73867L30.8426 7.7353L30.8457 7.73419L30.9302 7.70135L30.9985 7.7608C31.003 7.7647 31.0075 7.76833 31.0143 7.7738C31.017 7.77599 31.0201 7.77848 31.0237 7.78141C31.0346 7.79022 31.049 7.80212 31.0634 7.8159L31.0636 7.81613C31.1465 7.89601 31.2297 7.97592 31.3131 8.05599C31.553 8.28624 31.7942 8.51774 32.0307 8.75314M34.0109 10.947C34.216 11.1523 34.4209 11.358 34.6258 11.5637C35.0649 12.0045 35.504 12.4453 35.9457 12.8833M34.0109 10.947L34.1171 10.841C34.1171 10.841 34.117 10.841 34.117 10.841M34.0109 10.947L34.117 10.841M35.9457 12.8833C36.2759 13.2103 36.6079 13.5357 36.9398 13.8611C37.3217 14.2355 37.7037 14.6099 38.0833 14.987M35.9457 12.8833L36.0513 12.7768C36.0513 12.7768 36.0512 12.7767 36.0512 12.7767M35.9457 12.8833L36.0512 12.7767M38.0833 14.987C38.3694 15.2711 38.6524 15.5584 38.9353 15.8457C39.1899 16.1042 39.4444 16.3627 39.7011 16.6187C40.2124 17.129 40.7256 17.637 41.2389 18.145C41.5153 18.4185 41.7916 18.6921 42.0677 18.966C42.1821 19.0797 42.1834 19.1172 42.0815 19.2311C42.1223 19.2608 42.164 19.2891 42.2069 19.3158M38.0833 14.987L38.189 14.8806M38.0833 14.987L38.189 14.8805C38.189 14.8805 38.189 14.8805 38.189 14.8806M42.2069 19.3158C42.1988 19.3251 42.1906 19.3342 42.1824 19.3432L42.1821 19.3435C42.1569 19.371 42.1251 19.3985 42.0858 19.4164C42.1206 19.4392 42.1562 19.4611 42.1927 19.4819C42.2513 19.5159 42.286 19.529 42.3346 19.4796M42.2069 19.3158C42.2231 19.3259 42.2396 19.3358 42.2562 19.3454M42.2069 19.3158C42.2271 19.2924 42.2463 19.2682 42.2618 19.2434C42.2843 19.2076 42.3061 19.1598 42.3058 19.1013C42.3055 19.0422 42.2828 18.9942 42.2584 18.9578C42.2351 18.9231 42.2042 18.8902 42.1735 18.8596L42.1734 18.8596C41.8969 18.5852 41.6203 18.3115 41.3438 18.0378C40.8308 17.53 40.3181 17.0225 39.8071 16.5125L39.807 16.5125C39.5546 16.2608 39.2995 16.0018 39.0438 15.7422C38.7587 15.4526 38.4728 15.1624 38.189 14.8806M42.3346 19.4796L42.245 19.3916L42.2446 19.3912L42.2277 19.3747M42.3346 19.4796L42.245 19.3915L42.2446 19.3911L42.2279 19.3746C42.2296 19.3734 42.2324 19.3717 42.2362 19.3699C42.2414 19.3674 42.2479 19.3651 42.2554 19.3637C42.2572 19.3633 42.259 19.3631 42.2608 19.3628C42.2611 19.3628 42.2614 19.3628 42.2617 19.3627C42.267 19.3621 42.272 19.362 42.2765 19.3623C42.2885 19.363 42.2947 19.3662 42.2916 19.3649C42.2882 19.3634 42.2816 19.3601 42.2678 19.3521L42.2671 19.3517C42.2635 19.3496 42.2598 19.3475 42.2562 19.3454M42.2277 19.3747L43.134 18.4504L43.242 18.5526L43.134 18.4504C42.9324 18.6635 42.7265 18.8709 42.519 19.0799C42.4316 19.168 42.3439 19.2563 42.2562 19.3454M42.2277 19.3747C42.2253 19.3764 42.2252 19.3769 42.2276 19.3745M42.2277 19.3747L42.2276 19.3745M42.2562 19.3454C42.2466 19.3551 42.2371 19.3648 42.2276 19.3745M42.2276 19.3745L43.174 18.4034M38.189 14.8806C37.8103 14.5043 37.4269 14.1285 37.0439 13.7531C36.7115 13.4272 36.3795 13.1018 36.0512 12.7767M36.0512 12.7767C35.6099 12.3391 35.1713 11.8988 34.7325 11.4582C34.5275 11.2525 34.3224 11.0466 34.117 10.841M34.117 10.841C33.9568 10.6804 33.7966 10.5197 33.6364 10.359C33.102 9.823 32.5672 9.28667 32.0307 8.75314M32.0307 8.75314C32.0307 8.75316 32.0308 8.75317 32.0308 8.75318L31.925 8.85942L32.0307 8.75314ZM33.7269 9.35284C33.8482 9.47231 33.9668 9.59507 34.0867 9.71944L34.0987 9.7319C34.2143 9.85178 34.3313 9.9731 34.4512 10.0919M34.4512 10.0919C34.7082 10.3468 34.9651 10.5992 35.2217 10.8512C35.5529 11.1767 35.8835 11.5015 36.2129 11.8304M43.174 18.4034C43.1754 18.4055 43.1766 18.4073 43.1776 18.4091C43.1846 18.4206 43.1801 18.4176 43.1798 18.4055C43.1795 18.3964 43.1817 18.391 43.1817 18.391C43.1817 18.391 43.1812 18.3921 43.1798 18.3946C43.1784 18.397 43.1765 18.3999 43.174 18.4034ZM31.7607 9.12477C31.7167 9.08148 31.6727 9.0382 31.6287 8.99491C31.6039 8.9706 31.5792 8.94629 31.5545 8.92197L31.7607 9.12477ZM31.7607 9.12477C31.7644 9.12837 31.7681 9.13187 31.7719 9.1353M31.7607 9.12477L31.7719 9.1353M31.7719 9.1353L31.7678 9.1397L31.7533 9.15534L31.8633 9.25741L31.7719 9.1353ZM32.2947 7.36175C32.3555 7.41965 32.4163 7.47756 32.4771 7.53546C32.6261 7.67744 32.7752 7.81942 32.9242 7.96139C32.9242 7.96145 32.9243 7.96151 32.9244 7.96157C32.982 8.01651 33.0396 8.07144 33.0973 8.12638L33.0973 8.12635L33.0986 8.12769M32.2947 7.36175L33.0986 8.12769M32.2947 7.36175L32.346 7.31029L32.2947 7.36175C32.1954 7.26717 32.0962 7.17259 31.9969 7.07801C31.9979 7.07053 31.9983 7.06449 31.9985 7.06049C31.9995 7.03618 31.9961 7.01388 31.9939 7.00135C31.9921 6.99073 31.9897 6.97885 31.9879 6.97052C31.9875 6.96848 31.9871 6.96665 31.9868 6.96511L31.9846 6.95372L31.9841 6.95041C31.984 6.9496 31.9839 6.94925 31.9839 6.94927L31.8739 6.96073C31.8678 6.9549 31.8617 6.94906 31.8556 6.94322C31.8521 6.94669 31.8486 6.95036 31.8451 6.95402C31.8417 6.95768 31.8382 6.96135 31.8347 6.96482C31.8347 6.96489 31.8347 6.96496 31.8348 6.96504L31.8187 6.98191M32.2947 7.36175L31.802 7.02384L31.8183 7.01229C31.8285 7.02658 31.8387 7.04176 31.8484 7.05659C31.8497 7.04358 31.846 7.02499 31.8421 7.00607C31.8343 6.998 31.8265 6.98995 31.8187 6.98191M33.0986 8.12769L33.1155 8.11002L33.131 8.09608M33.0986 8.12769C33.104 8.1223 33.1094 8.11709 33.1148 8.11189C33.1202 8.10668 33.1256 8.10148 33.131 8.09608M33.131 8.09608C33.1307 8.09567 33.1303 8.09527 33.1299 8.09486L33.1299 8.09493L33.131 8.09608ZM31.8187 6.98191C31.8141 6.97724 31.8096 6.97257 31.805 6.96791C31.7957 6.95836 31.7864 6.94883 31.7771 6.93933C31.7768 6.9394 31.7763 6.93953 31.7756 6.93973C31.7716 6.94094 31.759 6.9453 31.7451 6.95711L31.7585 6.97276L31.791 7.01093L31.8187 6.98191Z" stroke="white" stroke-width="0.3"/>
<path d="M15.8923 26.8544L15.8923 26.8543C15.8333 26.8512 15.7918 26.8592 15.7613 26.8735C15.7323 26.887 15.7031 26.9106 15.6748 26.9569L15.5468 26.8787M15.8923 26.8544L13.9709 28.8785C13.9709 28.8785 13.9709 28.8784 13.9709 28.8784C13.9674 28.7291 14.0101 28.6188 14.1277 28.5091L14.1277 28.509C14.3119 28.337 14.4899 28.1487 14.6639 27.9645C14.7672 27.8551 14.8692 27.7472 14.9702 27.6451L14.8636 27.5396M15.8923 26.8544H15.9M15.8923 26.8544H15.9M15.5468 26.8787L15.6756 26.9557C15.6478 27.0021 15.6129 27.0391 15.5833 27.0677C15.5683 27.0821 15.553 27.0958 15.5398 27.1078L15.5392 27.1084C15.5256 27.1206 15.514 27.131 15.5031 27.1414L15.503 27.1416C15.4339 27.2073 15.366 27.2701 15.2991 27.3319C15.187 27.4356 15.0775 27.5368 14.9701 27.6452L14.8636 27.5396M15.5468 26.8787C15.5199 26.9238 15.4788 26.9608 15.438 26.9976C15.425 27.0093 15.412 27.021 15.3995 27.033C15.334 27.0953 15.2676 27.1568 15.2012 27.2182C15.087 27.3238 14.9728 27.4294 14.8636 27.5396M15.5468 26.8787L14.0253 28.3994C14.2071 28.2297 14.3781 28.0486 14.5491 27.8675C14.6531 27.7574 14.7571 27.6472 14.8636 27.5396M15.9 26.8544C16.0891 26.8544 16.2781 26.8544 16.467 26.8543C16.8448 26.8541 17.2224 26.8539 17.6001 26.8544H17.6003M15.9 26.8544H17.6003M17.6003 26.8544C17.6499 26.8544 17.6969 26.8536 17.742 26.8527C17.8664 26.8504 17.9766 26.8483 18.0875 26.8657L18.0879 26.8658M17.6003 26.8544L18.0879 26.8658M18.0879 26.8658C18.176 26.8794 18.267 26.9215 18.3121 26.969L18.3127 26.9696M18.0879 26.8658L18.3127 26.9696M18.3127 26.9696C18.467 27.1301 18.6082 27.2907 18.7518 27.4541C18.8612 27.5785 18.972 27.7046 19.0911 27.8334L19.2005 27.7322M18.3127 26.9696L19.2005 27.7322M19.2005 27.7322L19.0911 27.8334C19.0923 27.8348 19.0935 27.836 19.0946 27.8373C19.0913 27.8408 19.0875 27.8446 19.0831 27.8489L19.083 27.849M19.2005 27.7322L19.083 27.849M19.083 27.849C18.8803 28.0483 18.6834 28.2442 18.4869 28.4397C18.2758 28.6497 18.0652 28.8593 17.8485 29.072L17.8483 29.0721M19.083 27.849L17.8483 29.0721M17.8483 29.0721C17.4582 29.4558 17.0673 29.8392 16.6763 30.2227C16.0896 30.7982 15.5028 31.3739 14.9178 31.9509L15.0231 32.0576L14.9181 31.9507C14.9154 31.9533 14.9129 31.9557 14.9106 31.9579C14.9088 31.9562 14.9069 31.9544 14.905 31.9525C14.6456 31.6994 14.3825 31.4502 14.1164 31.2042L14.1162 31.204M17.8483 29.0721L14.1162 31.204M14.1162 31.204C14.0536 31.1464 14.0281 31.0839 14.0257 30.9848L14.1162 31.204Z" stroke="white" stroke-width="0.3"/>
<path d="M33.8685 23.133L33.8833 23.1367C33.9977 23.1656 34.1173 23.1202 34.2551 22.9688C34.3477 22.8656 34.4534 22.7662 34.5533 22.6723C34.6026 22.626 34.6504 22.581 34.6946 22.5375L34.7998 22.6445M33.8685 23.133L35.1244 17.8264L35.0303 17.9124C35.0375 17.9111 35.0415 17.9089 35.0415 17.9089C35.0415 17.909 35.0412 17.9091 35.0407 17.9094C35.039 17.9104 35.0356 17.9128 35.0302 17.9173C35.0262 17.9207 35.0215 17.9249 35.0161 17.9302M33.8685 23.133L33.8533 23.1323C33.8033 23.1301 33.7536 23.1279 33.7041 23.1258C33.0946 23.0989 32.5159 23.0733 31.9365 23.0498L31.9363 23.0498C31.8538 23.0465 31.7935 23.0219 31.7373 22.9672L31.7371 22.967C31.4486 22.6876 31.1582 22.4101 30.864 22.1367C31.0994 21.8979 31.329 21.6624 31.5582 21.4273C31.8076 21.1714 32.0566 20.916 32.3123 20.6571C32.7233 20.2415 33.1359 19.8261 33.5485 19.4106C34.0365 18.9194 34.5246 18.4279 35.0105 17.9357L33.8685 23.133ZM34.7998 22.6445L34.6943 22.5378C34.7414 22.4912 34.7884 22.4447 34.8355 22.3982C35.141 22.0962 35.4457 21.795 35.747 21.4897C35.7859 21.4502 35.808 21.407 35.8107 21.3868C35.8284 21.2378 35.8339 21.0879 35.8398 20.9306C35.841 20.8975 35.8423 20.864 35.8436 20.8301L35.8436 20.83C35.8513 20.6423 35.8581 20.454 35.865 20.2653C35.8796 19.8668 35.8942 19.4668 35.9162 19.0682M34.7998 22.6445C34.8468 22.598 34.8938 22.5515 34.9408 22.505C35.2463 22.203 35.5519 21.901 35.8539 21.5949L34.3664 23.0694C34.4551 22.9705 34.5522 22.8793 34.6493 22.7881C34.6998 22.7406 34.7504 22.693 34.7998 22.6445ZM35.9162 19.0682C35.9162 19.0681 35.9162 19.0681 35.9162 19.0681L36.066 19.0764L35.9162 19.0684C35.9162 19.0683 35.9162 19.0682 35.9162 19.0682ZM35.9162 19.0682C35.9222 18.956 35.8975 18.8832 35.8381 18.8183L35.9488 18.717L35.8382 18.8184C35.718 18.6874 35.5948 18.5551 35.4711 18.4224C35.3184 18.2585 35.1651 18.094 35.0161 17.9302M35.0161 17.9302C35.0153 17.9293 35.0144 17.9284 35.0136 17.9274L35.0161 17.9302Z" stroke="white" stroke-width="0.3"/>
<path d="M15.4785 40.8554L15.4787 40.8555C15.5558 40.9275 15.6338 40.9983 15.7128 41.0699L15.7218 41.0781C15.8036 41.1522 15.8862 41.2273 15.9678 41.3038M15.4785 40.8554L15.8652 41.4132M15.4785 40.8554C15.3617 40.7466 15.2463 40.6366 15.1302 40.526C15.0801 40.4782 15.0298 40.4302 14.9792 40.3822L15.4785 40.8554ZM15.9678 41.3038L15.8652 41.4132M15.9678 41.3038C15.9678 41.3038 15.9677 41.3037 15.9677 41.3037L15.8652 41.4132M15.9678 41.3038C16.0785 41.4073 16.1888 41.5128 16.2985 41.6177C16.3058 41.6247 16.3131 41.6316 16.3203 41.6385M15.8652 41.4132C15.9755 41.5164 16.0846 41.6207 16.1938 41.7251C16.2322 41.7618 16.2707 41.7986 16.3092 41.8353C16.3087 41.8262 16.3082 41.8164 16.3078 41.806C16.306 41.7575 16.3061 41.6989 16.3203 41.6385M16.3203 41.6385C16.366 41.6822 16.4116 41.7258 16.4571 41.769L16.3203 41.6385ZM8.74838 34.3689C8.79741 34.4175 8.84611 34.4663 8.8948 34.5151C9.01379 34.6345 9.13266 34.7536 9.25579 34.8686C9.33431 34.9419 9.41556 35.0121 9.4968 35.0823C9.5831 35.1568 9.66939 35.2314 9.7524 35.3097C9.92745 35.4747 10.0979 35.6451 10.2637 35.8194C10.3896 35.9514 10.5134 36.0857 10.6372 36.22C10.7491 36.3415 10.8611 36.4631 10.9747 36.5828C11.2114 36.8319 11.4497 37.081 11.6949 37.3216C11.802 37.4273 11.9143 37.5276 12.0267 37.628C12.1054 37.6982 12.1841 37.7685 12.2609 37.8405M8.74838 34.3689L15.026 40.6339C14.976 40.5862 14.926 40.5385 14.8758 40.4909C14.8024 40.4212 14.7282 40.3522 14.6541 40.2832C14.479 40.1203 14.3041 39.9576 14.1394 39.7854C13.9897 39.6288 13.8488 39.4635 13.7079 39.2982C13.6274 39.2038 13.5468 39.1093 13.4647 39.0165C13.4196 38.9656 13.3705 38.9188 13.3215 38.8719C13.2992 38.8506 13.2768 38.8292 13.2549 38.8076C13.2355 38.7883 13.2162 38.7691 13.1969 38.7498C13.1519 38.7049 13.107 38.66 13.0606 38.6163M8.74838 34.3689C8.69676 34.3179 8.64493 34.2671 8.5931 34.2163M8.74838 34.3689L8.5931 34.2163M12.2609 37.8405C12.3112 37.8876 12.358 37.9378 12.4049 37.988C12.4471 38.0332 12.4893 38.0784 12.5339 38.1212C12.6437 38.2271 12.7553 38.3311 12.8669 38.4351C12.9316 38.4954 12.9963 38.5557 13.0606 38.6163M12.2609 37.8405L12.3634 37.731C12.3634 37.731 12.3635 37.7311 12.3635 37.7311L12.2609 37.8405ZM13.0606 38.6163L13.1635 38.5072C13.1635 38.5071 13.1634 38.5071 13.1634 38.5071L13.0606 38.6163ZM8.5931 34.2163C8.45055 34.0767 8.30801 33.937 8.17003 33.7928L8.5931 34.2163ZM16.3232 41.5457C16.3303 41.5619 16.3352 41.583 16.3245 41.6223L11.6206 36.6294C11.706 36.7162 11.7914 36.8031 11.8777 36.889L11.7718 36.9952C11.7718 36.9952 11.7718 36.9952 11.7718 36.9952C12.0066 37.2292 12.2416 37.4624 12.4765 37.6955C12.858 38.0741 13.2393 38.4525 13.6191 38.8333C13.9102 39.1252 14.1994 39.4188 14.4891 39.7129L14.4892 39.7131C14.7787 40.0069 15.0685 40.3012 15.3603 40.5938C15.5851 40.8191 15.8152 41.0393 16.0439 41.2582C16.1134 41.3247 16.1827 41.391 16.2517 41.4574L16.2519 41.4576C16.2934 41.4973 16.3136 41.5237 16.3232 41.5457Z" stroke="white" stroke-width="0.3"/>
<mask id="path-15-inside-3_477_98" fill="white">
<path d="M17.4545 42.5005C17.2787 42.3463 17.1014 42.1921 16.9279 42.0355C16.9147 42.024 16.924 41.9885 16.9225 41.9646C16.9433 41.9685 16.9703 41.9661 16.9849 41.9777C17.0204 42.0086 17.0505 42.0456 17.0829 42.0803C17.2116 42.2152 17.3396 42.3502 17.4684 42.4859C17.4638 42.4905 17.4592 42.4951 17.4545 42.5005Z"/>
</mask>
<path d="M17.4545 42.5005L17.2567 42.7261L17.4848 42.9262L17.6823 42.6958L17.4545 42.5005ZM16.9279 42.0355L17.1288 41.8128L17.1263 41.8106L16.9279 42.0355ZM16.9225 41.9646L16.9771 41.6696L16.5983 41.5995L16.6231 41.9839L16.9225 41.9646ZM16.9849 41.9777L17.1818 41.7513L17.1764 41.7467L17.1708 41.7422L16.9849 41.9777ZM17.0829 42.0803L16.8635 42.285L16.8658 42.2874L17.0829 42.0803ZM17.4684 42.4859L17.6806 42.698L17.8872 42.4914L17.686 42.2794L17.4684 42.4859ZM17.6524 42.275C17.4752 42.1196 17.3003 41.9675 17.1288 41.8128L16.7269 42.2583C16.9024 42.4167 17.0822 42.573 17.2567 42.7261L17.6524 42.275ZM17.1263 41.8106C17.1943 41.8706 17.2117 41.9417 17.2165 41.9676C17.2195 41.983 17.2203 41.9953 17.2205 42.0021C17.2208 42.0091 17.2207 42.0141 17.2206 42.0156C17.2206 42.0171 17.2205 42.0174 17.2207 42.015C17.2207 42.015 17.2213 42.007 17.2215 42.0036C17.222 41.9953 17.2236 41.972 17.2218 41.9453L16.6231 41.9839C16.6221 41.9691 16.6231 41.9593 16.6227 41.9647C16.6225 41.9681 16.6226 41.9671 16.6221 41.974C16.6218 41.9785 16.6213 41.9857 16.621 41.9938C16.6205 42.007 16.6196 42.0398 16.6269 42.0783C16.6337 42.1148 16.6548 42.1947 16.7294 42.2605L17.1263 41.8106ZM16.8678 42.2596C16.8879 42.2633 16.9055 42.2649 16.9124 42.2655C16.9238 42.2665 16.9207 42.2662 16.9201 42.2661C16.918 42.2659 16.9044 42.2643 16.886 42.2587C16.8673 42.2532 16.834 42.2408 16.799 42.2132L17.1708 41.7422C17.1285 41.7088 17.0863 41.6924 17.0578 41.6839C17.0296 41.6754 17.0052 41.672 16.9919 41.6704C16.9848 41.6696 16.9785 41.669 16.9743 41.6686C16.9722 41.6684 16.9702 41.6682 16.9688 41.6681C16.9672 41.668 16.9663 41.6679 16.9655 41.6678C16.961 41.6674 16.9674 41.6678 16.9771 41.6696L16.8678 42.2596ZM16.7881 42.2041C16.808 42.2215 16.812 42.2297 16.8635 42.285L17.3022 41.8756C17.289 41.8614 17.2328 41.7957 17.1818 41.7513L16.7881 42.2041ZM16.8658 42.2874C16.9942 42.422 17.1219 42.5566 17.2508 42.6924L17.686 42.2794C17.5574 42.1438 17.429 42.0085 17.2999 41.8732L16.8658 42.2874ZM17.2563 42.2738C17.2525 42.2776 17.24 42.2899 17.2268 42.3053L17.6823 42.6958C17.68 42.6984 17.6784 42.7002 17.6779 42.7007C17.6778 42.7008 17.6779 42.7007 17.6806 42.698L17.2563 42.2738Z" fill="white" mask="url(#path-15-inside-3_477_98)"/>
<mask id="path-17-inside-4_477_98" fill="white">
<path d="M6.85136 32.3701C6.9678 32.4889 7.08347 32.6069 7.19991 32.7256C7.19606 32.7295 7.19143 32.7341 7.18758 32.738C7.07036 32.6223 6.95315 32.5058 6.83594 32.3902C6.84056 32.384 6.84596 32.3771 6.85136 32.3701Z"/>
</mask>
<path d="M6.85136 32.3701L7.06557 32.1601L6.82527 31.915L6.61455 32.1859L6.85136 32.3701ZM7.19991 32.7256L7.41205 32.9377L7.6221 32.7277L7.41412 32.5156L7.19991 32.7256ZM7.18758 32.738L6.97685 32.9515L7.18898 33.1608L7.39971 32.9501L7.18758 32.738ZM6.83594 32.3902L6.59594 32.2102L6.43878 32.4197L6.62521 32.6037L6.83594 32.3902ZM6.63715 32.5802C6.69537 32.6395 6.75339 32.6987 6.81142 32.7579C6.86945 32.8171 6.92748 32.8763 6.98571 32.9356L7.41412 32.5156C7.35591 32.4562 7.29788 32.397 7.23985 32.3378C7.18183 32.2787 7.12379 32.2195 7.06557 32.1601L6.63715 32.5802ZM6.98778 32.5135C6.98585 32.5154 6.98373 32.5175 6.98161 32.5197C6.97948 32.5218 6.97737 32.5239 6.97544 32.5258L7.39971 32.9501C7.40164 32.9482 7.40377 32.946 7.40588 32.9439C7.40801 32.9418 7.41012 32.9397 7.41205 32.9377L6.98778 32.5135ZM7.3983 32.5244C7.3399 32.4668 7.28147 32.4089 7.22283 32.3509C7.16426 32.2929 7.10547 32.2347 7.04666 32.1766L6.62521 32.6037C6.68361 32.6613 6.74204 32.7192 6.80068 32.7772C6.85926 32.8352 6.91804 32.8934 6.97685 32.9515L7.3983 32.5244ZM7.07594 32.5702C7.07868 32.5665 7.08236 32.5618 7.08817 32.5543L6.61455 32.1859C6.60957 32.1923 6.60245 32.2015 6.59594 32.2102L7.07594 32.5702Z" fill="white" mask="url(#path-17-inside-4_477_98)"/>
<path d="M25.0149 26.6849L25.023 26.6843C25.0789 26.6808 25.1467 26.6827 25.2039 26.6842C25.2318 26.685 25.2571 26.6857 25.2774 26.6857C25.3542 26.6856 25.4015 26.6781 25.4327 26.6625C25.6782 26.5364 25.9142 26.3755 26.1212 26.1922C26.1952 26.1261 26.2614 26.0455 26.3284 25.954C26.3598 25.9114 26.3903 25.8676 26.422 25.8223L26.4288 25.8126C26.4625 25.7644 26.4975 25.7145 26.5339 25.6656L26.6542 25.7552L26.5338 25.6659C26.6202 25.5494 26.6598 25.4336 26.6447 25.2949C26.6301 25.1621 26.6264 25.0216 26.6229 24.8889C26.6211 24.8207 26.6194 24.7545 26.6162 24.6925L26.7661 24.6849M25.0149 26.6849L26.6131 24.61C26.6138 24.6343 26.6146 24.6615 26.6163 24.6928L26.7661 24.6849M25.0149 26.6849L25.0069 26.6863C24.7031 26.7389 24.4418 26.6323 24.1737 26.4407C24.0908 26.381 24.0041 26.3279 23.9183 26.2799L23.918 26.2797C23.6575 26.1345 23.5055 25.8914 23.3602 25.5977L23.3599 25.5971L23.3513 25.5799C23.3489 25.575 23.3473 25.5715 23.3462 25.5687C23.3457 25.5675 23.3453 25.5665 23.3451 25.5658C23.3406 25.5278 23.336 25.4902 23.3315 25.4531C23.2825 25.0526 23.2401 24.7058 23.4084 24.3705L23.4085 24.3703C23.409 24.3693 23.4095 24.3682 23.4102 24.3669C23.4159 24.3558 23.4285 24.3309 23.4367 24.3052L23.4368 24.3047C23.5812 23.8422 23.9077 23.5815 24.3786 23.4456L24.337 23.3015M25.0149 26.6849L24.6624 23.1889C24.6271 23.2011 24.592 23.214 24.5569 23.2268C24.4841 23.2535 24.4114 23.2801 24.337 23.3015M26.7661 24.6849C26.7649 24.6636 26.7643 24.642 26.7637 24.6205C26.7617 24.554 26.7598 24.4873 26.7429 24.425L25.187 26.8339C25.3 26.8373 25.4126 26.8406 25.5006 26.7963C25.7574 26.6644 26.0042 26.4963 26.2209 26.3043C26.3463 26.1924 26.4457 26.0503 26.5447 25.9086C26.5809 25.8569 26.6169 25.8053 26.6542 25.7552C26.7583 25.6149 26.8139 25.4622 26.7938 25.2787C26.7798 25.1514 26.7765 25.0231 26.7732 24.8948C26.7714 24.8248 26.7696 24.7548 26.7661 24.6849ZM24.337 23.3015C23.8296 23.448 23.4563 23.7387 23.2936 24.26L26.5981 24.4642C26.4966 24.0905 26.2738 23.7993 25.9498 23.5874L25.9497 23.5873C25.6004 23.3586 25.1919 23.3295 24.7418 23.3191L24.7345 23.322L24.7342 23.3221C24.7288 23.3242 24.7204 23.3275 24.7115 23.3306C24.6811 23.3412 24.6488 23.353 24.6152 23.3653C24.5397 23.3929 24.4579 23.4228 24.3783 23.4456L24.337 23.3015Z" stroke="white" stroke-width="0.3"/>
</g>
</g>
<defs>
<filter id="filter0_d_477_98" x="-4" y="-4" width="58" height="57.9547" filterUnits="userSpaceOnUse" color-interpolation-filters="sRGB">
<feFlood flood-opacity="0" result="BackgroundImageFix"/>
<feColorMatrix in="SourceAlpha" type="matrix" values="0 0 0 0 0 0 0 0 0 0 0 0 0 0 0 0 0 0 127 0" result="hardAlpha"/>
<feOffset/>
<feGaussianBlur stdDeviation="5"/>
<feComposite in2="hardAlpha" operator="out"/>
<feColorMatrix type="matrix" values="0 0 0 0 0 0 0 0 0 0.819608 0 0 0 0 1 0 0 0 0.4 0"/>
<feBlend mode="normal" in2="BackgroundImageFix" result="effect1_dropShadow_477_98"/>
<feBlend mode="normal" in="SourceGraphic" in2="effect1_dropShadow_477_98" result="shape"/>
</filter>
<clipPath id="clip0_477_98">
<rect width="50" height="55" fill="white"/>
</clipPath>
</defs>
</svg>
