<svg width="242" height="751" viewBox="0 0 242 751" fill="none" xmlns="http://www.w3.org/2000/svg">
<path d="M122.283 134.902C120.952 136.458 117.352 146.343 117.508 147.822C117.587 148.522 117.039 150.39 116.334 152.025C114.534 155.994 110.855 171.016 108.507 183.702C106.159 196.389 105.142 206.663 104.046 229.234C103.576 239.43 102.872 246.513 102.402 246.824C101.933 247.135 101.385 255.308 100.994 268.617L100.367 289.943L93.8711 306.677C90.349 315.861 86.8269 325.201 86.0442 327.302C84.7919 330.805 84.5571 336.331 83.7744 371.277C83.3048 393.304 82.4438 434.632 81.8177 463.119C81.1915 491.605 80.4871 524.528 80.2523 536.281C80.0175 548.033 79.6262 562.744 79.3913 568.97L79 580.334L81.7394 584.381C85.0267 589.129 85.3398 591.619 82.6786 593.02C80.2523 594.343 79.0783 596.99 79.0783 601.27C79.0783 604.306 79.4696 605.162 82.1308 607.808C85.4963 611.155 89.0967 612.556 99.8195 614.657C109.134 616.448 134.414 616.448 143.807 614.657C151.634 613.179 158.286 610.299 160.087 607.575C163.061 603.06 162.043 595.978 158.13 593.876C155.938 592.709 156.173 590.919 159.226 586.482L161.887 582.591L162.748 506.705C163.217 464.987 163.687 408.014 163.843 380.228L164 329.637L157.895 312.903C149.442 289.787 149.52 290.254 149.52 267.605C149.52 252.194 149.285 248.225 148.424 247.758C147.642 247.291 147.329 242.932 146.937 227.677C146.311 202.382 144.041 183.702 138.954 161.909C137.467 155.683 135.901 147.822 135.432 144.397C134.258 135.991 133.006 134.357 127.448 134.046C124.552 133.89 122.909 134.123 122.283 134.902Z" fill="white"/>
</svg>
