<svg width="500" height="629" viewBox="0 0 500 629" fill="none" xmlns="http://www.w3.org/2000/svg">
<path d="M252.749 44.9055C251.271 45.0691 249.62 45.7235 249.185 46.2144C247.882 47.6869 241.711 66.1748 238.234 78.7728C232.411 100.042 229.803 117.548 228.152 146.098C227.456 158.696 227.022 161.805 225.718 163.359C224.327 164.995 224.154 168.104 223.893 199.026C223.632 237.965 223.545 238.129 215.636 254.408C213.028 259.807 210.508 265.697 209.986 267.415C209.465 269.215 209.117 287.212 209.03 311.017C208.943 356.583 207.726 443.542 206.423 490.988C205.988 508.331 205.554 529.355 205.554 537.699C205.554 552.015 205.64 553.16 207.726 557.905C208.943 560.686 209.899 564.368 209.899 566.167C209.899 568.949 209.552 569.603 206.857 571.076C204.25 572.466 203.815 573.203 203.815 575.657C203.815 580.074 205.988 583.346 210.247 585.146C223.632 590.709 274.912 592.181 293.339 587.518C298.119 586.291 302.03 582.037 302.204 577.947C302.291 574.266 301.161 572.384 298.467 571.566C295.859 570.748 296.294 565.513 299.423 559.705L302.03 554.796V411.474V268.233L299.075 261.607C287.168 234.939 287.689 238.129 288.471 196.736C289.08 164.995 289.08 164.668 287.255 163.768C285.69 162.95 285.516 162.132 285.516 152.888C285.516 136.036 283.17 111.413 280.214 97.9152C275.26 74.8461 267.698 47.7687 265.699 45.8053C264.917 45.0691 256.139 44.4147 252.749 44.9055Z" fill="white"/>
<path d="M106.291 82.495C104.813 84.1319 100.816 94.5265 100.99 96.0816C101.076 96.8182 100.468 98.7826 99.686 100.501C97.6872 104.676 93.6028 120.472 90.9956 133.813C88.3885 147.154 87.2588 157.958 86.0421 181.694C85.5207 192.416 84.7386 199.864 84.2171 200.191C83.6957 200.519 83.0874 209.113 82.6529 223.108L81.9576 245.535L74.7446 263.132C70.834 272.79 66.9233 282.611 66.0543 284.821C64.6638 288.504 64.4031 294.316 63.534 331.065C63.0126 354.228 62.0567 397.689 61.3614 427.645C60.6662 457.601 59.8841 492.222 59.6234 504.581C59.3627 516.94 58.9281 532.409 58.6674 538.957L58.2329 550.906L61.2745 555.163C64.9245 560.155 65.2721 562.774 62.3174 564.248C59.6234 565.639 58.3198 568.422 58.3198 572.923C58.3198 576.115 58.7543 577.016 61.7091 579.799C65.4459 583.318 69.4435 584.791 81.3493 587.001C91.6909 588.884 119.761 588.884 130.189 587.001C138.88 585.446 146.266 582.418 148.265 579.553C151.568 574.806 150.438 567.358 146.093 565.148C143.659 563.92 143.92 562.038 147.309 557.372L150.264 553.28L151.22 473.479C151.741 429.609 152.263 369.697 152.437 340.477L152.61 287.277L145.832 269.68C136.446 245.371 136.533 245.862 136.533 222.044C136.533 205.839 136.273 201.664 135.317 201.173C134.448 200.682 134.1 196.099 133.665 180.057C132.97 153.456 130.45 133.813 124.801 110.896C123.15 104.348 121.412 96.0816 120.891 92.4803C119.587 83.6408 118.197 81.922 112.026 81.5947C108.811 81.431 106.986 81.6765 106.291 82.495Z" fill="white"/>
<path d="M399.075 15.8111C395.538 17.1998 394.934 18.4252 392.346 27.8192C384.409 56.4916 379.491 85.3273 376.385 120.29C375.695 128.377 374.66 138.097 374.056 141.937C373.452 146.593 373.279 158.193 373.624 177.308C374.228 208.839 374.056 210.146 368.275 223.869C366.809 227.382 365.17 232.937 364.738 236.123C363.703 243.965 363.099 288.403 362.581 398.436C362.323 448.51 361.891 506.019 361.632 526.277L361.201 563.036L363.272 566.222L365.428 569.49L362.926 571.695C359.734 574.473 359.648 577.985 362.495 582.642C366.895 589.667 375.695 593.098 392.95 594.65C404.769 595.63 425.303 594.568 433.326 592.607C442.816 590.157 448.51 585.827 449.632 580.273C450.408 576.515 448.424 572.431 444.887 570.47C442.471 569.081 442.299 568.836 443.679 568.183C447.648 566.059 447.561 570.388 446.612 431.764C446.181 360.206 445.405 286.769 444.973 268.553C444.11 233.427 443.679 229.179 439.365 219.622C435.742 211.371 435.224 205.245 435.742 175.837C436.001 160.97 435.828 146.838 435.397 144.387C434.965 141.937 433.671 129.765 432.55 117.431C431.342 105.096 429.962 92.1891 429.444 88.8399C428.322 80.9162 416.675 24.7151 415.554 21.2842C415.036 19.8138 413.483 17.6899 412.103 16.5463C408.997 14.1774 404.079 13.8506 399.075 15.8111Z" fill="white"/>
</svg>
