<svg width="74" height="69" viewBox="0 0 74 69" fill="none" xmlns="http://www.w3.org/2000/svg">
<g filter="url(#filter0_d_5_119)">
<path d="M19.9994 22C19.9994 20.8954 20.8948 20 21.9994 20H51.9994C53.104 20 53.9994 20.8954 53.9994 22V24.3467C53.9994 25.4512 53.104 26.3467 51.9994 26.3467H21.9994C20.8948 26.3467 19.9994 25.4512 19.9994 24.3467V22Z" fill="url(#paint0_linear_5_119)"/>
<path d="M19.9994 44C19.9994 42.8954 20.8948 42 21.9994 42H51.9994C53.104 42 53.9994 42.8954 53.9994 44V46.3467C53.9994 47.4512 53.104 48.3467 51.9994 48.3467H21.9994C20.8948 48.3467 19.9994 47.4512 19.9994 46.3467V44Z" fill="url(#paint1_linear_5_119)"/>
<path d="M19.9994 33C19.9994 31.8954 20.8948 31 21.9994 31H51.9994C53.104 31 53.9994 31.8954 53.9994 33V35.3467C53.9994 36.4512 53.104 37.3467 51.9994 37.3467H21.9994C20.8948 37.3467 19.9994 36.4512 19.9994 35.3467V33Z" fill="url(#paint2_linear_5_119)"/>
</g>
<defs>
<filter id="filter0_d_5_119" x="-0.000610352" y="0" width="74" height="68.3467" filterUnits="userSpaceOnUse" color-interpolation-filters="sRGB">
<feFlood flood-opacity="0" result="BackgroundImageFix"/>
<feColorMatrix in="SourceAlpha" type="matrix" values="0 0 0 0 0 0 0 0 0 0 0 0 0 0 0 0 0 0 127 0" result="hardAlpha"/>
<feOffset/>
<feGaussianBlur stdDeviation="10"/>
<feComposite in2="hardAlpha" operator="out"/>
<feColorMatrix type="matrix" values="0 0 0 0 0.929167 0 0 0 0 0.929167 0 0 0 0 0.929167 0 0 0 0.6 0"/>
<feBlend mode="normal" in2="BackgroundImageFix" result="effect1_dropShadow_5_119"/>
<feBlend mode="normal" in="SourceGraphic" in2="effect1_dropShadow_5_119" result="shape"/>
</filter>
<linearGradient id="paint0_linear_5_119" x1="17.4994" y1="26.1571" x2="55.4994" y2="26.1571" gradientUnits="userSpaceOnUse">
<stop stop-color="white"/>
<stop offset="0.9999" stop-color="#A7A7A7"/>
<stop offset="1" stop-color="white" stop-opacity="0"/>
</linearGradient>
<linearGradient id="paint1_linear_5_119" x1="17.4994" y1="48.1571" x2="55.4994" y2="48.1571" gradientUnits="userSpaceOnUse">
<stop stop-color="white"/>
<stop offset="0.9999" stop-color="#A7A7A7"/>
<stop offset="1" stop-color="white" stop-opacity="0"/>
</linearGradient>
<linearGradient id="paint2_linear_5_119" x1="17.4994" y1="37.1571" x2="55.4994" y2="37.1571" gradientUnits="userSpaceOnUse">
<stop stop-color="white"/>
<stop offset="0.9999" stop-color="#A7A7A7"/>
<stop offset="1" stop-color="white" stop-opacity="0"/>
</linearGradient>
</defs>
</svg>
